<?xml version="1.0" encoding="UTF-8" standalone="no"?>
<!-- Created with Inkscape (http://www.inkscape.org/) -->

<svg
   xmlns:dc="http://purl.org/dc/elements/1.1/"
   xmlns:cc="http://creativecommons.org/ns#"
   xmlns:rdf="http://www.w3.org/1999/02/22-rdf-syntax-ns#"
   xmlns:svg="http://www.w3.org/2000/svg"
   xmlns="http://www.w3.org/2000/svg"
   xmlns:sodipodi="http://sodipodi.sourceforge.net/DTD/sodipodi-0.dtd"
   xmlns:inkscape="http://www.inkscape.org/namespaces/inkscape"
   width="171.30276mm"
   height="89.548889mm"
   viewBox="0 0 171.30276 89.548889"
   version="1.1"
   id="svg8"
   inkscape:version="0.92.2 5c3e80d, 2017-08-06"
   sodipodi:docname="hp.svg">
  <defs
     id="defs2" />
  <sodipodi:namedview
     id="base"
     pagecolor="#ffffff"
     bordercolor="#666666"
     borderopacity="1.0"
     inkscape:pageopacity="0.0"
     inkscape:pageshadow="2"
     inkscape:zoom="0.91738281"
     inkscape:cx="390.9976"
     inkscape:cy="195.4959"
     inkscape:document-units="mm"
     inkscape:current-layer="layer1"
     showgrid="false"
     fit-margin-top="0"
     fit-margin-left="0"
     fit-margin-right="0"
     fit-margin-bottom="0"
     inkscape:window-width="1440"
     inkscape:window-height="810"
     inkscape:window-x="0"
     inkscape:window-y="1"
     inkscape:window-maximized="1" />
  <metadata
     id="metadata5">
    <rdf:RDF>
      <cc:Work
         rdf:about="">
        <dc:format>image/svg+xml</dc:format>
        <dc:type
           rdf:resource="http://purl.org/dc/dcmitype/StillImage" />
        <dc:title></dc:title>
      </cc:Work>
    </rdf:RDF>
  </metadata>
  <g
     inkscape:label="Layer 1"
     inkscape:groupmode="layer"
     id="layer1"
     transform="translate(-39.397366,-94.281688)">
    <text
       xml:space="preserve"
       style="font-style:normal;font-weight:normal;font-size:10.58333302px;line-height:1.25;font-family:sans-serif;letter-spacing:0px;word-spacing:0px;fill:#000000;fill-opacity:1;stroke:none;stroke-width:0.26458332"
       x="38.358669"
       y="102.32254"
       id="text859"><tspan
         sodipodi:role="line"
         id="tspan857"
         x="38.358669"
         y="102.32254"
         style="stroke-width:0.26458332">Hello Harry Potter.</tspan></text>
    <text
       xml:space="preserve"
       style="font-style:normal;font-weight:normal;font-size:10.58333302px;line-height:1.25;font-family:sans-serif;letter-spacing:0px;word-spacing:0px;fill:#000000;fill-opacity:1;stroke:none;stroke-width:0.26458332"
       x="54.798096"
       y="122.79973"
       id="text863"><tspan
         sodipodi:role="line"
         id="tspan861"
         x="54.798096"
         y="122.79973"
         style="stroke-width:0.26458332">My name is Tom Riddle.</tspan></text>
    <text
       xml:space="preserve"
       style="font-style:normal;font-weight:normal;font-size:10.58333302px;line-height:1.25;font-family:sans-serif;letter-spacing:0px;word-spacing:0px;fill:#000000;fill-opacity:1;stroke:none;stroke-width:0.26458332"
       x="41.242779"
       y="142.70009"
       id="text867"><tspan
         sodipodi:role="line"
         id="tspan865"
         x="41.242779"
         y="142.70009"
         style="stroke-width:0.26458332">How did you come by my diary?</tspan></text>
    <path
       style="fill:#004d00;fill-opacity:1;stroke:#000000;stroke-width:0.26458332px;stroke-linecap:butt;stroke-linejoin:miter;stroke-opacity:1"
       d="m 62.296785,172.11802 c 0,0.48068 0,0.96137 0,1.44205 0,0.0961 -0.06798,0.22043 0,0.28841 0.06798,0.068 0.22043,-0.068 0.288409,0 0.06798,0.068 -0.06798,0.22044 0,0.28841 0.06798,0.068 0.220433,-0.068 0.288412,0 0.152006,0.15201 0.136406,0.42482 0.288412,0.57683 0.06798,0.068 0.220432,-0.068 0.288412,0 0.152005,0.152 0.288409,0.36185 0.288409,0.57682 0,0.0961 -0.384548,0 -0.288409,0 0.192272,0 0.440861,-0.13596 0.57682,0 0.09614,0.0961 -0.384548,0.19227 -0.288411,0.28841 0.135958,0.13596 0.404846,-0.086 0.576823,0 0.08599,0.043 -0.06798,0.22043 0,0.28841 0.355171,0.35517 0.576821,-0.88017 0.576821,0.57682 0,0.0961 -0.288409,0.0961 -0.288409,0 0,-0.0961 0.202422,-0.043 0.288409,0 0.121605,0.0608 0.166806,0.22761 0.288411,0.28841 0.08599,0.043 0.288412,-0.0961 0.288412,0 0,0.13596 -0.384548,0.19228 -0.288412,0.28841 0.135959,0.13596 0.394415,-0.0608 0.576824,0 0.128979,0.043 0.288409,0.15246 0.288409,0.28842 0,0.0961 -0.356389,-0.068 -0.288409,0 0.152006,0.152 0.404847,0.15943 0.576821,0.28841 0.217532,0.16315 0.333613,0.45521 0.576823,0.57682 0.08599,0.043 -0.09614,-0.28841 0,-0.28841 0.09614,0 -0.08599,0.24542 0,0.28841 0.171974,0.086 0.404847,-0.086 0.576821,0 0.08599,0.043 0,0.19227 0,0.28841 0.192275,0 0.394414,-0.0608 0.576823,0 0.628306,-0.1078 0.09614,0.48068 0.288409,0.57682 0.171977,0.086 0.384548,0 0.576824,0 0.09614,0 0.288411,-0.0961 0.288411,0 0,0.13596 -0.384548,0.19228 -0.288411,0.28841 0.135958,0.13596 0.384548,0 0.57682,0 0.09614,0 0.288412,-0.0961 0.288412,0 0,0.0961 -0.356391,-0.068 -0.288412,0 0.374399,0.3744 0.696728,0.28841 1.153645,0.28841 0.09614,0 0.202424,-0.043 0.288411,0 0.121605,0.0608 0.166807,0.22761 0.288412,0.28842 0.08599,0.043 0.192273,0 0.288412,0 0.09614,0 0.192272,0 0.288409,0 0.09614,0 0.288411,-0.0961 0.288411,0 0,0.13595 -0.384548,0.19227 -0.288411,0.2884 0.135959,0.13596 0.384548,0 0.576823,0 0.67296,0 1.345917,0 2.018877,0 0.314917,0 1.255538,0.0622 1.442056,0 0.203938,-0.068 0.372885,-0.22043 0.57682,-0.2884 0.09121,-0.0304 0.220433,0.068 0.288412,0 0.06798,-0.068 -0.06798,-0.22044 0,-0.28842 0.06798,-0.068 0.202425,0.043 0.288412,0 0.121605,-0.0608 0.175286,-0.21299 0.288412,-0.28841 0.14524,-0.63541 0.593314,-0.15245 0.865232,-0.28841 0.121605,-0.0608 0.166807,-0.22761 0.288412,-0.28841 0.08599,-0.043 0.220429,0.068 0.288409,0 0.06798,-0.068 -0.08599,-0.24542 0,-0.28841 0.171976,-0.086 0.394417,0.0608 0.576823,0 0.128982,-0.043 0.166807,-0.22761 0.288412,-0.28841 0.08599,-0.043 0.202422,0.043 0.288409,0 0.24321,-0.12161 0.333613,-0.45522 0.576823,-0.57682 0.08599,-0.043 0.220433,0.068 0.288412,0 0.06798,-0.068 -0.06798,-0.22044 0,-0.28841 0.152006,-0.15201 0.397957,-0.16917 0.576821,-0.28842 0.113125,-0.0754 0.166806,-0.2276 0.288412,-0.28841 0.08599,-0.043 0.220432,0.068 0.288411,0 0.480685,-0.48068 -1.057508,-0.28841 0.576821,-0.28841 0.09614,0 -0.356391,0.068 -0.288412,0 0.152006,-0.152 0.424818,-0.1364 0.576824,-0.28841 0.06798,-0.068 -0.192276,0 -0.288412,0 0.192275,-0.0961 0.424815,-0.1364 0.576823,-0.28841 0.06798,-0.068 -0.356391,0.068 -0.288411,0 0.152006,-0.15201 0.424815,-0.1364 0.576821,-0.28841 0.06798,-0.068 -0.08599,-0.24542 0,-0.28841 0.171976,-0.086 0.404846,0.086 0.576823,0 0.08599,-0.043 -0.06798,-0.22043 0,-0.28841 0.152006,-0.15201 0.424815,-0.13641 0.576821,-0.28841 0.06798,-0.068 -0.08599,-0.24542 0,-0.28842 0.171976,-0.086 0.394414,0.0608 0.576823,0 0.128982,-0.043 0.166807,-0.2276 0.288412,-0.28841 0.08599,-0.043 0.192273,0 0.288409,0 0.09614,-0.19227 0.136406,-0.42481 0.288412,-0.57682 0.135958,-0.13596 0.394414,0.0608 0.576823,0 0.192273,-0.0961 0.384548,-0.19227 0.576821,-0.28841 0,-0.0961 -0.06798,-0.22043 0,-0.28841 0.06798,-0.068 0.202425,0.043 0.288411,0 0.121606,-0.0608 0.156512,-0.25544 0.288409,-0.28841 0.279803,-0.07 0.625261,0.15998 0.865236,0 0.15998,-0.10665 -0.135959,-0.44087 0,-0.57682 0.09614,-0.0961 0.152453,0.28841 0.288409,0.28841 0.135958,0 0.156514,-0.25544 0.288411,-0.28841 0.2798,-0.07 0.582425,0.0566 0.865233,0 0.210796,-0.0422 0.368273,-0.23628 0.576823,-0.28841 0.191352,-0.0478 1.485781,0 1.730465,0 1.153644,0 2.307289,0 3.460933,0 0.161144,0 1.271857,-0.0567 1.442056,0 0.192275,0.0961 0.384548,0.19227 0.576823,0.28841 0,0.0961 -0.06798,0.22043 0,0.28841 0.152006,0.152 0.397957,0.16917 0.576821,0.28841 0.113125,0.0754 0.166806,0.22761 0.288411,0.28841 0.08599,0.043 0.220433,-0.068 0.288412,0 0.355172,0.35517 -0.880176,0.57682 0.576821,0.57682 0.09614,0 -0.09614,-0.28841 0,-0.28841 0.135959,0 0.192275,0.19227 0.288412,0.28841 0.09614,0.0961 0.22761,0.16681 0.28841,0.28841 0.043,0.086 -0.09614,0.28841 0,0.28841 0.13596,0 0.16681,-0.34921 0.28841,-0.28841 0.19228,0.0961 0.13641,0.42482 0.28841,0.57682 0.068,0.068 0.20243,-0.043 0.28841,0 0.24321,0.12161 0.35058,0.426 0.57682,0.57683 0.17887,0.11924 0.42482,0.1364 0.57683,0.28841 0.068,0.068 -0.0961,0.28841 0,0.28841 0.21497,0 0.42481,-0.44042 0.57682,-0.28841 0.152,0.152 -0.38455,0.38455 -0.28841,0.57682 0.086,0.17198 0.39441,-0.0608 0.57682,0 0.72938,0.24313 -0.25625,0.86523 0.86523,0.86523 0.13596,0 0.19228,-0.38455 0.28841,-0.28841 0.13596,0.13596 -0.0608,0.39442 0,0.57682 0.19131,0.57393 0.26919,0.1346 0.57683,0.28842 0.16025,0.0801 0.48382,0.57682 0.57682,0.57682 0.0961,0 -0.0961,-0.28841 0,-0.28841 0.002,0 0.86523,0.35726 0.86523,0.57682 0,0.13596 -0.42437,0.28841 -0.28841,0.28841 2.69184,0 -1.44205,-0.86523 0.86523,0.28841 0.12161,0.0608 0.19228,-0.38455 0.28842,-0.28841 0.13595,0.13596 -0.086,0.40485 0,0.57682 0.043,0.086 0.20242,-0.043 0.28841,0 0.1216,0.0608 0.15245,0.28841 0.28841,0.28841 0.13596,0 0.15245,-0.28841 0.28841,-0.28841 0.27191,0 0.3049,0.57682 0.57682,0.57682 0.13596,0 0.15245,-0.28841 0.28841,-0.28841 0.13596,0 0.16681,0.22761 0.28841,0.28841 0.0855,0.0428 1.45151,0 1.73047,0 0.48069,0 0.96137,0 1.44205,0 0.19228,0 0.39442,0.0608 0.57683,0 0.12898,-0.043 0.1668,-0.2276 0.28841,-0.28841 0.086,-0.043 0.20242,0.043 0.28841,0 0.1216,-0.0608 0.1668,-0.22761 0.28841,-0.28841 0.086,-0.043 0.20242,0.043 0.28841,0 0.1216,-0.0608 0.16681,-0.22761 0.28841,-0.28841 0.086,-0.043 0.22043,0.068 0.28841,0 0.15201,-0.152 0.0961,-0.48069 0.28841,-0.57682 0.12161,-0.0608 0.19228,0.38455 0.28842,0.28841 0.13595,-0.13596 -0.13596,-0.44087 0,-0.57682 0.0961,-0.0961 0.15245,0.28841 0.2884,0.28841 0.13596,0 0.17529,-0.213 0.28842,-0.28841 0.17886,-0.11925 0.42481,-0.13641 0.57682,-0.28841 0.068,-0.068 -0.068,-0.22044 0,-0.28841 0.068,-0.068 0.22043,0.068 0.28841,0 0.152,-0.15201 0.1364,-0.42482 0.28841,-0.57683 0.068,-0.068 -0.0961,0.28841 0,0.28841 0.21497,0 0.42482,-0.1364 0.57682,-0.28841 0.48069,-0.48068 -1.0575,-0.28841 0.57682,-0.28841 0.0961,0 -0.28841,0.0961 -0.28841,0 0,-0.21497 0.10955,-0.45758 0.28841,-0.57682 0.15999,-0.10665 0.38455,0 0.57683,0 0.0961,0 -0.28841,0.0961 -0.28841,0 0,-0.21497 0.1364,-0.42482 0.28841,-0.57682 0.068,-0.068 0,0.38455 0,0.28841 0,-0.19228 -0.17198,-0.49084 0,-0.57682 0.19227,-0.0961 0.36185,0.28841 0.57682,0.28841 0.13596,0 -0.28841,-0.15245 -0.28841,-0.28841 0,-0.0961 0.24541,0.086 0.28841,0 0.13596,-1.77029 -0.068,-0.22044 0,-0.28841 0.152,-0.15201 0.1364,-0.42482 0.28841,-0.57683 0.068,-0.068 0.0961,0.28841 0,0.28841 -0.0961,0 -0.068,-0.22043 0,-0.28841 0.068,-0.068 0.24542,0.086 0.28841,0 0.086,-0.17197 -0.17197,-0.49083 0,-0.57682 0.19227,-0.0961 0.36185,0.28841 0.57682,0.28841 0.13596,0 -0.28841,-0.15245 -0.28841,-0.28841 0,-0.0961 0.24542,0.086 0.28841,0 0.086,-0.17197 0,-0.38455 0,-0.57682 0,-0.0961 -0.0961,0.28841 0,0.28841 0.13596,0 0.17529,-0.213 0.28841,-0.28841 0.17887,-0.11924 0.42482,-0.13641 0.57683,-0.28841 0.068,-0.068 -0.28841,0.0961 -0.28841,0 0,-0.0961 0.22043,0.068 0.28841,0 0.13595,-0.13596 -0.19228,-0.57682 0,-0.57682 0.42437,0 0.28841,1.02451 0.28841,-0.28841 0,-0.0961 -0.086,0.24541 0,0.28841 0.17197,0.086 0.38455,0 0.57682,0 0.0961,0 -0.28841,0.0961 -0.28841,0 0,-0.21497 0.1364,-0.42482 0.28841,-0.57683 0.17236,-0.17236 -0.31174,1.2003 0.28841,0 0.043,-0.086 -0.0961,-0.28841 0,-0.28841 1.7884,0 0.28841,0.43662 0.28841,0.28841 0,-0.13595 0.19228,-0.19227 0.28841,-0.28841 0.0961,-0.0961 0.15246,-0.28841 0.28841,-0.28841 0.0961,0 -0.068,0.22043 0,0.28841 0.068,0.068 0.22043,0.068 0.28841,0 0.13596,-0.13596 -0.19227,-0.57682 0,-0.57682 0.13596,0 0.15246,0.28841 0.28842,0.28841 0.27191,0 0.3049,-0.57682 0.57682,-0.57682 0.0961,0 -0.068,0.22043 0,0.28841 0.22546,0.22546 0.50173,-0.25087 0.57682,-0.28841 0.0746,-0.0373 1.52604,0 1.73047,0 0.0961,0 0.22043,-0.068 0.28841,0 0.068,0.068 -0.068,0.22043 0,0.28841 0.068,0.068 0.19227,0 0.28841,0 0.19227,0 0.38455,0 0.57682,0 0.0961,0 -0.28841,-0.0961 -0.28841,0 0,0.60015 0.40446,0.11605 0.57682,0.28841 0.068,0.068 0.0961,0.28841 0,0.28841 -0.0961,0 -0.068,-0.22043 0,-0.28841 0.068,-0.068 0.19228,0 0.28841,0 0.0961,0 0.22043,-0.068 0.28841,0 0.068,0.068 -0.068,0.22043 0,0.28841 0.068,0.068 0.22044,-0.068 0.28842,0 0.068,0.068 0.0961,0.28841 0,0.28841 -0.0961,0 -0.068,-0.22043 0,-0.28841 0.068,-0.068 0.22043,-0.068 0.2884,0 0.13596,0.13596 -0.19227,0.57683 0,0.57683 0.13596,0 0.15246,-0.28842 0.28842,-0.28842 0.13596,0 0.2276,0.16681 0.28841,0.28842 0.043,0.086 -0.0961,0.28841 0,0.28841 0.13596,0 0.15245,-0.28841 0.28841,-0.28841 0.23131,0 0.51973,0.57682 0.28841,0.57682 -0.0961,0 -0.0961,-0.28841 0,-0.28841 0.13596,0 0.22761,0.1668 0.28841,0.28841 0.043,0.086 -0.0961,0.28841 0,0.28841 0.13596,0 0.15245,-0.28841 0.28841,-0.28841 0.0961,0 0,0.19227 0,0.28841 0,0.76909 -0.0961,-0.0961 0.28841,0.28841 0.068,0.068 -0.068,0.22043 0,0.28841 0.068,0.068 0.22043,-0.068 0.28841,0 0.068,0.068 0.0961,0.28841 0,0.28841 -0.0961,0 0,-0.38455 0,-0.28841 0,0.19227 0,0.38455 0,0.57682 0,0.0961 -0.068,-0.22043 0,-0.28841 0.068,-0.068 0.22044,-0.068 0.28841,0 0.068,0.068 0,0.19228 0,0.28841 0,0.0961 0.0961,0.28841 0,0.28841 -0.0961,0 -0.0961,-0.28841 0,-0.28841 0.0961,0 -0.043,0.20242 0,0.28841 0.0608,0.12161 0.15246,0.28841 0.28842,0.28841 0.0961,0 -0.0961,-0.28841 0,-0.28841 0.0961,0 0,0.19228 0,0.28841 0,0.0961 0.0961,0.28842 0,0.28842 -0.0961,0 -0.0961,-0.28842 0,-0.28842 0.0961,0 0,0.19228 0,0.28842 0,0.0961 0,0.19227 0,0.28841 0,0.0961 0.0961,0.28841 0,0.28841 -0.0961,0 -0.0961,-0.28841 0,-0.28841 0.0961,0 0,0.19227 0,0.28841 0,0.0961 0.0961,0.28841 0,0.28841 -0.0961,0 -0.0961,-0.28841 0,-0.28841 0.0961,0 0,0.19227 0,0.28841 0,0.0961 0.0961,0.28841 0,0.28841 -0.0961,0 -0.0961,-0.28841 0,-0.28841 0.0961,0 0,0.19227 0,0.28841 0,0.0961 0.0961,0.28841 0,0.28841 -0.0961,0 -0.0961,-0.28841 0,-0.28841 0.21497,0 -0.0735,0.57682 -0.28842,0.57682 -0.0961,0 0.068,-0.22043 0,-0.28841 -0.068,-0.068 -0.19227,0 -0.28841,0 -0.48068,0 -0.96137,0 -1.44205,0 -0.0961,0 0.22043,0.068 0.28841,0 0.068,-0.068 0.068,-0.22043 0,-0.28841 -0.15201,-0.15201 -0.36185,-0.28841 -0.57682,-0.28841 -0.13596,0 0.15245,0.28841 0.28841,0.28841 0.0961,0 0.068,-0.22043 0,-0.28841 -0.068,-0.068 -0.22043,0.068 -0.28841,0 -0.068,-0.068 -0.0961,-0.28841 0,-0.28841 0.0961,0 0.0961,0.28841 0,0.28841 -0.21497,0 -0.50338,-0.57682 -0.28841,-0.57682 0.0961,0 0.0961,0.28841 0,0.28841 -0.21497,0 -0.50338,-0.57682 -0.28842,-0.57682 0.0961,0 0,0.19227 0,0.28841 0,0.19227 0,0.38454 0,0.57682 0,0.38455 -0.0961,-1.05751 0.28842,-0.28841 0.086,0.17197 0,0.38455 0,0.57682 0,0.0961 0,-0.38455 0,-0.28841 0,0.19227 0,0.38455 0,0.57682 0,0.0961 0,-0.38455 0,-0.28841 0,0.19227 0,0.38455 0,0.57682 0,0.0961 -0.0961,-0.28841 0,-0.28841 0.21497,0 0.50338,0.57682 0.28841,0.57682 -0.0961,0 0,-0.38455 0,-0.28841 0,0.19228 0,0.38455 0,0.57682 0,0.0961 -0.0961,-0.28841 0,-0.28841 0.0961,0 0,0.19228 0,0.28841 0,0.0961 0.0961,0.28842 0,0.28842 -0.19228,0 0.13596,-0.44087 0,-0.57683 -0.068,-0.068 -0.22043,0.068 -0.28841,0 -0.67638,-0.67637 1.02451,0 -0.28842,0 -0.13595,0 -0.2884,-0.15245 -0.2884,-0.28841 0,-0.0961 0.22043,0.068 0.2884,0 0.068,-0.068 0.0961,-0.28841 0,-0.28841 -0.13595,0 -0.15245,0.28841 -0.2884,0.28841 -0.13596,0 -0.28842,-0.15245 -0.28842,-0.28841 0,-0.95654 0.54042,0 0.28842,0 -0.0961,0 0.043,-0.20242 0,-0.28841 -0.0608,-0.12161 -0.15246,-0.28841 -0.28842,-0.28841 -0.60015,0 -0.252,0.54042 0,0.28841 0.13596,-0.13596 -0.19227,-0.57682 0,-0.57682 0.0961,0 0.086,0.24542 0,0.28841 -0.17197,0.086 -0.44086,0.13596 -0.57682,0 -0.0961,-0.0961 0.22761,-0.16681 0.28841,-0.28841 0.043,-0.086 0.0961,-0.28841 0,-0.28841 -0.21497,0 -0.36185,0.28841 -0.57682,0.28841 -0.13113,0 0.63314,-0.40446 0.28841,-0.57682 -0.17197,-0.086 -0.38455,0 -0.57682,0 -0.0961,0 0.19227,0 0.28841,0 0,-0.0961 0.0961,-0.28842 0,-0.28842 -0.13596,0 -0.15245,0.28842 -0.28841,0.28842 -0.13596,0 -0.28841,-0.15246 -0.28841,-0.28842 0,-0.0961 0.22043,0.068 0.28841,0 0.068,-0.068 0.0961,-0.28841 0,-0.28841 -0.21497,0 -0.36185,0.28841 -0.57682,0.28841 -0.13596,0 0.22761,-0.1668 0.28841,-0.28841 0.043,-0.086 0.0961,-0.28841 0,-0.28841 -0.21497,0 -0.42482,0.13641 -0.57682,0.28841 -0.068,0.068 0.22043,0.068 0.28841,0 0.068,-0.068 0.068,-0.22043 0,-0.28841 -0.13596,-0.13596 -0.57682,0.19228 -0.57682,0 0,-0.60015 0.54041,-0.252 0.28841,0 -0.068,0.068 -0.19228,0 -0.28841,0 -0.0961,0 -0.28842,0.0961 -0.28842,0 0,-0.13596 0.38455,-0.19227 0.28842,-0.28841 -0.13596,-0.13596 -0.38455,0 -0.57683,0 -0.0961,0 0.28841,-0.0961 0.28841,0 0,0.0961 -0.19227,0 -0.28841,0 -0.19227,0 -0.38455,0 -0.57682,0 -0.0961,0 0.38455,0 0.28841,0 -0.19227,0 -0.38454,0 -0.57682,0 -0.0961,0 0.38455,0 0.28841,0 -0.19227,0 -0.38455,0 -0.57682,0 -0.0961,0 0.28841,-0.0961 0.28841,0 0,0.0961 -0.19227,0 -0.28841,0 -0.0961,0 -0.28841,0.0961 -0.28841,0 0,-0.0961 0.38455,0 0.28841,0 -1.8907,0 1.02546,0 -0.86523,0 -0.0961,0 0.28841,-0.0961 0.28841,0 0,0.13596 -0.16681,0.22761 -0.28841,0.28841 -0.17198,0.086 -0.57683,-0.19227 -0.57683,0 0,0.13596 0.22761,0.16681 0.28841,0.28841 0.043,0.086 0.0961,0.28841 0,0.28841 -0.13595,0 -0.1668,-0.2276 -0.28841,-0.28841 -0.086,-0.043 -0.28841,-0.0961 -0.28841,0 0,0.13596 0.28841,0.15246 0.28841,0.28841 0,0.13596 -0.15245,0.28842 -0.28841,0.28842 -0.0961,0 0.068,-0.22044 0,-0.28842 -0.068,-0.068 -0.28841,-0.0961 -0.28841,0 0,0.21497 0.44042,0.42482 0.28841,0.57683 -0.152,0.152 -0.42481,-0.13641 -0.57682,-0.28841 -0.068,-0.068 0.28841,-0.0961 0.28841,0 0,0.21496 -0.0961,0.48068 -0.28841,0.57682 -0.12161,0.0608 -0.28841,-0.15245 -0.28841,-0.28841 0,-0.0961 0.24542,-0.086 0.28841,0 0.086,0.17197 0.13596,0.44086 0,0.57682 -0.0961,0.0961 -0.16681,-0.22761 -0.28841,-0.28841 -0.086,-0.043 -0.28841,-0.0961 -0.28841,0 0,1.457 0.43662,0.43662 0.28841,0.28841 -0.068,-0.068 -0.19227,0 -0.28841,0 -0.0961,0 -0.28841,-0.0961 -0.28841,0 0,0.21497 0.1364,0.42482 0.28841,0.57682 0.068,0.068 0.068,-0.22043 0,-0.28841 -0.068,-0.068 -0.22043,-0.068 -0.28841,0 -0.15201,0.15201 -0.28841,0.36185 -0.28841,0.57682 0,0.13596 0.28841,-0.15245 0.28841,-0.28841 0,-0.0961 -0.22044,-0.068 -0.28841,0 -0.15201,0.15201 -0.28841,0.36185 -0.28841,0.57682 0,0.13596 0.28841,-0.42437 0.28841,-0.28841 0,0.21497 -0.13641,0.42482 -0.28841,0.57682 -0.068,0.068 0.068,-0.22043 0,-0.28841 -0.068,-0.068 -0.28842,-0.0961 -0.28842,0 0,0.21497 0.28842,0.36186 0.28842,0.57683 0,0.13595 -0.16681,-0.22761 -0.28842,-0.28842 -0.086,-0.043 -0.28841,-0.0961 -0.28841,0 0,0.21497 0.13641,0.42482 0.28841,0.57683 0.12819,0.12818 -0.032,-0.80115 -0.28841,-0.28841 -0.086,0.17197 0.13596,0.44086 0,0.57682 -0.0961,0.0961 -0.28841,-0.15246 -0.28841,-0.28841 0,-0.0961 0.28841,-0.0961 0.28841,0 0,0.0961 -0.24541,-0.086 -0.28841,0 -0.086,0.17197 0.13596,0.44086 0,0.57682 -0.0961,0.0961 -0.28841,-0.15246 -0.28841,-0.28841 0,-0.0961 0.33141,-0.086 0.28841,0 -0.1216,0.24321 -0.38455,0.38454 -0.57682,0.57682 -0.0961,0.0961 0.19227,-0.19228 0.28841,-0.28841 -0.0961,0 -0.22043,-0.068 -0.28841,0 -0.15201,0.152 -0.28841,0.36185 -0.28841,0.57682 0,0.13596 0.15245,-0.28841 0.28841,-0.28841 0.0961,0 0.086,0.24542 0,0.28841 -0.17198,0.086 -0.38455,0 -0.57682,0 -0.0961,0 0.24541,-0.086 0.28841,0 0.086,0.17198 0.13596,0.44086 0,0.57682 -0.0961,0.0961 -0.16681,-0.22761 -0.28841,-0.28841 -0.086,-0.043 -0.28841,-0.0961 -0.28841,0 0,0.21497 0.44041,0.42482 0.28841,0.57682 -0.15201,0.15201 -0.42482,-0.1364 -0.57682,-0.28841 -0.12819,-0.12818 0.80114,0.032 0.28841,0.28841 -0.17198,0.086 -0.38455,0 -0.57683,0 -0.0961,0 0.28842,-0.0961 0.28842,0 0,0.21497 -0.0961,0.48069 -0.28842,0.57682 -0.1216,0.0608 -0.28841,-0.15245 -0.28841,-0.2884 0,-0.0961 0.35639,-0.068 0.28841,0 -0.152,0.152 -0.42481,0.1364 -0.57682,0.2884 -0.068,0.068 0.38455,0 0.28841,0 -0.19227,0 -0.49083,-0.17197 -0.57682,0 -0.0961,0.19228 0.44042,0.42482 0.28841,0.57683 -0.152,0.152 -0.42481,-0.13641 -0.57682,-0.28841 -0.068,-0.068 0.38455,0 0.28841,0 -0.19227,0 -0.49083,-0.17198 -0.57682,0 -0.0961,0.19227 0.28841,0.36185 0.28841,0.57682 0,0.13596 -0.16681,-0.22761 -0.28841,-0.28841 -0.086,-0.043 -0.28841,0.0961 -0.28841,0 0,-0.0961 0.28841,-0.0961 0.28841,0 0,0.13596 -0.19227,0.19227 -0.28841,0.28841 -0.0961,0.0961 -0.15245,0.28841 -0.28841,0.28841 -0.0961,0 0.0961,-0.28841 0,-0.28841 -0.13596,0 -0.28841,0.15245 -0.28841,0.28841 0,0.0961 0.28841,-0.0961 0.28841,0 0,0.0961 -0.19228,0 -0.28841,0 -0.0961,0 -0.28842,0.0961 -0.28842,0 0,-0.0961 0.28842,-0.0961 0.28842,0 0,0.0961 -0.20243,-0.043 -0.28842,0 -0.1216,0.0608 -0.1668,0.22761 -0.2884,0.28841 -0.086,0.043 -0.22044,-0.068 -0.28842,0 -0.17236,0.17236 0.31174,0.57682 -0.28841,0.57682 -0.38455,0 0.48069,-0.67296 -0.28841,-0.28841 -0.1216,0.0608 -0.22761,0.16681 -0.28841,0.28841 -0.043,0.086 0.0961,0.28841 0,0.28841 -0.13596,0 -0.28841,-0.15245 -0.28841,-0.28841 0,-0.0961 0.38455,0 0.28841,0 -1.85865,0 0.51273,0 -0.57682,0 -0.0961,0 -0.19227,0 -0.28841,0 -0.0961,0 -0.28841,0.0961 -0.28841,0 0,-0.0961 0.35639,-0.068 0.28841,0 -0.15201,0.15201 -0.42482,0.13641 -0.57682,0.28841 -0.068,0.068 0.28841,-0.0961 0.28841,0 0,0.0961 -0.19228,0 -0.28841,0 -0.0961,0 -0.28842,0.0961 -0.28842,0 0,-0.0961 0.38455,0 0.28842,0 -0.19228,0 -0.38455,0 -0.57683,0 -0.0961,0 0.28841,-0.0961 0.28841,0 0,0.0961 -0.19227,0 -0.28841,0 -0.0961,0 -0.19227,0 -0.28841,0 -0.0961,0 -0.19227,0 -0.28841,0 -0.0961,0 -0.28841,0.0961 -0.28841,0 0,-0.0961 0.38455,0 0.28841,0 -0.19227,0 -0.38455,0 -0.57682,0 -0.0961,0 0.28841,-0.0961 0.28841,0 0,0.0961 -0.22043,-0.068 -0.28841,0 -0.38455,0.38455 0.48069,0.28841 -0.28841,0.28841 -0.19228,0 -0.38455,0 -0.57682,0 -0.0961,0 -0.28842,0.0961 -0.28842,0 0,-0.0961 0.28842,-0.0961 0.28842,0 0,0.0961 -0.19228,0 -0.28842,0 -0.0961,0 -0.19227,0 -0.28841,0 -0.0961,0 -0.19227,0 -0.28841,0 -0.0961,0 -0.28841,0.0961 -0.28841,0 0,-0.0961 0.28841,-0.0961 0.28841,0 0,0.0961 -0.19227,0 -0.28841,0 -0.19227,0 -0.38455,0 -0.57682,0 -0.7691,0 0.0961,0.0961 -0.28841,-0.28841 -0.068,-0.068 -0.28841,0.0961 -0.28841,0 0,-0.0961 0.38455,0 0.28841,0 -0.19228,0 -0.38455,0 -0.57682,0 -0.0961,0 -0.22043,0.068 -0.28841,0 -0.068,-0.068 0.068,-0.22043 0,-0.28841 -0.13596,-0.13596 -0.44087,0.13596 -0.57683,0 -0.068,-0.068 -0.0961,-0.28841 0,-0.28841 0.0961,0 0.068,0.22043 0,0.28841 -0.068,0.068 -0.22043,0.068 -0.28841,0 -0.068,-0.068 0.068,-0.22043 0,-0.28841 -0.068,-0.068 -0.22043,0.068 -0.28841,0 -0.068,-0.068 -0.0961,-0.28841 0,-0.28841 0.0961,0 0.068,0.22043 0,0.28841 -0.068,0.068 -0.22043,0.068 -0.28841,0 -0.068,-0.068 0.068,-0.22043 0,-0.28841 -0.068,-0.068 -0.22043,0.068 -0.28841,0 -0.38455,-0.38455 0.48068,-0.28841 -0.28841,-0.28841 -0.7691,0 0.0961,0.0961 -0.28841,-0.28841 -0.13596,-0.13596 -0.44087,0.13596 -0.57683,0 -0.068,-0.068 -0.0961,-0.28841 0,-0.28841 0.0961,0 0.0961,0.28841 0,0.28841 -0.27191,0 -0.3049,-0.57682 -0.57682,-0.57682 -0.0961,0 0.0961,0.28841 0,0.28841 -0.093,0 -0.41657,-0.4967 -0.57682,-0.57683 -0.086,-0.043 -0.22043,0.068 -0.28841,0 -0.068,-0.068 0.086,-0.24541 0,-0.2884 -0.17198,-0.086 -0.38455,0 -0.57682,0 -0.0961,0 0.28841,-0.0961 0.28841,0 0,0.0961 -0.22043,0.068 -0.28841,0 -0.068,-0.068 0.068,-0.22044 0,-0.28842 -0.068,-0.068 -0.22043,0.068 -0.28841,0 -0.068,-0.068 -0.0961,-0.28841 0,-0.28841 0.0961,0 0.0961,0.28841 0,0.28841 -0.13596,0 -0.22761,-0.1668 -0.28842,-0.28841 -0.043,-0.086 0.086,-0.24541 0,-0.28841 -0.17197,-0.086 -0.38454,0 -0.57682,0 -0.0961,0 0.38455,0 0.28842,0 -0.19228,0 -0.38455,0 -0.57683,0 -0.38455,0 1.05751,0.0961 0.28841,-0.28841 -0.17197,-0.086 -0.38454,0 -0.57682,0 -0.384548,0 1.05751,0.0961 0.28841,-0.28841 -0.17197,-0.086 -0.38455,0 -0.57682,0 -0.09614,0 0.28841,-0.0961 0.28841,0 0,0.0961 -0.22043,0.068 -0.28841,0 -0.068,-0.068 0.068,-0.22043 0,-0.28841 -0.068,-0.068 -0.220431,0.068 -0.28841,0 -0.06798,-0.068 0.06798,-0.22043 0,-0.28841 -0.135959,-0.13596 -0.576824,0.19227 -0.576824,0 0,-0.0961 0.220433,0.068 0.288412,0 0.06798,-0.068 0.08599,-0.24542 0,-0.28841 -0.171974,-0.086 -0.384548,0 -0.576821,0 -0.384548,0 1.057505,0.0961 0.288409,-0.28841 -0.171974,-0.086 -0.384548,0 -0.576821,0 -0.09614,0 0.384549,0 0.288412,0 -0.192275,0 -0.440864,0.13595 -0.576823,0 -0.09614,-0.0961 0.22761,-0.16681 0.288411,-0.28842 0.043,-0.086 0.09614,-0.28841 0,-0.28841 -0.214968,0 -0.424815,0.13641 -0.576823,0.28841 -0.128183,0.12819 0.801143,-0.032 0.288412,-0.28841 -0.171974,-0.086 -0.384548,0 -0.576821,0 -0.09614,0 0.288409,-0.0961 0.288409,0 0,0.0961 -0.192273,0 -0.288409,0 -0.09614,0 -0.288412,0.0961 -0.288412,0 0,-0.0961 0.220433,0.068 0.288412,0 0.06798,-0.068 0.08599,-0.24542 0,-0.28841 -0.171977,-0.086 -0.384548,0 -0.576823,0 -0.09614,0 0.356391,0.068 0.288411,0 -0.152005,-0.152 -0.424815,-0.1364 -0.576823,-0.28841 -0.06798,-0.068 0.384548,0 0.288412,0 -0.192273,0 -0.384548,0 -0.576821,0 -0.384548,0 1.057505,0.0961 0.288409,-0.28841 -0.171974,-0.086 -0.384548,0 -0.576821,0 -0.09614,0 0.384548,0 0.288412,0 -0.192276,0 -0.384548,0 -0.576824,0 -0.09614,0 0.384548,0 0.288412,0 -0.192275,0 -0.384548,0 -0.576823,0 -0.09614,0 0.384548,0 0.288411,0 -0.192272,0 -0.440862,0.13596 -0.57682,0 -0.09614,-0.0961 0.288409,-0.15245 0.288409,-0.28841 0,-0.19228 -0.576821,0.19227 -0.576821,0 0,-0.0961 0.384548,0 0.288412,0 -0.192276,0 -0.384548,0 -0.576824,0 -0.09614,0 0.384548,0 0.288412,0 -1.890694,0 1.025461,0 -0.865233,0 -0.09614,0 0.28841,-0.0961 0.28841,0 0,0.0961 -0.192273,0 -0.28841,0 -0.09614,0 -0.192275,0 -0.288411,0 -0.09614,0 -0.288412,0.0961 -0.288412,0 0,-0.0961 0.384548,0 0.288412,0 -0.192276,0 -0.384548,0 -0.576824,0 -0.09614,0 0.288412,-0.0961 0.288412,0 0,0.0961 -0.192273,0 -0.288412,0 -0.09614,0 -0.288409,0.0961 -0.288409,0 0,-0.13596 0.288409,-0.15245 0.288409,-0.28841 0,-0.0961 -0.192272,0 -0.288409,0 -0.192275,0 -0.384548,0 -0.576823,0 -0.09614,0 -0.288412,0.0961 -0.288412,0 0,-0.0961 0.288412,-0.0961 0.288412,0 0,0.0961 -0.192273,0 -0.288412,0 -0.288409,0 -0.576821,0 -0.865232,0 -0.09614,0 0.288411,-0.0961 0.288411,0 0,0.0961 -0.192275,0 -0.288411,0 -0.09614,0 -0.288412,0.0961 -0.288412,0 0,-0.0961 0.384548,0 0.288412,0 -0.192273,0 -0.384548,0 -0.576821,0 -0.09614,0 0.288409,-0.0961 0.288409,0 0,0.0961 -0.192273,0 -0.288409,0 -0.961372,0 0.672957,0 -0.288412,0 -0.09614,0 -0.192275,0 -0.288411,0 -0.09614,0 -0.288412,0.0961 -0.288412,0 0,-0.0961 0.288412,-0.0961 0.288412,0 0,0.0961 -0.192273,0 -0.288412,0 -0.09614,0 -0.192273,0 -0.288409,0 -0.09614,0 -0.288412,0.0961 -0.288412,0 0,-0.0961 0.288412,-0.0961 0.288412,0 0,0.0961 -0.192276,0 -0.288412,0 -0.09614,0 -0.288412,0.0961 -0.288412,0 0,-0.0961 0.288412,-0.0961 0.288412,0 0,0.0961 -0.192275,0 -0.288412,0 -0.09614,0 -0.288411,0.0961 -0.288411,0 0,-0.0961 0.288411,-0.0961 0.288411,0 0,0.0961 -0.192272,0 -0.288411,0 -0.09614,0 -0.288409,0.0961 -0.288409,0 0,-0.0961 0.288409,-0.0961 0.288409,0 0,0.19227 -0.440862,-0.13596 -0.576821,0 -0.06798,0.068 0.06798,0.22043 0,0.28841 -0.135959,0.13596 -0.576824,-0.19228 -0.576824,0 0,0.13596 0.288412,0.15245 0.288412,0.28841 0,0.19227 -0.576821,-0.19227 -0.576821,0 0,0.13596 0.152453,0.28841 0.288409,0.28841 0.09614,0 0.06798,-0.22043 0,-0.28841 -0.06798,-0.068 -0.202422,-0.043 -0.288409,0 -1.079484,0.53974 0.533131,0.0437 0,0.57682 -0.06798,0.068 -0.192275,0 -0.288411,0 -0.09614,0 -0.288412,0.0961 -0.288412,0 0,-0.0961 0.288412,-0.0961 0.288412,0 0,0.13596 -0.166807,0.22761 -0.288412,0.28841 -0.172363,0.0862 -0.576821,-0.18986 -0.576821,0.28841 0,0.0961 0.288412,-0.0961 0.288412,0 0,0.0961 -0.202425,-0.043 -0.288412,0 -0.121605,0.0608 -0.152453,0.28842 -0.288411,0.28842 -0.09614,0 0.09614,-0.28842 0,-0.28842 -0.135959,0 -0.288412,0.15246 -0.288412,0.28842 0,0.0961 0.288412,-0.0961 0.288412,0 0,0.13595 -0.166807,0.2276 -0.288412,0.28841 -0.08599,0.043 -0.288409,-0.0961 -0.288409,0 0,0.13595 0.424368,0.28841 0.288409,0.28841 -0.214969,0 -0.361852,-0.28841 -0.576821,-0.28841 -0.135959,0 0.288412,0.15245 0.288412,0.28841 0,0.0961 -0.202425,-0.043 -0.288412,0 -0.121605,0.0608 -0.166806,0.22761 -0.288412,0.28841 -0.08599,0.043 -0.288411,-0.0961 -0.288411,0 0,0.13596 0.152453,0.28841 0.288411,0.28841 0.09614,0 0.09614,-0.28841 0,-0.28841 -0.135958,0 -0.166806,0.22761 -0.288411,0.28841 -0.08599,0.043 -0.220433,-0.068 -0.288409,0 -0.06798,0.068 0.09614,0.28841 0,0.28841 -0.09614,0 -0.09614,-0.28841 0,-0.28841 0.09614,0 0.06798,0.22043 0,0.28841 -0.06798,0.068 -0.220433,-0.068 -0.288412,0 -0.06798,0.068 0.09614,0.28841 0,0.28841 -0.135959,0 -0.384548,-0.19227 -0.288412,-0.28841 0.09614,-0.0961 0.288412,0.15245 0.288412,0.28841 0,0.19228 -0.576823,-0.19227 -0.576823,0 0,0.13596 0.288411,0.15245 0.288411,0.28841 0,0.19228 -0.440864,-0.13596 -0.576821,0 -0.06798,0.068 0,0.19228 0,0.28841 -0.09614,0 -0.202424,-0.043 -0.288411,0 -0.121605,0.0608 -0.192276,0.38455 -0.288412,0.28842 -0.09614,-0.0961 0.288412,-0.15246 0.288412,-0.28842 0,-0.0961 -0.202425,-0.043 -0.288412,0 -1.200298,0.60015 0.172363,0.11605 0,0.28842 -0.152006,0.152 -0.361852,0.2884 -0.576821,0.2884 -0.09614,0 0.09614,-0.2884 0,-0.2884 -0.135959,0 -0.288411,0.15245 -0.288411,0.2884 0,0.0961 0.288411,-0.0961 0.288411,0 0,0.0961 -0.202424,-0.043 -0.288411,0 -0.121606,0.0608 -0.166807,0.22761 -0.288412,0.28842 -0.08599,0.043 -0.288412,0.0961 -0.288412,0 0,-0.0961 0.356391,-0.068 0.288412,0 -0.152006,0.152 -0.361852,0.28841 -0.576821,0.28841 -0.09614,0 -0.09614,-0.28841 0,-0.28841 0.09614,0 0.06798,0.22043 0,0.28841 -0.06798,0.068 -0.220432,-0.068 -0.288412,0 -0.06798,0.068 0.09614,0.28841 0,0.28841 -0.135958,0 -0.152453,-0.28841 -0.288411,-0.28841 -0.09614,0 0.06798,0.22043 0,0.28841 -0.135959,0.13596 -0.576821,-0.19228 -0.576821,0 0,0.13596 0.288409,0.15245 0.288409,0.28841 0,0.0961 -0.192273,0 -0.288409,0 -0.09614,0 -0.288412,0.0961 -0.288412,0 0,-0.0961 0.384548,0 0.288412,0 -0.192275,0 -0.404847,-0.086 -0.576823,0 -0.08599,0.043 0.09614,0.28841 0,0.28841 -0.09614,0 0.06798,-0.22043 0,-0.28841 -0.06798,-0.068 -0.220433,-0.068 -0.288412,0 -0.06798,0.068 0.06798,0.22043 0,0.28841 -0.06798,0.068 -0.202422,-0.043 -0.288409,0 -0.121605,0.0608 -0.152453,0.28841 -0.288412,0.28841 -0.09614,0 0.06798,-0.22043 0,-0.28841 -0.06798,-0.068 -0.220432,-0.068 -0.288412,0 -0.06798,0.068 0.06798,0.22043 0,0.28841 -0.06798,0.068 -0.220432,-0.068 -0.288411,0 -0.06798,0.068 0.06798,0.22043 0,0.28841 -0.06798,0.068 -0.192273,0 -0.288409,0 -0.09614,0 -0.220433,-0.068 -0.288412,0 -0.06798,0.068 0.06798,0.22044 0,0.28841 -0.135959,0.13596 -0.440865,-0.13595 -0.576824,0 -0.06798,0.068 0.09614,0.28841 0,0.28841 -0.09614,0 0.09614,-0.28841 0,-0.28841 -0.135956,0 -0.166806,0.22761 -0.288409,0.28841 -0.08599,0.043 -0.220432,-0.068 -0.288411,0 -0.06798,0.068 0.09614,0.28842 0,0.28842 -0.135959,0 -0.166807,-0.22761 -0.288412,-0.28842 -0.576821,-0.28841 -0.09614,0.19228 -0.288412,0.28842 -0.171974,0.086 -0.384548,0 -0.57682,0 -0.09614,0 0.288411,-0.0961 0.288411,0 0,0.0961 -0.192275,0 -0.288411,0 -0.09614,0 -0.192276,0 -0.288412,0 -0.09614,0 -0.220432,-0.068 -0.288412,0 -0.06798,0.068 0.09614,0.28841 0,0.28841 -0.135956,0 -0.152453,-0.28841 -0.288409,-0.28841 -0.09614,0 0.08599,0.24541 0,0.28841 -0.171976,0.086 -0.394417,-0.0608 -0.576823,0 -0.128982,0.043 -0.152453,0.28841 -0.288412,0.28841 -0.384548,0 0.480687,-0.67296 -0.288409,-0.28841 -0.121605,0.0608 -0.166807,0.22761 -0.288412,0.28841 -0.08599,0.043 -0.192275,0 -0.288412,0 -0.09614,0 -0.192272,0 -0.288411,0 -1.890694,0 1.025461,0 -0.865233,0 -0.09614,0 0.288412,-0.0961 0.288412,0 0,0.0961 -0.192275,0 -0.288412,0 -0.288411,0 -0.57682,0 -0.865232,0 -0.09614,0 0.288412,-0.0961 0.288412,0 0,0.0961 -0.192276,0 -0.288412,0 -0.09614,0 -0.197207,0.0304 -0.288412,0 -1.548656,-0.51622 0.704506,-0.28841 -0.865232,-0.28841 -0.09614,0 0.384548,0 0.288411,0 -0.192275,0 -0.440864,0.13595 -0.576823,0 -0.09614,-0.0961 0.288412,-0.15246 0.288412,-0.28841 0,-0.0961 -0.192276,0 -0.288412,0 -0.192273,0 -0.384548,0 -0.576821,0 -0.09614,0 0.384548,0 0.288409,0 -0.192272,0 -0.440862,0.13595 -0.57682,0 -0.09614,-0.0961 0.227607,-0.16681 0.288411,-0.28842 0.04299,-0.086 0.09614,-0.28841 0,-0.28841 -0.214968,0 -0.424817,0.13641 -0.576823,0.28841 -0.06798,0.068 0.384548,0 0.288412,0 -0.192276,0 -0.384549,0 -0.576824,0 -0.09614,0 0.384548,0 0.288412,0 -0.192273,0 -0.440865,0.13596 -0.576821,0 -0.09614,-0.0961 0.227608,-0.1668 0.288409,-0.28841 0.043,-0.086 0.09614,-0.28841 0,-0.28841 -0.214969,0 -0.424815,0.13641 -0.576821,0.28841 -0.06798,0.068 0.384548,0 0.288412,0 -1.126665,0 -0.288412,0.17198 -0.288412,-0.57682 0,-0.13596 -0.166806,0.22761 -0.288411,0.28841 -0.08599,0.043 -0.288412,0.0961 -0.288412,0 0,-0.42437 1.024519,-0.28841 -0.288409,-0.28841 -0.09614,0 0.356388,0.068 0.288409,0 -0.152006,-0.152 -0.480684,-0.0961 -0.576821,-0.28841 -0.0608,-0.1216 0.152453,-0.28841 0.288412,-0.28841 0.09614,0 0.08599,0.24542 0,0.28841 -0.171977,0.086 -0.384548,0 -0.576824,0 -0.09614,0 0.288412,0.0961 0.288412,0 0,-0.27191 -0.769096,-0.38455 -0.576823,-0.57682 0.09614,-0.0961 0.384548,0.19227 0.288411,0.28841 -0.135958,0.13596 -0.384548,0 -0.57682,0 -0.09614,0 0.220429,0.068 0.288409,0 0.06798,-0.068 0.06798,-0.22043 0,-0.28841 -0.152006,-0.15201 -0.361852,-0.28841 -0.576821,-0.28841 -0.135959,0 0.384548,0.19227 0.288412,0.28841 -0.135959,0.13596 -0.490837,0.17197 -0.576824,0 -0.09614,-0.19228 0.440418,-0.42482 0.288412,-0.57682 -0.152006,-0.15201 -0.424818,0.1364 -0.576823,0.28841 -0.06409,0.0641 1.377965,-0.032 0.288411,-0.57683 -0.192272,-0.0961 -0.424815,0.13641 -0.57682,0.28842 -0.06798,0.068 0.331403,0.086 0.288409,0 -0.121603,-0.24321 -0.384548,-0.38455 -0.576821,-0.57682 -0.09614,-0.0961 0.152453,0.2884 0.288412,0.2884 0.09614,0 0.06798,-0.22043 0,-0.2884 -0.135959,-0.13596 -0.576824,0.19227 -0.576824,0 0,-1.78841 0.436621,-0.28842 0.288412,-0.28842 -0.09614,0 0,-0.19227 0,-0.28841 0,-0.19227 0.135959,-0.44086 0,-0.57682 -0.09614,-0.0961 -0.166807,0.34921 -0.288412,0.28841 -0.192273,-0.0961 -0.288412,-0.36185 -0.288412,-0.57682 0,-0.13596 0.192276,0.38455 0.288412,0.28841 0.135959,-0.13596 0,-0.38455 0,-0.57682 0,-0.0961 0.06798,0.35639 0,0.28841 -0.152006,-0.15201 -0.136406,-0.42482 -0.288412,-0.57682 -0.06798,-0.068 0.06798,0.35639 0,0.28841 -0.152005,-0.15201 -0.288409,-0.36185 -0.288409,-0.57682 0,-0.13596 0.192273,0.38455 0.288409,0.28841 0.135959,-0.13596 0,-0.38455 0,-0.57682 0,-0.0961 0.06798,0.22043 0,0.28841 -0.06798,0.068 -0.220429,0.068 -0.288409,0 -0.135958,-0.13596 0.192273,-0.57683 0,-0.57683 -0.135958,0 -0.288411,0.15246 -0.288411,0.28842 0,0.0961 0.245417,0.086 0.288411,0 0.08599,-0.17198 0,-0.38455 0,-0.57683 0,-0.0961 0,0.38455 0,0.28841 0,-0.19227 0,-0.38454 0,-0.57682 0,-0.0961 0.09614,0.28841 0,0.28841 -0.214968,0 -0.50338,-0.57682 -0.288411,-0.57682 0.09614,0 0.09614,0.28841 0,0.28841 -0.09614,0 0,-0.19227 0,-0.28841 0,-0.0961 -0.09614,-0.28841 0,-0.28841 0.09614,0 0.09614,0.28841 0,0.28841 -0.192276,0 0.192272,-0.57682 0,-0.57682 -0.135959,0 -0.288412,0.15245 -0.288412,0.28841 0,0.0961 0.220432,0.068 0.288412,0 0.135958,-0.13596 -0.192276,-0.57682 0,-0.57682 0.09614,0 0.09614,0.28841 0,0.28841 -0.09614,0 0,-0.19228 0,-0.28841 0,-0.0961 -0.09614,-0.28841 0,-0.28841 0.09614,0 0.09614,0.28841 0,0.28841 -0.09614,0 0.04299,-0.20243 0,-0.28841 -0.0608,-0.12161 -0.152453,-0.28841 -0.288412,-0.28841 -0.09614,0 0.09614,0.28841 0,0.28841 -0.09614,0 0,-0.19228 0,-0.28841 0,-0.0961 -0.09614,-0.28842 0,-0.28842 0.09614,0 0.09614,0.28842 0,0.28842 -0.09614,0 0,-0.19228 0,-0.28842 0,-0.0961 -0.09614,-0.28841 0,-0.28841 0.09614,0 0.09614,0.28841 0,0.28841 -0.09614,0 0,-0.19227 0,-0.28841 0,-0.0961 -0.09614,-0.28841 0,-0.28841 0.09614,0 0.09614,0.28841 0,0.28841 -0.09614,0 0,-0.19227 0,-0.28841 0,-0.0961 -0.09614,-0.28841 0,-0.28841 0.09614,0 0,0.38455 0,0.28841 0,-0.19227 0,-0.38455 0,-0.57682 0,-0.0961 0.09614,0.28841 0,0.28841 -0.09614,0 -0.0357,-0.19915 0,-0.28841 0.159676,-0.39919 0.384548,-0.7691 0.576823,-1.15364 z"
       id="path869"
       inkscape:connector-curvature="0" />
    <path
       style="fill:none;stroke:#620000;stroke-width:0.26458332px;stroke-linecap:butt;stroke-linejoin:miter;stroke-opacity:1"
       d="m 129.71286,175.72315 c 0.0961,0 0.19228,0 0.28842,0 0.024,0 -0.0481,0 -0.0721,0 -0.0721,0 -0.25957,-0.0577 -0.21631,0 0.10399,0.13866 0.29159,0.18768 0.43262,0.28842 0.0277,0.0198 0.0721,0.0381 0.0721,0.0721 0,0.32823 -0.1351,-0.063 -0.0721,0 0.038,0.038 0.024,0.12017 0.0721,0.1442 0.0304,0.0152 0.0721,-0.0381 0.0721,-0.0721 0,-0.024 -0.0614,-0.0215 -0.0721,0 -0.0215,0.043 0,0.0961 0,0.14421 0,0.024 0,-0.0961 0,-0.0721 0,0.0481 -0.034,0.11022 0,0.14421 0.024,0.024 0.0417,-0.0569 0.0721,-0.0721 0.0215,-0.0108 0.0721,-0.024 0.0721,0 0,0.0537 -0.0341,0.1062 -0.0721,0.1442 -0.017,0.017 0,-0.0961 0,-0.0721 0,0.0481 0,0.0961 0,0.1442 0,0.024 -0.017,-0.0891 0,-0.0721 0.22355,0.4471 0.009,0.0721 0.0721,0.0721 0.0481,0 -0.0481,0.14421 0,0.14421 0.034,0 0.0381,-0.0721 0.0721,-0.0721 0.024,0 0,0.0481 0,0.0721 0,0.024 0.024,0.0721 0,0.0721 -0.024,0 0,-0.0961 0,-0.0721 0,0.0481 -0.034,0.11022 0,0.14421 0.024,0.024 0.0417,-0.0569 0.0721,-0.0721 0.0215,-0.0107 0.0721,-0.024 0.0721,0 0,0.0537 -0.0341,0.10621 -0.0721,0.14421 -0.017,0.017 0,-0.0961 0,-0.0721 0,0.0481 -0.034,0.11021 0,0.1442 0.0549,0.0549 0.14421,-0.36338 0.14421,0.0721 0,0.034 -0.0481,-0.0961 -0.0721,-0.0721 -0.20429,0.20429 0.0541,0.12618 0.0721,0.14421 0.017,0.017 0,0.0481 0,0.0721 0,0.0481 0,0.0961 0,0.14421 0,0.024 0,-0.0961 0,-0.0721 0,0.0481 -0.0215,0.10121 0,0.14421 0.0107,0.0215 0.0551,-0.017 0.0721,0 0.034,0.034 -0.034,0.11021 0,0.1442 0.017,0.017 0.0721,-0.024 0.0721,0 0,0.024 -0.0551,-0.017 -0.0721,0 -0.034,0.034 0.0481,0.14421 0,0.14421 -0.024,0 0,-0.0961 0,-0.0721 0,0.0481 0,0.0961 0,0.1442 0,0.024 0,-0.0961 0,-0.0721 0,0.37772 0,0.53852 0,1.44205 0,0.0199 -0.017,-0.26729 0.0721,0 0.0152,0.0456 0,0.0961 0,0.14421 0,0.024 -0.0215,-0.0829 0,-0.0721 0.0608,0.0304 0.0834,0.1138 0.1442,0.1442 0.0215,0.0107 0,-0.0961 0,-0.0721 0,0.32046 -0.0481,0.016 0.14421,0.14421 0.0447,0.0298 0.0341,0.1062 0.0721,0.1442 0.017,0.017 -0.0215,-0.0829 0,-0.0721 0.0608,0.0304 0.0876,0.1065 0.14421,0.1442 0.02,0.0133 0.0506,-0.0107 0.0721,0 0.0304,0.0152 0.0417,0.0569 0.0721,0.0721 0.0215,0.0107 0.0551,-0.017 0.0721,0 0.038,0.038 0.024,0.12017 0.0721,0.1442 0.0304,0.0152 0.0417,-0.0569 0.0721,-0.0721 0.0215,-0.0107 0.0614,-0.0215 0.0721,0 0.0215,0.043 -0.034,0.11021 0,0.14421 0.024,0.024 0.0417,-0.0569 0.0721,-0.0721 0.0215,-0.0107 0.0481,0 0.0721,0 0.21631,0 0.43261,0 0.64892,0 0.024,0 0.0481,0 0.0721,0 0.024,0 0.0551,0.017 0.0721,0 0.038,-0.038 0.0341,-0.1062 0.0721,-0.1442 0.017,-0.017 0.0614,0.0215 0.0721,0 0.0215,-0.043 0,-0.0961 0,-0.14421 0.0481,-0.024 0.12017,-0.024 0.14421,-0.0721 0.0152,-0.0304 -0.0569,-0.0417 -0.0721,-0.0721 -0.0107,-0.0215 0,-0.0481 0,-0.0721 0,-0.024 0,-0.0481 0,-0.0721 0,-0.0961 0,-0.19228 0,-0.28841 0,-0.024 -0.024,-0.0721 0,-0.0721 0.024,0 0.024,0.0721 0,0.0721 -0.034,0 -0.0381,-0.0721 -0.0721,-0.0721 -0.024,0 0,0.0481 0,0.0721 0,0.0481 0,0.0961 0,0.1442 0,0.024 0,-0.0961 0,-0.0721 0,0.0481 0,0.0961 0,0.14421 0,0.024 0,-0.0961 0,-0.0721 0,0.47268 0,-0.25636 0,0.21631 0,0.024 0,-0.0961 0,-0.0721 0,0.0481 0,0.0961 0,0.14421 0,0.024 -0.024,-0.0721 0,-0.0721 0.024,0 -0.017,0.0551 0,0.0721 0.007,0.007 0.2091,0.007 0.21631,0 0.017,-0.017 -0.017,-0.0551 0,-0.0721 0.034,-0.034 0.11022,0.034 0.14421,0 0.017,-0.017 -0.017,-0.0551 0,-0.0721 0.017,-0.017 0.0481,0 0.0721,0 0.0481,0 0.0961,0 0.14421,0 0.024,0 -0.0551,0.017 -0.0721,0 -0.017,-0.017 -0.024,-0.0721 0,-0.0721 0.034,0 0.0481,0.0481 0.0721,0.0721"
       id="path893"
       inkscape:connector-curvature="0" />
    <ellipse
       style="fill:#4f0000;fill-opacity:1;stroke:#0d0000;stroke-width:0.30000001;stroke-miterlimit:4;stroke-dasharray:none;stroke-opacity:1"
       id="path895"
       cx="216.02921"
       cy="10.694366"
       rx="0.82918113"
       ry="0.54077011"
       transform="rotate(50.352807)"
       inkscape:transform-center-y="0.14420552" />
  </g>
</svg>
