<?xml version="1.0" encoding="UTF-8" standalone="no"?>
<!-- Created with Inkscape (http://www.inkscape.org/) -->

<svg
   xmlns:dc="http://purl.org/dc/elements/1.1/"
   xmlns:cc="http://creativecommons.org/ns#"
   xmlns:rdf="http://www.w3.org/1999/02/22-rdf-syntax-ns#"
   xmlns:svg="http://www.w3.org/2000/svg"
   xmlns="http://www.w3.org/2000/svg"
   xmlns:sodipodi="http://sodipodi.sourceforge.net/DTD/sodipodi-0.dtd"
   xmlns:inkscape="http://www.inkscape.org/namespaces/inkscape"
   width="55.315521mm"
   height="48.20422mm"
   viewBox="0 0 55.315521 48.20422"
   version="1.1"
   id="svg2359"
   inkscape:version="0.92.2 5c3e80d, 2017-08-06"
   sodipodi:docname="phoenix.svg">
  <defs
     id="defs2353">
    <inkscape:path-effect
       effect="bspline"
       id="path-effect3034"
       is_visible="true"
       weight="33.333333"
       steps="2"
       helper_size="0"
       apply_no_weight="true"
       apply_with_weight="true"
       only_selected="false" />
    <inkscape:path-effect
       effect="bspline"
       id="path-effect3012"
       is_visible="true"
       weight="33.333333"
       steps="2"
       helper_size="0"
       apply_no_weight="true"
       apply_with_weight="true"
       only_selected="false" />
    <inkscape:path-effect
       effect="bspline"
       id="path-effect3006"
       is_visible="true"
       weight="33.333333"
       steps="2"
       helper_size="0"
       apply_no_weight="true"
       apply_with_weight="true"
       only_selected="false" />
    <inkscape:path-effect
       effect="bspline"
       id="path-effect3002"
       is_visible="true"
       weight="33.333333"
       steps="2"
       helper_size="0"
       apply_no_weight="true"
       apply_with_weight="true"
       only_selected="false" />
    <inkscape:path-effect
       effect="bspline"
       id="path-effect2998"
       is_visible="true"
       weight="33.333333"
       steps="2"
       helper_size="0"
       apply_no_weight="true"
       apply_with_weight="true"
       only_selected="false" />
    <inkscape:path-effect
       effect="bspline"
       id="path-effect2994"
       is_visible="true"
       weight="33.333333"
       steps="2"
       helper_size="0"
       apply_no_weight="true"
       apply_with_weight="true"
       only_selected="false" />
    <inkscape:path-effect
       effect="bspline"
       id="path-effect2989"
       is_visible="true"
       weight="33.333333"
       steps="2"
       helper_size="0"
       apply_no_weight="true"
       apply_with_weight="true"
       only_selected="false" />
    <inkscape:path-effect
       effect="bspline"
       id="path-effect2967"
       is_visible="true"
       weight="33.333333"
       steps="2"
       helper_size="0"
       apply_no_weight="true"
       apply_with_weight="true"
       only_selected="false" />
    <inkscape:path-effect
       effect="bspline"
       id="path-effect2963"
       is_visible="true"
       weight="33.333333"
       steps="2"
       helper_size="0"
       apply_no_weight="true"
       apply_with_weight="true"
       only_selected="false" />
    <inkscape:path-effect
       effect="bspline"
       id="path-effect2959"
       is_visible="true"
       weight="33.333333"
       steps="2"
       helper_size="0"
       apply_no_weight="true"
       apply_with_weight="true"
       only_selected="false" />
    <inkscape:path-effect
       effect="bspline"
       id="path-effect2955"
       is_visible="true"
       weight="33.333333"
       steps="2"
       helper_size="0"
       apply_no_weight="true"
       apply_with_weight="true"
       only_selected="false" />
    <inkscape:path-effect
       effect="bspline"
       id="path-effect2951"
       is_visible="true"
       weight="33.333333"
       steps="2"
       helper_size="0"
       apply_no_weight="true"
       apply_with_weight="true"
       only_selected="false" />
    <inkscape:path-effect
       effect="bspline"
       id="path-effect2967-9"
       is_visible="true"
       weight="33.333333"
       steps="2"
       helper_size="0"
       apply_no_weight="true"
       apply_with_weight="true"
       only_selected="false" />
    <inkscape:path-effect
       effect="bspline"
       id="path-effect3012-8"
       is_visible="true"
       weight="33.333333"
       steps="2"
       helper_size="0"
       apply_no_weight="true"
       apply_with_weight="true"
       only_selected="false" />
    <inkscape:path-effect
       effect="bspline"
       id="path-effect3034-8"
       is_visible="true"
       weight="33.333333"
       steps="2"
       helper_size="0"
       apply_no_weight="true"
       apply_with_weight="true"
       only_selected="false" />
    <inkscape:path-effect
       effect="bspline"
       id="path-effect3034-8-7"
       is_visible="true"
       weight="33.333333"
       steps="2"
       helper_size="0"
       apply_no_weight="true"
       apply_with_weight="true"
       only_selected="false" />
    <inkscape:path-effect
       effect="bspline"
       id="path-effect3034-8-7-3"
       is_visible="true"
       weight="33.333333"
       steps="2"
       helper_size="0"
       apply_no_weight="true"
       apply_with_weight="true"
       only_selected="false" />
    <inkscape:path-effect
       effect="bspline"
       id="path-effect3034-8-7-3-0"
       is_visible="true"
       weight="33.333333"
       steps="2"
       helper_size="0"
       apply_no_weight="true"
       apply_with_weight="true"
       only_selected="false" />
    <inkscape:path-effect
       effect="bspline"
       id="path-effect3034-8-7-3-0-6"
       is_visible="true"
       weight="33.333333"
       steps="2"
       helper_size="0"
       apply_no_weight="true"
       apply_with_weight="true"
       only_selected="false" />
    <inkscape:path-effect
       effect="bspline"
       id="path-effect3034-8-7-3-0-1"
       is_visible="true"
       weight="33.333333"
       steps="2"
       helper_size="0"
       apply_no_weight="true"
       apply_with_weight="true"
       only_selected="false" />
    <inkscape:path-effect
       effect="bspline"
       id="path-effect3034-8-7-3-0-1-8"
       is_visible="true"
       weight="33.333333"
       steps="2"
       helper_size="0"
       apply_no_weight="true"
       apply_with_weight="true"
       only_selected="false" />
    <inkscape:path-effect
       effect="bspline"
       id="path-effect3034-8-75"
       is_visible="true"
       weight="33.333333"
       steps="2"
       helper_size="0"
       apply_no_weight="true"
       apply_with_weight="true"
       only_selected="false" />
  </defs>
  <sodipodi:namedview
     id="base"
     pagecolor="#ffffff"
     bordercolor="#666666"
     borderopacity="1.0"
     inkscape:pageopacity="0.0"
     inkscape:pageshadow="2"
     inkscape:zoom="2.5947504"
     inkscape:cx="113.33602"
     inkscape:cy="77.304184"
     inkscape:document-units="mm"
     inkscape:current-layer="layer1"
     showgrid="false"
     inkscape:window-width="1440"
     inkscape:window-height="810"
     inkscape:window-x="0"
     inkscape:window-y="1"
     inkscape:window-maximized="1" />
  <metadata
     id="metadata2356">
    <rdf:RDF>
      <cc:Work
         rdf:about="">
        <dc:format>image/svg+xml</dc:format>
        <dc:type
           rdf:resource="http://purl.org/dc/dcmitype/StillImage" />
        <dc:title></dc:title>
      </cc:Work>
    </rdf:RDF>
  </metadata>
  <g
     inkscape:label="Layer 1"
     inkscape:groupmode="layer"
     id="layer1"
     transform="translate(-63.845157,-112.59839)">
    <path
       style="fill:#d64d13;fill-opacity:1;stroke:#000000;stroke-width:0.065;stroke-linecap:butt;stroke-linejoin:miter;stroke-miterlimit:4;stroke-dasharray:none;stroke-opacity:1"
       d="m 89.862774,129.41211 c -0.260624,-0.56043 -0.781819,-1.68118 -1.016429,-2.71742 -0.23461,-1.03623 -0.184545,-1.95409 -0.0032,-2.74287 0.181309,-0.78877 0.492995,-1.43196 1.010984,-1.99789 0.517989,-0.56592 1.242952,-1.05539 1.843303,-1.29462 0.60035,-0.23922 1.076894,-0.22865 1.658282,-0.0345 0.581387,0.19412 1.254372,0.56426 1.840594,1.11649 0.586221,0.55223 1.079135,1.2831 1.334075,2.05629 0.254939,0.7732 0.271931,1.58889 0.110479,2.53224 -0.161453,0.94335 -0.50124,2.01368 -0.917057,2.74763 -0.415817,0.73395 -0.950832,1.16588 -1.267987,1.54742 -0.317156,0.38153 -0.427168,0.69938 -0.442379,1.16373 -0.01521,0.46436 0.06968,1.05861 0.250198,1.89956 0.180517,0.84095 0.448274,1.89525 0.762709,3.1105 0.314434,1.21524 0.671264,2.57459 0.781755,4.18067 0.110491,1.60608 -0.02545,3.45826 -0.34549,5.03995 -0.320041,1.5817 -0.835502,2.9219 -1.621706,3.98959 -0.786203,1.0677 -1.864813,1.88949 -2.994578,2.45251 -1.129766,0.56301 -2.286167,0.86468 -3.484543,0.79671 -1.198376,-0.068 -2.421676,-0.50971 -3.314035,-1.23212 -0.89236,-0.72241 -1.453119,-1.72498 -1.800709,-2.94869 -0.34759,-1.22371 -0.485129,-2.70224 -0.351392,-4.13886 0.133736,-1.43662 0.546166,-2.88013 1.205275,-4.11641 0.659109,-1.23628 1.584355,-2.2986 2.731357,-3.1142 1.147003,-0.8156 2.523948,-1.39358 3.399107,-1.87795 0.875158,-0.48438 1.249132,-0.87535 1.460796,-1.40201 0.211665,-0.52666 0.263951,-1.22381 0.272436,-1.81001 0.0085,-0.5862 -0.02552,-1.07925 -0.172742,-1.50439 -0.147223,-0.42513 -0.407919,-0.78311 -0.538183,-0.96199 -0.130265,-0.17887 -0.13026,-0.1789 -0.390884,-0.73933 z"
       id="path2996"
       inkscape:connector-curvature="0"
       inkscape:path-effect="#path-effect2998"
       inkscape:original-d="m 90.123398,129.97254 c -0.52093,-1.12101 -1.042122,-2.24176 -1.563582,-3.36224 0.05125,-0.95188 0.102235,-1.86969 0.152953,-2.80414 0.311761,-0.64306 0.623443,-1.28625 0.934768,-1.92897 0.724508,-0.48924 1.449469,-0.97871 2.173806,-1.46767 0.476409,0.0103 0.952955,0.0208 1.429033,0.0317 0.679688,0.39041 1.359847,0.74751 2.039374,1.12166 0.493048,0.73041 0.985962,1.46128 1.478547,2.19232 0.01725,0.81555 0.03425,1.63124 0.05098,2.44725 -0.339741,1.07075 -0.679527,2.14108 -1.019688,3.21202 -0.44173,0.45873 -1.026679,0.82881 -1.540417,1.24362 -0.115134,0.35016 -0.230405,0.66619 -0.346004,0.99969 0.08532,0.59512 0.170212,1.18937 0.254923,1.78445 0.272283,1.08781 0.544097,2.14108 0.815748,3.21202 0.357216,1.35955 0.714047,2.7189 1.070673,4.07874 -0.135712,1.85242 -0.271653,3.7046 -0.407876,5.5573 -0.509656,1.30853 -1.019421,2.65092 -1.52953,3.97678 -1.070665,0.79868 -2.14108,1.63123 -3.212015,2.44724 -1.189696,0.30573 -2.345015,0.61155 -3.517918,0.91772 -1.223688,-0.44224 -2.446986,-0.88399 -3.670875,-1.32559 -0.56063,-1.00308 -1.121391,-2.00565 -1.682482,-3.00808 -0.135684,-1.44469 -0.271653,-2.92337 -0.407877,-4.38465 0.408075,-1.4106 0.816015,-2.85539 1.223624,-4.28269 0.90079,-1.05371 1.835703,-2.10761 2.753156,-3.16103 1.376474,-0.57793 2.753419,-1.15591 4.129733,-1.73347 0.374063,-0.39105 0.748036,-0.78202 1.121656,-1.17263 0.05121,-0.66261 0.102233,-1.35985 0.152953,-2.03938 -0.03371,-0.49291 -0.06771,-0.98596 -0.10197,-1.47854 -0.260173,-0.35789 -0.520867,-0.71587 -0.781698,-1.0734 z" />
    <path
       style="fill:#e1710d;fill-opacity:1;stroke:#000000;stroke-width:0.065;stroke-linecap:butt;stroke-linejoin:miter;stroke-miterlimit:4;stroke-dasharray:none;stroke-opacity:1"
       d="m 95.608809,124.33338 c -0.05313,-0.0808 -0.159349,-0.24221 -0.354615,-0.35685 -0.195265,-0.11465 -0.480044,-0.18265 -0.715843,-0.18059 -0.235798,0.002 -0.422619,0.0742 -0.622549,0.1 -0.19993,0.0258 -0.42046,0.004 -0.643677,-0.0384 -0.223216,-0.0425 -0.452386,-0.10616 -0.706884,-0.22402 -0.254498,-0.11785 -0.527367,-0.28577 -0.72074,-0.43027 -0.193374,-0.1445 -0.303808,-0.26344 -0.308552,-0.22826 -0.0047,0.0352 0.09817,0.22816 0.176797,0.36416 0.07862,0.136 0.133829,0.21669 0.148843,0.25707 0.01501,0.0404 -0.01897,0.0404 -0.08323,0.0104 -0.06426,-0.03 -0.161097,-0.0889 -0.248591,-0.13697 -0.08749,-0.048 -0.171626,-0.0879 -0.156749,-0.0454 0.01488,0.0425 0.125184,0.16557 0.22292,0.26543 0.09774,0.0999 0.182711,0.17634 0.229419,0.23361 0.04671,0.0573 0.05519,0.0955 0.0318,0.10831 -0.02339,0.0128 -0.07835,1.7e-4 -0.158383,-0.0376 -0.08003,-0.0378 -0.18774,-0.1024 -0.228169,-0.10886 -0.04043,-0.006 -0.01493,0.0445 0.03402,0.1169 0.04895,0.0724 0.121029,0.16564 0.216645,0.29312 0.09562,0.12749 0.214531,0.28888 0.37495,0.44908 0.16042,0.16019 0.357989,0.31573 0.58745,0.44532 0.229461,0.12959 0.488673,0.23157 0.826375,0.31652 0.337701,0.0849 0.754291,0.15296 1.083493,0.16746 0.329202,0.0145 0.563104,-0.0231 0.78816,-0.0889 0.225057,-0.0658 0.437766,-0.15943 0.613208,-0.25813 0.175442,-0.0987 0.308888,-0.19879 0.307214,-0.30809 -0.0017,-0.1093 -0.227759,-0.29935 -0.357344,-0.40133 -0.129586,-0.10197 -0.206163,-0.15242 -0.244498,-0.17767 -0.03834,-0.0253 -0.03833,-0.0253 -0.09146,-0.10609 z"
       id="path2961"
       inkscape:connector-curvature="0"
       inkscape:path-effect="#path-effect2963"
       inkscape:original-d="m 95.66194,124.41414 c -0.105955,-0.16172 -0.212172,-0.32317 -0.318654,-0.48435 -0.284287,-0.0682 -0.569061,-0.13623 -0.853988,-0.20394 -0.186803,0.072 -0.37362,0.14419 -0.560826,0.21668 -0.212535,-0.0215 -0.433105,-0.0427 -0.650053,-0.0637 -0.229414,-0.0641 -0.458594,-0.12772 -0.688287,-0.19119 -0.280368,-0.17034 -0.552066,-0.34016 -0.828497,-0.50984 -0.110231,-0.11927 -0.220668,-0.2382 -0.331396,-0.3569 0.09797,0.19091 0.2042,0.38212 0.305906,0.57358 0.05553,0.0805 0.110731,0.16119 0.165698,0.24217 -0.02524,-0.005 -0.05922,-2.6e-4 -0.08922,0 -0.09833,-0.0603 -0.195175,-0.11922 -0.293161,-0.17844 -0.07627,-0.0385 -0.161184,-0.0767 -0.242176,-0.11471 0.110887,0.12312 0.221197,0.24615 0.331399,0.36963 0.08525,0.0762 0.170214,0.15269 0.254923,0.22943 0.0088,0.038 0.01725,0.0762 0.02548,0.11472 -0.05525,-0.0131 -0.110201,-0.0258 -0.1657,-0.0382 -0.106323,-0.06 -0.212169,-0.12773 -0.318651,-0.19119 0.02577,0.0507 0.05125,0.1017 0.07648,0.15295 0.07264,0.0934 0.144722,0.18668 0.216683,0.28041 0.119277,0.16125 0.238191,0.32264 0.356891,0.48436 0.20001,0.16122 0.399643,0.31413 0.599067,0.4716 0.25939,0.10169 0.518605,0.20367 0.77751,0.30591 0.416415,0.0677 0.833009,0.13569 1.249117,0.20393 0.242316,-0.0385 0.47612,-0.0767 0.713782,-0.11471 0.212431,-0.0936 0.425132,-0.18721 0.637304,-0.28041 0.140261,-0.10209 0.27218,-0.20421 0.407874,-0.30591 -0.169312,-0.0808 -0.364852,-0.30719 -0.547677,-0.46039 -0.07636,-0.0508 -0.152958,-0.10122 -0.229833,-0.15142 z" />
    <path
       style="fill:#ce5122;fill-opacity:1;stroke:#000000;stroke-width:0.05729793;stroke-linecap:butt;stroke-linejoin:miter;stroke-miterlimit:4;stroke-dasharray:none;stroke-opacity:1"
       d="m 91.821345,120.40953 c -0.23441,-0.20395 -0.703221,-0.61183 -1.112642,-1.24499 -0.409422,-0.63317 -0.759342,-1.49132 -0.92438,-2.21362 -0.165039,-0.72231 -0.145227,-1.3087 0.03636,-1.58897 0.181588,-0.28028 0.525102,-0.25477 0.716473,-0.0256 0.191372,0.22918 0.231012,0.66279 0.145186,0.84986 -0.08583,0.18706 -0.297002,0.12761 -0.415943,0.0851 -0.118941,-0.0425 -0.145287,-0.068 -0.122167,-0.0297 0.02312,0.0383 0.09566,0.1401 0.217976,0.18703 0.122315,0.0469 0.307153,0.0381 0.442394,-0.11906 0.135241,-0.15717 0.227792,-0.46343 0.224467,-0.76487 -0.0033,-0.30144 -0.102471,-0.59916 -0.320217,-0.80722 -0.217745,-0.20806 -0.554639,-0.32707 -0.851748,-0.28041 -0.297109,0.0467 -0.554517,0.25901 -0.686629,0.54806 -0.132112,0.28905 -0.138863,0.67109 -0.108372,1.03648 0.03049,0.3654 0.09492,0.70533 0.217109,1.11336 0.122193,0.40803 0.300374,0.87513 0.514997,1.33407 0.214623,0.45893 0.465479,0.90919 0.693302,1.24913 0.227823,0.33994 0.432494,0.56935 0.564538,0.72652 0.132045,0.15718 0.191482,0.24217 0.231093,0.30587 0.03961,0.0637 0.05942,0.10619 0.14931,0.11893 0.08989,0.0127 0.247169,-0.004 0.36215,-0.008 0.11498,-0.004 0.188687,0.004 0.224918,-0.0382 0.03623,-0.0425 0.03623,-0.13622 0.03623,-0.18282 0,-0.0466 4e-6,-0.0466 -0.234406,-0.25053 z"
       id="path2965"
       inkscape:connector-curvature="0"
       inkscape:path-effect="#path-effect2967"
       inkscape:original-d="m 92.055755,120.61347 c -0.468601,-0.40814 -0.93741,-0.81602 -1.406423,-1.22363 -0.349784,-0.85858 -0.699705,-1.71673 -1.049865,-2.57471 0.02,-0.58651 0.03982,-1.1729 0.05943,-1.75896 0.343396,0.0252 0.686911,0.0507 1.030058,0.0765 0.0398,0.43286 0.07944,0.86647 0.118853,1.3001 -0.211202,-0.0598 -0.422383,-0.11923 -0.633882,-0.17844 -0.02623,-0.0258 -0.05261,-0.0512 -0.07924,-0.0765 0.07293,0.10183 0.145471,0.20367 0.217898,0.30591 0.171901,-0.009 0.356763,-0.0173 0.534836,-0.0255 0.09254,-0.30581 0.185088,-0.61208 0.277324,-0.91772 -0.09874,-0.29736 -0.197882,-0.59508 -0.297133,-0.89223 -0.336397,-0.11918 -0.673293,-0.23819 -1.010247,-0.35689 -0.257416,0.21226 -0.514823,0.42461 -0.772543,0.63731 -0.0065,0.36546 -0.01299,0.7475 -0.01982,1.12165 0.06628,0.35689 0.132264,0.69652 0.198089,1.04518 0.17858,0.46735 0.356764,0.93445 0.534836,1.40207 0.251176,0.4502 0.50203,0.90046 0.752735,1.35108 0.204919,0.22919 0.409587,0.4586 0.614073,0.68829 0.05962,0.0847 0.119058,0.16969 0.17828,0.25493 0.02003,0.0422 0.03982,0.0847 0.05943,0.12746 0.158967,-0.0258 0.317148,-0.0343 0.475411,-0.051 0.07274,-2.6e-4 0.145471,0.0167 0.217896,0.0255 2.06e-4,-0.0935 2.06e-4,-0.18721 0,-0.28041 z" />
    <path
       style="fill:#ce5122;fill-opacity:1;stroke:#000000;stroke-width:0.06150099;stroke-linecap:butt;stroke-linejoin:miter;stroke-miterlimit:4;stroke-dasharray:none;stroke-opacity:1"
       d="m 89.647537,121.87719 c -0.06529,-0.36741 -0.195873,-1.10234 -0.532564,-1.85181 -0.336691,-0.74948 -0.87934,-1.51325 -1.390612,-1.99695 -0.511272,-0.4837 -0.991064,-0.68726 -1.29285,-0.57295 -0.301786,0.1143 -0.425874,0.54656 -0.32215,0.87095 0.103725,0.32439 0.435655,0.54166 0.622156,0.50885 0.186502,-0.0328 0.2276,-0.31555 0.243485,-0.47828 0.01588,-0.16273 0.0065,-0.20502 0.02756,-0.16171 0.02104,0.0433 0.07238,0.17209 0.05862,0.34059 -0.01376,0.1685 -0.09868,0.3924 -0.281988,0.4976 -0.183304,0.10519 -0.468501,0.0999 -0.709413,-0.0213 -0.240912,-0.12122 -0.438541,-0.35884 -0.514194,-0.70743 -0.07565,-0.3486 -0.02952,-0.80906 0.133067,-1.15624 0.162593,-0.34719 0.441677,-0.58112 0.729671,-0.63119 0.287994,-0.0501 0.598017,0.0901 0.878785,0.2695 0.280769,0.17937 0.527322,0.39102 0.803948,0.69987 0.276625,0.30885 0.577159,0.70946 0.85579,1.15173 0.278631,0.44226 0.53504,0.92569 0.712434,1.33793 0.177393,0.41223 0.275678,0.75303 0.346471,0.97647 0.07079,0.22343 0.114108,0.32955 0.148646,0.40298 0.03454,0.0734 0.06037,0.11434 0.03305,0.22903 -0.02732,0.11468 -0.107688,0.30289 -0.159518,0.44249 -0.05183,0.1396 -0.07598,0.2338 -0.125399,0.26183 -0.04942,0.028 -0.124752,-0.008 -0.162234,-0.0265 -0.03748,-0.0181 -0.03748,-0.018 -0.10276,-0.38546 z"
       id="path2965-3"
       inkscape:connector-curvature="0"
       inkscape:path-effect="#path-effect2967-9"
       inkscape:original-d="m 89.712821,122.2446 c -0.130886,-0.73476 -0.261473,-1.46969 -0.391759,-2.20475 -0.543049,-0.76376 -1.085694,-1.52753 -1.628102,-2.29152 -0.479967,-0.20337 -0.959763,-0.40692 -1.439201,-0.61061 -0.124292,0.43199 -0.248391,0.86424 -0.372093,1.29616 0.331261,0.21718 0.663191,0.43445 0.995236,0.65145 0.04082,-0.28291 0.08194,-0.56564 0.123365,-0.84869 -0.0097,-0.0423 -0.01901,-0.0846 -0.02815,-0.12715 0.05118,0.12924 0.102516,0.25801 0.154225,0.38679 -0.07959,0.20785 -0.164086,0.43191 -0.245638,0.64766 -0.284821,-0.005 -0.570017,-0.0103 -0.854575,-0.0158 -0.197511,-0.23697 -0.39514,-0.47459 -0.592266,-0.71211 0.04578,-0.45991 0.09192,-0.92037 0.138323,-1.38079 0.279013,-0.23397 0.558094,-0.46791 0.837588,-0.70209 0.296541,0.13411 0.606451,0.27456 0.910139,0.41159 0.259034,0.2202 0.504318,0.43333 0.756929,0.64978 0.300573,0.40122 0.601109,0.80183 0.902113,1.20252 0.256223,0.4838 0.512632,0.96723 0.769393,1.4506 0.09801,0.34103 0.196295,0.68183 0.294886,1.02251 0.043,0.10623 0.08632,0.21234 0.129915,0.31827 0.0255,0.041 0.05133,0.0819 0.07746,0.12262 -0.08766,0.18541 -0.161079,0.37658 -0.241126,0.56467 -0.03083,0.0893 -0.04781,0.18534 -0.07122,0.2778 -0.07526,-0.0361 -0.150602,-0.0725 -0.225447,-0.10898 z" />
    <path
       style="fill:none;stroke:#000000;stroke-width:0.065;stroke-linecap:butt;stroke-linejoin:miter;stroke-miterlimit:4;stroke-dasharray:none;stroke-opacity:1"
       d="m 90.289011,121.14214 c -0.05526,-0.19128 -0.165724,-0.57366 -0.322882,-1.0069 -0.157158,-0.43324 -0.361187,-0.91781 -0.637295,-1.3978 -0.276108,-0.48 -0.624594,-0.95598 -0.992602,-1.44249 -0.368009,-0.48651 -0.762137,-0.99203 -1.142161,-1.4105 -0.380023,-0.41847 -0.758589,-0.76261 -1.098337,-0.8689 -0.339748,-0.10629 -0.645645,0.0212 -0.756253,0.20398 -0.110607,0.1828 -0.02572,0.42048 0.114683,0.55229 0.140406,0.13181 0.335723,0.1573 0.424834,0.0893 0.08911,-0.068 0.0721,-0.22965 0.05765,-0.32217 -0.01444,-0.0925 -0.01959,-0.10282 0.0037,-0.0719 0.02332,0.0309 0.08717,0.12211 0.125408,0.21553 0.03824,0.0934 0.05522,0.19533 0.0043,0.28889 -0.05095,0.0936 -0.169653,0.17835 -0.343837,0.1857 -0.174183,0.007 -0.386778,-0.0581 -0.548375,-0.17716 -0.161597,-0.11909 -0.263489,-0.28891 -0.310198,-0.4844 -0.04671,-0.19548 -0.03821,-0.41652 0.05529,-0.59486 0.0935,-0.17833 0.27217,-0.31446 0.480134,-0.37808 0.207965,-0.0636 0.446292,-0.0551 0.673753,0.008 0.227461,0.0627 0.452171,0.18374 0.709117,0.41065 0.256947,0.22692 0.558694,0.57178 0.592663,0.55474 0.03397,-0.017 -0.195451,-0.3909 -0.450318,-0.71373 -0.254867,-0.32284 -0.535336,-0.59481 -0.803017,-0.87948 -0.267681,-0.28468 -0.522603,-0.58209 -0.743201,-0.73501 -0.220597,-0.15293 -0.407939,-0.16145 -0.514278,-0.0808 -0.106338,0.0807 -0.131797,0.25041 -0.07632,0.327 0.05548,0.0766 0.191199,0.0596 0.263289,0.0256 0.07209,-0.0341 0.08061,-0.0852 0.08483,-0.0811 0.0042,0.004 0.0042,0.0469 -0.03408,0.11084 -0.0383,0.0639 -0.114387,0.14001 -0.237906,0.16986 -0.123519,0.0299 -0.292884,0.0129 -0.402523,-0.0938 -0.109639,-0.10671 -0.162556,-0.31838 -0.109482,-0.50316 0.05308,-0.18478 0.202154,-0.34214 0.427054,-0.39302 0.2249,-0.0509 0.522814,0.009 0.773304,0.16154 0.25049,0.15284 0.454566,0.39943 0.675507,0.6756 0.220942,0.27618 0.458841,0.58205 0.74068,0.96646 0.281839,0.3844 0.601886,0.8392 0.736664,0.97969 0.134778,0.14049 0.08614,-0.0216 -0.0091,-0.23292 -0.0952,-0.21127 -0.2277,-0.45144 -0.357756,-0.70709 -0.130057,-0.25565 -0.260829,-0.53463 -0.294764,-0.78535 -0.03393,-0.25073 0.02557,-0.48026 0.165696,-0.57358 0.140123,-0.0933 0.361347,-0.0508 0.548149,0.0172 0.186802,0.0679 0.339909,0.1615 0.399381,0.33121 0.05947,0.16972 0.02547,0.41627 -0.05097,0.54359 -0.07644,0.12733 -0.212231,0.13638 -0.32079,0.087 -0.10856,-0.0494 -0.189152,-0.14607 -0.214572,-0.23542 -0.02542,-0.0894 0.0086,-0.16587 0.05088,-0.1659 0.04229,-3e-5 0.09349,0.0768 0.148926,0.11076 0.05544,0.034 0.114837,0.0255 0.140196,-0.0254 0.02536,-0.0509 0.01683,-0.14476 -0.04249,-0.22951 -0.05931,-0.0847 -0.170037,-0.16141 -0.263427,-0.16577 -0.09339,-0.004 -0.169801,0.0636 -0.199664,0.1871 -0.02986,0.12355 -0.01293,0.30134 0.0466,0.50123 0.05953,0.1999 0.161367,0.42054 0.282949,0.67635 0.121581,0.25582 0.2693,0.55994 0.415424,0.86513 0.146123,0.30519 0.287242,0.60403 0.448726,0.944 0.161483,0.33996 0.339863,0.71371 0.518335,1.07491 0.178472,0.36119 0.356863,0.70948 0.55427,1.05246 0.197407,0.34297 0.405919,0.66825 0.601379,0.96144 0.195461,0.29319 0.373869,0.54806 0.537479,0.74992 0.163609,0.20186 0.320779,0.35903 0.448226,0.49922 0.127447,0.14018 0.229416,0.26764 0.140425,0.35327 -0.08899,0.0856 -0.352545,0.1268 -0.548046,0.16927 -0.195501,0.0425 -0.314321,0.0849 -0.386763,0.0678 -0.07244,-0.0171 -0.09788,-0.0934 -0.110596,-0.13157 -0.01272,-0.0382 -0.01269,-0.0381 -0.06794,-0.22942 z"
       id="path2987"
       inkscape:connector-curvature="0"
       inkscape:path-effect="#path-effect2989"
       inkscape:original-d="m 90.344269,121.33342 c -0.110201,-0.38265 -0.220667,-0.76503 -0.331398,-1.14715 -0.203581,-0.4844 -0.407609,-0.96897 -0.611812,-1.45306 -0.348036,-0.47599 -0.696521,-0.95197 -1.045178,-1.42756 -0.382083,-0.50156 -0.781498,-1.00295 -1.172642,-1.50404 -0.365096,-0.34013 -0.747506,-0.68005 -1.121656,-1.01968 -0.305652,0.1272 -0.611547,0.25466 -0.917718,0.38238 0.08533,0.23791 0.170212,0.47559 0.254921,0.71378 0.195829,0.0252 0.391144,0.0507 0.586322,0.0765 -0.01672,-0.16153 -0.03373,-0.32317 -0.05098,-0.48435 -0.0082,-0.0257 -0.01672,-0.0343 -0.02551,-0.051 0.05937,0.0757 0.119229,0.16969 0.178446,0.25492 0.01728,0.10177 0.03425,0.20368 0.05098,0.30591 -0.118951,0.0849 -0.237665,0.16968 -0.356891,0.25492 -0.229746,-0.0684 -0.4416,-0.13622 -0.662797,-0.20393 -0.10178,-0.17035 -0.203674,-0.34017 -0.305906,-0.50985 0.0088,-0.22109 0.01725,-0.44213 0.02548,-0.6628 0.178488,-0.13605 0.357156,-0.27218 0.535334,-0.40787 0.2378,0.008 0.47612,0.0167 0.713782,0.0255 0.220959,0.11009 0.44213,0.23766 0.662798,0.35689 0.297545,0.33099 0.595082,0.67953 0.892225,1.01969 -0.229177,-0.37417 -0.458595,-0.74804 -0.68829,-1.12166 -0.280093,-0.27212 -0.560562,-0.54409 -0.84124,-0.81575 -0.254661,-0.29767 -0.509579,-0.59508 -0.764765,-0.89222 -0.186666,-2.7e-4 -0.373621,-0.0173 -0.560829,-0.0255 -0.02527,0.16991 -0.05072,0.33963 -0.07648,0.50984 0.136459,-0.0173 0.272179,-0.0343 0.407873,-0.051 0.0088,-0.0511 0.01725,-0.10223 0.02548,-0.15296 2.64e-4,0.0589 2.64e-4,0.10171 0,0.15296 -0.07661,0.0766 -0.152689,0.15269 -0.229431,0.22943 -0.17027,-0.0173 -0.33963,-0.0343 -0.509842,-0.051 -0.05079,-0.19597 -0.101705,-0.40814 -0.152952,-0.61181 0.161565,-0.16157 0.30617,-0.32317 0.458858,-0.48435 0.297172,0.0591 0.595083,0.1187 0.892226,0.17845 0.204062,0.24599 0.408138,0.49258 0.611812,0.73927 0.238217,0.30567 0.476117,0.61154 0.713782,0.91772 0.3317,0.45865 0.646065,0.91745 0.9687,1.37657 -0.05072,-0.17873 -0.101703,-0.34016 -0.152953,-0.50984 -0.135556,-0.25493 -0.27165,-0.49311 -0.407873,-0.73927 -0.127149,-0.26359 -0.254657,-0.5441 -0.382384,-0.81575 0.05972,-0.2296 0.119229,-0.45913 0.178445,-0.68829 0.220898,0.0422 0.44213,0.0847 0.662798,0.12746 0.153074,0.0931 0.30617,0.18668 0.458859,0.28041 -0.03371,0.24604 -0.06772,0.49259 -0.101968,0.73928 -0.118843,0.008 -0.254659,0.0167 -0.382384,0.0255 -0.0849,-0.11098 -0.169683,-0.2042 -0.254921,-0.30591 0.03424,-0.0767 0.06824,-0.15322 0.101968,-0.22943 0.05103,0.0759 0.102235,0.15269 0.152953,0.22943 0.05979,-0.009 0.119229,-0.0172 0.178446,-0.0255 -0.0082,-0.0933 -0.01672,-0.1872 -0.02548,-0.28041 -0.109918,-0.0766 -0.220668,-0.15322 -0.331398,-0.22943 -0.07625,0.0678 -0.152689,0.13569 -0.229429,0.20394 0.01733,0.17883 0.03425,0.35662 0.05098,0.53533 0.10237,0.22096 0.204203,0.4416 0.305909,0.6628 0.144796,0.2888 0.289173,0.59455 0.433366,0.89222 0.144772,0.31426 0.289176,0.61155 0.433366,0.91772 0.178777,0.37376 0.357156,0.74751 0.535337,1.12166 0.178763,0.34823 0.357153,0.69652 0.535334,1.04518 0.212762,0.33973 0.425135,0.66253 0.637305,0.99419 0.178747,0.25471 0.357155,0.50958 0.535336,0.76477 0.15325,0.14422 0.306171,0.30564 0.458859,0.45886 0.102233,0.12719 0.204203,0.25465 0.305906,0.38238 -0.28022,0.0422 -0.543568,0.0847 -0.81575,0.12746 -0.118829,0.0423 -0.237662,0.0847 -0.356891,0.12746 -0.02529,-0.0769 -0.05072,-0.15322 -0.07647,-0.22943 z" />
    <path
       style="fill:none;stroke:#000000;stroke-width:0.065;stroke-linecap:round;stroke-linejoin:miter;stroke-miterlimit:4;stroke-dasharray:none;stroke-opacity:1"
       d="m 93.465513,125.14887 c -0.104603,0.0105 -0.209452,0.021 -0.339112,-0.0225 -0.129659,-0.0435 -0.283767,-0.14113 -0.455806,-0.26612 -0.172039,-0.12499 -0.361859,-0.27725 -0.551682,-0.42952"
       id="path2957"
       inkscape:connector-curvature="0"
       inkscape:path-effect="#path-effect2959"
       inkscape:original-d="m 93.465513,125.14887 c -0.104624,0.0103 -0.209476,0.0208 -0.314653,0.0316 -0.153938,-0.0979 -0.308032,-0.19553 -0.462486,-0.29293 -0.18959,-0.15255 -0.379407,-0.30482 -0.569461,-0.4568"
       sodipodi:nodetypes="cccc" />
    <path
       style="fill:none;stroke:#000000;stroke-width:0.10338521;stroke-linecap:round;stroke-linejoin:round;stroke-miterlimit:4;stroke-dasharray:none;stroke-opacity:1"
       d="m 92.270647,123.79477 c 0.329223,0.30104 0.658421,0.60205 0.912222,0.72698 0.253801,0.12493 0.431981,0.0739 0.577401,0.0215 0.145419,-0.0524 0.258186,-0.10605 0.372698,-0.16298 0.114511,-0.0569 0.230831,-0.11714 0.366112,-0.14295 0.135281,-0.0258 0.286838,-0.0176 0.426649,0.0318 0.139811,0.0494 0.258003,0.13628 0.332416,0.22708 0.07441,0.0908 0.102773,0.1839 0.180891,0.24961 0.07812,0.0657 0.205835,0.10381 0.333341,0.14185"
       id="path2949"
       inkscape:connector-curvature="0"
       inkscape:path-effect="#path-effect2951"
       inkscape:original-d="m 92.270647,123.79477 c 0.329477,0.30076 0.65867,0.60178 0.987567,0.90302 0.178402,-0.0513 0.356588,-0.10231 0.534457,-0.15307 0.112972,-0.0539 0.22573,-0.1076 0.338177,-0.16099 0.116562,-0.0605 0.2329,-0.12067 0.348933,-0.1806 0.154602,0.008 0.306151,0.0164 0.463062,0.0252 0.122929,0.0899 0.24111,0.17682 0.361387,0.26572 0.02865,0.0929 0.057,0.18601 0.0851,0.27938 0.127924,0.0378 0.255642,0.0759 0.383047,0.11428"
       sodipodi:nodetypes="ccccccccc" />
    <path
       style="fill:none;stroke:#000000;stroke-width:0.10291584;stroke-linecap:round;stroke-linejoin:miter;stroke-miterlimit:4;stroke-dasharray:none;stroke-opacity:1"
       d="m 95.820169,125.1445 c -0.173806,-0.0679 -0.345176,-0.13484 -0.470008,-0.12853 -0.124833,0.006 -0.195534,0.0856 -0.291142,0.1453 -0.09561,0.0597 -0.213785,0.0978 -0.34768,0.0787 -0.133895,-0.0191 -0.281684,-0.0953 -0.439142,-0.18302 -0.157457,-0.0877 -0.323543,-0.18634 -0.459338,-0.20458 -0.135795,-0.0182 -0.241017,0.0441 -0.361477,0.0639 -0.12046,0.0198 -0.255229,-0.003 -0.472409,-0.14324 -0.217179,-0.13987 -0.522486,-0.40168 -0.824757,-0.66088"
       id="path2953"
       inkscape:connector-curvature="0"
       inkscape:path-effect="#path-effect2955"
       inkscape:original-d="m 95.820169,125.1445 c -0.173687,-0.0682 -0.345051,-0.13516 -0.521983,-0.20391 -0.07284,0.0817 -0.143546,0.16096 -0.216005,0.24217 -0.118814,0.0381 -0.237008,0.0761 -0.356285,0.11471 -0.148286,-0.0769 -0.296077,-0.15313 -0.444753,-0.22942 -0.166233,-0.0991 -0.332304,-0.19775 -0.498907,-0.29626 -0.105195,0.0623 -0.210441,0.12463 -0.31631,0.18749 -0.134953,-0.0235 -0.269715,-0.0467 -0.405007,-0.0696 -0.29888,-0.25679 -0.60419,-0.51859 -0.906703,-0.77751"
       sodipodi:nodetypes="ccccccccc" />
    <path
       style="fill:#a60022;fill-opacity:1;stroke:#000000;stroke-width:0.06062678;stroke-linecap:butt;stroke-linejoin:miter;stroke-miterlimit:4;stroke-dasharray:none;stroke-opacity:1"
       d="m 94.189907,124.57769 c 0.125605,-0.0448 0.376439,-0.13434 0.557635,-0.13432 0.181195,3e-5 0.293422,0.0897 0.360061,0.16413 0.06664,0.0745 0.088,0.1342 0.07062,0.19981 -0.01738,0.0656 -0.07834,0.14308 -0.166598,0.18552 -0.08826,0.0425 -0.205178,0.0524 -0.31317,0.0319 -0.107993,-0.0204 -0.201725,-0.069 -0.296887,-0.1158 -0.09516,-0.0468 -0.193022,-0.0924 -0.261446,-0.13107 -0.06842,-0.0386 -0.102469,-0.0658 -0.110322,-0.0909 -0.0079,-0.025 0.01347,-0.0449 0.02398,-0.0547 0.01051,-0.01 0.01052,-0.01 0.136123,-0.0546 z"
       id="path2992"
       inkscape:connector-curvature="0"
       inkscape:path-effect="#path-effect2994"
       inkscape:original-d="m 94.064303,124.62252 c 0.251157,-0.0898 0.50198,-0.17935 0.75247,-0.26855 0.11223,0.0891 0.224473,0.17872 0.33621,0.26855 0.02166,0.0593 0.04302,0.11904 0.06403,0.17903 -0.05855,0.0695 -0.117066,0.14888 -0.176107,0.22379 -0.117619,0.009 -0.234483,0.0195 -0.35222,0.0298 -0.09602,-0.0551 -0.191786,-0.0997 -0.288179,-0.1492 -0.09584,-0.0401 -0.191788,-0.0898 -0.288179,-0.13427 -0.04242,-0.0302 -0.07438,-0.06 -0.112066,-0.0895 0.02171,-0.0202 0.04302,-0.0401 0.06403,-0.0597 z" />
    <path
       style="fill:#e1710d;fill-opacity:1;stroke:#000000;stroke-width:0.065;stroke-linecap:butt;stroke-linejoin:miter;stroke-miterlimit:4;stroke-dasharray:none;stroke-opacity:1"
       d="m 96.437846,127.29212 c 0.08052,-0.11643 0.240992,-0.34848 1.297523,-0.56683 1.056531,-0.21836 2.999801,-0.42139 3.956521,-0.53159 0.95671,-0.11019 0.92271,-0.1272 0.82053,-0.15275 -0.10219,-0.0256 -0.27159,-0.0594 -1.07117,-0.0679 -0.79959,-0.008 -2.225437,0.008 -2.91796,-0.004 -0.692523,-0.0129 -0.667082,-0.0383 -0.5839,-0.0836 0.08318,-0.0453 0.18881,-0.0906 1.020563,-0.21784 0.831754,-0.12729 2.380237,-0.33148 3.161977,-0.44206 0.78174,-0.11057 0.79879,-0.12762 0.59812,-0.16105 -0.20066,-0.0334 -0.63214,-0.0852 -1.26965,-0.0852 -0.63751,-1e-5 -1.486785,0.051 -2.141074,0.0939 -0.654289,0.043 -1.086525,0.076 -1.428275,0.10161 -0.34175,0.0257 -0.579113,0.0429 -0.763571,-0.0551 -0.184458,-0.0981 -0.315224,-0.31134 -0.365569,-0.3627 -0.05035,-0.0514 -0.02017,0.0595 9.13e-4,0.24393 0.02108,0.18446 0.03311,0.44316 0.02112,0.68632 -0.01199,0.24316 -0.04716,0.46583 -0.121011,0.75309 -0.07386,0.28727 -0.184535,0.62739 -0.240071,0.79805 -0.05554,0.17067 -0.05553,0.17067 0.02498,0.0542 z"
       id="path3000"
       inkscape:connector-curvature="0"
       inkscape:path-effect="#path-effect3002"
       inkscape:original-d="m 96.357329,127.40855 c 0.16109,-0.23282 0.321564,-0.46487 0.482476,-0.69767 1.952071,-0.20418 3.895345,-0.40721 5.842675,-0.61043 -0.0337,-0.0173 -0.0677,-0.0343 -0.10197,-0.051 -0.17021,-0.0344 -0.33963,-0.0682 -0.50984,-0.10197 -1.42901,0.0168 -2.854861,0.0337 -4.282685,0.051 0.05126,-0.0343 0.06824,-0.0682 0.101968,-0.10196 0.135165,-0.0509 0.238191,-0.10224 0.356891,-0.15296 1.542637,-0.2206 3.093316,-0.40814 4.639576,-0.61181 0.0173,-0.0172 0.0343,-0.0343 0.051,-0.051 -0.41799,-0.0505 -0.84947,-0.10224 -1.27461,-0.15296 -0.84993,0.0508 -1.69921,0.10171 -2.549213,0.15296 -0.458581,0.0347 -0.890814,0.0677 -1.336903,0.10196 -0.237414,0.017 -0.474776,0.0343 -0.712734,0.0519 -0.130628,-0.21371 -0.261394,-0.42695 -0.392488,-0.64003 0.03041,0.11046 0.06058,0.2213 0.09043,0.33218 0.01228,0.25811 0.02432,0.51681 0.03605,0.77511 -0.03579,0.22806 -0.07187,0.45059 -0.108154,0.68497 -0.11056,0.34031 -0.22124,0.68043 -0.332473,1.02171 z"
       sodipodi:nodetypes="ccccccccccccccc" />
    <ellipse
       style="fill:#000000;fill-opacity:1;stroke:#000000;stroke-width:0.065;stroke-linecap:round;stroke-linejoin:round;stroke-miterlimit:4;stroke-dasharray:none;stroke-dashoffset:0;stroke-opacity:1"
       id="path3008"
       cx="94.89624"
       cy="124.79156"
       rx="0.18926974"
       ry="0.17124406" />
    <path
       style="fill:none;stroke:#000000;stroke-width:0.16500001;stroke-linecap:butt;stroke-linejoin:miter;stroke-miterlimit:4;stroke-dasharray:none;stroke-opacity:1"
       d="m 85.706168,135.98254 c -1.177659,-0.87724 -3.533014,-2.63174 -5.277918,-4.65548 -1.744904,-2.02375 -2.869769,-4.29741 -3.97532,-6.72482 -1.105552,-2.42742 -2.187142,-4.9992 -2.679777,-6.46537 -0.492636,-1.46617 -0.396495,-1.8267 -0.258357,-1.92795 0.138138,-0.10125 0.34248,0.0775 0.426627,0.20958 0.08415,0.13204 0.06012,0.22814 0.0843,0.19182 0.02418,-0.0363 0.09605,-0.20402 0.07203,-0.44398 -0.02402,-0.23996 -0.144416,-0.553 -0.396915,-0.74311 -0.252499,-0.19011 -0.684571,-0.26636 -0.961049,-0.11021 -0.276478,0.15615 -0.420608,0.5405 -0.49277,1.06955 -0.07216,0.52906 -0.07216,1.24953 -0.04813,1.86252 0.02403,0.61299 0.07208,1.14154 0.02214,1.3937 -0.04994,0.25217 -0.190164,0.2288 -0.454937,0.0242 -0.264773,-0.20459 -0.648746,-0.58857 -0.904738,-0.97199 -0.255992,-0.38343 -0.368953,-0.72231 -0.356809,-0.90249 0.01214,-0.18018 0.204481,-0.18018 0.31244,-0.14422 0.107958,0.0359 0.156112,0.10818 0.180168,0.0239 0.02406,-0.0843 0.02406,-0.32446 -0.155893,-0.46849 -0.179949,-0.14404 -0.540856,-0.19216 -0.759382,-0.0636 -0.218527,0.12858 -0.286339,0.39983 -0.252736,0.86944 0.0336,0.4696 0.182582,1.16484 0.422994,1.66971 0.240413,0.50487 0.576793,0.84125 0.829129,1.15365 0.252336,0.3124 0.420576,0.60081 0.455142,0.76489 0.03457,0.16408 -0.106311,0.22043 -0.359263,0.17226 -0.252951,-0.0482 -0.636478,-0.19199 -1.081273,-0.49253 -0.444795,-0.30053 -0.949322,-0.75701 -1.105418,-1.08162 -0.156095,-0.3246 0.03618,-0.51687 0.180159,-0.52891 0.143984,-0.012 0.240252,0.15643 0.276311,0.0842 0.03606,-0.0723 0.01204,-0.38454 -0.19198,-0.56464 -0.204018,-0.1801 -0.588864,-0.22821 -0.837507,-0.0948 -0.248643,0.13347 -0.376363,0.49109 -0.391187,0.88607 -0.01482,0.39499 0.08677,0.90297 0.33357,1.35381 0.246796,0.45084 0.666539,0.89528 1.075113,1.38797 0.408574,0.49269 0.817144,1.04546 1.095192,1.50623 0.278048,0.46077 0.418925,0.81296 -0.134017,0.69277 -0.552942,-0.12019 -1.802247,-0.72082 -2.475289,-1.22568 -0.673041,-0.50486 -0.769169,-0.91341 -0.798637,-1.14547 -0.02947,-0.23207 0.02971,-0.32084 -0.08067,-0.11252 -0.110389,0.20833 -0.370325,0.68094 -0.418442,1.41436 -0.04812,0.73342 0.120011,1.71817 0.576765,2.55956 0.456754,0.84138 1.201653,1.53822 1.792688,2.01525 0.591036,0.47703 0.971264,0.70069 1.132416,0.84239 0.161152,0.1417 0.05538,0.19459 -0.520189,0.0749 -0.575573,-0.11971 -1.635708,-0.40884 -2.519257,-0.99054 -0.883549,-0.5817 -1.616217,-1.48533 -1.928598,-2.0743 -0.312382,-0.58897 -0.21624,-0.8774 -0.336165,-0.80552 -0.119924,0.0719 -0.456777,0.50497 -0.565018,1.25042 -0.10824,0.74545 0.01185,1.80224 0.426592,2.74486 0.414743,0.94262 1.147489,1.7975 2.132997,2.43445 0.985509,0.63695 2.235255,1.06956 3.160593,1.28584 0.925337,0.21628 1.52627,0.21628 1.826565,0.26418 0.300295,0.0479 0.300295,0.096 -0.05032,0.2374 -0.350613,0.14137 -1.091128,0.36353 -2.077551,0.31824 -0.986423,-0.0453 -2.282361,-0.36316 -3.189748,-0.82666 -0.907387,-0.4635 -1.424136,-1.05072 -1.7366,-1.4834 -0.312465,-0.43267 -0.408607,-0.69706 -0.534153,-0.71292 -0.125546,-0.0159 -0.25874,0.18394 -0.282822,0.71333 -0.02408,0.52938 0.07192,1.36939 0.360395,2.10262 0.288475,0.73323 0.769026,1.35795 1.406004,1.93483 0.636978,0.57688 1.430058,1.1056 2.417627,1.47851 0.987568,0.37291 2.161067,0.58845 3.134422,0.70824 0.973355,0.11979 1.790633,0.14455 2.207376,0.18703 0.416743,0.0425 0.472225,0.12569 0.448274,0.23379 -0.02395,0.10809 -0.12001,0.25218 -0.730727,0.492 -0.610717,0.23982 -1.744527,0.57756 -2.99698,0.60111 -1.252454,0.0236 -2.617175,-0.26376 -3.530632,-0.76859 -0.913456,-0.50483 -1.370044,-1.22575 -1.68246,-1.67034 -0.312415,-0.4446 -0.480667,-0.61285 -0.600819,-0.43274 -0.120152,0.18011 -0.192254,0.70886 -0.06002,1.47831 0.132235,0.76945 0.468528,1.77832 1.141632,2.58362 0.673105,0.8053 1.682383,1.40606 2.739934,1.7305 1.05755,0.32444 2.163213,0.37251 3.25667,0.31242 1.093456,-0.0601 2.175245,-0.22838 3.028386,-0.43267 0.853141,-0.2043 1.478205,-0.4447 1.350956,-0.21074 -0.12725,0.23396 -0.978357,0.91957 -1.603309,1.29221 -0.624952,0.37264 -1.009379,0.42069 -1.356183,0.46849 -0.346804,0.0478 -0.66263,0.0964 -0.337758,0.22873 0.324873,0.13234 1.285326,0.34844 2.426876,0.28832 1.141551,-0.0601 2.463703,-0.39666 2.716161,-0.33668 0.252459,0.06 -0.5649,0.51675 -1.514464,0.86535 -0.949564,0.34859 -2.030691,0.58884 -2.655734,0.64896 -0.625043,0.0601 -0.793233,-0.06 -0.82918,-0.18036 -0.03595,-0.12036 0.06016,-0.24049 0.180104,-0.26444 0.119941,-0.0239 0.26448,0.0483 0.316566,0.0145 0.05209,-0.0339 -0.0042,-0.23076 -0.184136,-0.33878 -0.179962,-0.10803 -0.492728,-0.15615 -0.769197,-0.036 -0.276468,0.12011 -0.516645,0.40832 -0.500085,0.85124 0.01656,0.44293 0.27156,0.9993 0.896645,1.49213 0.625086,0.49283 1.610289,0.90133 2.908114,0.98542 1.297824,0.0841 2.908335,-0.15629 4.001849,-0.4207 1.093514,-0.2644 1.670446,-0.55287 1.970843,-0.69699 0.300396,-0.14413 0.324436,-0.14413 0.383873,-0.67909 0.05944,-0.53496 0.156633,-1.62841 0.374087,-2.68933 0.217453,-1.06093 0.55172,-2.0876 1.032386,-2.9407 0.480666,-0.85309 1.105746,-1.52625 1.658465,-2.00683 0.552718,-0.48058 1.033598,-0.76911 1.345943,-1.02146 0.312345,-0.25235 0.456645,-0.4688 0.528645,-0.5768 0.072,-0.108 0.07201,-0.108 -1.105651,-0.98523 z"
       id="path3010"
       inkscape:connector-curvature="0"
       inkscape:path-effect="#path-effect3012"
       inkscape:original-d="m 86.883826,136.85977 c -2.355093,-1.75477 -4.710448,-3.50927 -7.066071,-5.2635 -1.1534,-2.28356 -2.258954,-4.56678 -3.388831,-6.84977 -1.081225,-2.57181 -2.162817,-5.14359 -3.244622,-7.71499 0.0964,-0.36076 0.192537,-0.72129 0.288409,-1.08154 0.192373,0.14381 0.384813,0.33621 0.576824,0.50472 -0.02376,0.0959 -0.04781,0.192 -0.07211,0.28841 0.0726,-0.16905 0.144471,-0.33675 0.21631,-0.50472 -0.119679,-0.31212 -0.240077,-0.62516 -0.360513,-0.93734 -0.384109,-0.0723 -0.816901,-0.14447 -1.225748,-0.21631 -0.144016,0.38449 -0.288147,0.76884 -0.432615,1.15365 2.64e-4,0.67325 2.64e-4,1.39372 0,2.09098 0.04835,0.52869 0.0964,1.05724 0.144203,1.58626 -0.144005,-0.0484 -0.288145,-0.0483 -0.432615,-0.0721 -0.384855,-0.38539 -0.768832,-0.76936 -1.153644,-1.15365 -0.119907,-0.38481 -0.240078,-0.72129 -0.360513,-1.08154 0.144406,-2.6e-4 0.336743,-2.6e-4 0.504719,0 0.04826,0.0717 0.0964,0.14394 0.144206,0.21631 2.64e-4,-0.24081 2.64e-4,-0.48095 0,-0.72103 -0.359855,-0.0483 -0.720765,-0.0964 -1.081543,-0.14421 -0.04783,0.31238 -0.143941,0.57656 -0.216307,0.86524 0.144623,0.64936 0.288673,1.34565 0.432614,2.01888 0.336844,0.33631 0.673225,0.67269 1.009439,1.00944 0.168505,0.28814 0.336746,0.57655 0.504719,0.86523 -0.0959,0.0478 -0.240078,0.0959 -0.360513,0.1442 -0.385305,-0.14485 -0.768832,-0.28867 -1.153645,-0.43261 -0.504645,-0.45709 -1.009173,-0.91357 -1.514157,-1.36996 0.192545,-0.19254 0.384813,-0.38481 0.576823,-0.57682 0.09627,0.16775 0.192538,0.33622 0.288409,0.50472 -0.02379,-0.31287 -0.0478,-0.62515 -0.0721,-0.93733 -0.383985,-0.0483 -0.768832,-0.0964 -1.153644,-0.14421 -0.119978,0.31236 -0.240078,0.6727 -0.360514,1.00944 0.07243,0.45682 0.192538,0.9611 0.288412,1.44205 0.384974,0.43254 0.817428,0.86497 1.225746,1.29785 0.408855,0.55254 0.81743,1.10531 1.225746,1.65837 0.168518,0.36028 0.288676,0.72076 0.432617,1.08154 -1.249992,-0.60135 -2.499296,-1.20198 -3.749344,-1.80257 -0.09588,-0.40888 -0.192008,-0.81743 -0.288409,-1.22575 0.04831,-0.0483 0.0964,-0.14447 0.144203,-0.21631 -0.286925,0.47839 -0.528487,0.96111 -0.793128,1.44206 0.168614,0.98579 0.336743,1.97054 0.504719,2.95621 0.745487,0.69688 1.490387,1.39372 2.235184,2.09098 0.432877,0.26411 0.81743,0.48042 1.225749,0.72103 -0.09585,0.0238 -0.192011,0.0959 -0.288412,0.14421 -1.060736,-0.26552 -2.114751,-0.57709 -3.172521,-0.86524 -0.720886,-0.86564 -1.441791,-1.7788 -2.163082,-2.6678 0.0964,-0.28866 0.192537,-0.57709 0.288409,-0.86523 -0.335844,0.43187 -0.672693,0.86497 -1.009439,1.29785 0.120518,1.05796 0.240607,2.11475 0.360514,3.17252 0.72145,0.81708 1.44232,1.68213 2.163082,2.5236 1.25008,0.43236 2.499828,0.86496 3.749344,1.29785 0.601046,-2.7e-4 1.201979,-2.7e-4 1.802569,0 2.65e-4,0.0958 2.65e-4,0.14394 0,0.2163 -0.699285,0.21684 -1.441791,0.43236 -2.163082,0.64893 -1.250064,-0.31285 -2.547366,-0.62516 -3.821446,-0.93734 -0.528569,-0.62525 -1.057243,-1.20197 -1.586262,-1.80257 -0.09587,-0.26463 -0.192008,-0.52902 -0.288411,-0.79313 -0.14386,0.23995 -0.288145,0.43235 -0.432615,0.64893 0.09654,0.84212 0.192537,1.68213 0.288412,2.52359 0.481081,0.6248 0.961633,1.24952 1.442053,1.87468 0.793445,0.52852 1.586526,1.05724 2.379392,1.58626 1.177851,0.24006 2.35562,0.43235 3.533034,0.64892 0.769226,0.0238 1.586527,0.0478 2.379393,0.0721 0.02429,0.0718 0.0964,0.14394 0.144203,0.21631 -0.09595,0.14406 -0.192008,0.28815 -0.288409,0.43262 -1.131736,0.31284 -2.258957,0.67269 -3.388831,1.00944 -1.37007,-0.3128 -2.739638,-0.57709 -4.109857,-0.86524 -0.456451,-0.72139 -0.913038,-1.44232 -1.369952,-2.16308 -0.16796,-0.16849 -0.336214,-0.33674 -0.504719,-0.50472 -0.07184,0.52849 -0.143941,1.05724 -0.216307,1.58626 0.336931,1.00974 0.673221,2.01862 1.009438,3.02832 1.009862,0.60069 2.019141,1.20145 3.028315,1.80257 1.105754,0.0478 2.211416,0.0959 3.316726,0.1442 1.081559,-0.16846 2.163348,-0.33674 3.244626,-0.50472 0.624982,-0.24054 1.250045,-0.48095 1.87467,-0.72102 -0.888547,0.69637 -1.7302,1.39372 -2.5957,2.09098 -0.38441,0.0478 -0.768831,0.0959 -1.153644,0.1442 -0.312417,0.0238 -0.624626,0.0959 -0.937334,0.14421 0.962552,0.21625 1.923005,0.43235 2.884109,0.64892 1.321882,-0.33667 2.644034,-0.67322 3.965652,-1.00944 -0.816705,0.45628 -1.634064,0.91304 -2.451494,1.36996 -1.081691,0.24017 -2.162818,0.48042 -3.244623,0.72102 -0.168023,-0.12047 -0.336216,-0.2406 -0.504719,-0.36051 0.09643,-0.12047 0.192537,-0.24061 0.288409,-0.36051 0.144124,0.0717 0.288676,0.14394 0.432618,0.2163 -0.02376,-0.14436 -0.09587,-0.33674 -0.144206,-0.50471 -0.311857,-0.0483 -0.624626,-0.0964 -0.937334,-0.14421 -0.240247,0.28835 -0.480423,0.57656 -0.72103,0.86523 0.264904,0.60119 0.529019,1.15338 0.793131,1.73047 0.985872,0.4084 1.971075,0.8169 2.956214,1.22575 1.610344,-0.24058 3.220855,-0.48095 4.830884,-0.72103 0.576979,-0.28862 1.153909,-0.57709 1.730467,-0.86523 0.02429,-2.7e-4 0.04833,-2.7e-4 0.0721,0 0.09534,-1.0699 0.19254,-2.16335 0.288412,-3.24463 0.360682,-1.03346 0.673224,-2.06721 1.009438,-3.10042 0.624964,-0.67302 1.250045,-1.34618 1.874671,-2.01887 0.480756,-0.28856 0.961636,-0.57709 1.442056,-0.86524 0.144378,-0.21643 0.288676,-0.43288 0.432617,-0.64892 z" />
    <path
       style="fill:none;stroke:#000000;stroke-width:0.16500001;stroke-linecap:butt;stroke-linejoin:miter;stroke-miterlimit:4;stroke-dasharray:none;stroke-opacity:1"
       d="m 96.56486,137.94246 c 1.235013,-0.28181 3.70504,-0.84542 5.89868,-1.97409 2.19364,-1.12867 4.09476,-2.80816 6.03613,-4.63726 1.94137,-1.82911 3.91516,-3.80094 4.92563,-4.97196 1.01048,-1.17102 1.0578,-1.54113 0.96821,-1.6871 -0.0896,-0.14597 -0.34636,-0.0577 -0.47419,0.0327 -0.12783,0.0904 -0.14194,0.18853 -0.15052,0.14574 -0.009,-0.0428 -0.0116,-0.22522 0.10147,-0.43826 0.11304,-0.21305 0.34287,-0.45731 0.64851,-0.53783 0.30564,-0.0805 0.73447,0.0123 0.93136,0.26138 0.1969,0.24909 0.18497,0.65942 0.0517,1.17648 -0.13326,0.51705 -0.40571,1.18403 -0.65975,1.74241 -0.25405,0.55839 -0.4984,1.02952 -0.5476,1.28184 -0.0492,0.25232 0.0896,0.28376 0.41207,0.19449 0.32249,-0.0893 0.82316,-0.29955 1.20513,-0.5577 0.38197,-0.25816 0.61469,-0.52916 0.67157,-0.70055 0.0569,-0.1714 -0.12115,-0.24412 -0.23473,-0.25163 -0.11357,-0.008 -0.18544,0.0411 -0.1758,-0.046 0.01,-0.0872 0.10045,-0.30947 0.3215,-0.37477 0.22106,-0.0653 0.57336,0.0266 0.72704,0.22829 0.15368,0.20167 0.11388,0.47842 -0.0948,0.90045 -0.20868,0.42202 -0.6095,1.00931 -1.02298,1.38578 -0.41347,0.37647 -0.85207,0.56066 -1.2038,0.75445 -0.35174,0.19379 -0.61654,0.39716 -0.71059,0.53598 -0.094,0.13882 0.0151,0.24428 0.26745,0.29534 0.25238,0.0511 0.66182,0.063 1.18724,-0.047 0.52542,-0.11001 1.16509,-0.34181 1.43233,-0.58329 0.26725,-0.24148 0.16197,-0.49217 0.0332,-0.55776 -0.12874,-0.0656 -0.28156,0.054 -0.28761,-0.0266 -0.006,-0.0805 0.13426,-0.36054 0.39123,-0.45013 0.25698,-0.0896 0.63144,0.0114 0.81115,0.22899 0.1797,0.21757 0.1627,0.59693 0.0271,0.96819 -0.13564,0.37126 -0.42179,0.80312 -0.82074,1.12716 -0.39895,0.32404 -0.95559,0.57675 -1.52013,0.87836 -0.56455,0.30161 -1.1518,0.65883 -1.58344,0.98024 -0.43164,0.32141 -0.69524,0.59419 -0.13791,0.69201 0.55733,0.0978 1.94101,0.0142 2.75498,-0.19865 0.81397,-0.21286 1.05746,-0.55473 1.17249,-0.75842 0.11504,-0.20369 0.0938,-0.30824 0.11723,-0.0736 0.0234,0.23461 0.0853,0.7704 -0.14747,1.46756 -0.2328,0.69716 -0.76082,1.54521 -1.50182,2.15141 -0.74101,0.60619 -1.69409,0.96961 -2.42163,1.18772 -0.72754,0.21811 -1.1641,0.28138 -1.3669,0.35159 -0.2028,0.0702 -0.12483,0.15922 0.45328,0.26605 0.5781,0.10682 1.66884,0.24004 2.70675,0.0357 1.03791,-0.2044 2.05787,-0.76387 2.56978,-1.19098 0.51191,-0.42711 0.53198,-0.7305 0.61582,-0.61861 0.0838,0.1119 0.23191,0.6402 0.0502,1.37123 -0.18168,0.73103 -0.69248,1.66395 -1.43288,2.37975 -0.74039,0.71579 -1.74199,1.2301 -2.89519,1.44709 -1.15319,0.217 -2.47372,0.14489 -3.41213,-0.005 -0.93841,-0.14969 -1.49473,-0.37693 -1.79084,-0.44612 -0.29612,-0.0692 -0.31432,-0.0246 -0.0432,0.23879 0.27113,0.26344 0.87265,0.74912 1.80296,1.08021 0.9303,0.33109 2.25022,0.52687 3.2655,0.44091 1.01528,-0.086 1.71571,-0.43417 2.16859,-0.71657 0.45288,-0.2824 0.64185,-0.49079 0.76408,-0.45799 0.12222,0.0328 0.16998,0.2681 -0.008,0.76728 -0.17788,0.49919 -0.5844,1.24053 -1.12872,1.81022 -0.54431,0.5697 -1.22541,0.96632 -2.03324,1.2595 -0.80782,0.29318 -1.74195,0.48274 -2.7972,0.45452 -1.05526,-0.0282 -2.22312,-0.27244 -3.1695,-0.52961 -0.94639,-0.25718 -1.71234,-0.5433 -2.1142,-0.66157 -0.40185,-0.11828 -0.48474,-0.0622 -0.50342,0.0469 -0.0187,0.10909 0.0158,0.27885 0.49044,0.7318 0.47467,0.45295 1.39659,1.19434 2.54714,1.68975 1.15055,0.49541 2.52258,0.74549 3.5591,0.62357 1.03652,-0.12192 1.73182,-0.61666 2.18917,-0.91011 0.45735,-0.29344 0.67671,-0.38557 0.71984,-0.17341 0.0431,0.21217 -0.0901,0.72893 -0.50346,1.39124 -0.41338,0.66232 -1.1062,1.46911 -2.03384,1.96008 -0.92764,0.49097 -2.08916,0.66547 -3.19086,0.56592 -1.1017,-0.0996 -2.14346,-0.47315 -3.133,-0.94227 -0.98953,-0.46911 -1.92736,-1.03397 -2.6399,-1.54571 -0.71254,-0.51174 -1.20028,-0.97065 -1.17095,-0.70595 0.0293,0.26471 0.55797,1.22125 0.99561,1.80254 0.43764,0.5813 0.77535,0.77115 1.07832,0.94654 0.30297,0.1754 0.57699,0.33982 0.2262,0.33948 -0.35079,-3.4e-4 -1.32166,-0.16348 -2.35571,-0.6508 -1.03406,-0.48732 -2.13076,-1.29884 -2.38716,-1.33878 -0.256402,-0.0399 0.32754,0.69198 1.07478,1.37377 0.74724,0.68178 1.65724,1.31301 2.21315,1.60503 0.5559,0.29203 0.75701,0.24443 0.83581,0.14662 0.0788,-0.0978 0.0353,-0.24537 -0.0667,-0.31289 -0.10199,-0.0675 -0.26312,-0.0553 -0.29853,-0.10628 -0.0354,-0.051 0.0911,-0.21203 0.29857,-0.24398 0.20745,-0.0319 0.51518,0.0418 0.7257,0.25751 0.21053,0.21574 0.32389,0.57336 0.14107,0.97714 -0.18282,0.40378 -0.62928,0.82241 -1.39431,1.04228 -0.76504,0.21988 -1.83155,0.22551 -3.0648,-0.18741 -1.233257,-0.41291 -2.633287,-1.24444 -3.724097,-1.9707 -1.09081,-0.72625 -1.863994,-1.34046 -2.141422,-1.81798 -0.277428,-0.47752 -0.04468,-0.80113 0.1571,-1.24726 0.201783,-0.44614 0.378087,-1.02744 0.549089,-1.85573 0.171002,-0.82829 0.334203,-1.88826 0.407259,-2.84283 0.07306,-0.95457 0.05495,-1.79677 0.02236,-2.38714 -0.03258,-0.59037 -0.0796,-0.92863 -0.141709,-1.29737 -0.06211,-0.36874 -0.139354,-0.76824 -0.194967,-1.05693 -0.05561,-0.28868 -0.08975,-0.46734 -0.106779,-0.55649 -0.01703,-0.0891 -0.01703,-0.0891 1.217982,-0.37095 z"
       id="path3010-5"
       inkscape:connector-curvature="0"
       inkscape:path-effect="#path-effect3012-8"
       inkscape:original-d="m 95.329847,138.22427 c 2.469982,-0.56381 4.940003,-1.12743 7.410093,-1.69085 1.93127,-1.67784 3.81813,-3.37347 5.72741,-5.05969 1.97344,-1.97198 3.94723,-3.94381 5.92106,-5.91519 0.0472,-0.37043 0.0945,-0.74054 0.14198,-1.11029 -0.23246,0.0604 -0.48336,0.16573 -0.72485,0.24911 -0.0143,0.0977 -0.0284,0.19584 -0.0423,0.29427 -0.003,-0.18396 -0.007,-0.36638 -0.009,-0.54903 0.22882,-0.2437 0.45865,-0.48796 0.6882,-0.73142 0.38292,0.0783 0.81087,0.17517 1.21653,0.26327 -0.0116,0.41039 -0.024,0.82071 -0.0358,1.23157 -0.25483,0.62315 -0.52727,1.29013 -0.79069,1.93571 -0.24464,0.47118 -0.48903,0.94229 -0.73333,1.41395 0.15161,0.009 0.28502,0.0642 0.42775,0.0969 0.50201,-0.21125 1.00269,-0.42151 1.50424,-0.63175 0.25651,-0.3109 0.49501,-0.57694 0.74271,-0.8649 -0.13359,-0.0549 -0.31163,-0.12759 -0.46724,-0.19086 -0.0719,0.0481 -0.14367,0.0969 -0.21529,0.14572 0.0908,-0.22303 0.18161,-0.44533 0.27266,-0.66749 0.35139,0.0914 0.70369,0.18331 1.05577,0.27547 -0.0739,0.30727 -0.0848,0.58818 -0.12695,0.88279 -0.37943,0.54646 -0.7761,1.13658 -1.16392,1.70539 -0.43901,0.18395 -0.8776,0.36816 -1.3162,0.55276 -0.26494,0.20304 -0.52975,0.40641 -0.79442,0.61013 0.0707,0.0805 0.18598,0.17958 0.27922,0.26983 0.41146,0.0116 0.8209,0.0234 1.23157,0.0358 0.64003,-0.23232 1.2797,-0.46412 1.91976,-0.69566 -0.10545,-0.25107 -0.21072,-0.50176 -0.31586,-0.75212 -0.15258,0.11887 -0.30538,0.23845 -0.45785,0.35819 0.14034,-0.28065 0.28064,-0.56066 0.42119,-0.84048 0.37373,0.1005 0.7482,0.20149 1.12251,0.30274 -0.007,0.33454 -0.0321,0.71353 -0.048,1.07082 -0.23976,0.39552 -0.54167,0.81693 -0.8123,1.22591 -0.51995,0.25484 -1.08381,0.49165 -1.6255,0.73798 -0.58744,0.35691 -1.1747,0.71412 -1.76184,1.07172 -0.29223,0.2698 -0.53979,0.55808 -0.80947,0.83764 1.38457,-0.084 2.76825,-0.16764 4.15258,-0.25094 0.2434,-0.34224 0.48686,-0.68412 0.73051,-1.02567 -0.0264,-0.063 -0.0346,-0.17019 -0.0517,-0.25477 0.0848,0.55137 0.12579,1.08958 0.1889,1.6349 -0.52885,0.84883 -1.05688,1.69688 -1.58511,2.54585 -0.95365,0.36323 -1.90674,0.72664 -2.85989,1.0905 -0.50062,0.0808 -0.9384,0.13563 -1.4074,0.20397 0.0797,0.0582 0.14149,0.16139 0.21246,0.24256 1.08239,0.15532 2.17595,0.26544 3.26415,0.39868 0.99468,-0.52877 2.00736,-1.10152 3.01127,-1.65175 0.0198,-0.30367 0.04,-0.60705 0.0602,-0.91005 0.14763,0.5268 0.29565,1.05512 0.44371,1.5832 -0.51163,0.93382 -1.02243,1.86674 -1.53342,2.80062 -0.97686,0.4836 -1.97132,1.01182 -2.95675,1.51826 -1.32076,-0.0724 -2.64129,-0.14456 -3.96172,-0.21631 -0.55631,-0.22752 -1.11263,-0.45476 -1.66872,-0.68162 -0.0365,0.0886 -0.0547,0.13315 -0.0818,0.20023 0.56536,0.46517 1.17124,0.94546 1.75708,1.4187 1.27555,0.18308 2.59463,0.38454 3.89214,0.57732 0.72576,-0.37895 1.43326,-0.71294 2.15012,-1.06889 0.18884,-0.20872 0.37778,-0.41714 0.56691,-0.62518 0.0425,0.27653 0.10325,0.5092 0.15512,0.76433 -0.40776,0.7431 -0.81432,1.48442 -1.22128,2.22715 -0.68161,0.39648 -1.36271,0.7931 -2.04387,1.19018 -0.93438,0.1892 -1.8685,0.3788 -2.80253,0.56872 -1.18119,-0.22316 -2.34421,-0.49052 -3.51609,-0.73526 -0.72112,-0.26884 -1.4868,-0.55569 -2.23,-0.83301 -0.0496,0.0573 -0.14366,0.0969 -0.21527,0.14572 0.0343,0.16962 0.0688,0.33937 0.10338,0.50956 0.9294,0.71757 1.83685,1.47695 2.75548,2.21594 1.38663,0.22852 2.75444,0.50175 4.13188,0.75313 0.69534,-0.49522 1.39064,-0.98996 2.08618,-1.48442 0.21921,-0.0925 0.43859,-0.1846 0.6581,-0.27639 -0.13338,0.51639 -0.26654,1.03316 -0.39959,1.55027 -0.69374,0.80736 -1.38655,1.61416 -2.07962,2.42174 -1.16202,0.17424 -2.32354,0.34872 -3.48509,0.52359 -1.04171,-0.37388 -2.08348,-0.74745 -3.12498,-1.1207 -0.93754,-0.56493 -1.87537,-1.12979 -2.81283,-1.69418 -0.48764,-0.45901 -0.97537,-0.91793 -1.46283,-1.37638 0.55924,0.98066 1.0747,1.94449 1.61227,2.91727 0.33779,0.18961 0.67547,0.37951 1.01346,0.56974 0.2802,0.14017 0.54198,0.32498 0.81319,0.48795 -0.97284,-0.1638 -1.94371,-0.32692 -2.91534,-0.48988 -1.09642,-0.81153 -2.19313,-1.62304 -3.289474,-2.43407 0.583518,0.73123 1.167464,1.46315 1.751424,2.19525 0.91055,0.63137 1.82055,1.26261 2.73106,1.89442 0.2011,-0.048 0.40223,-0.0955 0.60356,-0.14284 -0.0437,-0.14797 -0.0872,-0.29555 -0.13065,-0.4428 -0.16054,0.0119 -0.3217,0.0238 -0.48228,0.0367 0.0766,-0.12464 0.2161,-0.27547 0.32434,-0.41271 0.30698,0.0732 0.6147,0.14696 0.92227,0.22095 0.11336,0.35779 0.22674,0.71541 0.34032,1.07364 -0.47258,0.45637 -0.92589,0.86769 -1.38861,1.30206 -1.06711,0.005 -2.13362,0.0109 -3.20022,0.0169 -1.399794,-0.83165 -2.799825,-1.66318 -4.199521,-2.49426 -0.781805,-0.62153 -1.554987,-1.23574 -2.345467,-1.86321 0.235437,-0.32725 0.468187,-0.65085 0.698025,-0.97052 0.173848,-0.57259 0.350151,-1.15389 0.526572,-1.73619 0.165632,-1.0743 0.328832,-2.13427 0.49284,-3.20093 -0.01784,-0.84252 -0.03595,-1.68472 -0.05433,-2.52687 -0.04676,-0.33862 -0.09378,-0.67688 -0.141064,-1.0149 -0.07692,-0.39948 -0.154171,-0.79898 -0.231578,-1.19769 -0.03382,-0.17866 -0.06795,-0.35732 -0.102321,-0.53555 z"
       sodipodi:nodetypes="ccccccccccccccccccccccccccccccccccccccccccccccccccccccccccccccccccccccccccccccccccccccccccccccccccc" />
    <path
       style="fill:#e45118;fill-opacity:0.57142861;stroke:#c75600;stroke-width:0.065;stroke-linecap:butt;stroke-linejoin:miter;stroke-miterlimit:4;stroke-dasharray:0.065, 0.065;stroke-dashoffset:0;stroke-opacity:1"
       d="m 78.748269,158.03396 c -0.636869,-0.38452 -1.910686,-1.15362 -2.960173,-2.65448 -1.049486,-1.50085 -1.858786,-3.69072 -1.993073,-5.86945 -0.134287,-2.17874 0.42283,-4.35876 1.510351,-6.27552 1.087521,-1.91677 2.686038,-3.563 3.965315,-5.09736 1.279277,-1.53436 2.205636,-2.91202 2.433888,-4.57011 0.228252,-1.65809 -0.25254,-3.58126 -0.925454,-5.17941 -0.672913,-1.59815 -1.53823,-2.87209 -1.98286,-3.58118 -0.444631,-0.70908 -0.468665,-0.85329 0.179332,-0.52929 0.647997,0.324 1.971847,1.11831 3.612191,2.33902 1.640343,1.2207 3.623106,2.88913 5.216068,4.74283 1.592962,1.8537 2.82927,3.93845 3.502249,6.34184 0.67298,2.40339 0.793147,5.14319 0.627378,7.57125 -0.165769,2.42806 -0.627284,4.58989 -1.156048,6.39256 -0.528764,1.80267 -1.129535,3.26855 -2.168187,4.41318 -1.038653,1.14464 -2.4942,1.95593 -3.792187,2.40065 -1.297987,0.44472 -2.427356,0.51681 -3.304747,0.44471 -0.877392,-0.0721 -1.502126,-0.28835 -1.814649,-0.39653 -0.312523,-0.10818 -0.312525,-0.10818 -0.949394,-0.49271 z"
       id="path3032"
       inkscape:connector-curvature="0"
       inkscape:path-effect="#path-effect3034"
       inkscape:original-d="m 79.385138,158.41849 c -1.273551,-0.76936 -2.547366,-1.53846 -3.821446,-2.30729 -0.816949,-2.23558 -1.634064,-4.42256 -2.451494,-6.63345 0.577048,-2.13917 1.105842,-4.32643 1.658363,-6.48925 1.610328,-1.68242 3.220855,-3.31699 4.830887,-4.97509 0.937448,-1.41806 1.874935,-2.78824 2.812007,-4.18196 -0.480316,-1.92258 -0.961106,-3.84575 -1.442055,-5.76822 -0.864886,-1.27396 -1.730203,-2.5479 -2.5957,-3.82145 -0.02376,-0.14446 -0.0478,-0.28867 -0.0721,-0.43261 1.320181,0.79168 2.644031,1.58599 3.965652,2.37939 1.970955,1.63397 3.941881,3.31646 5.912426,4.97509 1.225995,2.04262 2.451756,4.13363 3.67724,6.20084 0.120441,2.73974 0.240607,5.47954 0.360514,8.21971 -0.456428,2.11495 -0.913038,4.27783 -1.369952,6.41715 -0.600678,1.46603 -1.201449,2.93191 -1.802569,4.39826 -1.466144,0.84112 -2.931914,1.63407 -4.398269,2.4515 -1.129589,0.0718 -2.258955,0.14394 -3.388829,0.21631 -0.624782,-0.21663 -1.249518,-0.43288 -1.874673,-0.64893 z" />
    <path
       style="fill:#e45118;fill-opacity:0.57142861;stroke:#c75600;stroke-width:0.065;stroke-linecap:butt;stroke-linejoin:miter;stroke-miterlimit:4;stroke-dasharray:0.065, 0.065;stroke-dashoffset:0;stroke-opacity:1"
       d="m 88.368386,158.4109 c -0.636868,-0.38453 -1.910686,-1.15363 -2.960172,-2.65449 -1.049486,-1.50085 -1.858786,-3.69072 -1.993073,-5.86945 -0.134287,-2.17874 0.42283,-4.35876 1.510351,-6.27552 1.087521,-1.91677 2.686038,-3.563 3.965315,-5.09736 1.279277,-1.53436 2.205636,-2.91202 2.433888,-4.57011 0.228252,-1.65809 -0.252541,-3.58126 -0.925454,-5.17941 -0.672914,-1.59815 -1.538231,-2.87209 -1.982861,-3.58118 -0.44463,-0.70908 -0.468664,-0.85329 0.179333,-0.52929 0.647997,0.324 1.971847,1.11831 3.61219,2.33902 1.640344,1.2207 3.623107,2.88913 5.216068,4.74283 1.59296,1.8537 2.829269,3.93846 3.502249,6.34184 0.67298,2.40339 0.79315,5.14319 0.62738,7.57125 -0.16577,2.42806 -0.62728,4.58989 -1.15605,6.39256 -0.528761,1.80267 -1.129532,3.26855 -2.168186,4.41318 -1.038654,1.14464 -2.494202,1.95593 -3.792188,2.40065 -1.297986,0.44472 -2.427354,0.51681 -3.304746,0.44471 -0.877392,-0.0721 -1.502127,-0.28835 -1.814649,-0.39653 -0.312523,-0.10818 -0.312526,-0.10818 -0.949395,-0.4927 z"
       id="path3032-9"
       inkscape:connector-curvature="0"
       inkscape:path-effect="#path-effect3034-8"
       inkscape:original-d="m 89.005255,158.79542 c -1.27355,-0.76936 -2.547366,-1.53846 -3.821445,-2.30729 -0.816949,-2.23558 -1.634064,-4.42256 -2.451494,-6.63345 0.577048,-2.13917 1.105842,-4.32643 1.658363,-6.48925 1.610328,-1.68242 3.220855,-3.31699 4.830887,-4.97509 0.937448,-1.41806 1.874935,-2.78824 2.812007,-4.18196 -0.480317,-1.92258 -0.961107,-3.84575 -1.442056,-5.76822 -0.864885,-1.27396 -1.730203,-2.5479 -2.595699,-3.82145 -0.02376,-0.14446 -0.0478,-0.28867 -0.0721,-0.43261 1.320181,0.79168 2.644031,1.58599 3.965652,2.37939 1.970955,1.63397 3.941882,3.31646 5.912422,4.97509 1.226,2.04262 2.451758,4.13363 3.677238,6.20084 0.12045,2.73974 0.24061,5.47954 0.36052,8.21971 -0.45643,2.11495 -0.91304,4.27783 -1.36995,6.41715 -0.600678,1.46603 -1.201448,2.93191 -1.802568,4.39826 -1.46615,0.84112 -2.93192,1.63407 -4.398272,2.4515 -1.129589,0.0718 -2.258955,0.14393 -3.388829,0.21631 -0.624783,-0.21663 -1.249519,-0.43288 -1.874673,-0.64893 z" />
    <path
       style="fill:#e45118;fill-opacity:0.57142861;stroke:#c75600;stroke-width:0.0469071;stroke-linecap:butt;stroke-linejoin:miter;stroke-miterlimit:4;stroke-dasharray:0.0469071, 0.0469071;stroke-dashoffset:0;stroke-opacity:1"
       d="m 105.25809,158.94561 c 0.56943,-0.22393 1.70843,-0.67186 2.64639,-1.54509 0.93796,-0.87323 1.6626,-2.15036 1.78171,-3.42181 0.11912,-1.27144 -0.3771,-2.53615 -1.34739,-3.65105 -0.9703,-1.11489 -2.40391,-2.07653 -3.54634,-2.96873 -1.14242,-0.8922 -1.9737,-1.69743 -2.1778,-2.66309 -0.2041,-0.96565 0.22581,-2.08572 0.82748,-3.01649 0.60167,-0.93076 1.37542,-1.67272 1.77303,-2.0857 0.39761,-0.41298 0.41912,-0.49699 -0.16033,-0.3083 -0.57945,0.1887 -1.7632,0.65131 -3.23231,1.36356 -1.4691,0.71224 -3.237349,1.68138 -4.66295,2.76236 -1.425601,1.08098 -2.528612,2.29245 -3.130338,3.69217 -0.601726,1.39973 -0.709177,2.99541 -0.560836,4.40989 0.148342,1.41447 0.560773,2.67281 1.033575,3.7227 0.472801,1.04989 1.009994,1.90363 1.936427,2.56945 0.926433,0.66582 2.232595,1.14001 3.393215,1.39902 1.160617,0.259 2.170467,0.30099 2.954977,0.259 0.7845,-0.042 1.34313,-0.16793 1.62261,-0.23094 0.27947,-0.063 0.27945,-0.063 0.84888,-0.28695 z"
       id="path3032-9-4"
       inkscape:connector-curvature="0"
       inkscape:path-effect="#path-effect3034-8-7"
       inkscape:original-d="m 104.68866,159.16955 c 1.13878,-0.44808 2.27778,-0.89601 3.41703,-1.34379 0.7305,-1.30202 1.46115,-2.57574 2.19207,-3.86338 -0.51598,-1.24588 -0.98882,-2.51976 -1.48287,-3.7794 -1.43992,-0.97986 -2.88,-1.93185 -4.31965,-2.89754 -0.83824,-0.8259 -1.67652,-1.6239 -2.51442,-2.43562 0.42949,-1.11973 0.8594,-2.2398 1.28944,-3.35947 0.77336,-0.74196 1.54711,-1.48392 2.32101,-2.22564 0.0213,-0.0841 0.0427,-0.16813 0.0645,-0.25196 -1.18047,0.46108 -2.36422,0.92369 -3.54598,1.38578 -1.76238,0.95164 -3.52473,1.93154 -5.286732,2.89754 -1.096257,1.18964 -2.1923,2.40746 -3.288092,3.61143 -0.107703,1.59565 -0.215147,3.19133 -0.322367,4.78724 0.408127,1.23176 0.816416,2.49145 1.224973,3.73741 0.537112,0.85383 1.074305,1.70757 1.611811,2.56159 1.31099,0.48987 2.621643,0.95169 3.932817,1.42777 1.01005,0.0418 2.0199,0.0838 3.0302,0.12598 0.55866,-0.12616 1.11729,-0.25211 1.67628,-0.37794 z" />
    <path
       style="fill:#e45118;fill-opacity:0.57142861;stroke:#c75600;stroke-width:0.0544107;stroke-linecap:butt;stroke-linejoin:miter;stroke-miterlimit:4;stroke-dasharray:0.0544107, 0.0544107;stroke-dashoffset:0;stroke-opacity:1"
       d="m 82.749263,160.05958 c -0.569458,-0.30132 -1.708459,-0.90402 -2.646771,-2.07987 -0.938313,-1.17584 -1.66222,-2.89252 -1.782068,-4.60068 -0.119847,-1.70816 0.377852,-3.41494 1.349599,-4.91638 0.971747,-1.50144 2.402468,-2.79274 3.54594,-3.99458 1.143472,-1.20184 1.97265,-2.28256 2.176745,-3.58191 0.204096,-1.29934 -0.225812,-2.80642 -0.827504,-4.0588 -0.601692,-1.25238 -1.375442,-2.2507 -1.773028,-2.80635 -0.397586,-0.55566 -0.419094,-0.66871 0.160335,-0.4148 0.579429,0.2539 1.76318,0.87636 3.23073,1.83355 1.467549,0.95719 3.238895,2.26347 4.663616,3.71662 1.424721,1.45316 2.529505,3.08585 3.131256,4.96925 0.601752,1.88339 0.7092,4.03041 0.560949,5.93326 -0.148252,1.90285 -0.560872,3.59675 -1.033675,5.0094 -0.472803,1.41265 -1.009995,2.56138 -1.937883,3.45796 -0.927887,0.89658 -2.231113,1.53317 -3.391737,1.88167 -1.160625,0.3485 -2.170473,0.40499 -2.954997,0.3485 -0.784525,-0.0565 -1.343156,-0.22596 -1.622612,-0.31073 -0.279457,-0.0848 -0.279437,-0.0848 -0.848895,-0.38611 z"
       id="path3032-9-4-9"
       inkscape:connector-curvature="0"
       inkscape:path-effect="#path-effect3034-8-7-3"
       inkscape:original-d="m 83.318721,160.36091 c -1.13878,-0.60291 -2.27778,-1.20561 -3.41703,-1.80811 -0.7305,-1.75189 -1.46115,-3.46572 -2.19207,-5.19827 0.51598,-1.67636 0.98882,-3.39039 1.48287,-5.08527 1.43992,-1.31842 2.88,-2.59935 4.31965,-3.89871 0.83824,-1.11127 1.67652,-2.185 2.51442,-3.27718 -0.42949,-1.50663 -0.8594,-3.01371 -1.28944,-4.52025 -0.77336,-0.99833 -1.54711,-1.99665 -2.32101,-2.99465 -0.0213,-0.11316 -0.0427,-0.22623 -0.0645,-0.33902 1.18047,0.62039 2.36422,1.24285 3.54598,1.8646 1.76238,1.28045 3.52473,2.59893 5.286736,3.89871 1.09625,1.60069 2.1923,3.23929 3.28809,4.85926 0.1077,2.14699 0.21514,4.29401 0.32236,6.44135 -0.40812,1.65736 -0.81641,3.35231 -1.22497,5.02877 -0.53711,1.14885 -1.0743,2.29758 -1.61181,3.44669 -1.310989,0.65913 -2.621642,1.28052 -3.932816,1.92109 -1.01005,0.0563 -2.0199,0.11276 -3.0302,0.16951 -0.55866,-0.16975 -1.11729,-0.33922 -1.67628,-0.50852 z" />
    <path
       style="fill:#e45118;fill-opacity:0.57142861;stroke:#c75600;stroke-width:0.04897139;stroke-linecap:butt;stroke-linejoin:miter;stroke-miterlimit:4;stroke-dasharray:0.04897139, 0.04897139;stroke-dashoffset:0;stroke-opacity:1"
       d="m 99.072802,159.74317 c 0.461315,-0.30134 1.383978,-0.90404 2.144198,-2.08033 0.76022,-1.17628 1.34632,-2.89208 1.44368,-4.59904 0.0974,-1.70695 -0.30636,-3.41609 -1.09442,-4.91853 -0.78806,-1.50243 -1.945253,-2.79176 -2.872067,-3.99446 -0.926814,-1.20271 -1.59742,-2.28169 -1.76275,-3.58105 -0.165329,-1.29937 0.182922,-2.80645 0.670339,-4.05884 0.487418,-1.25239 1.1142,-2.2507 1.436255,-2.80634 0.322054,-0.55564 0.339478,-0.6687 -0.129874,-0.4148 -0.469351,0.2539 -1.428259,0.87636 -2.616015,1.83259 -1.187756,0.95624 -2.624737,2.26442 -3.778425,3.71679 -1.153687,1.45237 -2.049483,3.08662 -2.53695,4.97004 -0.487467,1.88342 -0.574506,4.03044 -0.454447,5.93312 0.120059,1.90269 0.454375,3.59693 0.837375,5.00958 0.383,1.41265 0.818156,2.56138 1.570947,3.45865 0.75279,0.89727 1.806167,1.53247 2.746344,1.88097 0.940176,0.3485 1.758211,0.40499 2.393738,0.3485 0.635528,-0.0565 1.088052,-0.22597 1.314414,-0.31074 0.226362,-0.0848 0.226344,-0.0848 0.687658,-0.38611 z"
       id="path3032-9-4-9-4"
       inkscape:connector-curvature="0"
       inkscape:path-effect="#path-effect3034-8-7-3-0"
       inkscape:original-d="m 98.611488,160.04451 c 0.922479,-0.60291 1.845142,-1.20561 2.767992,-1.80811 0.59175,-1.75189 1.18361,-3.46572 1.7757,-5.19827 -0.41797,-1.67636 -0.801,-3.39039 -1.20121,-5.08527 -1.16641,-1.31842 -2.332963,-2.59935 -3.499163,-3.89871 -0.679023,-1.11127 -1.358079,-2.185 -2.036827,-3.27718 0.347912,-1.50663 0.696164,-3.01371 1.044522,-4.52025 0.626467,-0.99833 1.253249,-1.99665 1.880153,-2.99465 0.01725,-0.11316 0.03459,-0.22623 0.05225,-0.33902 -0.95625,0.62039 -1.915156,1.24285 -2.87245,1.8646 -1.427631,1.28045 -2.855237,2.59893 -4.282564,3.89871 -0.888027,1.60069 -1.775892,3.23929 -2.663546,4.85926 -0.08724,2.14699 -0.174276,4.29401 -0.26113,6.44135 0.3306,1.65736 0.661339,3.35231 0.992297,5.02877 0.43509,1.14885 0.870245,2.29758 1.305661,3.44669 1.061977,0.65913 2.123683,1.28052 3.18581,1.92109 0.818199,0.0563 1.636236,0.11276 2.454638,0.16951 0.452547,-0.16975 0.90507,-0.33922 1.357885,-0.50852 z" />
    <path
       style="fill:#e45118;fill-opacity:0.57142861;stroke:#c75600;stroke-width:0.04822451;stroke-linecap:butt;stroke-linejoin:miter;stroke-miterlimit:4;stroke-dasharray:0.04822451, 0.04822451;stroke-dashoffset:0;stroke-opacity:1"
       d="m 80.902804,160.01333 c 0.41853,-0.32211 1.255587,-0.96634 1.94534,-2.22394 0.689753,-1.25761 1.221324,-3.09108 1.309789,-4.91493 0.08846,-1.82385 -0.278083,-3.65216 -0.993632,-5.25891 -0.715549,-1.60675 -1.764174,-2.98333 -2.60532,-4.26951 -0.841146,-1.28618 -1.448884,-2.43827 -1.598876,-3.82718 -0.149992,-1.3889 0.165948,-2.99982 0.608151,-4.33851 0.442202,-1.33869 1.010835,-2.4058 1.303001,-2.99971 0.292165,-0.59391 0.307972,-0.71476 -0.117819,-0.44337 -0.42579,0.27139 -1.295729,0.93673 -2.372522,1.95803 -1.076793,1.02129 -2.381985,2.42125 -3.428395,3.97316 -1.04641,1.55191 -1.859592,3.29983 -2.30184,5.31303 -0.442248,2.01321 -0.521212,4.30816 -0.412308,6.34184 0.108904,2.03369 0.412235,3.84487 0.759703,5.35485 0.347467,1.50999 0.742252,2.73787 1.426168,3.69764 0.683916,0.95977 1.637609,1.63736 2.490561,2.00988 0.852952,0.37251 1.595089,0.4329 2.17167,0.3725 0.57658,-0.0604 0.987117,-0.24154 1.192464,-0.33214 0.205348,-0.0906 0.205335,-0.0906 0.623865,-0.41273 z"
       id="path3032-9-4-9-4-1"
       inkscape:connector-curvature="0"
       inkscape:path-effect="#path-effect3034-8-7-3-0-6"
       inkscape:original-d="m 80.484274,160.33545 c 0.836891,-0.64445 1.673947,-1.28868 2.511178,-1.93269 0.536846,-1.8726 1.073802,-3.70451 1.610957,-5.55644 -0.379195,-1.79186 -0.726686,-3.62399 -1.089764,-5.43565 -1.058193,-1.40926 -2.116515,-2.77845 -3.174517,-4.16733 -0.616024,-1.18784 -1.232077,-2.33555 -1.847851,-3.50299 0.315633,-1.61043 0.631574,-3.22135 0.947612,-4.8317 0.568343,-1.06711 1.136974,-2.13422 1.705714,-3.20098 0.01565,-0.12096 0.03138,-0.24182 0.0474,-0.36238 -0.867529,0.66314 -1.737469,1.32848 -2.605948,1.99307 -1.295177,1.36868 -2.590331,2.778 -3.885233,4.16734 -0.805637,1.71098 -1.611128,3.46248 -2.416426,5.19407 -0.07915,2.29492 -0.158107,4.58987 -0.236903,6.88516 0.299928,1.77156 0.599981,3.58329 0.900233,5.37526 0.394723,1.22801 0.789505,2.45589 1.184525,3.68417 0.963448,0.70455 1.92665,1.36875 2.890234,2.05346 0.742288,0.0602 1.484429,0.12053 2.226901,0.18119 0.41056,-0.18145 0.821098,-0.36259 1.231901,-0.54356 z" />
    <path
       style="fill:#e45118;fill-opacity:0.57142861;stroke:#c75600;stroke-width:0.04708013;stroke-linecap:butt;stroke-linejoin:miter;stroke-miterlimit:4;stroke-dasharray:0.04708013, 0.04708013;stroke-dashoffset:0;stroke-opacity:1"
       d="m 101.70645,158.77366 c -0.34385,-0.37376 -1.03149,-1.1212 -1.59818,-2.58069 -0.566689,-1.45949 -1.003195,-3.58583 -1.076019,-5.70076 -0.07282,-2.11492 0.228602,-4.2383 0.817316,-6.10413 0.588713,-1.86582 1.448363,-3.45962 2.139773,-4.95296 0.69141,-1.49334 1.18984,-2.82777 1.31306,-4.43921 0.12322,-1.61143 -0.13633,-3.48043 -0.4996,-5.03359 -0.36328,-1.55317 -0.8304,-2.79123 -1.0704,-3.48027 -0.23999,-0.68903 -0.25297,-0.82926 0.0968,-0.51442 0.34976,0.31485 1.06441,1.08678 1.94776,2.2698 0.88334,1.18302 1.95804,2.81104 2.81737,4.61065 0.85933,1.7996 1.52797,3.82941 1.89128,6.16517 0.36332,2.33575 0.42819,4.99836 0.33874,7.3577 -0.0894,2.35934 -0.33867,4.461 -0.62411,6.21289 -0.28544,1.75189 -0.60976,3.17648 -1.17351,4.29194 -0.56376,1.11546 -1.34335,1.89771 -2.04405,2.32991 -0.70069,0.43221 -1.31036,0.50227 -1.78406,0.43218 -0.4737,-0.0701 -0.81095,-0.28026 -0.97961,-0.38536 -0.16866,-0.1051 -0.1687,-0.1051 -0.51255,-0.47885 z"
       id="path3032-9-4-9-4-9"
       inkscape:connector-curvature="0"
       inkscape:path-effect="#path-effect3034-8-7-3-0-1"
       inkscape:original-d="m 102.0503,159.14741 c -0.6875,-0.74769 -1.37514,-1.49513 -2.06292,-2.24232 -0.441018,-2.17259 -0.882118,-4.29799 -1.32339,-6.4466 0.311504,-2.07892 0.596968,-4.20457 0.895236,-6.30646 0.869304,-1.63503 1.738704,-3.22357 2.607844,-4.83496 0.50607,-1.37813 1.01215,-2.70971 1.51801,-4.06417 -0.25929,-1.86844 -0.51883,-3.73744 -0.77846,-5.60576 -0.46689,-1.23807 -0.93402,-2.47613 -1.40123,-3.7138 -0.0129,-0.14033 -0.0258,-0.28056 -0.0389,-0.42043 0.71267,0.76937 1.42732,1.54131 2.14078,2.31237 1.06398,1.58794 2.12794,3.22305 3.1917,4.83496 0.66183,1.98509 1.32353,4.01718 1.98508,6.02618 0.065,2.66258 0.12988,5.32519 0.19462,7.9882 -0.24639,2.05536 -0.49289,4.15734 -0.73954,6.23639 -0.32427,1.42474 -0.64858,2.84933 -0.97308,4.27439 -0.79147,0.81742 -1.58274,1.58803 -2.37432,2.38243 -0.60978,0.0698 -1.21945,0.13984 -1.82939,0.21022 -0.33727,-0.21052 -0.67453,-0.42068 -1.012,-0.63064 z" />
    <path
       style="fill:#e45118;fill-opacity:0.57142861;stroke:#c75600;stroke-width:0.04708013;stroke-linecap:butt;stroke-linejoin:miter;stroke-miterlimit:4;stroke-dasharray:0.04708013, 0.04708013;stroke-dashoffset:0;stroke-opacity:1"
       d="m 88.368386,158.4109 c 0.34385,-0.37376 1.03149,-1.1212 1.598179,-2.58069 0.56669,-1.45949 1.003196,-3.58583 1.07602,-5.70076 0.07282,-2.11492 -0.228602,-4.2383 -0.817316,-6.10413 -0.588713,-1.86582 -1.448364,-3.45962 -2.139776,-4.95296 -0.691412,-1.49334 -1.189839,-2.82777 -1.313058,-4.4392 -0.123218,-1.61144 0.136327,-3.48044 0.499603,-5.0336 0.363277,-1.55317 0.830402,-2.79123 1.070396,-3.48027 0.239995,-0.68903 0.252969,-0.82926 -0.09679,-0.51442 -0.349759,0.31484 -1.064414,1.08678 -1.947759,2.2698 -0.883345,1.18302 -1.958047,2.81104 -2.817377,4.61065 -0.859329,1.7996 -1.527965,3.82941 -1.891281,6.16517 -0.363315,2.33575 -0.428185,4.99836 -0.33874,7.3577 0.08945,2.35934 0.33867,4.461 0.624114,6.21289 0.285444,1.75189 0.609757,3.17648 1.173516,4.29194 0.563758,1.11546 1.343347,1.89771 2.044041,2.32991 0.700693,0.43221 1.310361,0.50227 1.784062,0.43218 0.4737,-0.0701 0.810957,-0.28026 0.979616,-0.38536 0.168659,-0.1051 0.168699,-0.1051 0.512549,-0.47885 z"
       id="path3032-9-4-9-4-9-9"
       inkscape:connector-curvature="0"
       inkscape:path-effect="#path-effect3034-8-7-3-0-1-8"
       inkscape:original-d="m 88.024536,158.78465 c 0.6875,-0.74769 1.37514,-1.49513 2.06292,-2.24232 0.441018,-2.17259 0.882118,-4.29799 1.32339,-6.4466 -0.311504,-2.07892 -0.596968,-4.20457 -0.895236,-6.30646 -0.869304,-1.63503 -1.738704,-3.22357 -2.607844,-4.83496 -0.50607,-1.37813 -1.01215,-2.70971 -1.518013,-4.06417 0.25929,-1.86844 0.518833,-3.73744 0.778463,-5.60576 0.46689,-1.23807 0.93402,-2.47613 1.40123,-3.7138 0.0129,-0.14033 0.0258,-0.28056 0.0389,-0.42043 -0.71267,0.76937 -1.42732,1.54131 -2.140783,2.31237 -1.06398,1.58794 -2.12794,3.22305 -3.1917,4.83496 -0.66183,1.98509 -1.32353,4.01718 -1.98508,6.02618 -0.065,2.66258 -0.12988,5.32519 -0.19462,7.9882 0.24639,2.05536 0.49289,4.15734 0.73954,6.23639 0.32427,1.42474 0.64858,2.84933 0.97308,4.27439 0.79147,0.81742 1.58274,1.58803 2.37432,2.38243 0.60978,0.0698 1.21945,0.13984 1.829393,0.21022 0.33727,-0.21052 0.67453,-0.42068 1.012,-0.63064 z" />
    <path
       style="fill:#e45118;fill-opacity:0.57142861;stroke:#c75600;stroke-width:0.065;stroke-linecap:butt;stroke-linejoin:miter;stroke-miterlimit:4;stroke-dasharray:0.065, 0.065;stroke-dashoffset:0;stroke-opacity:1"
       d="m 88.368386,158.4109 c -0.636868,-0.38453 -1.910686,-1.15363 -2.960172,-2.65449 -1.049486,-1.50085 -1.858786,-3.69072 -1.993073,-5.86945 -0.134287,-2.17874 0.42283,-4.35876 0.965539,-6.3966 0.542708,-2.03784 1.061402,-3.90042 1.705803,-5.62684 0.644401,-1.72641 1.38074,-3.22284 2.149837,-4.76103 0.769097,-1.53819 1.562229,-3.10042 2.404022,-5.73653 0.841792,-2.63611 1.732506,-6.34682 2.177782,-8.20183 0.445276,-1.85502 0.445276,-1.85502 0.974329,-0.19117 0.529053,1.66385 1.587188,4.99164 2.343587,7.36356 0.756399,2.37191 1.211046,3.7879 2.045967,5.52051 0.834921,1.73261 2.071233,3.81737 2.744213,6.22075 0.67298,2.40339 0.79315,5.14319 0.62738,7.57125 -0.16577,2.42806 -0.62728,4.58989 -1.15605,6.39256 -0.528762,1.80267 -1.129534,3.26855 -2.168188,4.41318 -1.038653,1.14464 -2.4942,1.95593 -3.792186,2.40065 -1.297986,0.44472 -2.427354,0.51681 -3.304746,0.44471 -0.877392,-0.0721 -1.502127,-0.28835 -1.814649,-0.39653 -0.312523,-0.10818 -0.312526,-0.10818 -0.949395,-0.4927 z"
       id="path3032-9-3"
       inkscape:connector-curvature="0"
       inkscape:path-effect="#path-effect3034-8-75"
       inkscape:original-d="m 89.005255,158.79542 c -1.27355,-0.76936 -2.547366,-1.53846 -3.821445,-2.30729 -0.816949,-2.23558 -1.634064,-4.42256 -2.451494,-6.63345 0.577048,-2.13917 1.105842,-4.32643 1.658363,-6.48925 0.532886,-1.91286 1.051581,-3.77544 1.586263,-5.69612 0.754051,-1.53215 1.490388,-3.02858 2.235185,-4.54247 0.793394,-1.56249 1.586527,-3.12472 2.37939,-4.68668 0.890807,-3.71026 1.781521,-7.42097 2.671883,-11.13105 2.65e-4,-2.7e-4 2.65e-4,-2.7e-4 0,0 1.058423,3.3276 2.116556,6.65539 3.174442,9.98349 0.454914,1.41573 0.909562,2.83172 1.363946,4.24798 1.226,2.04262 2.451762,4.13363 3.677242,6.20084 0.12045,2.73974 0.24061,5.47954 0.36052,8.21971 -0.45643,2.11495 -0.91304,4.27783 -1.36995,6.41715 -0.600682,1.46603 -1.201452,2.93191 -1.802572,4.39826 -1.466146,0.84112 -2.931916,1.63407 -4.398268,2.4515 -1.129589,0.0718 -2.258955,0.14393 -3.388829,0.21631 -0.624783,-0.21663 -1.249519,-0.43288 -1.874673,-0.64893 z"
       sodipodi:nodetypes="ccccccccccccccccccc" />
  </g>
  <g
     inkscape:groupmode="layer"
     id="layer2"
     inkscape:label="Layer 2"
     transform="translate(-63.845157,-112.59839)" />
</svg>
