<?xml version="1.0" encoding="UTF-8" standalone="no"?>
<!-- Created with Inkscape (http://www.inkscape.org/) -->

<svg
   xmlns:dc="http://purl.org/dc/elements/1.1/"
   xmlns:cc="http://creativecommons.org/ns#"
   xmlns:rdf="http://www.w3.org/1999/02/22-rdf-syntax-ns#"
   xmlns:svg="http://www.w3.org/2000/svg"
   xmlns="http://www.w3.org/2000/svg"
   xmlns:sodipodi="http://sodipodi.sourceforge.net/DTD/sodipodi-0.dtd"
   xmlns:inkscape="http://www.inkscape.org/namespaces/inkscape"
   width="195.71196mm"
   height="172.05734mm"
   viewBox="0 0 195.71196 172.05734"
   version="1.1"
   id="svg8"
   inkscape:version="0.92.2 5c3e80d, 2017-08-06"
   sodipodi:docname="swanLake3.svg">
  <defs
     id="defs2">
    <inkscape:path-effect
       effect="bspline"
       id="path-effect854"
       is_visible="true"
       weight="33.333333"
       steps="2"
       helper_size="0"
       apply_no_weight="true"
       apply_with_weight="true"
       only_selected="false" />
    <inkscape:path-effect
       effect="bspline"
       id="path-effect850"
       is_visible="true"
       weight="33.333333"
       steps="2"
       helper_size="0"
       apply_no_weight="true"
       apply_with_weight="true"
       only_selected="false" />
    <inkscape:path-effect
       effect="bspline"
       id="path-effect846"
       is_visible="true"
       weight="33.333333"
       steps="2"
       helper_size="0"
       apply_no_weight="true"
       apply_with_weight="true"
       only_selected="false" />
    <inkscape:path-effect
       effect="bspline"
       id="path-effect842"
       is_visible="true"
       weight="33.333333"
       steps="2"
       helper_size="0"
       apply_no_weight="true"
       apply_with_weight="true"
       only_selected="false" />
  </defs>
  <sodipodi:namedview
     id="base"
     pagecolor="#ffffff"
     bordercolor="#666666"
     borderopacity="1.0"
     inkscape:pageopacity="0.0"
     inkscape:pageshadow="2"
     inkscape:zoom="0.79488326"
     inkscape:cx="396.01726"
     inkscape:cy="348.33841"
     inkscape:document-units="mm"
     inkscape:current-layer="layer1"
     showgrid="false"
     inkscape:window-width="1440"
     inkscape:window-height="812"
     inkscape:window-x="0"
     inkscape:window-y="1"
     inkscape:window-maximized="1" />
  <metadata
     id="metadata5">
    <rdf:RDF>
      <cc:Work
         rdf:about="">
        <dc:format>image/svg+xml</dc:format>
        <dc:type
           rdf:resource="http://purl.org/dc/dcmitype/StillImage" />
        <dc:title></dc:title>
      </cc:Work>
    </rdf:RDF>
  </metadata>
  <g
     inkscape:label="Layer 1"
     inkscape:groupmode="layer"
     id="layer1"
     transform="translate(-7.330136,-57.76553)">
    <path
       style="fill:#000000;fill-opacity:1;stroke:#000000;stroke-width:0.26638293px;stroke-linecap:butt;stroke-linejoin:miter;stroke-opacity:1"
       d="m 83.441276,61.327053 c 0.17487,0.440843 0.523518,1.31978 0.86317,2.176059 0.339653,0.85628 0.669044,1.686711 0.946616,2.386506 0.277572,0.699795 0.503487,1.26936 0.727546,1.834255 0.224059,0.564895 0.447038,1.127073 0.655833,1.653486 0.208794,0.526413 0.404517,1.019869 0.605664,1.527003 0.201147,0.507134 0.40948,1.03239 0.716763,1.807149 0.307282,0.774759 0.716179,1.805743 1.083195,2.731273 0.367016,0.92553 0.691627,1.744288 1.052876,2.450283 0.361249,0.705995 0.763446,1.304001 1.226917,1.984362 0.463472,0.680361 0.997653,1.457293 1.449879,1.849602 0.452226,0.39231 0.815789,0.392175 1.305111,0.392176 0.489323,0 1.10328,1.34e-4 1.725022,0.381059 0.621741,0.380925 1.248094,1.141021 1.735005,1.973138 0.486911,0.832116 0.782721,1.603052 0.978959,2.516939 0.196238,0.913887 0.278085,2.054117 0.301057,3.233943 0.02297,1.179826 -0.0076,2.472637 0.195107,5.405316 0.20269,2.932678 0.638513,7.501358 1.066754,11.990968 0.42823,4.48961 0.8489,8.90032 1.30881,12.33397 0.4599,3.43366 0.95908,5.88964 1.36089,7.86669 0.4018,1.97704 0.70618,3.47488 1.1526,5.67178 0.44642,2.1969 1.03481,5.09255 1.49265,7.02881 0.45784,1.93627 0.78545,2.91402 1.12961,3.94142 0.34415,1.0274 0.70489,2.10452 1.04596,2.71964 0.34108,0.61513 0.66244,0.7674 1.00479,0.76123 0.34234,-0.006 0.70554,-0.17058 1.04208,-0.3228 0.33655,-0.15222 0.64639,-0.29224 1.02311,-0.78109 0.37671,-0.48885 0.8202,-1.32581 1.14538,-2.695 0.32517,-1.36918 0.5159,-3.1211 0.61529,-5.36567 0.0994,-2.24457 0.0994,-4.7579 0.0376,-6.76795 -0.0617,-2.01006 -0.18519,-3.44373 -0.32286,-5.04203 -0.13768,-1.5983 -0.28957,-3.3612 -0.48791,-4.8514 -0.19834,-1.49019 -0.44307,-2.7078 -0.80541,-4.11255 -0.36235,-1.40475 -0.8002,-2.85711 -1.25909,-4.53147 -0.45888,-1.67437 -0.91779,-3.50098 -1.21723,-4.91777 -0.29944,-1.41679 -0.43952,-2.42385 -0.57719,-3.41324 -0.13766,-0.98939 -0.27293,-1.96116 -0.41502,-3.25581 -0.14209,-1.29465 -0.29105,-2.91216 -0.45932,-4.738735 -0.16826,-1.826575 -0.3558,-3.861879 -0.56428,-6.55392 -0.20849,-2.692041 -0.43717,-6.029551 -0.55222,-8.542036 -0.11506,-2.512486 -0.11504,-4.167802 -0.11504,-6.024457 0,-1.856656 -2e-5,-3.916585 0.0961,-5.64536 0.0961,-1.728775 0.28654,-3.079923 0.4687,-4.363797 0.18215,-1.283875 0.35881,-2.519969 0.57816,-3.401271 0.21934,-0.881303 0.47882,-1.397794 0.74617,-1.929875 0.26736,-0.532081 0.54253,-1.07963 0.95605,-1.011013 0.41352,0.06862 0.96324,0.752399 1.37641,2.237048 0.41317,1.484649 0.68832,3.766327 0.84896,5.973442 0.16064,2.207116 0.20652,4.337878 0.25889,6.354941 0.0524,2.017062 0.11589,4.071347 0.20002,5.89807 0.0841,1.826723 0.19118,3.500633 0.35944,5.060953 0.16825,1.560319 0.39764,3.005992 0.55823,3.919282 0.16059,0.913289 0.25236,1.293787 0.2907,1.636206 0.0383,0.342419 0.0231,0.646882 -0.0305,0.95165 -0.0536,0.304768 -0.14513,0.608525 -0.24479,0.570207 -0.0997,-0.03832 -0.20658,-0.418273 -0.41311,-1.103308 -0.20653,-0.685035 -0.51239,-1.674196 -0.80301,-2.853915 -0.29062,-1.17972 -0.56592,-2.549464 -0.84891,-3.843242 -0.28298,-1.293779 -0.57361,-2.511464 -0.72653,-3.272937 -0.15292,-0.761472 -0.16814,-1.065095 -0.25207,-1.217007 -0.0839,-0.151913 -0.23711,-0.151913 -0.33673,-0.190202 -0.0996,-0.03829 -0.14541,-0.114214 -0.22192,-0.533527 -0.0765,-0.419313 -0.18342,-1.179162 -0.25218,-1.369476 -0.0687,-0.190315 -0.0993,0.190288 -0.0706,1.257498 0.0288,1.067209 0.12408,2.96469 0.23073,4.596135 0.10665,1.631444 0.22793,3.064015 0.35021,4.508903 0.12227,1.444889 0.24555,2.902139 0.42002,4.456065 0.17447,1.553925 0.39901,3.194417 0.64294,4.976974 0.24393,1.782557 0.50763,3.709944 0.83902,5.389074 0.33139,1.67914 0.72058,3.06209 1.07223,4.31725 0.35165,1.25516 0.66175,2.36824 0.89471,3.15812 0.23296,0.78988 0.38538,1.24486 0.46194,1.24485 0.0766,0 0.0766,-0.45673 0.0689,-2.09115 -0.008,-1.63442 -0.0229,-4.45521 -0.0265,-6.65443 -0.004,-2.19922 0.004,-3.783818 0.012,-5.305978 0.008,-1.52216 0.015,-2.981944 0.0875,-4.663569 0.0725,-1.681625 0.21026,-3.585138 0.42271,-4.870607 0.21246,-1.285469 0.49985,-1.955808 0.74461,-2.52666 0.24477,-0.570853 0.44697,-1.04237 0.74589,-1.257763 0.29893,-0.215393 0.69452,-0.175364 1.0693,-0.137297 0.37478,0.03807 0.72964,0.07426 1.04184,-0.0092 0.3122,-0.08351 0.58503,-0.287253 0.892,-0.516355 0.30698,-0.229101 0.64781,-0.483348 0.99382,-1.036882 0.34601,-0.553533 0.70738,-1.422998 1.10533,-2.374905 0.39794,-0.951907 0.83542,-1.993333 1.22198,-2.818485 0.38656,-0.825153 0.72548,-1.441055 1.11736,-2.153213 0.39187,-0.712158 0.83887,-1.524486 1.21005,-2.198995 0.37118,-0.67451 0.66669,-1.211443 1.15378,-2.09649 0.4871,-0.885046 1.16666,-2.119782 1.69884,-2.908068 0.53218,-0.788285 0.91843,-1.132603 1.43086,-1.589233 0.51242,-0.45663 1.15128,-1.025821 1.4858,-1.044174 0.33452,-0.01835 0.36512,0.514393 0.32687,1.808931 -0.0382,1.294537 -0.14524,3.347841 -0.24172,4.717259 -0.0965,1.369419 -0.16344,1.902491 -0.35022,2.616586 -0.18678,0.714095 -0.48363,1.532016 -0.73987,2.238108 -0.25625,0.706093 -0.47191,1.300398 -0.82034,2.260589 -0.34843,0.960191 -0.83049,2.288638 -1.07143,3.142586 -0.24094,0.853948 -0.24094,1.241202 -0.0735,1.368524 0.16739,0.127323 0.51044,0.0046 0.83341,-0.110159 0.32298,-0.114785 0.62648,-0.221868 0.82224,-0.274797 0.19576,-0.05293 0.28792,-0.05293 0.31851,0.174787 0.0306,0.227715 -1e-5,0.684954 -0.16081,1.904176 -0.1608,1.219222 -0.45097,3.19485 -0.77977,4.260576 -0.3288,1.065725 -0.69582,1.217897 -1.10122,1.484241 -0.4054,0.266344 -0.84884,0.64674 -1.10123,1.064235 -0.2524,0.417495 -0.31384,0.875999 -0.22613,1.215016 0.0877,0.339017 0.34027,0.57462 0.70756,0.574698 0.3673,7.7e-5 0.85696,-0.228321 1.03276,0.304013 0.17579,0.532335 0.0381,1.826466 -0.13785,3.044468 -0.17595,1.218001 -0.38998,2.358951 -0.55819,3.006005 -0.1682,0.64705 -0.29045,0.79911 -0.56613,0.87543 -0.27569,0.0763 -0.73407,0.0763 -1.02473,0.53276 -0.29067,0.45645 -0.4283,1.36947 -0.51744,1.97775 -0.0891,0.60829 -0.10967,0.76164 0.13595,0.7997 0.24561,0.0381 0.76414,-0.11368 1.03166,1.8e-4 0.26752,0.11385 0.28279,0.49448 0.24451,1.33241 -0.0383,0.83793 -0.12994,2.13015 -0.32117,3.34815 -0.19123,1.21799 -0.48144,2.35793 -0.72462,3.19114 -0.24318,0.8332 -0.43858,1.35665 -0.6374,1.88931 -0.19882,0.53267 -0.40107,1.07459 -0.54809,1.4977 -0.14702,0.42312 -0.23883,0.72764 -0.26952,1.07039 -0.0307,0.34276 -1.7e-4,0.72273 0.11452,1.02738 0.11469,0.30465 0.31338,0.53278 0.38237,1.14124 0.069,0.60845 0.008,1.59827 -0.12228,2.54992 -0.13005,0.95164 -0.32875,1.86425 -0.47407,2.47319 -0.14531,0.60893 -0.23703,0.91318 -0.16361,1.02324 0.0734,0.11006 0.26317,0.0426 0.38566,0.0819 0.12248,0.0393 0.18307,0.34079 0.19081,0.75895 0.008,0.41817 -0.0229,1.02777 -0.20662,2.28459 -0.18372,1.25683 -0.51985,3.15729 -0.61939,4.1469 -0.0995,0.98961 0.0381,1.0657 0.19235,1.06841 0.15427,0.003 0.35095,-0.0788 0.46549,0.073 0.11454,0.15187 0.16046,0.53264 0.14519,1.59849 -0.0153,1.06586 -0.0917,2.81563 -0.20993,4.72893 -0.1182,1.9133 -0.27806,3.98841 -0.40369,5.61913 -0.12562,1.63072 -0.21671,2.81303 -0.31265,4.0581 -0.0959,1.24508 -0.19657,2.55101 -0.3039,3.67476 -0.10733,1.12375 -0.22122,2.06335 -0.34388,3.07509 -0.12265,1.01175 -0.25408,2.09585 -0.40181,3.31445 -0.14774,1.21861 -0.31187,2.57255 -0.47995,3.95896 -0.16808,1.38641 -0.33939,2.7994 -0.53114,3.89871 -0.19174,1.09931 -0.40305,1.87762 -0.60025,2.60402 -0.19721,0.72641 -0.38031,1.40086 -0.55075,2.03255 -0.17044,0.6317 -0.32853,1.22175 -0.49082,1.82733 -0.16229,0.60559 -0.32763,1.22238 -0.50846,1.73176 -0.18083,0.50938 -0.37287,0.89857 -0.57788,1.31412 -0.205,0.41555 -0.42332,0.85817 -0.57056,1.67613 -0.14725,0.81795 -0.21551,1.97287 -0.27602,2.98889 -0.0605,1.01603 -0.11419,1.909 -0.22433,3.08345 -0.11013,1.17446 -0.27461,2.60666 -0.42722,3.93543 -0.15261,1.32877 -0.29342,2.55466 -0.44705,3.61647 -0.15364,1.0618 -0.31916,1.95256 -0.49117,2.87827 -0.17201,0.92572 -0.35029,1.88515 -0.64188,3.45434 -0.29158,1.56919 -0.69534,3.74207 -1.10184,5.63124 -0.40649,1.88918 -0.80904,3.4625 -1.19255,4.96319 -0.3835,1.50069 -0.74906,2.93303 -1.0139,3.97128 -0.26485,1.03825 -0.42932,1.68376 -0.67237,2.7684 -0.24306,1.08463 -0.56404,2.60562 -0.73235,4.66097 -0.16831,2.05534 -0.18357,4.6419 -0.26,6.31629 -0.0764,1.67439 -0.21407,2.43528 -0.47417,2.89221 -0.2601,0.45694 -0.64217,0.60902 -1.17792,0.3044 -0.53575,-0.30462 -1.22385,-1.06542 -1.83566,-1.56001 -0.61181,-0.49458 -1.14712,-0.72287 -1.72439,-0.52887 -0.57728,0.194 -1.18131,0.79505 -1.86097,1.25454 -0.67967,0.45948 -1.40042,0.75832 -1.96772,0.79051 -0.567299,0.0322 -0.966601,-0.20775 -1.410178,-0.47411 -0.443577,-0.26636 -0.931383,-0.55911 -1.297501,-1.39053 -0.366119,-0.83141 -0.610883,-2.20145 -0.702516,-2.96245 -0.09163,-0.761 -0.03031,-0.91355 -0.145472,-1.65805 -0.11516,-0.7445 -0.406794,-2.08418 -0.705235,-3.45483 -0.298441,-1.37066 -0.603706,-2.77237 -0.664199,-3.6623 -0.06049,-0.88994 0.123164,-1.27068 0.253222,-1.4989 0.130057,-0.22822 0.206518,-0.3043 0.138323,-0.68214 -0.0682,-0.37783 -0.284081,-1.06834 -0.482929,-1.79141 -0.198848,-0.72306 -0.382379,-1.48401 -0.474091,-2.62566 -0.09171,-1.14166 -0.09171,-2.66367 0.07653,-3.50813 0.168238,-0.84446 0.443932,-0.98163 0.776314,-0.52154 0.332382,0.46008 0.737961,1.67085 1.064257,2.44323 0.326297,0.77239 0.59699,1.17624 0.90291,1.63287 0.30592,0.45662 0.647104,0.96607 1.047476,1.22117 0.400371,0.2551 0.859199,0.2551 1.349842,-0.35662 0.49065,-0.61172 1.00848,-1.82417 1.43601,-2.96343 0.42754,-1.13925 0.76553,-2.2094 0.92546,-3.27465 0.15992,-1.06525 0.14579,-1.97896 0.19937,-2.70183 0.0536,-0.72287 0.17602,-1.17975 0.28301,-1.67415 0.107,-0.49439 0.19887,-1.0277 -0.0459,-1.29377 -0.24473,-0.26607 -0.82572,-0.26607 -1.26769,-0.23479 -0.44197,0.0313 -0.74454,0.0939 -1.11162,0.16999 -0.36708,0.0761 -0.798793,0.16576 -1.249499,-0.50674 -0.450705,-0.67251 -0.920323,-2.10748 -1.356262,-3.43931 -0.43594,-1.33184 -0.838717,-2.56212 -1.182856,-4.04265 -0.344139,-1.48054 -0.630988,-3.21666 -0.914331,-4.93123 -0.283342,-1.71457 -0.56309,-3.40706 -0.821541,-5.2881 -0.25845,-1.88105 -0.498921,-3.97528 -0.758986,-6.22066 -0.260066,-2.24537 -0.54106,-4.65341 -0.787684,-7.91378 -0.246623,-3.26036 -0.460793,-7.39778 -0.590793,-9.90892 -0.13,-2.51114 -0.176278,-3.40463 -0.268116,-5.11843 -0.09184,-1.7138 -0.229092,-4.24523 -0.359111,-6.64257 -0.130019,-2.39734 -0.252728,-4.6592 -0.398233,-6.74159 -0.145505,-2.08239 -0.313742,-3.98478 -0.240887,-5.092 0.07285,-1.10721 0.371146,-1.40405 0.516271,-1.78458 0.145125,-0.38053 0.129822,-0.83736 -0.122145,-0.98941 -0.251966,-0.15205 -0.741987,3.3e-4 -1.139515,-0.61071 -0.397529,-0.61104 -0.734778,-2.1292 -0.803438,-3.08052 -0.06866,-0.95132 0.114885,-1.40793 0.351813,-1.63598 0.236927,-0.22804 0.52778,-0.22804 0.718973,-0.41852 0.191194,-0.19047 0.28301,-0.57116 0.214731,-1.17742 -0.06828,-0.60627 -0.299114,-1.44851 -0.782037,-2.0164 -0.482922,-0.56789 -1.245498,-0.87761 -1.612549,-1.71514 -0.36705,-0.83754 -0.351756,-2.20724 -0.111926,-3.05692 0.23983,-0.84968 0.632398,-1.12871 0.984048,-1.28079 0.351649,-0.15208 0.596472,-0.15208 0.663192,-0.57159 0.06672,-0.41952 -0.08222,-1.40757 -0.499377,-2.24071 -0.417158,-0.83315 -1.127908,-1.60191 -1.716837,-2.32499 -0.58893,-0.72308 -1.063049,-1.40794 -1.453055,-2.58781 -0.390005,-1.17987 -0.695879,-2.85392 -0.848789,-3.9955 -0.15291,-1.14159 -0.15291,-1.75043 0.172526,-1.62278 0.325437,0.12765 1.05098,1.0903 1.502453,1.50899 0.451472,0.41869 0.665646,0.34258 0.619647,-0.30417 -0.046,-0.64675 -0.352105,-1.86516 -0.765114,-3.463402 -0.413009,-1.598246 -0.933051,-3.576876 -1.344198,-4.829249 -0.411147,-1.252372 -0.72086,-1.791709 -1.034401,-2.933559 -0.313542,-1.141849 -0.634688,-2.891867 -0.795246,-4.337876 -0.160558,-1.446008 -0.160558,-2.587587 0.01667,-2.864148 0.177232,-0.276562 0.464979,0.200662 0.839697,0.923527 0.374717,0.722865 0.803101,1.636323 1.131935,2.245203 0.328834,0.608879 0.558304,0.913336 0.649064,0.266861 0.09076,-0.646475 0.04713,-2.093712 -0.12339,-3.106252 -0.170518,-1.012541 -0.465322,-1.515635 -0.733015,-1.972284 -0.267693,-0.45665 -0.508339,-0.866963 -0.888429,-1.718566 -0.380089,-0.851603 -0.909377,-2.168327 -1.251441,-3.289354 -0.342063,-1.121028 -0.517901,-2.106495 -0.68794,-3.067803 -0.17004,-0.961309 -0.331109,-1.880757 -0.410735,-3.054569 -0.07963,-1.173812 -0.07963,-2.627841 0.180191,-2.894292 0.259818,-0.26645 0.780098,0.647185 1.246156,1.49262 0.466058,0.845435 0.941185,1.742118 1.078708,1.664742 0.137523,-0.07738 -0.03033,-1.064345 -0.382195,-2.129734 -0.35187,-1.065389 -0.887291,-2.207022 -1.308716,-3.236821 -0.421424,-1.029798 -0.725764,-1.938334 -0.993426,-3.041965 -0.267661,-1.103631 -0.497076,-2.397268 -0.573481,-3.462738 -0.0764,-1.06547 7.8e-5,-1.90266 0.191051,-1.7509 0.190973,0.151761 0.497154,1.294304 0.80322,2.436418 0,-5.2e-5 0,-1.56e-4 0,-1.56e-4 0,0 -4.29e-4,6e-6 0.17444,0.44085 z"
       id="path840"
       inkscape:connector-curvature="0"
       inkscape:path-effect="#path-effect842"
       inkscape:original-d="m 83.266407,60.886209 c 0.350044,0.881566 0.69869,1.760504 1.048164,2.642407 0.329832,0.830655 0.659225,1.661086 0.988556,2.492257 0.225807,0.568421 0.451724,1.137985 0.677208,1.707348 0.22264,0.560425 0.44562,1.122602 0.667956,1.68406 0.195255,0.491368 0.390974,0.984825 0.585924,1.477226 0.207345,0.521867 0.415675,1.047124 0.622435,1.569303 0.407807,1.027338 0.816444,2.058425 1.226602,3.092724 0.323891,0.816755 0.648742,1.635417 0.974629,2.45828 0.39666,0.589011 0.793493,1.190624 1.185501,1.76266 0.538742,0.786144 1.074483,1.562003 1.613686,2.347002 0.364893,-7.41e-4 0.728456,-3.59e-4 1.091422,-4.04e-4 0.615679,-8.9e-5 1.229636,-3.37e-4 1.845432,4.04e-4 0.628046,0.76142 1.2544,1.521514 1.881422,2.283156 0.321294,0.912537 0.642556,1.673707 0.963653,2.511459 0.09192,0.988643 0.153081,2.130357 0.229441,3.196409 -0.03046,1.293615 -0.0611,2.586424 -0.09174,3.881363 0.436161,4.570401 0.871851,9.139097 1.307572,13.707137 0.42075,4.41118 0.84155,8.82187 1.26218,13.23402 0.49924,2.45513 0.99826,4.91115 1.49731,7.36687 0.30449,1.49838 0.60909,2.99618 0.91347,4.49513 0.58846,2.89484 1.17686,5.79049 1.76505,8.68634 0.32755,0.97663 0.65494,1.95446 0.98236,2.93189 0.36092,1.07736 0.72184,2.15441 1.08262,3.23261 0.32136,0.15158 0.64271,0.30388 0.96366,0.45662 0.36325,-0.16506 0.72662,-0.32908 1.08996,-0.4934 0.30974,-0.14014 0.61945,-0.28046 0.92912,-0.41985 0.44382,-0.83794 0.88729,-1.67491 1.33077,-2.51147 0.1989,-1.90261 0.39781,-3.65363 0.59654,-5.47955 1.2e-4,-2.66323 1.2e-4,-5.17656 0,-7.7627 -0.12331,-1.43398 -0.24689,-2.86764 -0.3704,-4.30152 -0.15181,-1.76273 -0.30359,-3.52564 -0.45559,-5.28771 -0.24463,-1.21835 -0.48935,-2.43596 -0.73421,-3.65303 -0.45876,-1.5988 -0.91765,-3.04482 -1.37664,-4.5663 -0.4588,-1.82723 -0.91772,-3.65384 -1.37666,-5.47957 -0.13999,-1.00782 -0.28021,-2.01486 -0.42035,-3.02203 -0.1352,-0.97161 -0.2703,-1.9434 -0.40564,-2.91416 -0.14889,-1.61853 -0.29798,-3.236023 -0.44701,-4.853923 -0.18748,-2.035252 -0.37489,-4.070567 -0.56254,-6.105188 -0.22934,-3.349456 -0.458,-6.686967 -0.68832,-10.045855 1.5e-4,-1.666071 8e-5,-3.321387 8e-5,-4.980294 10e-6,-2.054404 8e-5,-4.114333 -8e-5,-6.207142 0.19234,-1.364737 0.38,-2.716271 0.56998,-4.044828 0.17714,-1.238796 0.35374,-2.474898 0.53134,-3.717871 0.26091,-0.51971 0.5205,-1.036142 0.77966,-1.551943 0.27554,-0.548366 0.55061,-1.095968 0.82644,-1.644467 0.55171,0.685513 1.10143,1.369297 1.65197,2.054832 0.2907,2.282212 0.55079,4.565706 0.82599,6.849445 0.046,2.130513 0.0919,4.261275 0.13766,6.392821 0.0614,1.902503 0.12251,3.956862 0.18357,5.936192 0.10721,1.674111 0.21426,3.348021 0.32121,5.022918 0.22961,1.445719 0.45899,2.891393 0.68832,4.337987 0.0919,0.379958 0.18368,0.760453 0.27533,1.141579 -0.0151,0.303781 -0.0305,0.608237 -0.0458,0.913253 -0.0918,0.304523 -0.18345,0.608259 -0.27534,0.913253 -0.10711,-0.381686 -0.21402,-0.761643 -0.32121,-1.141555 -0.30586,-0.99017 -0.61172,-1.97933 -0.91777,-2.968108 -0.27523,-1.370622 -0.55053,-2.740366 -0.82599,-4.109664 -0.29051,-1.218269 -0.58113,-2.435956 -0.87188,-3.653035 -0.0306,-0.305041 -0.0306,-0.609427 -0.0458,-0.913254 -0.15262,-6.06e-4 -0.3058,-6.06e-4 -0.45888,0 -0.0458,-0.0768 -0.0916,-0.152711 -0.13766,-0.228326 -0.10711,-0.762832 -0.21403,-1.522679 -0.32122,-2.283156 -0.0306,0.379868 -0.0611,0.760477 -0.0917,1.141579 0.0921,1.753117 0.1836,3.650791 0.27532,5.479567 0.12157,1.434108 0.24272,2.866689 0.36405,4.300214 0.12324,1.456251 0.24664,2.913491 0.37017,4.375738 0.22544,1.645591 0.44982,3.286105 0.67454,4.928169 0.26315,1.923049 0.527,3.850412 0.79389,5.802642 0.39596,1.40599 0.78886,2.7879 1.17692,4.18211 0.31101,1.1173 0.62163,2.23023 0.93394,3.3523 0.15364,0.45767 0.30605,0.91265 0.45888,1.36986 1.2e-4,-0.45712 1.2e-4,-0.91385 0,-1.36986 -0.0152,-2.81283 -0.0305,-5.63362 -0.0458,-8.44767 0.008,-1.58439 0.016,-3.168988 0.024,-4.753466 0.007,-1.459844 0.0147,-2.919626 0.022,-4.379133 0.13781,-1.903738 0.27554,-3.807251 0.41299,-5.707869 0.28727,-0.670375 0.57473,-1.340685 0.86211,-2.010859 0.20218,-0.471517 0.40428,-0.943077 0.60631,-1.413875 0.39599,0.03953 0.79155,0.07994 1.18736,0.120142 0.35375,0.03593 0.70866,0.07164 1.06117,0.108244 0.27163,-0.203239 0.5446,-0.406792 0.81707,-0.610167 0.34145,-0.25487 0.68212,-0.509335 1.01847,-0.759735 0.3558,-0.856392 0.71431,-1.727044 1.07667,-2.590509 0.4361,-1.039284 0.87386,-2.08059 1.30952,-3.11736 0.33741,-0.613581 0.67634,-1.229475 1.01363,-1.842046 0.44646,-0.811747 0.89357,-1.62401 1.34092,-2.436878 0.29506,-0.536126 0.5904,-1.073151 0.88543,-1.608827 0.67916,-1.234419 1.35873,-2.469149 2.03717,-3.701478 0.38583,-0.344429 0.77209,-0.688746 1.15797,-1.032233 0.63897,-0.569767 1.27784,-1.13895 1.91654,-1.707529 0.0306,0.53213 0.0614,1.064866 0.0918,1.598206 -0.10705,2.055752 -0.21403,4.109057 -0.32123,6.164496 -0.0763,0.684592 -0.15275,1.216473 -0.22945,1.826528 -0.29699,0.818102 -0.59377,1.636046 -0.89048,2.45361 -0.21577,0.594626 -0.43153,1.188896 -0.64721,1.783523 -0.48119,1.325751 -0.96325,2.654197 -1.44503,3.982195 1.2e-4,0.379935 1.2e-4,0.767189 0,1.141578 0.33465,-0.120143 0.67733,-0.243865 1.02164,-0.365406 0.30212,-0.106677 0.60545,-0.214243 0.90567,-0.319545 0.0915,-5.85e-4 0.18366,-5.85e-4 0.27533,0 -0.0304,0.455436 -0.0611,0.912669 -0.0917,1.36988 -0.29095,1.981239 -0.58114,3.956864 -0.87187,5.936193 -0.36711,0.151588 -0.7341,0.303827 -1.10132,0.456627 -0.44363,0.38007 -0.88706,0.760475 -1.33077,1.141577 -0.0458,0.456178 -0.12225,0.91267 -0.18355,1.369903 0.22991,0.228055 0.48959,0.456021 0.73421,0.684929 0.48941,-0.228818 0.97908,-0.45721 1.46843,-0.684929 -0.13751,1.29283 -0.27521,2.586962 -0.41299,3.881343 -0.21416,1.141616 -0.42817,2.28257 -0.64245,3.42473 -0.12232,0.15181 -0.24461,0.30383 -0.3671,0.45663 -0.42867,-5.8e-4 -0.88705,-5.8e-4 -1.33077,0 -0.13757,0.91291 -0.27521,1.82592 -0.41299,2.73978 -0.0305,0.30405 -0.0611,0.45605 -0.0917,0.68493 0.52175,-0.15316 1.04025,-0.30499 1.5602,-0.45662 0.0153,0.37984 0.0306,0.76047 0.0458,1.14157 -0.0917,1.29477 -0.18344,2.58699 -0.27533,3.88137 -0.29067,1.14159 -0.58087,2.28154 -0.87189,3.42471 -0.1954,0.52321 -0.39074,1.04668 -0.58609,1.57004 -0.20231,0.54197 -0.40462,1.08386 -0.60698,1.62637 -0.0917,0.30372 -0.18345,0.60826 -0.27534,0.91328 0.0308,0.38049 0.0614,0.76045 0.0917,1.14155 0.19913,0.22792 0.39782,0.45605 0.59655,0.68495 -0.061,0.98833 -0.12225,1.97815 -0.18356,2.96808 -0.19886,0.91335 -0.39758,1.82596 -0.59654,2.73979 -0.0917,0.30403 -0.18344,0.60827 -0.27533,0.91328 0.21459,-0.15294 0.4284,-0.15271 0.64244,-0.22833 0.046,0.15159 0.0919,0.45605 0.13766,0.68496 -0.0152,0.60824 -0.0611,1.21707 -0.0918,1.82651 -0.33677,1.90421 -0.67291,3.80467 -1.00955,5.70785 0.13784,0.0755 0.27546,0.15159 0.413,0.22834 0.16825,-0.0767 0.36723,-0.15271 0.55067,-0.22834 0.046,0.3797 0.0919,0.76048 0.13766,1.14159 -0.0764,1.75062 -0.15285,3.50039 -0.22945,5.25124 -0.15982,2.07576 -0.31968,4.15087 -0.4799,6.22968 -0.091,1.18263 -0.1822,2.36493 -0.27326,3.54685 -0.10078,1.30823 -0.20138,2.61417 -0.30226,3.92239 -0.11381,0.93928 -0.22773,1.87887 -0.34174,2.81932 -0.13129,1.08304 -0.2627,2.16714 -0.39433,3.25252 -0.16383,1.35184 -0.328,2.70577 -0.49158,4.05506 -0.17258,1.42353 -0.34386,2.83652 -0.51611,4.25691 -0.21132,0.77822 -0.4226,1.55654 -0.63395,2.33507 -0.18307,0.67427 -0.36618,1.34872 -0.5494,2.02374 -0.15766,0.58837 -0.31563,1.17845 -0.47346,1.76722 -0.16685,0.62238 -0.33222,1.23916 -0.49995,1.865 -0.19402,0.39286 -0.38596,0.7821 -0.57913,1.17365 -0.21685,0.43955 -0.43526,0.88213 -0.65985,1.3378 -0.0697,1.1803 -0.13677,2.33529 -0.20519,3.47143 -0.054,0.89583 -0.10746,1.78882 -0.16191,2.69308 -0.16586,1.44464 -0.33036,2.87684 -0.49463,4.30708 -0.14095,1.2273 -0.28172,2.4532 -0.42314,3.68394 -0.1659,0.89286 -0.33142,1.78362 -0.49718,2.67564 -0.17827,0.95941 -0.35654,1.91884 -0.53471,2.87763 -0.405,2.17959 -0.80877,4.35247 -1.21664,6.54744 -0.40515,1.58337 -0.80773,3.15669 -1.20923,4.72614 -0.36627,1.43173 -0.73104,2.86427 -1.09643,4.2961 -0.1643,0.64467 -0.32879,1.29018 -0.49352,1.93687 -0.32134,1.52259 -0.64233,3.04358 -0.96366,4.56628 -0.0152,2.58799 -0.0306,5.17455 -0.0458,7.76271 -0.13758,0.76062 -0.27522,1.52151 -0.413,2.28316 -0.38259,0.15181 -0.76469,0.30383 -1.14721,0.45663 -0.68843,-0.7619 -1.37654,-1.52269 -2.06497,-2.28316 -0.53531,-0.22893 -1.07061,-0.45722 -1.6061,-0.68493 -0.62715,0.60837 -1.22357,1.21707 -1.83553,1.82651 -0.74957,0.30388 -1.46807,0.60814 -2.20264,0.91325 -0.399552,-0.24074 -0.799083,-0.4803 -1.198605,-0.72024 -0.487612,-0.29281 -0.975213,-0.5859 -1.462921,-0.87795 -0.244594,-1.37035 -0.489357,-2.74039 -0.734213,-4.10968 0.0613,-0.1527 0.122594,-0.30526 0.183553,-0.45662 -0.290943,-1.33765 -0.582759,-2.67729 -0.874692,-4.01807 -0.304944,-1.40053 -0.610031,-2.80228 -0.914954,-4.20127 0.183564,-0.38089 0.367225,-0.76163 0.55066,-1.14158 0.07654,-0.0767 0.153081,-0.1527 0.229442,-0.2283 -0.198372,-0.68432 -0.428172,-1.37048 -0.642438,-2.05485 -0.183459,-0.76173 -0.366986,-1.52268 -0.550659,-2.28312 1.2e-4,-1.52281 1.2e-4,-3.04482 0,-4.56633 0.305922,-0.22882 0.611964,-0.30499 0.917768,-0.45662 0.382359,1.06444 0.765036,2.28288 1.147206,3.42473 0.270485,0.40278 0.5409,0.80682 0.811334,1.21045 0.341436,0.5096 0.682874,1.01888 1.024201,1.52932 0.459057,-5.9e-4 0.917885,-5.9e-4 1.376648,0 0.53535,-1.21796 1.04025,-2.43594 1.56021,-3.65305 0.32125,-1.06576 0.67315,-2.13152 1.00954,-3.19638 -0.0151,-1.06564 -0.0305,-1.97933 -0.0459,-2.96811 0.12242,-0.45697 0.24485,-0.91385 0.3671,-1.36988 0.0918,-0.53275 0.18368,-1.06605 0.27532,-1.5982 -0.58113,-5.8e-4 -1.16212,-5.8e-4 -1.74375,0 -0.30245,0.0619 -0.60489,0.12513 -0.90732,0.18774 -0.43177,0.0894 -0.863541,0.17877 -1.295318,0.26897 -0.469247,-1.43478 -0.938856,-2.86975 -1.408463,-4.30371 -0.402272,-1.22971 -0.80505,-2.45999 -1.207173,-3.6873 -0.286231,-1.7337 -0.573237,-3.4698 -0.85988,-5.20434 -0.280043,-1.6946 -0.559635,-3.38711 -0.837989,-5.06986 -0.238571,-2.07933 -0.475696,-4.17395 -0.718893,-6.26078 -0.280107,-2.40355 -0.561275,-4.81157 -0.841309,-7.20978 -0.213248,-4.12251 -0.427467,-8.25993 -0.641293,-12.38878 -0.04627,-0.89342 -0.0924,-1.78692 -0.138809,-2.68001 -0.137267,-2.53451 -0.27463,-5.06593 -0.412004,-7.59878 -0.122673,-2.26183 -0.245264,-4.5237 -0.368097,-6.78505 -0.168157,-1.90344 -0.336395,-3.80583 -0.504773,-5.70786 0.321292,-0.30497 0.611965,-0.60946 0.917767,-0.91328 -0.01517,-0.457 -0.03047,-0.91383 -0.04589,-1.36988 -0.488839,0.15136 -0.978831,0.30383 -1.468426,0.45662 -0.321182,-1.37084 -0.642317,-2.89258 -0.963654,-4.33798 0.183675,-0.45723 0.367224,-0.91384 0.550659,-1.36989 0.290519,-6.1e-4 0.581372,-6.1e-4 0.871878,0 0.09186,-0.38096 0.183674,-0.76165 0.27533,-1.14157 -0.213725,-0.83656 -0.458764,-1.67491 -0.688324,-2.51147 -0.734162,-0.30502 -1.498899,-0.60942 -2.24853,-0.91324 0.01541,-1.3707 0.03071,-2.7404 0.04589,-4.1097 0.428214,-0.38093 0.856701,-0.60942 1.284873,-0.91325 0.275364,-5.8e-4 0.520187,-5.8e-4 0.780103,0 -0.137484,-0.83737 -0.275211,-1.82711 -0.412996,-2.73977 -0.688134,-0.76155 -1.407123,-1.52269 -2.110864,-2.28314 -0.47412,-0.68563 -0.948239,-1.37049 -1.422537,-2.05484 -0.305853,-1.67518 -0.611725,-3.34923 -0.917767,-5.02294 1.2e-4,-0.60942 1.2e-4,-1.21826 0,-1.82653 0.687774,0.83576 1.376769,1.82595 2.064975,2.73979 0.21424,-0.0766 0.428412,-0.15272 0.642436,-0.22831 -0.30562,-1.21755 -0.611724,-2.43596 -0.917766,-3.653031 -0.519973,-1.979425 -1.040016,-3.958055 -1.560204,-5.936194 -0.290516,-0.533342 -0.611725,-1.066077 -0.917766,-1.598205 -0.321171,-1.75141 -0.642317,-3.501428 -0.963656,-5.251242 1.2e-4,-1.142162 1.2e-4,-2.283741 0,-3.424735 0.321172,0.607945 0.642557,1.064886 0.963656,1.598206 0.428315,0.912467 0.856702,1.825923 1.284874,2.739782 0.229529,0.303782 0.459002,0.608237 0.688324,0.913253 -0.03046,-1.598226 -0.09166,-3.044933 -0.137664,-4.566289 -0.294827,-0.503922 -0.589863,-1.00688 -0.884918,-1.51015 -0.240371,-0.410005 -0.48074,-0.820481 -0.721174,-1.229634 -0.519786,-1.293973 -1.049074,-2.610697 -1.560204,-3.88136 -0.173083,-0.971307 -0.352519,-1.956132 -0.528817,-2.963706 -0.160215,-0.915679 -0.321254,-1.835132 -0.480725,-2.744162 1.19e-4,-1.438556 1.19e-4,-2.892585 0,-4.337988 0.519973,0.912309 1.040255,1.825944 1.560201,2.739782 0.443651,0.760364 0.887295,1.673729 1.330763,2.511481 -0.183407,-0.989834 -0.336396,-1.97933 -0.504771,-2.968107 -0.5353,-1.142095 -1.070694,-2.283741 -1.606176,-3.424713 -0.321134,-0.913972 -0.611725,-1.827114 -0.917767,-2.739783 -0.229349,-1.294536 -0.458763,-2.588173 -0.688324,-3.881361 0.0766,-0.837707 0.153081,-1.674897 0.229441,-2.511458 0.30578,1.140006 0.611964,2.282549 0.917767,3.424733 0,0 1.19e-4,-6.96e-4 0,-1.56e-4 z"
       sodipodi:nodetypes="cccccccccccccccccccccccccccccccccccccccccccccccccccccccccccccccccccccccccccccccccccccccccccccccccccccccccccccccccccccccccccccccccccccccccccccccccccccccccccccccccccccccccccccccccccccccccccccccccccccccccccccccccccccccccccccccccccccccccccccccccccc" />
    <path
       style="fill:#000000;fill-opacity:1;stroke:#000000;stroke-width:0.186011px;stroke-linecap:butt;stroke-linejoin:miter;stroke-opacity:1"
       d="m 104.00956,135.46857 c 0.0356,-0.19185 0.10662,-0.57526 0.0639,-1.15097 -0.0427,-0.57572 -0.21798,-1.43711 -0.50262,-2.90086 -0.28463,-1.46374 -0.68655,-3.56845 -0.97676,-4.95668 -0.29021,-1.38823 -0.44412,-1.96655 -0.53801,-2.58959 -0.0939,-0.62304 -0.11928,-1.34196 -0.22587,-2.10859 -0.10658,-0.76664 -0.29615,-1.62961 -0.41515,-3.04328 -0.11901,-1.41368 -0.1652,-3.28309 -0.30734,-4.67285 -0.14213,-1.38976 -0.37904,-2.25254 -0.53299,-3.37874 -0.15394,-1.1262 -0.22501,-2.51619 -0.29607,-4.07363 -0.071,-1.55743 -0.14213,-3.28305 -0.20134,-5.29577 -0.0592,-2.012719 -0.106595,-4.313472 -0.107096,-6.56587 -5e-4,-2.252397 0.04789,-4.553051 0.118966,-5.990789 0.0711,-1.437739 0.16583,-2.060844 0.44945,-3.471661 0.28361,-1.410817 0.75865,-3.621382 1.27974,-5.801842 0.52109,-2.18046 1.08968,-4.337427 1.43313,-5.703265 0.34346,-1.365838 0.46192,-1.941032 0.47374,-2.611763 0.0118,-0.670731 -0.083,-1.437965 -0.15402,-2.180731 -0.0711,-0.742765 -0.11845,-1.46182 -0.14213,-2.036866 -0.0237,-0.575046 -0.0237,-1.006513 -0.15391,-1.653214 -0.13023,-0.6467 -0.39096,-1.509892 -0.52121,-2.132939 -0.13025,-0.623047 -0.13025,-1.006487 -0.0538,-1.175949 0.0765,-0.169461 0.2552,-0.11781 0.17234,-0.453145 -0.0829,-0.335335 -0.41471,-1.054693 -0.55678,-1.557966 -0.14206,-0.503272 -0.0947,-0.790835 -0.0261,-0.843508 0.0686,-0.05267 0.12075,0.0528 0.32442,0.464868 0.20367,0.412072 0.57802,1.169472 0.77951,1.504934 0.20148,0.335461 0.24887,0.28752 0.24883,-0.214135 -3e-5,-0.501655 -0.0476,-1.46334 -0.0438,-1.96101 0.004,-0.497669 0.0912,-0.556576 0.162,-0.508827 0.0708,0.04775 0.14206,0.191856 0.18948,0.6471 0.0474,0.455243 0.0711,1.222053 0.2488,2.156809 0.17768,0.934756 0.5092,2.036694 0.69871,2.731607 0.18951,0.694914 0.23689,0.982453 0.27244,1.797546 0.0356,0.815092 0.0592,2.156271 0.10656,3.210713 0.0474,1.054442 0.11842,1.821108 0.0829,2.899612 -0.0355,1.078504 -0.17761,2.46797 -0.35527,3.618283 -0.17767,1.150313 -0.39081,2.0607 -0.63958,3.21116 -0.24877,1.150461 -0.53292,2.539818 -0.79736,3.977127 -0.26443,1.437309 -0.49357,2.828076 -0.69552,3.909078 -0.20195,1.081001 -0.36653,1.794537 -0.44947,2.753322 -0.0829,0.958786 -0.0829,2.156396 -0.0255,2.895146 0.0575,0.738751 0.17932,1.034583 0.26228,0.9147 0.083,-0.119883 0.13033,-0.647021 0.23695,-1.006377 0.10663,-0.359357 0.27254,-0.551171 0.34351,-0.742799 0.071,-0.191627 0.0473,-0.383522 -0.0119,-0.551118 -0.0592,-0.167596 -0.15404,-0.31153 -0.18951,-0.503331 -0.0355,-0.191802 -0.0118,-0.431379 0.0593,-0.551057 0.071,-0.119678 0.14226,-0.119678 0.20288,-0.335087 0.0606,-0.215409 0.0814,-0.551671 0.14055,-0.647543 0.0591,-0.09587 0.15397,0.09598 0.24785,0.35645 0.0939,0.260469 0.19039,0.602143 0.26147,0.985584 0.0711,0.383441 0.11845,0.814665 0.17774,0.910449 0.0593,0.09578 0.13032,-0.143743 0.21316,-0.431084 0.0829,-0.287342 0.17772,-0.623246 0.17769,-0.934584 -2e-5,-0.311339 -0.0949,-0.599167 -0.11155,-0.866915 -0.0167,-0.267749 0.0642,-0.594999 0.1826,-0.7626 0.11841,-0.1676 0.28441,-0.21558 0.41451,-0.143828 0.1301,0.07175 0.22494,0.263626 0.27235,0.57509 0.0474,0.311464 0.0474,0.742796 0.0704,1.051629 0.023,0.308833 0.0717,0.50595 0.15475,0.505881 0.0831,-7e-5 0.20142,-0.191665 0.26056,-0.407193 0.0591,-0.215529 0.0591,-0.551298 0.10644,-0.57533 0.0473,-0.02403 0.14213,0.215813 0.29615,0.383652 0.15402,0.16784 0.36718,0.263679 0.7105,0.646875 0.34332,0.383195 0.81728,1.054461 1.14892,1.845152 0.33164,0.79069 0.52115,1.701326 0.69881,2.252556 0.17765,0.55123 0.34344,0.742905 0.48279,1.318138 0.13936,0.575234 0.26338,1.629187 0.29893,2.683645 0.0356,1.054458 -0.0118,2.15653 -0.1421,3.11515 -0.13028,0.95861 -0.34341,1.77313 -0.47373,2.46817 -0.13031,0.69504 -0.17767,1.26992 -0.20137,1.79723 -0.0237,0.52732 -0.0237,1.00633 0.0504,1.3711 0.0741,0.36477 0.21003,0.59387 0.40821,0.79088 0.19817,0.19701 0.41777,0.33029 0.55994,0.33018 0.14217,-1.1e-4 0.18957,-0.14394 0.27232,-0.71797 0.0827,-0.57403 0.20144,-1.58261 0.38429,-2.49507 0.18286,-0.91247 0.45676,-1.8193 0.69363,-2.4183 0.23688,-0.59899 0.45014,-0.93459 0.55665,-1.19813 0.10652,-0.26354 0.10652,-0.45537 0.0947,-1.723777 -0.0118,-1.268406 -0.0356,-3.620005 -0.0227,-5.369188 0.0129,-1.749183 0.0582,-2.803761 0.0819,-3.642382 0.0237,-0.838622 0.0237,-1.413879 -0.0658,-2.085871 -0.0894,-0.671992 -0.28961,-1.532544 -0.45541,-2.347231 -0.1658,-0.814686 -0.30794,-1.629535 -0.46189,-2.707743 -0.15395,-1.078208 -0.31979,-2.420376 -0.48559,-3.762201 -0.1658,-1.341825 -0.33164,-2.683933 -0.49744,-3.929917 -0.16581,-1.245984 -0.33164,-2.39636 -0.47619,-3.570202 -0.14456,-1.173841 -0.25813,-2.276812 -0.31733,-3.283184 -0.0592,-1.006372 -0.0592,-1.869186 -0.18949,-2.563976 -0.13029,-0.69479 -0.39093,-1.22213 -0.55672,-1.869171 -0.16578,-0.64704 -0.23684,-1.413852 -0.17768,-1.605565 0.0592,-0.191714 0.24873,0.191799 0.3712,0.458273 0.12248,0.266474 0.20916,0.500306 0.29216,0.476277 0.083,-0.02403 0.17774,-0.263601 0.2369,-0.694553 0.0592,-0.430951 0.0829,-1.054743 0.0829,-1.677629 -1e-5,-0.622885 -0.0237,-1.246205 -0.0948,-1.869103 -0.0711,-0.622897 -0.18955,-1.246175 -0.19185,-1.586356 -0.002,-0.340182 0.0736,-0.37858 0.19806,-0.09021 0.12444,0.28837 0.30167,1.005515 0.40827,1.508747 0.10661,0.503232 0.15398,0.838662 0.20134,1.054388 0.0474,0.215726 0.0947,0.311544 0.1777,0.119776 0.083,-0.191767 0.20142,-0.671021 0.34028,-1.098577 0.13886,-0.427557 0.26387,-0.722652 0.35888,-0.857883 0.095,-0.135232 0.18905,-0.0084 0.26011,0.183212 0.0711,0.191587 0.14215,0.479255 0.0876,0.737121 -0.0546,0.257865 -0.25313,0.508937 -0.39921,0.939859 -0.14607,0.430922 -0.23305,0.958869 -0.28045,1.534142 -0.0474,0.575273 -0.0474,1.245915 0.0236,1.701324 0.0711,0.455409 0.21312,0.742838 0.3435,0.766749 0.13039,0.02391 0.24883,-0.215717 0.29614,-0.670637 0.0473,-0.454921 0.0236,-1.126623 0.10653,-1.653738 0.0829,-0.527115 0.27251,-0.910656 0.43817,-1.006499 0.16565,-0.09584 0.30788,0.09599 0.34348,0.479255 0.0356,0.38326 -0.0355,0.958491 -0.13025,1.485801 -0.0948,0.527311 -0.21314,1.006309 -0.2724,1.50971 -0.0593,0.503401 -0.0593,1.030234 -0.0711,1.605496 -0.0119,0.575261 -0.0355,1.197986 -0.13029,1.725263 -0.0947,0.527278 -0.26047,0.95841 -0.36712,1.31795 -0.10664,0.35954 -0.15398,0.646891 -0.18955,0.934608 -0.0356,0.287717 -0.0592,0.574956 0.0711,1.222507 0.13038,0.647552 0.41434,1.652938 0.79994,2.968993 0.38561,1.316055 0.84615,2.853485 1.20148,4.506944 0.35533,1.653459 0.5922,3.378698 0.8342,4.791421 0.24201,1.412722 0.46861,2.421349 0.61076,3.811272 0.14214,1.389923 0.18952,3.115052 0.20157,5.271893 0.0121,2.15684 -0.0121,4.840299 -0.13051,7.452372 -0.11845,2.61208 -0.33162,5.1998 -0.52112,7.14086 -0.18951,1.94107 -0.3553,3.23491 -0.37704,4.62478 -0.0217,1.38988 0.0927,2.77968 0.14013,4.62499 0.0474,1.8453 0.0237,4.09746 -0.0592,6.49389 -0.0829,2.39643 -0.22502,4.93619 -0.31978,6.90123 -0.0948,1.96503 -0.14212,3.35472 -0.17765,4.1455 -0.0355,0.79079 -0.0592,0.98246 0.32215,1.24225 0.38137,0.25979 1.20567,0.60315 2.27156,0.84277 1.0659,0.23962 2.39257,0.38341 3.62411,0.3819 1.23153,-0.002 2.32165,-0.14229 3.12221,-0.0167 0.80055,0.12557 1.26005,0.49744 1.63413,1.11811 0.37409,0.62067 0.62079,1.39205 0.83399,1.87139 0.21319,0.47933 0.379,0.6231 0.60404,0.85185 0.22505,0.22875 0.46188,0.4901 0.58035,0.92129 0.11848,0.43119 0.0948,1.0064 0.13144,1.44136 0.0367,0.43496 0.12906,0.71532 0.0936,1.12271 -0.0355,0.40739 -0.20125,0.93444 -0.2842,1.46179 -0.0829,0.52735 -0.0829,1.05422 -0.0829,1.48563 0,0.43142 0,0.76673 -0.13031,1.15031 -0.1303,0.38359 -0.39067,0.81458 -0.67881,1.2432 -0.28815,0.42862 -0.5409,0.76954 -0.68311,1.10508 -0.14221,0.33554 -0.14221,0.62294 -0.20738,0.83278 -0.0652,0.20984 -0.21889,0.36533 -0.47966,0.48528 -0.26078,0.11994 -0.63937,0.21568 -0.87631,0.26363 -0.23694,0.0479 -0.33161,0.0479 -0.37905,0.31178 -0.0474,0.26382 -0.0474,0.79027 -0.0948,1.14977 -0.0473,0.3595 -0.14203,0.55109 -0.30801,0.64707 -0.16597,0.096 -0.40252,0.096 -0.58018,0.11992 -0.17765,0.0239 -0.29602,0.0718 -0.3909,0.33563 -0.0949,0.2638 -0.16585,0.74245 -0.39093,1.17395 -0.22508,0.43149 -0.60382,0.81465 -1.03034,1.00645 -0.42651,0.1918 -0.85268,0.1918 -1.14883,0.50327 -0.29614,0.31147 -0.43823,0.93432 -0.69888,1.222 -0.26064,0.28769 -0.63944,0.23979 -0.90004,0.47936 -0.2606,0.23957 -0.40268,0.76658 -0.67527,0.86245 -0.27259,0.0959 -0.67504,-0.23941 -1.01843,-0.16759 -0.34339,0.0718 -0.6276,0.551 -0.91201,0.69485 -0.28441,0.14384 -0.56853,-0.0478 -0.95931,1.5e-4 -0.39079,0.0479 -0.8881,0.33539 -1.18437,0.43123 -0.29628,0.0958 -0.39094,7e-5 -0.42669,1.00699 -0.0358,1.00693 -0.0115,3.21034 -0.21289,6.32574 -0.20135,3.11541 -0.62767,7.1886 -0.87504,9.82464 -0.24737,2.63604 -0.32114,3.92978 -0.33299,5.91902 -0.0118,1.98924 0.0355,4.72036 0.084,6.61343 0.0485,1.89306 0.0936,2.85158 0.0599,4.09796 -0.0337,1.24638 -0.15577,2.82728 -0.2733,5.10408 -0.11753,2.27681 -0.2378,5.39132 -0.29702,7.04476 -0.0592,1.65345 -0.0592,1.98891 0.0451,2.18556 0.10428,0.19666 0.27471,0.28287 0.35766,0.56959 0.0829,0.28672 0.0592,0.76738 0.071,1.07898 0.0118,0.3116 0.0592,0.45528 0.23687,0.719 0.17771,0.26372 0.48552,0.64697 0.68688,1.12612 0.20136,0.47915 0.29612,1.05433 0.29615,1.67743 2e-5,0.6231 -0.0947,1.29388 -0.19572,1.8465 -0.10103,0.55262 -0.23058,1.07685 -0.27798,2.13176 -0.0474,1.05491 -0.0237,2.68331 0.0128,4.09717 0.0365,1.41386 0.0819,2.51605 0.0583,3.6414 -0.0236,1.12535 -0.1185,2.22943 -0.33347,2.87113 -0.21496,0.64169 -0.59022,0.84416 -0.93386,0.86815 -0.34363,0.024 -0.67512,-0.11973 -0.93573,-0.88687 -0.26062,-0.76714 -0.45006,-2.15657 -0.59218,-3.40257 -0.14211,-1.24601 -0.23687,-2.34844 -0.30793,-3.16312 -0.0711,-0.81469 -0.11845,-1.34196 -0.15351,-1.00673 -0.0351,0.33524 -0.0597,1.6297 -0.0952,2.92384 -0.0355,1.29414 -0.0829,2.63576 -0.12013,3.49834 -0.0372,0.86259 -0.0575,1.15029 -0.2222,1.3697 -0.16466,0.2194 -0.42735,0.30798 -0.7255,0.28834 -0.29814,-0.0196 -0.64955,-0.17199 -0.87462,-0.60354 -0.22508,-0.43156 -0.34348,-1.15024 -0.42636,-2.37217 -0.0829,-1.22193 -0.13028,-2.94763 -0.0947,-4.4572 0.0355,-1.50957 0.154,-2.80375 0.14214,-3.858 -0.0119,-1.05425 -0.15401,-1.86917 -0.21322,-2.75601 -0.0592,-0.88685 -0.0355,-1.84496 0.1066,-2.61169 0.14213,-0.76672 0.40277,-1.342 0.55672,-1.70141 0.15394,-0.35942 0.20134,-0.50327 0.27226,-1.24468 0.0709,-0.74142 0.16588,-2.08619 0.22509,-3.52378 0.0592,-1.4376 0.0829,-2.97156 0.0238,-4.43196 -0.0591,-1.46041 -0.20148,-2.85289 -0.33176,-4.1468 -0.13027,-1.2939 -0.24873,-2.49222 -0.27377,-3.69035 -0.025,-1.19813 0.0488,-2.49217 0.0725,-3.76204 0.0237,-1.26988 2e-5,-2.56418 -0.0355,-4.36116 -0.0355,-1.79699 -0.0829,-4.09787 -0.0947,-5.41581 -0.0118,-1.31795 0.0119,-1.65346 -0.31948,-3.28161 -0.33135,-1.62816 -1.0189,-4.55421 -1.55151,-7.11622 -0.53262,-2.56201 -0.91232,-4.77063 -1.13565,-6.35227 -0.22334,-1.58165 -0.29777,-2.63584 -0.39254,-3.21085 -0.0948,-0.57501 -0.21323,-0.71882 -0.44984,-0.8163 -0.2366,-0.0975 -0.54491,-0.14204 -0.86473,-0.16601 -0.31982,-0.024 -0.67502,-0.024 -0.923875,-0.21583 -0.248854,-0.19187 -0.414599,-0.57512 -0.532932,-0.76674 -0.118333,-0.19161 -0.189399,-0.19161 -0.308036,-0.21561 -0.118637,-0.024 -0.284131,-0.0718 -0.402641,-0.28775 -0.118509,-0.21592 -0.189529,-0.59908 -0.22504,-0.98242 -0.03551,-0.38335 -0.03551,-0.86275 -0.10938,-1.03558 -0.07387,-0.17284 -0.257543,-0.0667 -0.360435,-0.13935 -0.102892,-0.0727 -0.157918,-0.40668 -0.273461,-0.71299 -0.115542,-0.3063 -0.310875,-0.65211 -0.583185,-0.81978 -0.27231,-0.16767 -0.627608,-0.16767 -0.92385,-0.40746 -0.296243,-0.2398 -0.533033,-0.71888 -0.781749,-1.10224 -0.248716,-0.38337 -0.509281,-0.67092 -0.78161,-0.81466 -0.272329,-0.14374 -0.556532,-0.14374 -0.777665,-0.3567 -0.221134,-0.21296 -0.347568,-0.55404 -0.418595,-0.96142 -0.07103,-0.40738 -0.07103,-0.83876 -0.165655,-1.0543 -0.09463,-0.21553 -0.284245,-0.21553 -0.571799,-0.33022 -0.287553,-0.11469 -0.707472,-0.36457 -0.980594,-0.77486 -0.273121,-0.41029 -0.413853,-0.97976 -0.650606,-1.26721 -0.236753,-0.28745 -0.568438,-0.28745 -0.758021,-0.64716 -0.189583,-0.35971 -0.236941,-1.07831 -0.27148,-1.7013 -0.03454,-0.62299 -0.0602,-1.24611 -0.107574,-1.8211 -0.04737,-0.57498 -0.11846,-1.15032 -0.130286,-1.7493 -0.01183,-0.59899 0.03557,-1.22223 0.189551,-1.55758 0.153986,-0.33535 0.414668,-0.38329 0.41462,-0.76658 -4.8e-5,-0.38329 -0.260754,-1.10257 0.153841,-1.46191 0.414596,-0.35935 1.504294,-0.35935 2.759632,-0.2635 1.255338,0.0958 2.67676,0.28757 4.026931,0.31152 1.350171,0.024 2.629406,-0.11983 3.600574,-0.26361 0.97117,-0.14378 1.63449,-0.28757 2.08453,-0.5033 0.45005,-0.21572 0.68697,-0.50334 0.80531,-0.647 0.11835,-0.14367 0.11856,-0.14367 0.15412,-0.33551 z"
       id="path852"
       inkscape:connector-curvature="0"
       inkscape:path-effect="#path-effect854"
       inkscape:original-d="m 103.974,135.66041 c 0.0712,-0.38367 0.14226,-0.76708 0.21319,-1.15022 -0.16555,-0.76644 -0.3315,-1.62974 -0.49744,-2.44421 -0.42618,-2.10865 -0.80525,-4.21772 -1.20807,-6.32619 -0.16566,-0.67118 -0.33149,-1.24633 -0.49744,-1.8691 -0.0236,-0.6232 -0.0473,-1.34218 -0.0711,-2.01287 -0.1893,-0.86262 -0.37887,-1.72559 -0.5685,-2.58799 -0.0473,-1.96494 -0.0946,-3.83432 -0.14212,-5.75108 -0.23672,-0.86281 -0.47363,-1.72559 -0.71063,-2.58798 -0.0709,-1.38997 -0.142,-2.77996 -0.21319,-4.16954 -0.0709,-1.72529 -0.142,-3.45091 -0.21319,-5.17597 -0.0473,-2.300371 -0.09462,-4.601125 -0.142124,-6.90129 0.04748,-2.204604 0.09488,-4.505278 0.142124,-6.757519 0.0949,-0.623221 0.18963,-1.246331 0.28425,-1.869099 0.44996,-2.203728 0.94764,-4.409427 1.42125,-6.613742 0.56856,-2.156605 1.13714,-4.313573 1.70551,-6.469965 0.11855,-0.575286 0.23701,-1.150479 0.35532,-1.725321 -0.0946,-0.766651 -0.18938,-1.533888 -0.28425,-2.300433 -0.0473,-0.718973 -0.0946,-1.438034 -0.14214,-2.156653 1.4e-4,-0.431461 1.4e-4,-0.862928 0,-1.293995 -0.26026,-0.862396 -0.52099,-1.725586 -0.78169,-2.587985 1.4e-4,-0.383635 1.4e-4,-0.767075 0,-1.150215 0.16584,-2.65e-4 0.33177,0.09559 0.49745,0.143777 -0.33128,-0.718674 -0.66312,-1.438034 -0.99488,-2.156656 0.0475,-0.287813 0.0949,-0.575371 0.14212,-0.86266 0.0711,0.191225 0.14226,0.287289 0.21319,0.431331 0.35545,0.670693 0.71076,1.437505 1.06595,2.156653 0.0475,-0.04819 0.0949,-0.09612 0.14212,-0.143777 -0.0471,-0.955603 -0.0946,-1.91729 -0.14212,-2.875539 0.0475,-0.04818 0.14225,-0.09611 0.21319,-0.143777 0.071,0.143195 0.14225,0.28729 0.21318,0.431331 0.0238,0.766546 0.0475,1.533356 0.0711,2.300431 0.33186,1.102381 0.66338,2.204317 0.99486,3.306871 0.0475,0.287308 0.0949,0.574844 0.14214,0.862663 0.0238,1.342393 0.0475,2.683571 0.071,4.025754 0.0712,0.766691 0.14226,1.533356 0.2132,2.300431 -0.14204,1.389957 -0.28412,2.779424 -0.42639,4.169534 -0.2131,0.910521 -0.42623,1.82091 -0.63956,2.731762 -0.28422,1.390065 -0.56836,2.779424 -0.85274,4.169532 -0.23681,1.485773 -0.47363,2.875274 -0.71063,4.313309 -0.18942,0.71878 -0.3315,1.437505 -0.49744,2.156655 1.3e-4,1.198407 1.3e-4,2.396017 0,3.594423 0.0949,0.287354 0.237,0.574844 0.35531,0.862664 0.0475,-0.527495 0.0949,-1.05463 0.14213,-1.581547 0.16584,-0.191858 0.33175,-0.38367 0.49743,-0.575109 -0.0235,-0.191789 -0.0473,-0.38367 -0.071,-0.575107 -0.0945,-0.143901 -0.18938,-0.287819 -0.28426,-0.431331 0.0238,-0.239946 0.0475,-0.479523 0.0711,-0.718886 0.11842,-2.65e-4 0.18963,-2.65e-4 0.28424,0 0.0237,-0.430999 0.0475,-0.767075 0.0711,-1.150216 0.0948,0.191292 0.18964,0.383141 0.28426,0.575109 0.0712,0.335214 0.18963,0.670695 0.28425,1.006438 0.0475,0.431176 0.0949,0.862396 0.14212,1.293993 0.0712,-0.240001 0.14226,-0.479521 0.21319,-0.718884 0.0948,-0.335309 0.18963,-0.671224 0.28425,-1.00644 -0.0945,-0.28755 -0.18936,-0.575371 -0.28425,-0.862661 0.0949,-0.239842 0.14226,-0.575374 0.21319,-0.862663 0.16576,-0.04814 0.33176,-0.09612 0.49743,-0.143775 0.0948,0.191267 0.18964,0.38314 0.28426,0.575106 1.3e-4,0.431067 1.3e-4,0.862399 0,1.293993 0.0238,0.191555 0.0949,0.38314 0.14213,0.575109 0.11863,-0.192075 0.237,-0.38367 0.35531,-0.575109 1.3e-4,-0.239602 1.3e-4,-0.575371 0,-0.862661 0.0948,0.239144 0.18963,0.478991 0.28425,0.718883 0.21334,0.0956 0.4265,0.19144 0.63956,0.287555 0.47367,0.670391 0.94764,1.341654 1.42125,2.012878 0.18963,0.910273 0.37913,1.820911 0.56851,2.731762 0.16597,0.191466 0.33176,0.383141 0.49744,0.575109 0.11854,0.958004 0.23701,2.012612 0.35531,3.019317 -0.0473,1.102233 -0.0946,2.204312 -0.14213,3.306862 -0.21311,0.81469 -0.42624,1.62921 -0.63956,2.44421 -0.0473,0.57507 -0.0946,1.14995 -0.14213,1.72533 1.3e-4,0.47924 1.3e-4,0.95825 0,1.43777 0.16604,0.23949 0.28439,0.47899 0.42638,0.71888 0.26067,0.1435 0.47389,0.28729 0.71063,0.43133 0.0475,-0.14399 0.0949,-0.28782 0.14213,-0.43133 0.11831,-1.00456 0.237,-2.01314 0.35531,-3.01931 0.26061,-0.81475 0.52126,-1.72559 0.78169,-2.58799 0.21324,-0.33562 0.4265,-0.67122 0.63956,-1.00644 1.3e-4,-0.19184 1.3e-4,-0.38367 0,-0.57511 -0.0235,-2.345375 -0.0473,-4.696973 -0.0711,-7.045065 0.0475,-1.150356 0.0949,-2.204845 0.14213,-3.306871 1.3e-4,-0.575223 1.3e-4,-1.15048 0,-1.725325 -0.18929,-0.766722 -0.37887,-1.629735 -0.56851,-2.444207 -0.14197,-0.814888 -0.28411,-1.629738 -0.42638,-2.44421 -0.16564,-1.341933 -0.33149,-2.6841 -0.49743,-4.025755 -0.16566,-1.341995 -0.3315,-2.684102 -0.49744,-4.025754 -0.16566,-1.150321 -0.33149,-2.300698 -0.49744,-3.450648 -0.11829,-1.198227 -0.23674,-2.300695 -0.35531,-3.450648 1.3e-4,-0.862775 1.3e-4,-1.725589 0,-2.587985 -0.26036,-0.527286 -0.521,-1.054629 -0.7817,-1.581547 -0.0709,-0.767075 -0.14198,-1.533885 -0.21318,-2.30043 0.18957,0.383034 0.37913,0.766545 0.56851,1.150215 0.0712,0.143512 0.14224,0.38314 0.21318,0.575106 0.0949,-0.239945 0.18962,-0.47952 0.28425,-0.718884 0.0237,-0.622543 0.0475,-1.246333 0.0711,-1.869101 -0.0235,-0.623014 -0.0473,-1.24633 -0.0711,-1.869101 -0.11826,-0.623054 -0.23675,-1.246331 -0.35532,-1.869099 0.11855,-0.04818 0.18964,-0.09612 0.28426,-0.143777 0.16567,0.621758 0.33176,1.341654 0.49743,2.012876 0.0475,0.335269 0.0949,0.670695 0.14213,1.00644 0.0475,0.09564 0.0949,0.191437 0.14212,0.287555 0.11858,-0.479523 0.23701,-0.958779 0.35532,-1.43777 0.14216,-0.383418 0.28438,-0.671224 0.42637,-1.00644 0.0711,0.04762 0.14227,0.191439 0.21319,0.287554 0.0712,0.287168 0.14226,0.574844 0.21319,0.862661 -0.16574,0.239453 -0.37887,0.478994 -0.5685,0.718886 -0.0947,0.623271 -0.18937,1.149951 -0.28425,1.725324 1.3e-4,0.575159 1.3e-4,1.245801 0,1.869101 0.14232,0.287412 0.28438,0.574842 0.42637,0.862661 0.11857,-0.239892 0.23701,-0.47952 0.35532,-0.718886 -0.0235,-0.670481 -0.0473,-1.342181 -0.0711,-2.012876 0.18957,-0.383529 0.37913,-0.767075 0.56851,-1.150215 0.14215,0.191304 0.28438,0.38314 0.42638,0.575106 -0.0709,0.574723 -0.142,1.149951 -0.21319,1.725324 -0.11838,0.479251 -0.23675,0.95825 -0.35532,1.43777 1.3e-4,0.527267 1.3e-4,1.0541 0,1.581547 -0.0236,0.62308 -0.0473,1.245804 -0.0711,1.869101 -0.16576,0.431263 -0.33149,0.862396 -0.49743,1.293992 -0.0473,0.287486 -0.0946,0.574845 -0.14214,0.862661 -0.0236,0.287608 -0.0473,0.574844 -0.0711,0.862663 0.28468,1.007224 0.56863,2.012612 0.85276,3.019317 0.47392,1.629346 0.94763,3.162829 1.42125,4.744641 0.23702,1.725141 0.47389,3.45038 0.71063,5.175969 0.23703,1.102141 0.47388,2.108465 0.71062,3.163094 0.0475,1.725255 0.0949,3.450383 0.14213,5.175972 -0.0236,2.588093 -0.0473,5.271556 -0.0711,7.907728 -0.21308,2.58799 -0.42625,5.17571 -0.63957,7.76396 -0.16569,1.29388 -0.33149,2.58772 -0.49744,3.88198 0.1186,1.48579 0.23701,2.87527 0.35532,4.31331 -0.0235,2.25258 -0.0473,4.50474 -0.0711,6.75751 -0.14201,2.5401 -0.28412,5.07986 -0.42637,7.62018 -0.0473,1.38974 -0.0946,2.77943 -0.14213,4.16954 -0.0236,0.19147 -0.0473,0.38314 -0.0711,0.5751 0.78309,0.33576 1.61089,0.6707 2.41613,1.00644 1.32647,0.1435 2.65314,0.28729 3.97951,0.43133 1.13703,-0.14402 2.22676,-0.28782 3.33995,-0.43133 0.4975,0.3831 0.94763,0.76655 1.42125,1.15022 0.26066,0.86227 0.52126,1.62921 0.7817,2.44421 0.16595,0.14352 0.33175,0.28729 0.49744,0.43133 0.26058,0.33509 0.52125,0.57484 0.78168,0.86266 -0.0236,0.57474 -0.0473,1.14995 -0.0711,1.72532 0.11863,0.28744 0.18963,0.57485 0.28425,0.86266 -0.16572,0.52704 -0.33149,1.0541 -0.49744,1.58155 1.3e-4,0.52723 1.3e-4,1.0541 0,1.58155 1.3e-4,0.33538 1.3e-4,0.67069 0,1.00644 -0.26064,0.4314 -0.521,0.8624 -0.78169,1.29399 -0.30797,0.4313 -0.56837,0.76655 -0.85275,1.15022 1.3e-4,0.28744 1.3e-4,0.57484 0,0.86266 -0.11842,0.14364 -0.28412,0.28729 -0.42638,0.43133 -0.37928,0.0957 -0.75787,0.19144 -1.137,0.28755 -0.0947,-2.6e-4 -0.18937,-2.6e-4 -0.28426,0 1.4e-4,0.52765 1.4e-4,1.0541 0,1.58155 -0.0947,0.19153 -0.18936,0.38314 -0.28424,0.57511 -0.23707,-2.7e-4 -0.47362,-2.7e-4 -0.71063,0 -0.11837,0.0477 -0.23674,0.0956 -0.35531,0.14377 -0.071,0.47961 -0.142,0.95825 -0.21319,1.43777 -0.37912,0.3834 -0.75787,0.76655 -1.137,1.15022 -0.47383,-2.6e-4 -0.9,-2.6e-4 -1.35019,0 -0.14204,0.62295 -0.28413,1.2458 -0.42638,1.8691 -0.37907,-0.0482 -0.75787,-0.0961 -1.137,-0.14378 -0.14205,0.52709 -0.28413,1.0541 -0.42638,1.58155 -0.4028,-0.33594 -0.80525,-0.67122 -1.20807,-1.00644 -0.28416,0.47907 -0.56837,0.95825 -0.85275,1.43777 -0.28426,-0.19206 -0.56837,-0.38367 -0.85275,-0.5751 -0.49745,0.28736 -0.99475,0.57484 -1.49232,0.86266 -0.0947,-0.0962 -0.18936,-0.19197 -0.28425,-0.28756 0.0238,2.10963 0.0475,4.31305 0.0711,6.46997 -0.42629,4.0739 -0.85261,8.14709 -1.27913,12.22104 -0.0709,1.19797 -0.14199,2.49187 -0.21318,3.7382 0.0475,2.73214 0.0949,5.46326 0.14212,8.19529 0.0475,1.0542 0.0949,2.01261 0.14213,3.01931 -0.11834,1.48579 -0.23674,3.06698 -0.35531,4.60087 -0.11833,3.01964 -0.23675,6.13422 -0.35532,9.20172 1.3e-4,0.23939 1.3e-4,0.57485 0,0.86267 0.21351,0.0957 0.37913,0.19143 0.5685,0.28755 1.4e-4,0.47876 -0.0473,0.95825 -0.0711,1.43777 0.0476,0.1436 0.0949,0.28729 0.14212,0.43133 0.3082,0.3833 0.61601,0.76655 0.92382,1.15022 0.0949,0.57477 0.18963,1.14995 0.28425,1.72532 -0.0946,0.67088 -0.18937,1.34165 -0.28425,2.01288 -0.11836,0.43126 -0.23675,0.95825 -0.35532,1.43777 0.0238,1.63028 0.0475,3.25868 0.0711,4.88841 0.0475,1.19807 0.0949,2.30017 0.14212,3.45065 -0.0709,1.10226 -0.18936,2.20432 -0.28425,3.30687 -0.35528,0.14355 -0.7105,0.38314 -1.06593,0.57511 -0.33165,-0.1441 -0.66313,-0.28782 -0.99489,-0.43133 -0.18942,-1.39052 -0.37887,-2.77995 -0.5685,-4.16953 -0.0946,-1.10242 -0.18937,-2.20485 -0.28425,-3.30688 -0.0473,-0.52734 -0.0946,-1.05462 -0.14213,-1.58154 -0.0235,1.1974 -0.0473,2.49187 -0.0711,3.7382 -0.0473,1.34195 -0.0946,2.68357 -0.14212,4.02575 -0.0236,0.38323 -0.0473,0.6707 -0.0711,1.00645 -0.30808,0.0957 -0.56836,0.19143 -0.85275,0.28755 -0.30796,-0.14412 -0.66312,-0.28782 -0.99488,-0.43133 -0.11833,-0.71936 -0.23674,-1.43804 -0.3553,-2.15666 -0.0473,-1.72521 -0.0946,-3.45091 -0.14214,-5.17597 0.11856,-1.29407 0.23701,-2.58825 0.35533,-3.88198 -0.14197,-0.81481 -0.28413,-1.62973 -0.42638,-2.4442 0.0475,-0.9586 0.0475,-1.9173 0.071,-2.87554 0.26062,-0.57521 0.52127,-1.15048 0.7817,-1.72533 0.0475,-0.14397 0.0949,-0.28782 0.14212,-0.43133 0.0947,-1.33933 0.18963,-2.6841 0.28425,-4.02575 0.0238,-1.53355 0.0475,-3.06751 0.0711,-4.60087 -0.11829,-1.38986 -0.28412,-2.77995 -0.42637,-4.16953 -0.11829,-1.19823 -0.23675,-2.39655 -0.35533,-3.59442 0.0712,-1.19821 0.14227,-2.4924 0.21319,-3.7382 -0.0235,-1.29396 -0.0473,-2.58826 -0.071,-3.88198 -0.0473,-2.30025 -0.0946,-4.60113 -0.14214,-6.9013 0.0238,-0.33571 0.0475,-0.67122 0.0711,-1.00644 -0.6862,-2.92114 -1.37375,-5.84719 -2.06081,-8.77039 -0.35517,-2.20476 -0.75788,-4.40943 -1.13701,-6.61374 -0.0709,-0.95872 -0.14199,-2.01315 -0.21319,-3.01932 -0.11828,-0.14401 -0.23674,-0.28782 -0.35531,-0.43133 -0.3553,-0.0482 -0.66312,-0.0961 -0.99488,-0.14378 -0.30792,-2.6e-4 -0.66312,-2.6e-4 -0.994877,0 -0.165743,-0.38382 -0.331492,-0.76707 -0.497433,-1.15021 -0.07093,-2.7e-4 -0.141996,-2.7e-4 -0.213196,0 -0.165988,-0.0483 -0.331492,-0.0961 -0.497433,-0.14378 -0.07098,-0.38392 -0.141996,-0.76708 -0.213196,-1.15022 1.37e-4,-0.38352 1.37e-4,-0.86292 0,-1.29399 -0.1419,0.0955 -0.331492,0.19144 -0.497433,0.28755 -0.04727,-0.24011 -0.09462,-0.57537 -0.142126,-0.86266 -0.165593,-0.33555 -0.37887,-0.67122 -0.568503,-1.00644 -0.355198,-2.6e-4 -0.710496,-2.6e-4 -1.06594,0 -0.236833,-0.47969 -0.473622,-0.95877 -0.710627,-1.43776 -0.260434,-0.28782 -0.520996,-0.57538 -0.781692,-0.86267 -0.284167,-2.6e-4 -0.56837,-2.6e-4 -0.85275,0 -0.142059,-0.43179 -0.284119,-0.76707 -0.426376,-1.15021 1.29e-4,-0.43155 1.29e-4,-0.86293 0,-1.294 -0.189255,-2.6e-4 -0.378872,-2.6e-4 -0.568503,0 -0.379129,-0.24005 -0.805243,-0.47952 -1.208067,-0.71888 -0.165714,-0.57549 -0.284118,-1.15048 -0.426375,-1.72533 -0.331434,-0.0482 -0.663119,-2.6e-4 -0.994874,0 -0.04725,-0.71943 -0.09462,-1.43803 -0.142128,-2.15665 -0.02353,-0.52728 -0.04725,-1.15048 -0.07106,-1.72532 -0.0709,-0.57514 -0.14199,-1.15048 -0.213187,-1.72533 0.0475,-0.62309 0.09488,-1.24633 0.142129,-1.8691 0.260566,-0.0482 0.521257,-0.0961 0.781691,-0.14378 -0.260296,-0.71875 -0.520996,-1.43803 -0.781691,-2.15665 1.089686,-2.6e-4 2.179384,-2.6e-4 3.268883,0 1.421214,0.19142 2.842637,0.38314 4.263761,0.57511 1.279152,-0.14403 2.558387,-0.28782 3.837383,-0.43133 0.66332,-0.14403 1.32664,-0.28782 1.98977,-0.43133 0.23695,-0.28776 0.47388,-0.57537 0.71062,-0.86266 z" />
  </g>
</svg>
