<?xml version="1.0" encoding="UTF-8" standalone="no"?>
<!-- Created with Inkscape (http://www.inkscape.org/) -->

<svg
   xmlns:dc="http://purl.org/dc/elements/1.1/"
   xmlns:cc="http://creativecommons.org/ns#"
   xmlns:rdf="http://www.w3.org/1999/02/22-rdf-syntax-ns#"
   xmlns:svg="http://www.w3.org/2000/svg"
   xmlns="http://www.w3.org/2000/svg"
   xmlns:sodipodi="http://sodipodi.sourceforge.net/DTD/sodipodi-0.dtd"
   xmlns:inkscape="http://www.inkscape.org/namespaces/inkscape"
   width="151.59407mm"
   height="42.682888mm"
   viewBox="0 0 151.59407 42.682888"
   version="1.1"
   id="svg8"
   sodipodi:docname="webDeveloperPath.svg"
   inkscape:version="0.92.2 5c3e80d, 2017-08-06">
  <defs
     id="defs2">
    <inkscape:path-effect
       effect="bspline"
       id="path-effect982"
       is_visible="true"
       weight="33.333333"
       steps="2"
       helper_size="0"
       apply_no_weight="true"
       apply_with_weight="true"
       only_selected="false" />
    <inkscape:path-effect
       effect="bspline"
       id="path-effect978"
       is_visible="true"
       weight="33.333333"
       steps="2"
       helper_size="0"
       apply_no_weight="true"
       apply_with_weight="true"
       only_selected="false" />
    <inkscape:path-effect
       effect="bspline"
       id="path-effect974"
       is_visible="true"
       weight="33.333333"
       steps="2"
       helper_size="0"
       apply_no_weight="true"
       apply_with_weight="true"
       only_selected="false" />
    <inkscape:path-effect
       effect="bspline"
       id="path-effect970"
       is_visible="true"
       weight="33.333333"
       steps="2"
       helper_size="0"
       apply_no_weight="true"
       apply_with_weight="true"
       only_selected="false" />
    <inkscape:path-effect
       effect="bspline"
       id="path-effect966"
       is_visible="true"
       weight="33.333333"
       steps="2"
       helper_size="0"
       apply_no_weight="true"
       apply_with_weight="true"
       only_selected="false" />
    <inkscape:path-effect
       effect="bspline"
       id="path-effect962"
       is_visible="true"
       weight="33.333333"
       steps="2"
       helper_size="0"
       apply_no_weight="true"
       apply_with_weight="true"
       only_selected="false" />
    <inkscape:path-effect
       effect="bspline"
       id="path-effect958"
       is_visible="true"
       weight="33.333333"
       steps="2"
       helper_size="0"
       apply_no_weight="true"
       apply_with_weight="true"
       only_selected="false" />
    <inkscape:path-effect
       effect="bspline"
       id="path-effect954"
       is_visible="true"
       weight="33.333333"
       steps="2"
       helper_size="0"
       apply_no_weight="true"
       apply_with_weight="true"
       only_selected="false" />
    <inkscape:path-effect
       effect="bspline"
       id="path-effect950"
       is_visible="true"
       weight="33.333333"
       steps="2"
       helper_size="0"
       apply_no_weight="true"
       apply_with_weight="true"
       only_selected="false" />
    <inkscape:path-effect
       effect="bspline"
       id="path-effect946"
       is_visible="true"
       weight="33.333333"
       steps="2"
       helper_size="0"
       apply_no_weight="true"
       apply_with_weight="true"
       only_selected="false" />
    <inkscape:path-effect
       effect="bspline"
       id="path-effect942"
       is_visible="true"
       weight="33.333333"
       steps="2"
       helper_size="0"
       apply_no_weight="true"
       apply_with_weight="true"
       only_selected="false" />
    <inkscape:path-effect
       effect="bspline"
       id="path-effect938"
       is_visible="true"
       weight="33.333333"
       steps="2"
       helper_size="0"
       apply_no_weight="true"
       apply_with_weight="true"
       only_selected="false" />
    <inkscape:path-effect
       effect="bspline"
       id="path-effect934"
       is_visible="true"
       weight="33.333333"
       steps="2"
       helper_size="0"
       apply_no_weight="true"
       apply_with_weight="true"
       only_selected="false" />
    <inkscape:path-effect
       effect="bspline"
       id="path-effect930"
       is_visible="true"
       weight="33.333333"
       steps="2"
       helper_size="0"
       apply_no_weight="true"
       apply_with_weight="true"
       only_selected="false" />
    <inkscape:path-effect
       effect="simplify"
       id="path-effect924"
       is_visible="true"
       steps="1"
       threshold="0.0002"
       smooth_angles="360"
       helper_size="0"
       simplify_individual_paths="false"
       simplify_just_coalesce="false"
       simplifyindividualpaths="false"
       simplifyJustCoalesce="false" />
    <inkscape:path-effect
       effect="simplify"
       id="path-effect920"
       is_visible="true"
       steps="1"
       threshold="0.00342105"
       smooth_angles="360"
       helper_size="0"
       simplify_individual_paths="false"
       simplify_just_coalesce="false"
       simplifyindividualpaths="false"
       simplifyJustCoalesce="false" />
    <inkscape:path-effect
       effect="simplify"
       id="path-effect916"
       is_visible="true"
       steps="1"
       threshold="0.000408163"
       smooth_angles="360"
       helper_size="0"
       simplify_individual_paths="false"
       simplify_just_coalesce="false"
       simplifyindividualpaths="false"
       simplifyJustCoalesce="false" />
  </defs>
  <sodipodi:namedview
     id="base"
     pagecolor="#ffffff"
     bordercolor="#666666"
     borderopacity="1.0"
     inkscape:pageopacity="0.0"
     inkscape:pageshadow="2"
     inkscape:zoom="0.82479616"
     inkscape:cx="318.99895"
     inkscape:cy="308.30056"
     inkscape:document-units="mm"
     inkscape:current-layer="layer1"
     showgrid="false"
     inkscape:window-width="1440"
     inkscape:window-height="810"
     inkscape:window-x="0"
     inkscape:window-y="1"
     inkscape:window-maximized="1" />
  <metadata
     id="metadata5">
    <rdf:RDF>
      <cc:Work
         rdf:about="">
        <dc:format>image/svg+xml</dc:format>
        <dc:type
           rdf:resource="http://purl.org/dc/dcmitype/StillImage" />
        <dc:title></dc:title>
      </cc:Work>
    </rdf:RDF>
  </metadata>
  <g
     inkscape:label="Layer 1"
     inkscape:groupmode="layer"
     id="layer1"
     transform="translate(26.916259,-243.00176)">
    <path
       id="rect910"
       style="fill:#ffffdd;fill-opacity:0;stroke:#000000;stroke-width:0;stroke-miterlimit:4;stroke-dasharray:none;stroke-opacity:0.04285715"
       d="M 24.759123,1.9444846 V 131.45999 H 221.97897 V 1.9444846 Z"
       inkscape:connector-curvature="0" />
    <path
       style="fill:none;stroke:#000000;stroke-width:1.46500003;stroke-linecap:round;stroke-linejoin:miter;stroke-miterlimit:4;stroke-dasharray:none;stroke-opacity:1"
       d="m 8.912774,110.26138 c 0.6417583,-1.0696 1.283332,-2.13889 1.657485,-3.3149 0.374153,-1.17602 0.481113,-2.45954 0.05348,-3.74242 -0.427635,-1.28288 -1.3902073,-2.56631 -2.7267212,-3.635536 -1.336514,-1.069228 -3.0474313,-1.924686 -5.0780221,-2.5203 -2.03059082,-0.595614 -4.171162,-0.90141 -6.7375478,-0.634108 -2.5663859,0.267301 -5.4531755,1.122646 -8.0964289,2.913541 -2.643254,1.790893 -4.948758,4.410793 -6.788047,7.073433 -1.839288,2.66265 -3.079523,5.14312 -3.874411,7.55014 -0.794887,2.40703 -1.12995,4.86416 -1.033706,7.27248 0.09624,2.40832 0.652173,5.07678 1.641667,6.97902 0.989493,1.90223 2.539222,3.23057 3.978772,3.92529 1.43955,0.69472 2.837821,0.80228 4.292212,0.69299 1.454391,-0.10929 2.929752,-0.42544 3.945513,-0.79973 1.015761,-0.37429 1.5505137,-0.80209 1.0163078,-0.90898 -0.534206,-0.10689 -2.1390088,0.10708 -3.9569778,0.85563 -1.81797,0.74854 -3.849242,2.03145 -5.74153,3.76851 -1.892288,1.73705 -3.561155,3.82314 -5.058295,6.44309 -1.49714,2.61995 -2.780113,5.72046 -3.319437,8.44771 -0.539323,2.72725 -0.316258,5.29249 0.0045,7.32425 0.320794,2.03175 0.748465,3.63552 1.764412,5.1327 1.015947,1.49719 2.619699,2.8871 4.544474,3.9564 1.924774,1.0693 4.170307,1.81781 6.629615,2.29897 2.459308,0.48115 5.1327162,0.69503 7.3247074,0.16032 2.1919913,-0.5347 3.9030059,-1.81797 5.4800645,-3.1812 1.57705859,-1.36324 3.1277737,-2.91396 4.3038496,-4.67813 1.1760759,-1.76418 2.0316582,-3.79618 3.0473979,-6.04149 1.0157397,-2.24531 2.1921425,-4.70506 3.085619,-6.90182 0.8934766,-2.19677 1.5658316,-4.32589 2.2412006,-6.15215 0.675368,-1.82625 1.463244,-3.62712 2.372115,-4.91014 0.90887,-1.28302 1.978354,-2.13861 3.230064,-2.18002 1.251711,-0.0414 2.597534,0.68327 3.132158,2.55425 0.534623,1.87098 0.213816,4.86519 -5.4e-5,7.11077 -0.213869,2.24558 -0.320789,3.74244 -0.374264,4.91875 -0.05347,1.1763 -0.05347,2.03157 -0.05347,3.36846 0,1.33689 0,3.15412 0.05346,4.59775 0.05346,1.44363 0.160375,2.51276 0.588319,2.67306 0.427943,0.16029 1.176277,-0.58804 1.550393,-1.65709 0.374117,-1.06904 0.374117,-2.4596 0.374117,-3.79609 0,-1.33649 0,-2.61988 -0.05346,-4.2236 -0.05346,-1.60372 -0.160408,-3.52884 -0.267331,-5.34652 -0.106922,-1.81768 -0.213866,-3.52876 -0.361681,-4.7615 -0.147816,-1.23274 -0.38686,-2.18892 0.147796,-3.31157 0.534656,-1.12264 1.818084,-2.51302 3.296242,-3.82151 1.478157,-1.30849 3.012884,-2.43396 4.456264,-2.91503 1.44338,-0.48107 2.72677,-0.26717 3.821939,0.40687 1.09517,0.67404 1.898593,1.67832 2.540158,2.80103 0.641565,1.12272 1.069265,2.2989 1.443538,3.52864 0.374273,1.22974 0.695021,2.51273 0.686807,4.22239 -0.0082,1.70965 -0.312479,3.63667 -0.873806,5.05355 -0.561327,1.41688 -1.256247,2.1118 -1.630627,1.79077 -0.37438,-0.32104 -0.37438,-1.71062 -0.267453,-3.20749 0.106928,-1.49686 0.320825,-3.1011 0.534673,-4.43762 0.213847,-1.33651 0.427745,-2.406 0.962336,-3.58203 0.534591,-1.17603 1.39027,-2.45955 2.539936,-3.71987 1.149665,-1.26032 2.699847,-2.58905 4.089816,-3.3909 1.389968,-0.80185 2.673359,-1.1227 3.9563,-1.17614 1.282942,-0.0534 2.566392,0.16048 3.795892,0.69505 1.2295,0.53457 2.405914,1.39015 3.109575,2.5113 0.703661,1.12116 0.900189,2.30032 1.057052,3.69074 0.156863,1.39042 0.27087,3.10056 0.324342,4.81155 0.05347,1.71099 0.05347,3.5285 -0.05345,5.13251 -0.106921,1.60402 -0.320748,2.9939 -0.254711,4.38103 0.06604,1.38713 0.361589,2.56934 0.896286,3.85263 0.534697,1.28329 1.28309,2.56625 2.192159,3.26135 0.909068,0.69509 1.978288,0.80201 3.270869,0.5017 1.292581,-0.3003 2.984651,-1.08994 4.053815,-1.94535 1.069163,-0.85542 1.603912,-1.81797 2.157425,-2.98606 0.553513,-1.16808 1.050384,-2.36057 1.42457,-3.59009 0.374186,-1.22953 0.588096,-2.40604 0.694997,-3.63553 0.106901,-1.2295 0.106901,-2.72684 0.160368,-3.95643 0.05347,-1.22958 0.160415,-2.29908 0.213864,-3.20787 0.05345,-0.90878 0.05345,-1.65748 0.05345,-2.56618 0,-0.90871 0,-1.97837 -0.267214,-1.49747 -0.267215,0.4809 -0.801991,2.51305 -0.967465,4.59885 -0.165475,2.08579 0.05845,4.43694 0.43271,6.36178 0.374264,1.92484 0.908851,3.5286 1.924791,4.91882 1.01594,1.39023 2.512797,2.56633 4.170296,3.04748 1.6575,0.48115 3.475339,0.26729 4.724177,-0.29307 1.248838,-0.56037 1.852026,-1.36462 2.386537,-2.4337 0.53451,-1.06907 0.962371,-2.35266 1.53234,-3.90993 0.569968,-1.55726 1.354769,-3.57531 1.99628,-5.49987 0.641511,-1.92456 1.176241,-3.84959 1.767436,-6.10746 0.591196,-2.25787 1.226585,-4.79943 1.600797,-7.52592 0.374212,-2.72649 0.481155,-5.61392 0.534615,-8.12664 0.05346,-2.51272 0.05346,-4.86535 0.109463,-7.16407 0.056,-2.29871 0.157864,-4.43781 0.21132,-6.62971 0.05346,-2.1919 0.05346,-4.33074 -0.385343,-6.03372 -0.4388,-1.702979 -1.485957,-3.215541 -2.608502,-3.643308 -1.122544,-0.427767 -2.405744,0.106904 -3.468459,1.479375 -1.062716,1.372472 -1.931488,3.653003 -2.466197,6.112563 -0.534709,2.45957 -0.748539,5.13241 -0.85548,7.59191 -0.106942,2.45949 -0.106942,4.70475 -8e-6,7.37816 0.106934,2.67342 0.320769,5.77399 0.632665,8.70805 0.311896,2.93406 0.757374,5.94104 1.238565,8.34704 0.481191,2.406 1.015794,4.33057 1.60393,6.04152 0.588135,1.71096 1.229649,3.20782 2.352548,4.38416 1.122899,1.17635 2.726688,2.0317 4.437578,2.45939 1.71089,0.42769 3.31493,0.42769 4.75838,-0.16046 1.44345,-0.58815 2.61985,-1.76455 3.40756,-3.0516 0.787715,-1.28705 1.243755,-2.88322 1.683335,-4.59107 0.43958,-1.70786 0.84356,-3.42473 1.05738,-5.13543 0.21382,-1.7107 0.21382,-3.10105 0.0676,-4.09315 -0.14624,-0.9921 -0.49538,-1.574 -0.95503,-1.24273 -0.45965,0.33127 -1.14408,1.70013 -1.464948,2.98347 -0.320867,1.28333 -0.320867,2.56616 -0.320867,3.84944 0,1.28327 0,2.56615 0.106933,3.74251 0.106933,1.17636 0.32075,2.24542 1.015922,3.36838 0.69517,1.12297 1.87116,2.29896 3.0475,2.94055 1.17633,0.64158 2.35254,0.74851 3.52868,0.53463 1.17615,-0.21389 2.3526,-0.74864 3.1544,-1.65745 0.8018,-0.9088 1.22963,-2.1923 1.97803,-3.84945 0.7484,-1.65714 1.81795,-3.68929 2.46693,-5.50587 0.64898,-1.81658 0.8479,-3.20905 1.1152,-4.70591 0.26731,-1.49686 0.58815,-2.99416 0.35773,-2.62598 -0.23043,0.36818 -0.94575,2.41195 -1.26378,4.55058 -0.31803,2.13862 -0.21673,4.06331 0.0423,6.36379 0.259,2.30048 0.70334,5.07765 0.81511,7.5375 0.11177,2.45985 -0.11171,4.91816 -0.16709,7.53817 -0.0554,2.62002 0.0554,5.72047 0.006,8.5545 -0.0494,2.83402 -0.27139,5.72024 -0.91296,8.3401 -0.64156,2.61986 -1.71075,5.07898 -3.15435,7.43156 -1.44361,2.35259 -3.26116,4.5978 -5.28391,6.22188 -2.02275,1.62408 -4.07211,2.5463 -6.03984,2.57841 -1.967732,0.0321 -4.020501,-0.99428 -5.036385,-2.65189 -1.015884,-1.65761 -1.122805,-4.00992 -0.665608,-6.00306 0.457197,-1.99314 1.574653,-3.78107 2.697354,-5.06409 1.1227,-1.28302 2.29913,-2.1386 3.582099,-3.10082 1.28296,-0.96223 2.67339,-2.03179 4.17024,-2.99403 1.49684,-0.96224 3.1011,-1.81785 5.07905,-2.99394 1.97795,-1.17608 4.33086,-2.67338 6.14856,-3.63566 1.81771,-0.96229 3.10102,-1.39006 4.38385,-1.81767"
       id="path932"
       inkscape:connector-curvature="0"
       inkscape:path-effect="#path-effect934"
       inkscape:original-d="m 8.912774,110.26138 c 0.641837,-1.06955 1.283409,-2.13884 1.924716,-3.20786 0.107165,-1.28304 0.214122,-2.56656 0.320787,-3.84944 -0.96188,-1.28312 -1.924453,-2.56655 -2.887076,-3.849434 -1.710539,-0.85567 -3.4214557,-1.71113 -5.1325797,-2.56629 -2.35231496,-0.32107 -4.490747,-0.64184 -6.736514,-0.96236 -2.887098,0.85525 -5.773889,1.71059 -8.6612313,2.56629 -2.459366,2.673244 -4.704601,5.346174 -7.057299,8.019664 -1.283016,2.67323 -2.566026,5.13231 -3.849436,7.69887 -0.320562,2.24552 -0.641308,4.7046 -0.962359,7.0573 0.534975,2.4594 1.069552,5.13231 1.603931,7.69887 1.497385,1.17604 2.994271,2.56603 4.491009,3.84944 1.390319,-2.7e-4 2.780413,0.21359 4.170222,0.32078 1.497006,-0.4279 2.994271,-0.64183 4.4910093,-0.96236 0.534799,-0.42789 1.069552,-0.85569 1.603932,-1.28314 -1.602796,0.21348 -3.2075993,0.42745 -4.8117953,0.64157 -2.031756,1.28312 -4.063029,2.56603 -6.09494,3.84944 -1.817801,2.13863 -3.421457,4.27688 -5.132582,6.41572 -1.283055,3.10109 -2.566026,6.20161 -3.849436,9.30281 0.214145,2.35241 0.42798,4.91846 0.641573,7.37808 0.428021,1.60383 0.855695,3.2076 1.283145,4.8118 1.604378,1.38996 3.208128,2.77988 4.811795,4.17022 2.245741,0.74823 4.491273,1.49674 6.736513,2.2455 2.673295,0.21358 5.3467033,0.42745 8.0196583,0.64158 1.7109701,-1.2833 3.421986,-2.56656 5.132583,-3.84944 1.49700704,-1.3901 2.994268,-2.99427 4.491008,-4.49101 0.855543,-2.03155 1.711124,-4.06356 2.5662887,-6.09494 1.176298,-2.45924 2.352699,-4.91899 3.52865,-7.37808 0.641755,-1.92474 1.283409,-4.06356 1.924719,-6.09494 0.74865,-1.60395 1.49727,-3.42199 2.2455,-5.13259 1.06936,-0.85553 2.13884,-1.71112 3.20787,-2.56629 1.38996,0.85494 2.78041,1.49674 4.17022,2.24551 -0.3205,2.99354 -0.64131,5.98774 -0.96236,8.98202 -0.10667,1.49688 -0.21359,2.99374 -0.32079,4.491 2.7e-4,0.85533 2.7e-4,1.7106 0,2.5663 2.7e-4,1.81808 2.7e-4,3.63531 0,5.45336 0.10721,1.06918 0.21413,2.13831 0.32079,3.20787 0.74893,-0.74894 1.49727,-1.49727 2.2455,-2.24551 2.7e-4,-1.38985 2.7e-4,-2.78041 0,-4.17022 2.7e-4,-1.28317 2.7e-4,-2.56656 0,-3.84944 -0.10664,-1.92458 -0.21359,-3.8497 -0.32078,-5.77415 -0.10665,-1.71091 -0.2136,-3.42199 -0.32079,-5.13258 -0.21356,-0.74866 -0.42745,-1.71113 -0.64157,-2.56629 1.28313,-1.39004 2.56656,-2.78042 3.84944,-4.17023 1.71078,-1.17624 3.20812,-2.35269 4.81179,-3.52865 1.28317,0.21356 2.56656,0.42746 3.84944,0.64158 0.85555,1.17575 1.71112,2.13831 2.56629,3.20786 0.42799,1.17599 0.85569,2.35217 1.28314,3.52865 0.32109,1.28304 0.64184,2.56603 0.96236,3.84944 -0.32057,2.13862 -0.64131,4.06303 -0.96236,6.09494 -0.74835,0.85529 -1.49674,1.49674 -2.2455,2.2455 2.6e-4,-1.39083 2.6e-4,-2.78041 0,-4.17022 0.21408,-1.60389 0.42798,-3.20813 0.64157,-4.8118 0.21408,-1.06935 0.42798,-2.13884 0.64157,-3.20786 0.85545,-1.28304 1.71113,-2.56656 2.56629,-3.84944 1.49691,-1.1762 2.99427,-2.56655 4.49101,-3.84943 1.28317,-0.32099 2.56656,-0.64184 3.84944,-0.96236 1.2831,0.21354 2.56655,0.42745 3.84943,0.64157 1.17629,0.85502 2.3527,1.7106 3.52865,2.56629 0.21412,1.38976 0.42798,2.56603 0.64158,3.84944 0.10721,1.49699 0.21412,3.2076 0.32078,4.81179 2.7e-4,1.81781 2.7e-4,3.63532 0,5.45337 -0.21362,1.39001 -0.42745,2.77989 -0.64157,4.17022 0.32112,1.39011 0.64184,2.56603 0.96236,3.84944 0.74887,1.28307 1.49727,2.56603 2.2455,3.84944 1.06962,0.10667 2.13884,0.21359 3.20787,0.32078 1.49693,-0.7486 3.20812,-1.49726 4.81179,-2.2455 0.5348,-0.96243 1.06955,-1.92498 1.60393,-2.88708 0.53474,-1.38988 1.06956,-2.56655 1.60394,-3.84943 0.21406,-1.17619 0.42797,-2.3527 0.64157,-3.52865 2.6e-4,-1.28308 2.6e-4,-2.78042 0,-4.17023 0.10717,-1.06934 0.21412,-2.13884 0.32078,-3.20786 2.7e-4,-0.74857 2.7e-4,-1.49727 0,-2.2455 2.7e-4,-1.06918 2.7e-4,-2.13884 0,-3.20787 -0.53424,2.03088 -1.06902,4.06303 -1.60393,6.09494 0.21416,2.13864 0.42798,4.49075 0.64158,6.73652 0.53496,1.60383 1.06955,3.20759 1.60393,4.81179 1.49741,1.17607 2.99427,2.35217 4.491,3.52865 1.81801,-0.21412 3.63585,-0.42798 5.45337,-0.64157 0.74865,-0.85556 1.28341,-1.71113 1.92472,-2.56629 0.42783,-1.28297 0.85569,-2.56656 1.28314,-3.84944 0.74859,-1.8176 1.49727,-3.8497 2.24551,-5.77415 0.53482,-1.92467 1.06955,-3.8497 1.60393,-5.77416 0.74864,-2.56613 1.28341,-5.13284 1.92472,-7.69887 0.10718,-2.88699 0.21412,-5.77442 0.32079,-8.66123 2.6e-4,-2.13864 2.6e-4,-4.49127 0,-6.73651 0.10718,-2.35242 0.21412,-4.49128 0.32078,-6.73652 2.7e-4,-2.13857 2.7e-4,-4.27741 0,-6.415724 -0.85506,-1.28325 -1.92445,-2.78042 -2.88708,-4.17023 -1.28282,0.53436 -2.56602,1.06903 -3.84943,1.60394 -0.74842,2.2458 -1.7106,4.490744 -2.56629,6.736514 -0.21362,2.67333 -0.42745,5.34617 -0.64158,8.01966 2.7e-4,2.24548 2.7e-4,4.49074 0,6.73651 0.21415,3.10104 0.42798,6.20161 0.64158,9.30281 0.32107,2.7801 0.85569,5.77388 1.28314,8.66123 0.53495,1.9246 1.06956,3.84917 1.60393,5.77415 0.6419,1.49688 1.28342,2.99374 1.92472,4.49101 1.60434,0.85524 3.20813,1.71059 4.8118,2.56629 1.81794,-2.7e-4 3.42198,-2.7e-4 5.13258,0 1.1763,-1.1763 2.3527,-2.3527 3.52865,-3.52865 0.427885,-1.39003 0.855695,-2.99427 1.283145,-4.49101 0.42789,-1.92458 0.8557,-3.63584 1.28315,-5.45337 2.7e-4,-1.60392 2.7e-4,-2.99427 0,-4.491 -0.21356,-0.53482 -0.64131,-1.06956 -0.96236,-1.60394 -0.64122,1.17578 -1.28288,2.56603 -1.924725,3.84944 2.7e-4,1.2832 2.7e-4,2.56603 0,3.84943 2.7e-4,1.28315 2.7e-4,2.56603 0,3.84944 0.21417,1.06925 0.42798,2.13831 0.641585,3.20786 1.1767,1.17618 2.35269,2.35217 3.52865,3.52865 1.17648,0.10667 2.35269,0.2136 3.52865,0.32079 1.17624,-0.5348 2.35269,-1.06955 3.52865,-1.60393 0.42786,-1.28306 0.85569,-2.56656 1.28314,-3.84944 1.06929,-2.03141 2.13884,-4.06356 3.20786,-6.09494 0.21409,-1.60394 0.42798,-2.99427 0.64158,-4.49101 0.32098,-1.49697 0.64183,-2.99427 0.96235,-4.491 -0.74808,2.24477 -1.49673,4.27688 -2.2455,6.41572 0.10721,2.13863 0.21412,4.06303 0.32079,6.09494 0.42803,2.56634 0.85569,5.34618 1.28314,8.01966 -0.21361,2.24542 -0.42745,4.7046 -0.64157,7.0573 0.10721,2.88716 0.21412,5.98775 0.32079,8.98202 -0.21362,2.67318 -0.42745,5.56003 -0.64158,8.34044 -1.06913,2.45934 -2.13831,4.91846 -3.20786,7.37808 -1.81776,2.24553 -3.63531,4.49074 -5.45337,6.73651 -2.24553,0.96222 -4.27688,1.92446 -6.41572,2.88708 -1.817805,-0.85582 -3.849185,-1.92498 -5.774165,-2.88708 -0.10667,-2.35282 -0.21359,-4.70513 -0.32078,-7.0573 1.06943,-1.60402 2.13884,-3.42198 3.20786,-5.13258 1.17627,-0.85554 2.3527,-1.71112 3.528655,-2.56628 1.38998,-1.06928 2.78041,-2.13884 4.17022,-3.20786 1.60386,-0.85552 3.20812,-1.71113 4.81179,-2.5663 2.35224,-1.49697 4.70514,-2.99427 7.05731,-4.491 1.28324,-0.42793 2.56655,-0.8557 3.84943,-1.28315" />
    <path
       style="fill:none;stroke:#000000;stroke-width:1.20000005;stroke-linecap:round;stroke-linejoin:miter;stroke-miterlimit:4;stroke-dasharray:none;stroke-opacity:1"
       d="m -24.463147,259.0019 c -0.599208,2.29704 -1.198488,4.59436 -1.534426,6.49267 -0.335938,1.89832 -0.408449,3.3972 -0.209165,4.87526 0.199284,1.47807 0.670275,2.93456 1.286966,3.58488 0.616692,0.65031 1.179762,0.53494 1.958897,-0.12507 0.779134,-0.66001 1.675883,-1.84522 2.434501,-3.0947 0.758617,-1.24948 1.293252,-2.38101 1.586493,-3.48233 0.293241,-1.10133 0.301843,-2.058 0.02826,-2.46781 -0.273585,-0.40982 -0.830068,-0.26127 -1.172248,0.34404 -0.342179,0.60531 -0.469734,1.66632 -0.472072,2.58161 -0.0023,0.91529 0.120619,1.68379 0.335777,2.64381 0.215158,0.96002 0.501874,2.03409 0.860517,2.75359 0.358643,0.71951 0.923559,1.15801 1.698655,0.98186 0.775096,-0.17615 1.832838,-0.91071 2.693734,-1.94397 0.860896,-1.03326 1.615541,-2.54624 2.099881,-3.88794 0.48434,-1.34171 0.743716,-2.60318 0.956307,-3.9237 0.212591,-1.32051 0.378549,-2.70095 0.427546,-3.55656 0.049,-0.85561 -0.01889,-1.18694 -0.462319,-1.0789 -0.443426,0.10804 -1.263558,0.65595 -1.505876,1.32708 -0.242319,0.67114 0.09287,1.46504 0.667487,2.3148 0.574619,0.84975 1.280696,1.63506 2.423106,1.98776 1.1424107,0.3527 2.6670348,0.21289 4.20424,-0.0331 1.5372052,-0.24596 3.0876368,-0.59817 4.2979476,-1.26038 1.21031087,-0.66221 2.08128507,-1.63472 1.58058668,-2.39474 -0.5006984,-0.76002 -2.37389618,-1.3084 -3.76039978,-1.42132 -1.3865035,-0.11291 -2.2867664,0.2096 -2.856065,0.94943 -0.5692987,0.73982 -0.8499946,2.10498 -1.1476048,3.30932 -0.2976103,1.20433 -0.6926601,2.55376 -0.7362863,3.85728 -0.043626,1.30351 0.2210208,2.5951 0.9089057,3.59338 0.6878848,0.99828 1.791738,1.66941 3.0996673,1.98816 1.3079293,0.31875 2.81991,0.28511 4.12418734,-0.025 1.30427735,-0.31015 2.50955586,-0.95471 3.58609486,-1.84829 1.076539,-0.89358 2.0792959,-2.06578 2.9733252,-4.11945 0.8940293,-2.05366 1.672333,-4.96131 2.1654178,-7.27129 0.4930848,-2.30999 0.6973152,-4.00878 0.906027,-6.19346 0.2087117,-2.18468 0.421318,-4.84769 0.3049973,-7.01552 -0.1163206,-2.16782 -0.561901,-3.83702 -1.0459346,-3.84152 -0.4840336,-0.004 -1.0067779,1.65598 -1.3766668,3.38872 -0.3698889,1.73274 -0.5868236,3.53721 -0.7507323,5.34853 -0.1639087,1.81131 -0.274703,3.62861 -0.345201,5.55885 -0.070498,1.93025 -0.1006645,3.97263 -0.1966826,6.11518 -0.096018,2.14255 -0.2578618,4.38451 -0.043791,6.18743 0.2140707,1.80292 0.8039928,3.16608 1.03743,2.4954 0.2334372,-0.67067 0.1199011,-3.16413 -0.094165,-4.9668 -0.2140657,-1.80268 -0.5093324,-2.76203 0.4915061,-4.05123 1.0008385,-1.2892 3.1178409,-2.67694 5.0073819,-2.71897 1.889541,-0.042 3.448004,1.33019 3.99218,3.07007 0.544177,1.73988 0.07888,3.82733 -0.679951,5.53726 -0.758834,1.70993 -1.739068,2.9439 -3.149265,3.47456 -1.410197,0.53066 -3.2145897,0.31373 -4.2699314,0.13303 -1.0553417,-0.1807 -1.3610278,-0.32514 -1.6669052,-0.46966"
       id="path940"
       inkscape:connector-curvature="0"
       inkscape:path-effect="#path-effect942"
       inkscape:original-d="m -24.463147,259.0019 c -0.598988,2.2971 -1.198269,4.59442 -1.797846,6.89198 -0.07224,1.49902 -0.144749,2.9979 -0.217561,4.49719 0.471437,1.45672 0.942425,2.91321 1.413192,4.37015 0.769037,-0.12323 1.32532,-0.27173 1.987541,-0.40726 0.896157,-1.18427 1.792909,-2.36948 2.688925,-3.55389 0.59073,-1.32898 1.155923,-2.44607 1.733443,-3.66875 -0.09714,-0.98099 0.01771,-1.93671 0.02612,-2.90472 -0.555915,0.14824 -1.112397,0.29679 -1.669041,0.44553 -0.127414,1.06205 -0.254971,2.12306 -0.382894,3.18492 0.123312,0.76864 0.246265,1.53714 0.368957,2.30605 0.403581,1.12548 0.594345,2.22516 0.89108,3.33807 0.386712,0.36936 0.985354,0.76441 1.477595,1.14694 1.057726,-0.73457 2.115465,-1.46913 3.172751,-2.20334 0.696839,-1.31617 1.419306,-2.8452 2.12852,-4.26745 0.25956,-1.26118 0.518938,-2.52265 0.777967,-3.78364 0.166179,-1.38006 0.332137,-2.7605 0.497763,-4.1404 -0.06757,-0.33142 -0.135454,-0.66275 -0.203624,-0.99377 -0.81903,0.54714 -1.639164,1.09505 -2.459187,1.64293 0.335733,0.79428 0.670923,1.58818 1.005944,2.38261 0.866529,0.85789 1.520235,1.69029 2.279916,2.53577 1.5248499,-0.14003 3.0494733,-0.27985 4.5737723,-0.41943 1.5500935,-0.3523 3.100527,-0.7045 4.6503491,-1.05641 0.87088765,-0.97231 1.74185567,-1.94483 2.6123464,-2.9169 -1.87184757,-0.54831 -3.7450458,-1.09669 -5.6180083,-1.64468 -0.9001717,0.32235 -1.800438,0.64485 -2.7011006,0.96764 -0.2463554,1.15524 -0.5183502,2.52219 -0.7779665,3.78363 -0.3525102,1.1423 -0.7306794,2.49667 -1.0964614,3.74534 0.3780462,1.33787 0.5432938,2.64982 0.8144988,3.97508 1.1044217,0.67106 2.2082763,1.34219 3.3119753,2.01365 1.511967,-0.0339 3.0239487,-0.0675 4.53548013,-0.10093 1.13829372,-0.5095 2.30226857,-1.23129 3.45295667,-1.84656 1.0024829,-1.17177 2.0052424,-2.34397 3.0074183,-3.51561 0.8882753,-2.90832 1.5643453,-5.84333 2.3460772,-8.76465 0.2044859,-1.69868 0.4087137,-3.39747 0.6126324,-5.09588 0.1070291,-2.67946 0.4261253,-5.33397 0.638743,-8.00061 -0.4452024,-1.66912 -0.8907796,-3.33832 -1.3366164,-5.00713 -0.5223645,1.65997 -1.0451094,3.32044 -1.5681098,4.98102 -0.2167145,1.80487 -0.43365,3.60934 -0.6509207,5.41438 -0.1105294,1.81758 -0.2213246,3.63488 -0.33243,5.45267 -0.029884,2.04268 -0.060044,4.08506 -0.090511,6.12794 -0.1615884,2.24224 -0.3234325,4.4842 -0.4855858,6.72664 0.5903497,1.36324 1.1802787,2.72639 1.7699744,4.08994 -0.1052908,-2.70556 -0.2363877,-5.19822 -0.3550246,-7.79699 -0.3094668,-1.00667 -0.6047309,-1.96602 -0.929364,-3.01959 2.3259585,-1.52475 4.4429611,-2.91249 6.6639971,-4.36839 1.558303,1.37159 3.116765,2.74381 4.674704,4.11605 -0.573442,2.08469 -0.934888,4.19529 -1.402777,6.29329 -1.121258,1.26521 -2.030177,2.55583 -3.045705,3.83409 -1.804902,-0.21726 -3.6092949,-0.43418 -5.4143837,-0.65092 -0.3054536,-0.14477 -0.6109709,-0.28956 -0.9171899,-0.43336"
       sodipodi:nodetypes="ccccccccccccccccccccccccccccccccccccccccccccccccccc" />
    <path
       style="fill:none;stroke:#000000;stroke-width:1.20000005;stroke-linecap:round;stroke-linejoin:miter;stroke-miterlimit:4;stroke-dasharray:none;stroke-opacity:1"
       d="m 19.112629,200.14376 c 1.23674,-0.64212 2.637099,-1.3692 3.284789,-2.56831 0.64769,-1.19912 0.624991,-2.91359 -0.13371,-3.80727 -0.7587,-0.89369 -2.04051,-0.95678 -3.190921,-0.42462 -1.15041,0.53216 -2.062456,1.66469 -2.555479,2.97886 -0.493024,1.31418 -0.566597,2.80898 -0.149011,4.11445 0.417586,1.30548 1.326056,2.42058 2.474714,3.01242 1.148658,0.59183 2.537034,0.66016 3.882443,0.51225 1.345409,-0.14791 2.648278,-0.51209 3.728429,-1.22681 1.080151,-0.71472 2.046822,-1.91507 2.600886,-3.38638 0.554063,-1.4713 0.750273,-3.28209 0.914044,-5.52204 0.163771,-2.23995 0.284694,-4.69675 0.09045,-7.27554 -0.194238,-2.57878 -0.708929,-5.17377 -1.393264,-6.49206 -0.684336,-1.31829 -1.538796,-1.36034 -2.005555,-0.58027 -0.46676,0.78008 -0.545586,2.38159 -0.469493,4.09843 0.07609,1.71685 0.30709,3.54791 0.546022,5.21916 0.238932,1.67126 0.485707,3.18204 0.61488,4.84806 0.129173,1.66602 0.142026,3.7002 0.220885,5.15151 0.07886,1.45131 0.255358,2.63341 0.380585,2.26466 0.125228,-0.36874 0.204061,-1.97039 0.656727,-3.5539 0.452666,-1.58351 1.273981,-3.04213 2.223782,-3.85169 0.949801,-0.80956 2.028537,-0.97061 2.981613,-0.76313 0.953076,0.20748 1.781427,0.7837 2.161289,1.7657 0.379861,0.98201 0.311519,2.37053 -0.117426,3.4736 -0.428946,1.10307 -1.218438,1.92051 -2.051086,2.522 -0.832648,0.6015 -1.707789,0.98652 -2.628421,1.21552 -0.920632,0.229 -1.674122,0.28576 -2.534068,0.35053"
       id="path964"
       inkscape:connector-curvature="0"
       inkscape:path-effect="#path-effect966"
       inkscape:original-d="m 19.112629,200.14376 c 1.211867,-0.69003 2.637057,-1.36928 3.95517,-2.05355 -0.02241,-1.71388 -0.04511,-3.42835 -0.06808,-5.14215 -1.4947,-0.0738 -2.776509,-0.13691 -4.165181,-0.20501 -0.912114,1.13271 -1.824159,2.26524 -2.736655,3.39823 -0.07333,1.49533 -0.146909,2.99013 -0.220778,4.48558 0.909067,1.11525 1.817535,2.23036 2.725888,3.34591 1.388688,0.0681 2.777064,0.13643 4.165179,0.205 1.302651,-0.36428 2.605519,-0.72847 3.907861,-1.09235 0.907015,-1.02594 1.824715,-2.26573 2.736657,-3.39821 0.19639,-1.81013 0.392602,-3.62092 0.588485,-5.43102 0.131672,-2.66982 0.252594,-5.12662 0.378478,-7.68955 -0.514308,-2.59471 -1.029,-5.1897 -1.543916,-7.78418 -0.854056,-0.0423 -1.708514,-0.0844 -2.563187,-0.12616 -0.0786,1.60223 -0.15742,3.20374 -0.236549,4.80597 0.231352,1.83141 0.46235,3.66247 0.693109,5.49409 0.247112,1.51088 0.493883,3.02166 0.740416,4.53289 0.01772,1.82082 0.02464,3.85504 0.03654,5.78294 0.166546,0.97158 0.322343,2.15677 0.483097,3.23552 0.08966,-1.81618 0.16849,-3.41783 0.252319,-5.12637 0.821338,-1.45843 1.642654,-2.91705 2.463567,-4.37519 1.078554,-0.16127 2.157285,-0.32236 3.235532,-0.48307 0.828152,0.57564 1.656502,1.15186 2.484336,1.72816 -0.06805,1.38802 -0.136392,2.77654 -0.205007,4.16518 -0.789522,0.81751 -1.579021,1.63494 -2.368948,2.4528 -0.875433,0.38501 -1.750567,0.77004 -2.626268,1.15542 -0.966531,0.0593 -1.719026,0.12926 -2.578956,0.19425" />
    <path
       style="fill:none;stroke:#000000;stroke-width:1.20000005;stroke-linecap:round;stroke-linejoin:miter;stroke-miterlimit:4;stroke-dasharray:none;stroke-opacity:1"
       d="m 30.084673,261.35174 c -1.175898,0.5345 -2.352114,1.06914 -3.111072,2.18999 -0.758959,1.12085 -1.05909,2.6215 -1.121253,4.01317 -0.06216,1.39168 0.168996,2.77864 0.623095,3.70961 0.454099,0.93098 1.042964,1.4217 2.043877,1.47974 1.000914,0.058 2.421098,-0.37894 3.383296,-1.34124 0.962197,-0.9623 1.496962,-2.45964 1.863671,-3.90409 0.366709,-1.44445 0.595579,-3.04654 0.809408,-4.91757 0.213828,-1.87102 0.427729,-4.11697 0.534644,-6.09504 0.106915,-1.97806 0.106915,-3.68914 0.05345,-5.56023 -0.05346,-1.87109 -0.160408,-3.90305 -0.481166,-5.2395 -0.320758,-1.33646 -0.855466,-1.97811 -1.222678,-1.54963 -0.367212,0.42848 -0.595087,2.13753 -0.808966,3.79509 -0.213879,1.65755 -0.427698,3.3681 -0.641573,5.07911 -0.213876,1.711 -0.427697,3.42157 -0.478509,5.39983 -0.05081,1.97827 0.05076,4.00979 0.264621,5.61383 0.213857,1.60403 0.534605,2.67319 1.069311,3.84956 0.534706,1.17636 1.283087,2.4593 2.299083,3.20787 1.015997,0.74857 2.299059,0.96241 3.368243,0.16042 1.069184,-0.80199 1.924755,-2.62008 2.902507,-3.87889 0.977752,-1.25881 2.230269,-2.05586 3.139028,-2.91122 0.908759,-0.85536 1.550499,-1.81797 1.220488,-2.59932 -0.33001,-0.78135 -1.808651,-1.4638 -2.892892,-1.54139 -1.084241,-0.0776 -2.016499,0.50506 -2.658223,1.20019 -0.641725,0.69513 -1.069285,1.55025 -1.283223,2.45935 -0.213938,0.9091 -0.213938,1.8711 -4.1e-5,2.67326 0.213897,0.80215 0.641496,1.44355 1.069223,2.24553 0.427727,0.80198 0.855402,1.76425 1.869106,2.41688 1.013704,0.65263 2.408268,0.95147 3.637933,0.73752 1.229665,-0.21394 2.19215,-0.96254 2.903063,-2.02632 0.710912,-1.06377 1.106689,-2.2511 1.427416,-3.69443 0.320727,-1.44333 0.534637,-3.04766 0.898287,-3.97785 0.363649,-0.93019 0.705917,-1.10132 1.02645,-0.40691 0.320533,0.69441 0.534548,2.29953 0.748416,3.68969 0.213868,1.39017 0.427697,2.56623 0.748513,3.58217 0.320815,1.01595 0.748456,1.87123 1.153281,1.96485 0.404825,0.0936 0.878553,-0.7354 1.286325,-1.546 0.407772,-0.81061 0.875335,-1.86263 1.285801,-2.88451 0.410465,-1.02189 0.872652,-2.29291 1.246863,-3.30861 0.37421,-1.01571 0.695084,-1.87137 1.282965,-1.81794 0.58788,0.0534 1.443632,1.01616 2.192176,1.71123 0.748545,0.69506 1.390107,1.12277 2.245588,1.33661 0.855481,0.21384 1.92487,0.21384 3.043088,0.0387 1.118219,-0.17511 2.089697,-0.46656 2.731144,-0.89431 0.641447,-0.42774 0.855367,-0.96254 0.801907,-1.6038 -0.05346,-0.64125 -0.374439,-1.3902 -1.015823,-1.92473 -0.641383,-0.53452 -1.603906,-0.85536 -2.614458,-0.96285 -1.010552,-0.10749 -2.090253,4.7e-4 -2.892315,0.37468 -0.802062,0.37421 -1.336561,1.01561 -1.710949,1.87127 -0.374388,0.85566 -0.58815,1.92447 -0.588165,3.20787 -1.6e-5,1.2834 0.21378,2.77997 0.509914,3.81237 0.296134,1.0324 0.773144,1.74791 1.41485,2.22917 0.641707,0.48125 1.497057,0.80201 2.599439,0.65096 1.102382,-0.15106 2.533369,-0.81151 3.621802,-1.42739 1.088434,-0.61588 2.012479,-1.30892 2.814264,-2.21765 0.801786,-0.90873 1.550545,-2.08536 2.298913,-3.63558 0.748368,-1.55022 1.497069,-3.47544 2.125418,-5.40346 0.62835,-1.92801 1.189398,-4.05999 1.403214,-5.87762 0.213816,-1.81763 0.106871,-3.42181 -0.106975,-5.0256 -0.213845,-1.60379 -0.534679,-3.20796 -0.962268,-3.42195 -0.427588,-0.21399 -0.962301,0.96238 -1.229695,2.19226 -0.267394,1.22988 -0.267394,2.51268 -0.267394,3.84943 0,1.33675 0,2.72654 0,4.27717 0,1.55063 0,3.47502 0.05347,5.45337 0.05347,1.97834 0.160379,4.1166 0.320774,5.88102 0.160395,1.76443 0.374229,3.15435 0.909725,3.89711 0.535496,0.74275 1.603344,0.86141 2.339145,0.45633 0.735801,-0.40508 1.295786,-1.41305 1.563022,-2.42868 0.267235,-1.01562 0.267235,-2.08526 0.442347,-3.20348 0.175113,-1.11821 0.466556,-2.08969 0.947747,-2.83807 0.481191,-0.74839 1.122952,-1.17623 1.818626,-1.43686 0.695675,-0.26064 1.656746,-0.38077 2.272464,-0.2931 0.615718,0.0877 1.094891,0.44704 1.469078,1.08847 0.374188,0.64143 0.695007,1.60389 0.855426,2.72669 0.160419,1.1228 0.160419,2.19188 -0.141077,3.18211 -0.301497,0.99024 -0.981429,1.89682 -1.943988,2.32468 -0.962559,0.42786 -2.24526,0.42786 -3.181506,0.18241 -0.936245,-0.24545 -1.630283,-0.82381 -2.004565,-1.46553 -0.374282,-0.64171 -0.481207,-1.39018 -0.427736,-2.51274 0.05347,-1.12257 0.26739,-2.62001 0.955077,-3.60068 0.687687,-0.98067 1.665024,-1.3716 2.680676,-1.5854 1.015652,-0.21379 1.764441,-0.21379 2.726587,-0.0534 0.962146,0.16037 2.031766,0.48125 3.020036,1.20876 0.98827,0.72751 1.791682,1.73177 2.219409,2.80096 0.427728,1.06919 0.427728,2.13844 0.427728,3.20786 0,1.06942 0,2.13845 0,3.26134 0,1.1229 0,2.29883 -0.05789,3.58175 -0.05789,1.28292 -0.155944,2.45957 -0.36982,3.95675 -0.213876,1.49718 -0.534591,3.20766 -0.78779,4.38797 -0.2532,1.1803 -0.495272,2.02755 -0.741336,2.12377 -0.246065,0.0962 -0.609507,-0.63066 -0.769874,-1.37917 -0.160367,-0.74851 -0.160367,-1.81794 -0.160367,-2.88707 0,-1.06912 0,-2.24566 0.05346,-3.58211 0.05346,-1.33645 0.160415,-2.83379 0.267338,-4.11684 0.106923,-1.28304 0.213872,-2.35253 0.267322,-3.58202 0.05345,-1.22948 0.05345,-2.61993 0.267331,-3.84954 0.213881,-1.2296 0.641678,-2.29909 1.568507,-3.34289 0.926829,-1.04379 2.495065,-2.16396 3.778005,-2.4312 1.282939,-0.26724 2.352441,0.26751 2.887032,0.85542 0.53459,0.58792 0.53459,1.22956 0.481114,2.29915 -0.05348,1.06958 -0.16036,2.56597 -0.427586,3.47493 -0.267225,0.90895 -0.694857,1.22967 -1.38362,1.56821 -0.688763,0.33854 -1.449789,0.62392 -2.198437,0.78438 -0.748648,0.16045 -1.389982,0.16045 -2.085281,-0.10696 -0.695298,-0.26742 -1.44349,-0.80184 -1.764268,-1.33667 -0.320778,-0.53483 -0.213856,-1.06944 0.130361,-1.16214 0.344216,-0.0927 0.832017,0.19998 1.366583,0.62763 0.534565,0.42765 1.069286,0.96238 1.710902,1.44358 0.641615,0.4812 1.390118,0.90892 2.239699,1.17557 0.849581,0.26666 1.823785,0.3749 2.892973,0.26795 1.06919,-0.10695 2.24569,-0.42781 3.23111,-0.93594 0.98541,-0.50813 1.90162,-1.30982 3.02437,-2.32564 1.12275,-1.01583 2.51282,-2.29898 3.20772,-2.94042 0.6949,-0.64145 0.6949,-0.64145 1.01574,-0.90881 0.32084,-0.26737 0.96259,-0.80216 1.17633,-1.49698 0.21374,-0.69482 -2.1e-4,-1.55063 -0.69498,-2.0317 -0.69477,-0.48107 -1.87124,-0.58802 -3.04753,-0.48111 -1.1763,0.10691 -2.35228,0.42763 -3.10094,1.17617 -0.74866,0.74855 -1.06936,1.92445 -1.17633,2.83348 -0.10698,0.90903 -8e-5,1.55043 0.21382,2.19217 0.2139,0.64173 0.53458,1.28309 0.85541,1.8178 0.32082,0.53471 0.64155,0.96235 1.15435,1.46989 0.5128,0.50754 1.09119,0.98953 1.94671,1.31032 0.85551,0.32079 1.92484,0.42772 2.88712,0.48117 0.96228,0.0534 1.8179,0.0534 2.51288,-0.0535 0.69498,-0.10696 1.2298,-0.32088 1.69093,-0.86418 0.46113,-0.5433 0.92876,-1.59546 1.14254,-2.55764 0.21379,-0.96217 0.21379,-1.92485 0.21379,-2.88708 0,-0.96222 0,-2.13871 0,-2.99406 0,-0.85535 0,-1.49708 0.10686,-1.55059 0.10685,-0.0535 0.3208,0.48136 0.85574,0.53476 0.53494,0.0534 1.39015,-0.37421 2.13851,-0.58799 0.74835,-0.21378 1.17631,-0.21378 1.6573,-0.10688 0.48099,0.1069 0.90892,0.32087 1.28308,0.58812 0.37415,0.26725 0.69502,0.58812 0.90886,0.90883 0.21383,0.3207 0.32076,0.64149 0.42774,0.96244"
       id="path980"
       inkscape:connector-curvature="0"
       inkscape:path-effect="#path-effect982"
       inkscape:original-d="m 30.084673,261.35174 c -1.175952,0.53438 -2.352169,1.06902 -3.52865,1.60393 -0.320609,1.71106 -0.641307,3.2076 -0.962358,4.81179 0.214162,1.17618 0.427979,2.56603 0.641572,3.84944 0.641945,0.64142 1.283409,1.06902 1.924717,1.60393 1.390282,-0.32104 2.780413,-0.85569 4.170222,-1.28314 0.534789,-1.49693 1.069554,-2.99427 1.603933,-4.49101 0.214076,-1.39004 0.427979,-2.99427 0.641572,-4.49101 0.21408,-2.24532 0.42798,-4.49127 0.641573,-6.73651 2.64e-4,-1.71091 2.64e-4,-3.42199 0,-5.13259 -0.106648,-2.03159 -0.213593,-4.06355 -0.320787,-6.09493 -0.534313,-0.64176 -1.069023,-1.28341 -1.60393,-1.92472 -0.213585,1.49667 -0.427453,3.20759 -0.641575,4.81179 -0.213632,1.71091 -0.42745,3.42146 -0.641572,5.13258 -0.21363,1.71089 -0.42745,3.42146 -0.641572,5.13258 0.107212,2.24563 0.214122,4.27689 0.320786,6.41573 0.321088,1.06915 0.641837,2.13831 0.962358,3.20786 0.748887,1.28309 1.497269,2.56603 2.245505,3.84944 1.283493,0.21361 2.566556,0.42745 3.849437,0.64157 0.855551,-1.81775 1.711124,-3.63584 2.56629,-5.45337 1.069365,-0.74863 2.352698,-1.49726 3.52865,-2.2455 0.641669,-0.96237 1.28341,-1.92498 1.924718,-2.88708 -1.282474,-0.64163 -2.779884,-1.28341 -4.170223,-1.92471 -0.7483,0.53442 -1.710595,1.06902 -2.56629,1.60393 -0.427605,0.85547 -0.855166,1.71059 -1.283145,2.56629 2.64e-4,0.96245 2.64e-4,1.92445 0,2.88707 0.428097,0.64149 0.855694,1.28289 1.283145,1.92472 0.42802,0.96219 0.855695,1.92446 1.283145,2.88708 1.604401,0.32056 2.99427,0.64131 4.491009,0.96236 0.962495,-0.74867 1.924982,-1.49727 2.887077,-2.24551 0.427849,-1.38991 0.855694,-2.56655 1.283145,-3.84943 0.214069,-1.6038 0.42798,-3.20813 0.641572,-4.8118 0.534811,-0.21408 0.855695,-0.42798 1.283146,-0.64157 0.213963,1.60248 0.42798,3.2076 0.641572,4.8118 0.214153,1.17611 0.42798,2.35217 0.641573,3.52865 0.428056,0.85531 0.855695,1.71059 1.283146,2.56629 0.428032,-0.64192 0.855694,-1.49727 1.283145,-2.24551 0.4278,-0.85533 0.855695,-1.92498 1.283145,-2.88708 0.427838,-1.06919 0.855695,-2.35269 1.283145,-3.52865 0.320964,-0.85546 0.641837,-1.71112 0.962359,-2.56628 0.855376,0.96173 1.711125,1.92445 2.566291,2.88707 0.641848,0.42746 1.28341,0.85517 1.924718,1.28315 1.069451,-2.6e-4 2.13884,-2.6e-4 3.207863,0 1.17619,-0.32097 2.13884,-0.64184 3.207864,-0.96236 0.214059,-0.53475 0.427979,-1.06955 0.641572,-1.60393 -0.32033,-0.74832 -0.641308,-1.49727 -0.962359,-2.2455 -0.96193,-0.321 -1.924453,-0.64184 -2.887077,-0.96236 -1.069199,-2.7e-4 -2.138311,0.21359 -3.207863,0.32078 -0.534523,0.64148 -1.069023,1.28288 -1.603932,1.92472 -0.213688,1.0695 -0.42745,2.13831 -0.641572,3.20786 0.214183,1.49717 0.427979,2.99374 0.641572,4.49101 0.428043,0.53446 0.855695,1.28288 1.283146,1.92472 0.855776,0.32055 1.711125,0.64131 2.56629,0.96236 1.390103,-0.53482 2.780413,-1.28341 4.170223,-1.92472 0.748594,-0.64169 1.711125,-1.28341 2.56629,-1.92472 0.748507,-1.17607 1.497268,-2.35269 2.245505,-3.52865 0.748569,-1.92447 1.497268,-3.8497 2.245504,-5.77415 0.508507,-1.93158 1.069552,-4.06356 1.603932,-6.09494 -0.106648,-1.60395 -0.213593,-3.20813 -0.320787,-4.8118 -0.320472,-1.60395 -0.641308,-3.20812 -0.962359,-4.81179 -0.534311,1.1758 -1.069023,2.35217 -1.603931,3.52865 2.64e-4,1.28323 2.64e-4,2.56603 0,3.84944 2.64e-4,1.39009 2.64e-4,2.77988 0,4.17022 2.64e-4,1.71092 2.64e-4,3.63531 0,5.45337 0.107208,2.13862 0.214122,4.27688 0.320786,6.41572 0.214147,1.38997 0.42798,2.77989 0.641573,4.17022 0.855829,0.10669 1.924982,0.2136 2.887077,0.32079 0.427876,-0.96239 1.069552,-1.92498 1.603931,-2.88708 2.65e-4,-1.0692 2.65e-4,-2.13884 0,-3.20786 0.320972,-1.17619 0.641837,-2.13884 0.962359,-3.20786 0.641648,-0.42786 1.28341,-0.8557 1.924718,-1.28315 0.74841,-0.10714 1.711125,-0.21412 2.566291,-0.32078 0.427833,0.21351 0.855695,0.6413 1.283145,0.96235 0.321019,0.962 0.641837,1.92446 0.962359,2.88708 2.65e-4,1.28309 2.65e-4,2.35217 0,3.52865 -0.534499,0.85536 -1.282881,1.7106 -1.924718,2.56629 -1.283325,-2.6e-4 -2.566026,-2.6e-4 -3.849436,0 -0.64144,-0.42807 -1.282881,-1.06955 -1.924718,-1.60393 -0.106668,-0.7488 -0.213593,-1.49727 -0.320786,-2.2455 0.214058,-1.49683 0.42798,-2.99427 0.641572,-4.49101 1.176249,-0.4279 2.138841,-0.8557 3.207864,-1.28315 0.962336,-2.6e-4 1.711125,-2.6e-4 2.56629,0 1.069222,0.32042 2.138841,0.64131 3.207864,0.96236 0.855559,1.17577 1.711125,2.13831 2.56629,3.20786 2.65e-4,1.06906 2.65e-4,2.13831 0,3.20787 2.65e-4,1.06928 2.65e-4,2.13831 0,3.20786 2.65e-4,1.17624 2.65e-4,2.35217 0,3.52865 -0.106688,1.39012 -0.213593,2.56603 -0.320786,3.84944 -0.320593,1.71097 -0.641308,3.42145 -0.962359,5.13258 -0.213631,0.64142 -0.42745,1.49674 -0.641573,2.2455 -0.320656,-0.53513 -0.641308,-1.28341 -0.962359,-1.92472 2.65e-4,-0.85555 2.65e-4,-1.92498 0,-2.88707 2.65e-4,-1.17616 2.65e-4,-2.3527 0,-3.52865 0.10717,-1.49693 0.214123,-2.99427 0.320787,-4.49101 0.107173,-1.06935 0.214122,-2.13884 0.320786,-3.20786 2.65e-4,-1.38997 2.65e-4,-2.78042 0,-4.17023 0.427898,-1.06935 0.855695,-2.13884 1.283145,-3.20786 1.389924,-1.06923 2.994271,-2.13884 4.491009,-3.20786 1.069338,0.53427 2.13884,1.06902 3.207861,1.60393 0.10719,0.64124 2.7e-4,1.28288 0,1.92472 -0.106706,1.49735 -0.213591,2.99374 -0.320784,4.491 -0.427531,0.32059 -0.855166,0.64131 -1.283145,0.96236 -0.962761,0.32075 -1.710596,0.64131 -2.566291,0.96236 -0.641547,-2.6e-4 -1.282881,-2.6e-4 -1.924718,0 -0.748545,-0.53513 -1.496738,-1.06955 -2.245504,-1.60393 0.1072,-0.53494 0.214122,-1.06955 0.320786,-1.60393 0.534603,0.42721 1.069552,0.64131 1.603932,0.96236 0.53483,0.5343 1.069552,1.06902 1.603931,1.60393 0.748766,0.42745 1.497268,0.85517 2.245505,1.28315 0.962513,-2.7e-4 1.924982,0.21359 2.887078,0.32078 1.1762,-0.32097 2.3527,-0.64184 3.52865,-0.96236 0.74856,-0.74856 1.71112,-1.49727 2.56629,-2.2455 1.39034,-1.28341 2.78041,-2.56656 4.17022,-3.84944 2.6e-4,-2.6e-4 2.6e-4,-2.6e-4 0,0 0.64166,-0.53475 1.28341,-1.06955 1.92472,-1.60393 -0.2135,-0.85531 -0.42745,-1.71112 -0.64157,-2.56629 -1.1757,-0.10717 -2.35217,-0.21412 -3.52865,-0.32079 -1.17619,0.32059 -2.35217,0.64131 -3.52865,0.96236 -0.32061,1.17627 -0.64131,2.35217 -0.96236,3.52865 0.10722,0.64148 0.21412,1.28288 0.32078,1.92472 0.32116,0.64152 0.64184,1.28288 0.96236,1.92472 0.32111,0.42752 0.64184,0.85516 0.96236,1.28314 0.74884,0.53444 1.28341,1.06903 1.92472,1.60394 1.06951,0.10665 2.13884,0.21359 3.20786,0.32078 0.85551,-2.6e-4 1.71113,-2.6e-4 2.56629,0 0.53475,-0.21405 1.06956,-0.42798 1.60394,-0.64157 0.42772,-0.85519 0.85569,-1.92498 1.28314,-2.88708 2.7e-4,-0.9623 2.7e-4,-1.92498 0,-2.88708 2.7e-4,-0.96235 2.7e-4,-2.13884 0,-3.20786 2.7e-4,-0.64168 2.7e-4,-1.28341 0,-1.92472 0.21404,0.53416 0.42798,1.06903 0.64157,1.60394 0.85592,-0.42809 1.71113,-0.8557 2.56629,-1.28315 0.6416,-2.6e-4 1.06956,-2.6e-4 1.60394,0 0.42776,0.21349 0.85569,0.42745 1.28314,0.64157 0.32097,0.32044 0.64184,0.64131 0.96236,0.96236 0.10719,0.32052 0.21412,0.64131 0.32079,0.96236"
       sodipodi:nodetypes="cccccccccccccccccccccccccccccccccccccccccccccccccccccccccccccccccccccccccccccccccccccccccccccccccccccccccccccccccccccccccccccccccccccccc" />
  </g>
</svg>
