<?xml version="1.0" encoding="UTF-8" standalone="no"?>
<!-- Created with Inkscape (http://www.inkscape.org/) -->

<svg
   xmlns:dc="http://purl.org/dc/elements/1.1/"
   xmlns:cc="http://creativecommons.org/ns#"
   xmlns:rdf="http://www.w3.org/1999/02/22-rdf-syntax-ns#"
   xmlns:svg="http://www.w3.org/2000/svg"
   xmlns="http://www.w3.org/2000/svg"
   xmlns:sodipodi="http://sodipodi.sourceforge.net/DTD/sodipodi-0.dtd"
   xmlns:inkscape="http://www.inkscape.org/namespaces/inkscape"
   width="55.73167mm"
   height="67.967751mm"
   viewBox="0 0 55.73167 67.967751"
   version="1.1"
   id="svg1846"
   inkscape:version="0.92.2 5c3e80d, 2017-08-06"
   sodipodi:docname="enterSiteGraphic.svg">
  <defs
     id="defs1840">
    <inkscape:path-effect
       effect="bspline"
       id="path-effect1791"
       is_visible="true"
       weight="33.333333"
       steps="2"
       helper_size="0"
       apply_no_weight="true"
       apply_with_weight="true"
       only_selected="false" />
    <inkscape:path-effect
       effect="bspline"
       id="path-effect1783"
       is_visible="true"
       weight="33.333333"
       steps="2"
       helper_size="0"
       apply_no_weight="true"
       apply_with_weight="true"
       only_selected="false" />
    <inkscape:path-effect
       effect="bspline"
       id="path-effect1779"
       is_visible="true"
       weight="33.333333"
       steps="2"
       helper_size="0"
       apply_no_weight="true"
       apply_with_weight="true"
       only_selected="false" />
    <inkscape:path-effect
       effect="bspline"
       id="path-effect1775"
       is_visible="true"
       weight="33.333333"
       steps="2"
       helper_size="0"
       apply_no_weight="true"
       apply_with_weight="true"
       only_selected="false" />
    <inkscape:path-effect
       effect="bspline"
       id="path-effect1767"
       is_visible="true"
       weight="33.333333"
       steps="2"
       helper_size="0"
       apply_no_weight="true"
       apply_with_weight="true"
       only_selected="false" />
    <inkscape:path-effect
       effect="bspline"
       id="path-effect1763"
       is_visible="true"
       weight="33.333333"
       steps="2"
       helper_size="0"
       apply_no_weight="true"
       apply_with_weight="true"
       only_selected="false" />
  </defs>
  <sodipodi:namedview
     id="base"
     pagecolor="#ffffff"
     bordercolor="#666666"
     borderopacity="1.0"
     inkscape:pageopacity="0.0"
     inkscape:pageshadow="2"
     inkscape:zoom="0.86717255"
     inkscape:cx="132.67445"
     inkscape:cy="70.357305"
     inkscape:document-units="mm"
     inkscape:current-layer="layer1"
     showgrid="false"
     inkscape:window-width="1920"
     inkscape:window-height="1036"
     inkscape:window-x="1440"
     inkscape:window-y="0"
     inkscape:window-maximized="1" />
  <metadata
     id="metadata1843">
    <rdf:RDF>
      <cc:Work
         rdf:about="">
        <dc:format>image/svg+xml</dc:format>
        <dc:type
           rdf:resource="http://purl.org/dc/dcmitype/StillImage" />
        <dc:title></dc:title>
      </cc:Work>
    </rdf:RDF>
  </metadata>
  <g
     inkscape:label="Layer 1"
     inkscape:groupmode="layer"
     id="layer1"
     transform="translate(-70.729884,-99.480954)">
    <path
       style="fill:none;stroke:#000000;stroke-width:0.76499999;stroke-linecap:round;stroke-linejoin:miter;stroke-miterlimit:4;stroke-dasharray:none;stroke-opacity:1"
       d="m 117.93753,114.21378 c 0.37837,-0.22702 0.75632,-0.45379 0.83843,-0.82205 0.0821,-0.36826 -0.13144,-0.87796 -0.77846,-1.48274 -0.64703,-0.60477 -1.66091,-1.26159 -2.91336,-1.27958 -1.25244,-0.018 -2.61023,0.68959 -2.8944,2.87551 -0.28417,2.18592 0.50508,5.84883 0.7916,7.49002 0.28651,1.64118 0.0186,1.16704 -0.4964,-0.74628 -0.51502,-1.91332 -1.3794,-5.44693 -1.61229,-6.49158 -0.23288,-1.04465 0.16547,0.3986 0.28837,2.2503 0.12291,1.8517 -0.0273,4.07738 -0.77997,5.1899 -0.75272,1.11252 -2.10346,1.04162 -3.40802,0.73612 -1.30456,-0.30549 -2.48594,-0.81255 -3.41321,-1.63768 -0.92727,-0.82513 -1.44619,-1.9017 -1.62763,-2.96115 -0.18144,-1.05945 -0.0397,-2.00403 0.61268,-2.72955 0.6524,-0.72552 1.88943,-1.06695 2.78141,-0.64767 0.89198,0.41929 1.70231,1.62677 1.65124,3.31015 -0.0511,1.68338 -0.85089,4.0128 -1.43693,5.50518 -0.58604,1.49238 -0.95919,2.15004 -1.57769,2.32089 -0.6185,0.17086 -1.56389,-0.17524 -2.35148,-1.15199 -0.78759,-0.97674 -1.58043,-2.64359 -3.515707,-8.32258 -1.93528,-5.67899 -5.012936,-15.36989 -4.999289,-15.747767 0.01365,-0.377877 3.118705,8.557557 4.641669,14.350087 1.522964,5.79253 1.463919,8.44394 1.116469,10.02277 -0.347451,1.57882 -0.983732,2.08728 -1.653742,2.27228 -0.67001,0.18501 -1.373661,0.0465 -1.770236,-0.78714 -0.396576,-0.83364 -0.485645,-2.36197 -1.19319,-3.71956 -0.707545,-1.3576 -2.100911,-2.60493 -3.188503,-2.81994 -1.087592,-0.21501 -2.004639,0.48186 -1.762717,2.96632 0.241922,2.48447 1.64281,6.75623 1.657035,6.80777 0.01423,0.0515 -1.301597,-3.94518 -2.190116,-4.73666 -0.888519,-0.79147 -1.236507,1.96711 -2.574267,4.55482 -1.337761,2.58771 -3.703402,5.04434 -5.6892,5.79997 -1.985797,0.75564 -3.672317,-0.11406 -4.654562,-1.67136 -0.982246,-1.55731 -1.270441,-3.80701 -0.284342,-6.46419 0.986098,-2.65719 3.286087,-5.77537 4.074674,-6.63714 0.788587,-0.86176 0.145353,0.42515 -1.464591,1.42425 -1.609944,0.99909 -4.083525,1.68182 -5.626619,0.11089 -1.543094,-1.57093 -1.959775,-5.55691 -0.600421,-9.03966 1.359354,-3.48275 4.472601,-6.67153 7.292792,-7.5053 2.820191,-0.83378 5.348023,0.68742 6.175805,2.07816 0.827782,1.39074 -0.04369,2.65158 -1.104552,3.32362 -1.060864,0.67203 -2.413213,0.76124 -3.00418,0.59079 -0.590967,-0.17045 -0.631883,-0.66143 -0.66967,-1.11485"
       id="path1761"
       inkscape:connector-curvature="0"
       inkscape:path-effect="#path-effect1763"
       inkscape:original-d="m 117.93753,114.21378 c 0.37832,-0.2271 0.75627,-0.45387 1.13415,-0.68049 -0.21328,-0.50995 -0.42683,-1.01966 -0.64063,-1.52904 -1.08038,-0.70033 -2.13288,-1.29755 -3.24193,-2.10021 -1.35751,0.7072 -2.71531,1.41477 -4.07308,2.12257 0.78978,3.66418 1.57903,7.32709 2.36878,10.99353 -0.21669,-0.38418 -0.462,-0.87108 -0.65062,-1.15155 -0.86403,-3.53331 -1.72841,-7.06692 -2.59266,-10.59895 0.39848,1.44272 0.79684,2.88597 1.19489,4.32913 -0.15234,2.26032 -0.20182,4.49279 -0.45757,6.78192 -1.35051,-0.0712 -2.70125,-0.1421 -4.05208,-0.2127 -1.25816,-0.54043 -2.41319,-1.10888 -3.77504,-1.62029 -0.51891,-1.07724 -1.03784,-2.15381 -1.55729,-3.23076 0.15643,-1.0418 0.3411,-1.97994 0.46875,-3.12442 1.134,-0.31327 2.37103,-0.6547 3.40146,-0.93884 0.75388,1.12277 1.53614,2.34909 2.26109,3.36929 -0.79924,2.32793 -1.59906,4.65735 -2.39826,6.98479 -0.37294,0.6573 -0.74609,1.31496 -1.11938,1.97287 -0.86358,-0.31655 -1.83034,-0.60428 -2.59131,-0.94867 -0.79269,-1.66725 -1.58553,-3.3341 -2.37862,-5.00076 -3.07743,-9.69129 -6.15509,-19.38219 -9.23299,-29.072774 3.1052,8.93482 6.21026,17.870254 9.31488,26.805464 -0.0588,2.64996 -0.1178,5.30138 -0.17706,7.95087 -0.63599,0.50804 -1.27227,1.0165 -1.90852,1.52512 -0.70361,-0.13886 -1.40726,-0.27736 -2.11139,-0.41558 -0.0889,-1.52872 -0.17796,-3.05705 -0.26722,-4.58518 -1.32579,-1.18732 -2.6806,-2.47772 -3.97791,-3.56099 -0.91676,0.69647 -1.83381,1.39334 -2.75084,2.09039 1.40123,4.27191 2.80212,8.54367 4.20313,12.8167 -1.37256,-4.16995 -2.68838,-8.16667 -4.11778,-12.50747 -0.34776,2.75796 -0.69575,5.51654 -1.04385,8.27486 -2.32763,2.41702 -4.62701,4.93745 -6.98344,7.25202 -1.68119,-0.86737 -3.43697,-1.60276 -5.04411,-2.60113 -0.28803,-2.25025 -0.57623,-4.49995 -0.86467,-6.74976 2.26038,-3.06455 4.49271,-6.23264 6.78058,-9.1927 -0.64299,1.28647 -1.28623,2.57338 -1.92952,3.86038 -2.57668,0.71092 -5.05026,1.39366 -7.7306,2.13374 -0.40556,-3.88171 -0.83973,-7.86586 -1.21724,-11.64415 3.11342,-3.18909 6.22667,-6.37786 9.33971,-9.56629 2.5276,1.52062 5.05543,3.04182 7.58224,4.56283 -0.87138,1.26083 -1.74285,2.52167 -2.61492,3.78326 -1.24973,0.0822 -2.60208,0.1714 -3.74928,0.24733 -0.0376,-0.41634 -0.0754,-0.90758 -0.11342,-1.36098"
       sodipodi:nodetypes="ccccccccccccccccccccccccccccccccccccccccccc" />
    <path
       style="fill:none;stroke:#000000;stroke-width:0.76499999;stroke-linecap:round;stroke-linejoin:miter;stroke-miterlimit:4;stroke-dasharray:none;stroke-opacity:1"
       d="m 89.73621,112.5421 c 6.86714,-3.04298 13.73393,-6.08581 20.60038,-9.12848"
       id="path1765"
       inkscape:connector-curvature="0"
       inkscape:path-effect="#path-effect1767"
       inkscape:original-d="m 89.73621,112.5421 c 6.86702,-3.04325 13.73381,-6.08608 20.60038,-9.12848" />
    <path
       style="fill:none;stroke:#000000;stroke-width:0.6973936;stroke-linecap:round;stroke-linejoin:miter;stroke-miterlimit:4;stroke-dasharray:none;stroke-opacity:1"
       d="m 91.96547,163.32251 c 0.453663,-0.94513 0.907476,-1.89056 0.416019,-2.58978 -0.491458,-0.69921 -1.919908,-1.1503 -3.183369,-1.02413 -1.263461,0.12616 -2.333978,0.82723 -2.734809,1.91318 -0.400832,1.08595 -0.126123,2.55425 0.680178,3.58104 0.8063,1.02679 2.143731,1.61201 3.916276,1.81286 1.772545,0.20086 3.978485,0.0173 5.690208,-0.31426 1.711724,-0.33155 2.910451,-0.80394 4.105477,-1.88072 1.19503,-1.07678 2.31961,-2.69762 2.89635,-4.74787 0.57674,-2.05025 0.58968,-4.5064 0.14487,-6.45244 -0.4448,-1.94603 -1.34715,-3.38159 -2.95409,-3.9953 -1.606939,-0.61371 -3.918258,-0.40542 -5.985306,0.24087 -2.067048,0.64628 -3.889148,1.73046 -5.365728,2.22577 -1.476579,0.49531 -2.606849,0.40129 -3.542276,-0.54955 -0.935426,-0.95085 -1.675408,-2.75801 -1.41695,-5.16467 0.258458,-2.40666 1.514955,-5.41103 3.63919,-7.62901 2.124235,-2.21798 5.115667,-3.6489 7.816316,-3.69081 2.70065,-0.0419 5.053534,1.27317 5.963084,2.75639 0.90956,1.48322 0.26154,3.07072 -0.67722,3.89954 -0.93875,0.82883 -2.167046,0.89805 -2.763204,0.70562 -0.596158,-0.19244 -0.558375,-0.64585 -0.520596,-1.09922"
       id="path1773"
       inkscape:connector-curvature="0"
       inkscape:path-effect="#path-effect1775"
       inkscape:original-d="m 91.96547,163.32251 c 0,0 0.90759,-1.89051 1.36099,-2.83538 -1.43633,-0.45392 -2.86478,-0.90501 -4.30978,-1.36098 -1.08206,0.70855 -2.15258,1.40962 -3.22869,2.11445 0.27479,1.46707 0.5495,2.93537 0.82388,4.40358 1.33806,0.58511 2.67549,1.17033 4.01315,1.75603 2.20727,-0.18391 4.41321,-0.36748 6.62001,-0.55087 1.21661,-0.47961 2.41534,-0.952 3.64838,-1.43776 1.15712,-1.66762 2.28171,-3.28846 3.4222,-4.93235 0.0132,-2.45665 0.0261,-4.9128 0.0388,-7.36901 -0.90223,-1.43606 -1.80458,-2.87161 -2.70735,-4.30715 -2.31144,0.20807 -4.62276,0.41636 -6.93469,0.62496 -1.82219,1.08413 -3.64429,2.16831 -5.46712,3.25303 -1.13026,-0.0943 -2.26053,-0.18832 -3.39123,-0.28209 -0.73985,-1.80777 -1.47984,-3.61493 -2.22031,-5.42238 1.2572,-3.00568 2.5137,-6.01005 3.77028,-9.015 2.99167,-1.43125 5.9831,-2.86217 8.97448,-4.29284 2.41018,1.34671 4.73452,2.71287 7.23001,4.04106 -0.64788,1.58754 -1.2959,3.17504 -1.94441,4.76337 -1.22915,0.069 -2.45744,0.13824 -3.68759,0.20782 0.0381,-0.45418 0.0759,-0.90759 0.11341,-1.36098"
       sodipodi:nodetypes="ccccccccccccccccccccc" />
    <path
       style="fill:none;stroke:#000000;stroke-width:0.76499999;stroke-linecap:round;stroke-linejoin:miter;stroke-miterlimit:4;stroke-dasharray:none;stroke-opacity:1"
       d="m 107.06769,155.76699 c 0.57701,3.26391 1.15407,6.5281 1.70601,8.11375 0.55195,1.58565 1.07839,1.49259 1.75086,1.20415 0.67248,-0.28843 1.42709,-0.73438 1.81672,-2.21452 0.38963,-1.48014 0.38266,-3.97733 -0.0964,-6.99186 -0.47907,-3.01453 -1.42553,-6.53011 -2.2876,-10.17812 -0.86208,-3.64802 -1.63755,-7.42031 -2.20529,-10.63176 -0.56773,-3.21146 -0.92782,-5.86265 -0.0874,-1.72262 0.84047,4.14002 2.88191,15.07332 4.35802,21.27336 1.47611,6.20005 2.38708,7.66776 3.32591,8.37057 0.93884,0.70282 1.90504,0.64059 2.75344,0.21909 0.8484,-0.4215 1.57926,-1.20238 2.16727,-2.17489 0.58802,-0.9725 1.0338,-2.13755 1.11696,-3.50933 0.0831,-1.37177 -0.15892,-2.74107 -0.92073,-3.36637 -0.76181,-0.6253 -2.02559,-0.40188 -2.75012,0.20808 -0.72453,0.60997 -0.87317,1.40954 -0.73068,2.46878 0.14248,1.05925 0.52112,2.08117 1.07587,3.06911 0.55475,0.98794 1.24864,1.84238 2.1843,2.21997 0.93565,0.37758 2.11239,0.27813 3.10393,-0.0709 0.99153,-0.34908 1.7212,-0.89079 2.13986,-1.51179 0.41866,-0.621 0.50958,-1.49782 0.58984,-2.2718"
       id="path1777"
       inkscape:connector-curvature="0"
       inkscape:path-effect="#path-effect1779"
       inkscape:original-d="m 107.06769,155.76699 c 0.57727,3.26386 1.15433,6.52805 1.73117,9.79253 0.52674,-0.0934 1.05318,-0.18645 1.57944,-0.27922 0.76775,-0.57012 1.57327,-0.92992 2.35957,-1.39442 -0.007,-2.49565 -0.0137,-4.99284 -0.0209,-7.4888 -1.05374,-3.50549 -1.89736,-7.04875 -2.84636,-10.57267 -0.77516,-3.77209 -1.55064,-7.54438 -2.32628,-11.31612 -0.35984,-2.65115 -0.71993,-5.30234 -1.08022,-7.95305 2.04123,10.93074 4.08267,21.86404 6.12369,32.79652 0.91123,1.46748 1.8222,2.93519 2.73299,4.40325 0.96657,-0.0625 1.93277,-0.12478 2.89884,-0.1867 0.73071,-0.78082 1.46157,-1.5617 2.19203,-2.34209 0.44569,-1.16455 0.89148,-2.3296 1.33689,-3.49394 -0.27892,-1.57929 -0.521,-2.94859 -0.78182,-4.42243 -1.26311,0.22302 -2.52689,0.44644 -3.79066,0.67013 -0.14817,1.0034 -0.33372,1.79611 -0.50091,2.69463 0.43435,1.22648 0.83093,2.24175 1.24607,3.36308 0.69434,0.85444 1.38824,1.70888 2.08204,2.56377 1.1772,-0.0998 2.35395,-0.19923 3.53062,-0.2984 0.89185,-0.48363 1.53602,-1.1405 2.30372,-1.7103 0.0991,-0.66906 0.16079,-1.54891 0.24087,-2.32291" />
    <path
       style="fill:none;stroke:#000000;stroke-width:0.76499999;stroke-linecap:round;stroke-linejoin:miter;stroke-miterlimit:4;stroke-dasharray:none;stroke-opacity:1"
       d="m 104.68726,149.6726 c 6.49085,-3.21072 12.98142,-6.42131 19.47169,-9.63175"
       id="path1781"
       inkscape:connector-curvature="0"
       inkscape:path-effect="#path-effect1783"
       inkscape:original-d="m 104.68726,149.6726 c 6.49077,-3.21088 12.98134,-6.42147 19.47169,-9.63175" />
    <path
       style="fill:none;stroke:#000000;stroke-width:0.76499999;stroke-linecap:round;stroke-linejoin:miter;stroke-miterlimit:4;stroke-dasharray:none;stroke-opacity:1"
       d="m 90.77929,128.50775 c 0.106884,0.48099 0.213811,0.96217 0.181799,1.37385 -0.03201,0.41168 -0.181642,0.71095 -0.342189,1.03205"
       id="path1789"
       inkscape:connector-curvature="0"
       inkscape:path-effect="#path-effect1791"
       inkscape:original-d="m 90.77929,128.50775 c 0.10719,0.48092 0.21412,0.9621 0.32078,1.44354 -0.21368,0.32065 -0.32052,0.64131 -0.48117,0.96236" />
  </g>
</svg>
