<?xml version="1.0" encoding="UTF-8" standalone="no"?>
<!-- Created with Inkscape (http://www.inkscape.org/) -->

<svg
   xmlns:dc="http://purl.org/dc/elements/1.1/"
   xmlns:cc="http://creativecommons.org/ns#"
   xmlns:rdf="http://www.w3.org/1999/02/22-rdf-syntax-ns#"
   xmlns:svg="http://www.w3.org/2000/svg"
   xmlns="http://www.w3.org/2000/svg"
   xmlns:sodipodi="http://sodipodi.sourceforge.net/DTD/sodipodi-0.dtd"
   xmlns:inkscape="http://www.inkscape.org/namespaces/inkscape"
   width="195.71196mm"
   height="172.05734mm"
   viewBox="0 0 195.71196 172.05734"
   version="1.1"
   id="svg8"
   inkscape:version="0.92.2 5c3e80d, 2017-08-06"
   sodipodi:docname="swanLake2.svg">
  <defs
     id="defs2">
    <inkscape:path-effect
       effect="bspline"
       id="path-effect854"
       is_visible="true"
       weight="33.333333"
       steps="2"
       helper_size="0"
       apply_no_weight="true"
       apply_with_weight="true"
       only_selected="false" />
    <inkscape:path-effect
       effect="bspline"
       id="path-effect850"
       is_visible="true"
       weight="33.333333"
       steps="2"
       helper_size="0"
       apply_no_weight="true"
       apply_with_weight="true"
       only_selected="false" />
    <inkscape:path-effect
       effect="bspline"
       id="path-effect846"
       is_visible="true"
       weight="33.333333"
       steps="2"
       helper_size="0"
       apply_no_weight="true"
       apply_with_weight="true"
       only_selected="false" />
    <inkscape:path-effect
       effect="bspline"
       id="path-effect842"
       is_visible="true"
       weight="33.333333"
       steps="2"
       helper_size="0"
       apply_no_weight="true"
       apply_with_weight="true"
       only_selected="false" />
  </defs>
  <sodipodi:namedview
     id="base"
     pagecolor="#ffffff"
     bordercolor="#666666"
     borderopacity="1.0"
     inkscape:pageopacity="0.0"
     inkscape:pageshadow="2"
     inkscape:zoom="0.85521094"
     inkscape:cx="396.01726"
     inkscape:cy="348.33841"
     inkscape:document-units="mm"
     inkscape:current-layer="layer1"
     showgrid="false"
     inkscape:window-width="1440"
     inkscape:window-height="812"
     inkscape:window-x="0"
     inkscape:window-y="1"
     inkscape:window-maximized="1" />
  <metadata
     id="metadata5">
    <rdf:RDF>
      <cc:Work
         rdf:about="">
        <dc:format>image/svg+xml</dc:format>
        <dc:type
           rdf:resource="http://purl.org/dc/dcmitype/StillImage" />
        <dc:title></dc:title>
      </cc:Work>
    </rdf:RDF>
  </metadata>
  <g
     inkscape:label="Layer 1"
     inkscape:groupmode="layer"
     id="layer1"
     transform="translate(-7.330136,-57.76553)">
    <path
       style="fill:#000000;fill-opacity:1;stroke:#000000;stroke-width:0.26458332px;stroke-linecap:butt;stroke-linejoin:miter;stroke-opacity:1"
       d="m 54.669097,111.60255 c 0.387682,0.19644 1.160106,0.58781 1.912608,0.9691 0.752502,0.38129 1.482272,0.75108 2.097228,1.06268 0.614957,0.31161 1.115474,0.56523 1.611883,0.81678 0.496409,0.25154 0.990421,0.50187 1.453007,0.73628 0.462585,0.2344 0.896203,0.45413 1.341846,0.67995 0.445643,0.22582 0.907201,0.45971 1.587986,0.8047 0.680785,0.34499 1.586259,0.80385 2.399398,1.21598 0.813139,0.41214 1.532721,0.77692 2.333157,1.09127 0.800437,0.31434 1.681033,0.5775 2.711567,0.88157 1.030534,0.30407 2.217068,0.65092 3.218626,0.82551 1.001557,0.17459 1.807033,0.17453 2.891126,0.17453 1.084094,0 2.444317,6e-5 3.822148,0.16977 1.377831,0.16971 2.765518,0.50817 3.822933,0.86762 1.057415,0.35946 1.755245,0.72499 2.192259,1.1388 0.437013,0.41382 0.613379,0.90764 0.664244,1.43294 0.05087,0.52529 -0.01686,1.10096 0.43222,2.40693 0.449079,1.30597 1.414591,3.34024 2.363346,5.3394 0.948756,1.99917 1.880795,3.96331 2.89981,5.49232 1.019015,1.52902 2.124768,2.62247 3.014931,3.50278 0.890162,0.88032 1.564761,1.54753 2.553803,2.52578 0.989047,0.97825 2.292637,2.26764 3.307087,3.12985 1.01445,0.8622 1.73993,1.29738 2.50242,1.75487 0.76249,0.4575 1.562,0.93731 2.31772,1.21111 0.75572,0.2738 1.46769,0.34161 2.22563,0.33886 0.75794,-0.003 1.56296,-0.076 2.30857,-0.14378 0.74561,-0.0678 1.4318,-0.1301 2.26649,-0.34775 0.83468,-0.21765 1.8172,-0.59033 2.53582,-1.19644 0.71861,-0.60611 1.14511,-1.39351 1.3653,-2.39296 0.22019,-0.99946 0.22019,-2.11861 0.0834,-3.0136 -0.13675,-0.89499 -0.4103,-1.53348 -0.71532,-2.24518 -0.30501,-0.7117 -0.64149,-1.4966 -1.08082,-2.16011 -0.43934,-0.66351 -0.98152,-1.2057 -1.76875,-1.82088 -0.78723,-0.61519 -1.78825,-1.28253 -2.80495,-2.02811 -1.0167,-0.74558 -2.03341,-1.55895 -2.69691,-2.18986 -0.6635,-0.63091 -0.97395,-1.07949 -1.27895,-1.52005 -0.30501,-0.44057 -0.60459,-0.87313 -0.91943,-1.44965 -0.31484,-0.57652 -0.64491,-1.29689 -1.0177,-2.11023 -0.37278,-0.81335 -0.78821,-1.71955 -1.25013,-2.91829 -0.46191,-1.19875 -0.96855,-2.6849 -1.22348,-3.80373 -0.25493,-1.11883 -0.25487,-1.85592 -0.25487,-2.68266 0,-0.82675 -6e-5,-1.74401 0.21295,-2.51383 0.21302,-0.76982 0.63292,-1.36873 1.03747,-1.94182 0.40455,-0.57309 0.79589,-1.12344 1.28171,-1.51581 0.48583,-0.39236 1.06089,-0.62243 1.65321,-0.85935 0.59232,-0.23693 1.20177,-0.48067 2.11842,-0.45008 0.91665,0.0306 2.13455,0.33507 3.05386,1.00323 0.91932,0.66816 1.52044,1.67003 1.87628,2.65275 0.35585,0.98273 0.4575,1.93153 0.57358,2.83008 0.11607,0.89856 0.25669,1.81256 0.4431,2.626 0.1864,0.81344 0.42356,1.55881 0.7964,2.25366 0.37285,0.69485 0.88106,1.33859 1.23693,1.74529 0.35586,0.4067 0.55918,0.57613 0.64393,0.72845 0.0847,0.15232 0.0509,0.28789 -0.0679,0.42365 -0.11873,0.13577 -0.3216,0.27101 -0.54218,0.25406 -0.22059,-0.0169 -0.45745,-0.18613 -0.91501,-0.49117 -0.45755,-0.30504 -1.13518,-0.7455 -1.77913,-1.27083 -0.64394,-0.52532 -1.25388,-1.13525 -1.8808,-1.71135 -0.62693,-0.5761 -1.27081,-1.11831 -1.61073,-1.46129 -0.33992,-0.34298 -0.37182,-0.47055 -0.55781,-0.53823 -0.186,-0.0677 -0.52535,-0.0677 -0.74572,-0.0846 -0.22037,-0.0169 -0.32194,-0.0508 -0.49167,-0.2375 -0.16974,-0.18671 -0.40658,-0.52506 -0.55899,-0.60993 -0.15242,-0.0849 -0.22021,0.0846 -0.15632,0.56084 0.0639,0.47624 0.27464,1.31925 0.51094,2.04574 0.23629,0.72648 0.50494,1.36429 0.77584,2.00768 0.2709,0.64339 0.54407,1.29239 0.93065,1.98436 0.38657,0.69198 0.88394,1.42231 1.42437,2.21607 0.54043,0.79376 1.12475,1.65214 1.85907,2.39987 0.73433,0.74773 1.60179,1.36727 2.3779,1.92405 0.77611,0.55678 1.46385,1.05294 1.98002,1.40466 0.51617,0.35173 0.85384,0.55432 1.02324,0.55419 0.16941,-1.3e-4 0.16941,-0.20351 0.15248,-0.93129 -0.0169,-0.72778 -0.0509,-1.98384 -0.059,-2.96313 -0.008,-0.9793 0.01,-1.68489 0.0266,-2.36269 0.017,-0.6778 0.0332,-1.32782 0.19385,-2.07665 0.16069,-0.74883 0.46584,-1.59645 0.93641,-2.16878 0.47058,-0.57233 1.10743,-0.87088 1.64972,-1.12508 0.54229,-0.2542 0.99011,-0.46408 1.65254,-0.56004 0.66244,-0.096 1.53881,-0.0781 2.36914,-0.0612 0.83033,0.0169 1.61661,0.0331 2.30802,-0.004 0.69141,-0.0372 1.29615,-0.12793 1.97622,-0.22994 0.68007,-0.10201 1.43484,-0.21517 2.20159,-0.46165 0.76674,-0.24647 1.56244,-0.63126 2.4463,-1.0562 0.88386,-0.42494 1.85358,-0.88891 2.70995,-1.25633 0.85638,-0.36742 1.60724,-0.64167 2.47545,-0.95879 0.86821,-0.31711 1.85874,-0.67891 2.68113,-0.97927 0.8224,-0.30037 1.47679,-0.53935 2.55595,-0.93345 1.07917,-0.3941 2.58473,-0.94391 3.76368,-1.29493 1.17894,-0.35103 2.03472,-0.50435 3.16998,-0.70768 1.13527,-0.20333 2.55069,-0.45678 3.29206,-0.46496 0.74138,-0.008 0.80916,0.22905 0.72442,0.80543 -0.0847,0.57637 -0.32179,1.49068 -0.53271,2.09597 -0.21093,0.60529 -0.3649,0.85166 -0.77879,1.16969 -0.41389,0.31804 -1.07145,0.68219 -1.63915,0.99659 -0.5677,0.31441 -1.04565,0.57912 -1.81761,1.00668 -0.77195,0.42756 -1.83996,1.0191 -2.37369,1.39932 -0.53374,0.38021 -0.53374,0.55265 -0.16302,0.60936 0.37072,0.0567 1.12998,0.002 1.84604,-0.049 0.71606,-0.0511 1.38811,-0.0988 1.82193,-0.12239 0.43382,-0.0236 0.6382,-0.0236 0.70594,0.0778 0.0678,0.10137 -1.2e-4,0.30497 -0.3564,0.84789 -0.35628,0.54291 -0.99915,1.42264 -1.72786,1.89723 -0.72871,0.47459 -1.54176,0.54234 -2.43997,0.66097 -0.89821,0.11862 -1.88063,0.288 -2.43465,0.46647 -0.55402,0.17847 -0.69996,0.39739 -0.51261,0.54706 0.18735,0.14968 0.76153,0.25734 1.57469,0.25732 0.81316,-1e-5 1.898,-0.10171 2.2877,0.13528 0.3897,0.237 0.0846,0.81326 -0.30518,1.35564 -0.38981,0.54238 -0.86398,1.05043 -1.23681,1.3386 -0.37283,0.28817 -0.64377,0.35591 -1.25434,0.38983 -0.61056,0.0339 -1.62612,0.0339 -2.27007,0.23717 -0.64395,0.20324 -0.94886,0.60979 -1.14311,0.87574 -0.19426,0.26594 -0.24632,0.34404 0.29766,0.36102 0.54399,0.017 1.69274,-0.0506 2.28563,1.3e-4 0.59289,0.0507 0.62678,0.2202 0.54201,0.59327 -0.0848,0.37307 -0.28785,0.94848 -0.71154,1.49088 -0.4237,0.5424 -1.06665,1.04999 -1.60548,1.42103 -0.53883,0.37105 -0.97163,0.60406 -1.41213,0.84126 -0.44049,0.23719 -0.8887,0.47856 -1.21437,0.66695 -0.32567,0.18838 -0.52908,0.32399 -0.59699,0.47664 -0.0679,0.15265 -2.2e-4,0.32186 0.25425,0.45754 0.25446,0.13568 0.69465,0.23727 0.84713,0.5081 0.15248,0.27083 0.0169,0.71158 -0.27125,1.13536 -0.28813,0.42379 -0.72836,0.83016 -1.05035,1.10133 -0.32199,0.27118 -0.52519,0.40665 -0.38809,0.45746 0.13711,0.0508 0.60842,0.0172 0.88784,0.0426 0.27943,0.0254 0.39808,0.14405 0.41606,0.32629 0.018,0.18224 -0.0518,0.46133 -0.4588,1.02099 -0.40701,0.55966 -1.15171,1.40591 -1.37194,1.84662 -0.22024,0.44071 0.0847,0.47459 0.42355,0.47598 0.33889,0.001 0.77949,-0.0353 1.03345,0.0324 0.25397,0.0677 0.35571,0.23726 0.32184,0.71176 -0.0339,0.4745 -0.20326,1.25365 -0.46513,2.10561 -0.26188,0.85197 -0.61605,1.77598 -0.89438,2.50212 -0.27833,0.72614 -0.48015,1.25266 -0.69269,1.80707 -0.21255,0.55441 -0.43549,1.13589 -0.67328,1.63628 -0.23779,0.5004 -0.49014,0.91882 -0.76187,1.36933 -0.27172,0.45052 -0.56289,0.93323 -0.8902,1.47585 -0.3273,0.54263 -0.69097,1.14557 -1.06335,1.76291 -0.37238,0.61735 -0.75191,1.2465 -1.17676,1.73605 -0.42486,0.48955 -0.89297,0.83609 -1.32988,1.15955 -0.43691,0.32346 -0.84259,0.62381 -1.2202,0.90509 -0.3776,0.28129 -0.72768,0.54391 -1.0873,0.81362 -0.35963,0.26971 -0.72598,0.54438 -1.12671,0.77124 -0.40073,0.22685 -0.82598,0.40007 -1.28018,0.58511 -0.4542,0.18505 -0.93807,0.38222 -1.26416,0.74636 -0.32608,0.36415 -0.47712,0.87774 -0.6113,1.33055 -0.13417,0.45281 -0.25309,0.85035 -0.49709,1.37331 -0.244,0.52297 -0.60841,1.16074 -0.94652,1.75243 -0.33811,0.59169 -0.65004,1.13753 -0.99043,1.61035 -0.34038,0.47283 -0.70709,0.86948 -1.08819,1.28169 -0.3811,0.41221 -0.77606,0.83942 -1.42207,1.53816 -0.646,0.69874 -1.54055,1.6663 -2.44117,2.50754 -0.90061,0.84125 -1.79249,1.54185 -2.64266,2.21049 -0.85016,0.66864 -1.65901,1.30562 -2.24577,1.76794 -0.58676,0.46231 -0.95117,0.74976 -1.48963,1.23272 -0.53846,0.48296 -1.24961,1.16024 -1.62252,2.07545 -0.37292,0.9152 -0.40679,2.06697 -0.57615,2.81255 -0.16936,0.74559 -0.47428,1.0844 -1.05072,1.28788 -0.57643,0.20349 -1.42295,0.27121 -2.60935,0.13563 -1.1864,-0.13558 -2.71088,-0.47435 -4.06647,-0.69464 -1.35559,-0.2203 -2.54154,-0.32195 -3.82877,-0.23398 -1.287219,0.088 -2.609894,0.3525 -4.118016,0.55727 -1.508121,0.20477 -3.100208,0.33744 -4.356558,0.35179 -1.25635,0.0144 -2.141488,-0.0925 -3.124212,-0.21114 -0.982723,-0.11861 -2.063034,-0.24891 -2.874363,-0.61905 -0.81133,-0.37014 -1.353604,-0.9802 -1.556778,-1.31915 -0.203175,-0.33895 -0.06737,-0.40686 -0.322286,-0.73829 -0.254918,-0.33143 -0.90124,-0.92816 -1.562435,-1.5385 -0.661195,-0.61033 -1.337304,-1.2343 -1.471584,-1.63065 -0.13428,-0.39636 0.272623,-0.5659 0.5606,-0.66751 0.287978,-0.10162 0.457552,-0.13553 0.317331,-0.29696 -0.140221,-0.16142 -0.639447,-0.48236 -1.080047,-0.80433 -0.4406,-0.32198 -0.847206,-0.66081 -1.05055,-1.16931 -0.203344,-0.50849 -0.203344,-1.18622 0.137229,-1.55903 0.340574,-0.37281 1.015254,-0.44028 1.769991,-0.22456 0.754738,0.21573 1.617498,0.73338 2.340526,1.07728 0.723028,0.34391 1.322209,0.52357 2.000002,0.72691 0.677793,0.20334 1.434185,0.43034 2.320864,0.54382 0.886679,0.11349 1.903203,0.11349 3.001382,-0.16415 1.098179,-0.27764 2.222951,-0.80694 3.159666,-1.30755 0.936715,-0.50062 1.706585,-0.99053 2.060963,-1.46479 0.354377,-0.47427 0.323065,-0.88133 0.441757,-1.2032 0.118693,-0.32188 0.389955,-0.52532 0.627037,-0.7455 0.237081,-0.22018 0.440631,-0.45765 -0.101573,-0.57612 -0.542205,-0.11847 -1.829404,-0.11847 -2.808743,-0.10454 -0.97934,0.0139 -1.649398,0.0418 -2.462712,0.0757 -0.813315,0.0339 -1.769884,0.0738 -2.768093,-0.22551 -0.99821,-0.29933 -2.038632,-0.9383 -3.004456,-1.53135 -0.965824,-0.59305 -1.858182,-1.14088 -2.620754,-1.80017 -0.762571,-0.65928 -1.398221,-1.43252 -2.025967,-2.196 -0.627747,-0.76347 -1.247398,-1.51696 -1.820035,-2.35458 -0.572636,-0.83763 -1.10365,-1.76711 -1.680655,-2.76839 -0.577004,-1.00129 -1.19964,-2.07372 -1.746073,-3.52556 -0.546434,-1.45185 -1.020934,-3.29422 -1.308955,-4.41242 -0.288021,-1.1182 -0.390531,-1.51599 -0.593998,-2.27912 -0.203466,-0.76313 -0.507567,-1.8904 -0.795625,-2.9579 -0.288058,-1.06751 -0.559903,-2.07463 -0.882252,-3.00186 -0.322348,-0.92724 -0.695077,-1.77435 -0.526159,-2.26895 0.168918,-0.4946 0.81421,-0.62366 1.135988,-0.79314 0.321777,-0.16947 0.287874,-0.37289 -0.270556,-0.44061 -0.55843,-0.0677 -1.64401,1.4e-4 -2.533851,-0.28036 -0.88984,-0.28049 -1.618178,-0.93946 -1.770521,-1.36316 -0.152343,-0.42369 0.254308,-0.62702 0.779305,-0.7286 0.524996,-0.10159 1.169381,-0.10159 1.592957,-0.1864 0.423577,-0.0848 0.626991,-0.25432 0.485735,-0.51696 -0.141257,-0.26264 -0.672309,-0.65207 -1.739887,-0.90488 -1.067578,-0.2528 -2.761633,-0.39109 -3.575069,-0.76406 -0.813436,-0.37296 -0.779553,-0.98287 -0.285874,-1.35584 0.493679,-0.37296 1.43825,-0.5079 2.217576,-0.57565 0.779327,-0.0678 1.321733,-0.0678 1.465338,-0.26018 0.143605,-0.19242 -0.177789,-0.62095 -1.093351,-0.99014 -0.915561,-0.3692 -2.506954,-0.71515 -3.811742,-1.03711 -1.304788,-0.32195 -2.355202,-0.62691 -3.219508,-1.15228 -0.864307,-0.52537 -1.541968,-1.2708 -1.880847,-1.77925 -0.338878,-0.50845 -0.338878,-0.77956 0.418747,-0.71295 0.757626,0.0666 2.292529,0.47592 3.29226,0.66227 0.999732,0.18636 1.47423,0.15247 1.372642,-0.1354 -0.101589,-0.28787 -0.779763,-0.83041 -1.694778,-1.54209 -0.915014,-0.71168 -2.067169,-1.59274 -2.967019,-2.14661 -0.89985,-0.55387 -1.607792,-0.80165 -2.30267,-1.3101 -0.694878,-0.50845 -1.406377,-1.28771 -1.7622,-1.93171 -0.355824,-0.64401 -0.355824,-1.15234 0.005,-1.28611 0.360806,-0.13376 1.062674,0.10019 1.892822,0.42209 0.830148,0.3219 1.779237,0.72865 2.507834,0.99975 0.728596,0.27109 1.236993,0.40666 1.438124,0.12146 0.20113,-0.2852 0.103643,-0.93512 -0.273816,-1.3859 -0.377459,-0.45078 -1.031038,-0.67495 -1.624151,-0.8783 -0.593114,-0.20336 -1.125735,-0.38588 -1.967895,-0.76507 -0.84216,-0.37919 -2.014797,-0.96551 -2.772798,-1.46471 -0.758,-0.49919 -1.150941,-0.9418 -1.525994,-1.36798 -0.375053,-0.42618 -0.731877,-0.83556 -0.908389,-1.35836 -0.176512,-0.5228 -0.176512,-1.17026 0.399434,-1.28879 0.575945,-0.11854 1.728629,0.28829 2.790431,0.67586 1.061801,0.38756 2.055935,0.76465 2.353807,0.7224 0.297871,-0.0422 -0.06082,-0.46616 -0.840146,-0.94055 -0.77933,-0.47438 -1.965497,-0.98274 -2.909955,-1.44774 -0.944459,-0.465 -1.59723,-0.85666 -2.190357,-1.34811 -0.593126,-0.49145 -1.101396,-1.06749 -1.270762,-1.54207 -0.169366,-0.47459 8.4e-5,-0.84737 0.42335,-0.77964 0.423265,0.0677 1.101614,0.5765 1.779345,1.0848 0,-2e-5 0,-7e-5 0,-7e-5 0,0 -3.4e-5,0 0.387647,0.19643 z"
       id="path840"
       inkscape:connector-curvature="0"
       inkscape:path-effect="#path-effect842"
       inkscape:original-d="m 54.281416,111.40612 c 0.775523,0.39255 1.547945,0.78393 2.322206,1.17663 0.730744,0.36988 1.460515,0.73966 2.190147,1.10977 0.500279,0.25311 1.000797,0.50673 1.500357,0.76026 0.49326,0.24955 0.987273,0.49988 1.479858,0.74989 0.432587,0.2188 0.866202,0.43853 1.298115,0.65779 0.459374,0.23238 0.920931,0.46627 1.379008,0.69879 0.903494,0.45746 1.808831,0.91659 2.717538,1.37715 0.717581,0.36369 1.437288,0.72823 2.159291,1.09464 0.878804,0.26228 1.757985,0.53017 2.626482,0.78489 1.193584,0.35006 2.380519,0.69554 3.575124,1.04509 0.808418,-3.3e-4 1.613894,-1.6e-4 2.418045,-1.8e-4 1.364036,-4e-5 2.724259,-1.5e-4 4.088557,1.8e-4 1.391439,0.33905 2.779127,0.67751 4.168293,1.01666 0.711827,0.40634 1.423585,0.74528 2.134978,1.11832 0.203568,0.44023 0.339151,0.94862 0.508328,1.42332 -0.06753,0.57603 -0.135259,1.1517 -0.203329,1.72832 0.966315,2.03514 1.931592,4.06952 2.896919,6.10361 0.932179,1.96424 1.864459,3.92827 2.796358,5.89294 1.106078,1.09324 2.211651,2.18687 3.317284,3.28037 0.674615,0.66721 1.349469,1.33416 2.023799,2.00163 1.303756,1.28903 2.607346,2.57843 3.910496,3.86791 0.72568,0.43488 1.45101,0.8703 2.17641,1.30553 0.79959,0.47974 1.59923,0.95933 2.39854,1.43944 0.71198,0.0675 1.42395,0.13532 2.13498,0.20333 0.8048,-0.0735 1.60983,-0.14654 2.41483,-0.21971 0.68622,-0.0624 1.3724,-0.12488 2.05846,-0.18695 0.98328,-0.37313 1.9658,-0.74581 2.94831,-1.11832 0.44067,-0.84721 0.88136,-1.62692 1.32165,-2.43998 2.6e-4,-1.1859 2.6e-4,-2.30505 0,-3.45663 -0.27319,-0.63853 -0.54699,-1.27692 -0.82061,-1.91541 -0.33637,-0.78492 -0.67263,-1.56992 -1.00937,-2.35455 -0.54199,-0.54251 -1.08417,-1.0847 -1.62665,-1.62665 -1.0164,-0.71192 -2.03305,-1.35581 -3.04997,-2.03331 -1.01646,-0.81364 -2.03317,-1.62701 -3.04997,-2.43998 -0.31013,-0.44877 -0.6208,-0.89719 -0.93129,-1.34567 -0.29953,-0.43265 -0.59887,-0.86537 -0.8987,-1.29764 -0.32984,-0.72071 -0.66017,-1.44096 -0.99035,-2.16139 -0.41535,-0.90627 -0.83057,-1.81257 -1.24629,-2.71856 -0.5081,-1.49147 -1.01474,-2.97762 -1.52499,-4.47329 3.3e-4,-0.74188 1.9e-4,-1.47897 2e-4,-2.21766 2e-5,-0.9148 1.4e-4,-1.83206 -2e-4,-2.76396 0.42615,-0.6077 0.8419,-1.20952 1.26279,-1.80111 0.39246,-0.55162 0.7837,-1.10204 1.17719,-1.65552 0.57805,-0.23142 1.15316,-0.46138 1.72736,-0.69106 0.61044,-0.24418 1.21985,-0.48802 1.83094,-0.73226 1.22234,0.30525 2.44024,0.60973 3.65996,0.91499 0.64405,1.01624 1.22026,2.03305 1.82999,3.04997 0.10193,0.94869 0.20359,1.89749 0.30499,2.84664 0.13585,0.84716 0.27138,1.76194 0.40667,2.64331 0.23754,0.74546 0.4747,1.49083 0.71165,2.23664 0.50871,0.64376 1.01693,1.2875 1.52499,1.93165 0.20361,0.16919 0.40693,0.33862 0.61,0.50833 -0.0336,0.13527 -0.0675,0.27084 -0.10167,0.40666 -0.20353,0.1356 -0.4064,0.27085 -0.61,0.40666 -0.23731,-0.16996 -0.47417,-0.33915 -0.71166,-0.50832 -0.67764,-0.44091 -1.35527,-0.88137 -2.03331,-1.32166 -0.60979,-0.61032 -1.21972,-1.22025 -1.82998,-1.82998 -0.64362,-0.54248 -1.2875,-1.0847 -1.93165,-1.62665 -0.0675,-0.13583 -0.0675,-0.27137 -0.10167,-0.40666 -0.33815,-2.7e-4 -0.6775,-2.7e-4 -1.01665,0 -0.10148,-0.0342 -0.20307,-0.068 -0.305,-0.10167 -0.23732,-0.33968 -0.47417,-0.67803 -0.71166,-1.01666 -0.0675,0.16915 -0.13529,0.33863 -0.20333,0.50833 0.20398,0.78064 0.40674,1.62565 0.60999,2.43998 0.26935,0.63859 0.53776,1.2765 0.80653,1.91483 0.27303,0.64845 0.54644,1.29734 0.82012,1.94846 0.49946,0.73276 0.99658,1.46326 1.49443,2.19445 0.58303,0.85631 1.16757,1.71454 1.75888,2.58384 0.87725,0.62607 1.74771,1.24142 2.60748,1.86224 0.68903,0.49752 1.3772,0.99309 2.06914,1.49273 0.34037,0.2038 0.67803,0.4064 1.01666,0.60999 2.6e-4,-0.20355 2.6e-4,-0.40693 0,-0.60999 -0.0336,-1.25251 -0.0675,-2.50857 -0.10167,-3.76163 0.018,-0.70551 0.0355,-1.41111 0.0531,-2.11666 0.0162,-0.65005 0.0326,-1.30007 0.0486,-1.94997 0.30534,-0.84771 0.61049,-1.69532 0.91499,-2.54164 0.63645,-0.29851 1.27333,-0.59699 1.90999,-0.89541 0.44793,-0.20996 0.89571,-0.41994 1.34331,-0.62958 0.87732,0.0176 1.75369,0.0356 2.63062,0.0535 0.78373,0.016 1.57002,0.0319 2.351,0.0482 0.6018,-0.0905 1.20656,-0.18114 1.8102,-0.2717 0.7565,-0.11349 1.51125,-0.2268 2.25643,-0.3383 0.78829,-0.38134 1.58258,-0.76903 2.38535,-1.15352 0.96622,-0.46278 1.93608,-0.92646 2.90126,-1.38812 0.74756,-0.27322 1.49843,-0.54747 2.24569,-0.82024 0.98916,-0.36146 1.97972,-0.72315 2.97084,-1.08511 0.65369,-0.23873 1.30802,-0.47786 1.96164,-0.71639 1.50472,-0.54967 3.01028,-1.09948 4.51338,-1.64822 0.8548,-0.15337 1.71058,-0.30669 2.56547,-0.45964 1.41564,-0.25371 2.83106,-0.50716 4.24613,-0.76034 0.068,0.23695 0.13582,0.47417 0.20333,0.71166 -0.23713,0.9154 -0.47418,1.82971 -0.71166,2.74497 -0.16924,0.30484 -0.33845,0.54168 -0.50833,0.81333 -0.65802,0.36429 -1.31554,0.72851 -1.97287,1.09256 -0.47806,0.26478 -0.95606,0.5294 -1.43392,0.79418 -1.06605,0.59034 -2.13406,1.18188 -3.20148,1.77322 2.6e-4,0.16918 2.6e-4,0.34162 0,0.50833 0.74143,-0.0535 1.50065,-0.10859 2.26348,-0.16271 0.66934,-0.0475 1.34137,-0.0954 2.00648,-0.14229 0.20255,-2.6e-4 0.40693,-2.6e-4 0.61,0 -0.0674,0.2028 -0.13529,0.4064 -0.20334,0.60999 -0.64462,0.88222 -1.2875,1.76194 -1.93164,2.64331 -0.81334,0.0675 -1.62639,0.13529 -2.43998,0.20333 -0.98285,0.16924 -1.96527,0.33863 -2.94831,0.50833 -0.10143,0.20313 -0.27084,0.4064 -0.40666,0.61 0.50936,0.10155 1.0847,0.20306 1.62665,0.30499 1.08429,-0.10189 2.16913,-0.20359 3.2533,-0.30499 -0.30465,0.57568 -0.60973,1.15194 -0.91499,1.72831 -0.47443,0.50835 -0.94861,1.0164 -1.42332,1.52499 -0.27099,0.0676 -0.54195,0.13529 -0.81332,0.20333 -0.94971,-2.6e-4 -1.96527,-2.6e-4 -2.94831,0 -0.30481,0.40651 -0.60973,0.81306 -0.91499,1.21999 -0.0676,0.13539 -0.13529,0.20307 -0.20333,0.30499 1.15594,-0.0682 2.30469,-0.13581 3.45664,-0.20333 0.0341,0.16914 0.068,0.33863 0.10166,0.50833 -0.20331,0.57654 -0.4064,1.15195 -0.60999,1.72832 -0.64398,0.50834 -1.28693,1.01594 -1.93165,1.52498 -0.43296,0.23298 -0.86572,0.46607 -1.29852,0.69912 -0.4482,0.24133 -0.89644,0.48263 -1.34478,0.7242 -0.20299,0.13524 -0.4064,0.27085 -0.60999,0.40667 0.0681,0.16943 0.13582,0.33862 0.20333,0.50832 0.44117,0.10149 0.88136,0.20307 1.32165,0.305 -0.13523,0.44009 -0.27084,0.88084 -0.40666,1.32165 -0.4406,0.4067 -0.88084,0.81307 -1.32165,1.21999 -0.2032,0.13538 -0.4064,0.27085 -0.61,0.40667 0.47542,-0.0681 0.94915,-0.068 1.42332,-0.10167 0.10187,0.0675 0.2036,0.20307 0.305,0.305 -0.0336,0.27084 -0.13529,0.54195 -0.20333,0.81332 -0.74614,0.84792 -1.49084,1.69417 -2.23665,2.54164 0.30536,0.0336 0.61026,0.0675 0.91499,0.10167 0.37276,-0.0341 0.81359,-0.068 1.21999,-0.10167 0.10186,0.16907 0.2036,0.33863 0.305,0.50833 -0.16926,0.77953 -0.33864,1.55868 -0.50833,2.33831 -0.35412,0.92431 -0.70828,1.84833 -1.06325,2.774 -0.20169,0.52661 -0.40365,1.05307 -0.6054,1.57936 -0.22331,0.58254 -0.44615,1.16406 -0.66966,1.74659 -0.25214,0.41825 -0.50455,0.83664 -0.75712,1.25541 -0.29087,0.48226 -0.58199,0.965 -0.87362,1.4483 -0.36298,0.60196 -0.72672,1.20485 -1.08912,1.80567 -0.38234,0.63388 -0.76181,1.26307 -1.14344,1.89555 -0.46819,0.34653 -0.93628,0.6931 -1.40454,1.03977 -0.40556,0.30025 -0.81126,0.60057 -1.21716,0.90115 -0.34931,0.26199 -0.69928,0.52475 -1.04896,0.78692 -0.36966,0.27714 -0.73603,0.55178 -1.10763,0.83046 -0.42988,0.17494 -0.85509,0.34826 -1.28306,0.52261 -0.48044,0.19573 -0.96435,0.3928 -1.46191,0.59571 -0.15438,0.52557 -0.30301,1.03987 -0.4546,1.54578 -0.11952,0.3989 -0.23809,0.79654 -0.35873,1.19919 -0.36744,0.64328 -0.73191,1.28102 -1.09585,1.91789 -0.31229,0.5465 -0.62416,1.09238 -0.93746,1.64041 -0.36754,0.39758 -0.73426,0.79422 -1.10149,1.19143 -0.39497,0.42721 -0.78992,0.85443 -1.18466,1.28137 -0.89727,0.97054 -1.79182,1.9381 -2.69547,2.91549 -0.89762,0.70505 -1.78951,1.40563 -2.67906,2.10449 -0.81149,0.63753 -1.61962,1.27542 -2.42915,1.913 -0.36399,0.28706 -0.7284,0.5745 -1.09339,0.86246 -0.71191,0.67799 -1.42306,1.35527 -2.13498,2.03331 -0.0336,1.15239 -0.0675,2.30416 -0.10167,3.45663 -0.3048,0.3387 -0.60973,0.67751 -0.91499,1.01666 -0.84764,0.0676 -1.69416,0.13529 -2.54164,0.20333 -1.52523,-0.33926 -3.04971,-0.67803 -4.57495,-1.01666 -1.18599,-0.10194 -2.37194,-0.20359 -3.5583,-0.30499 -1.389453,0.2709 -2.710825,0.54195 -4.066632,0.81332 -1.660649,0.13532 -3.252502,0.2708 -4.879951,0.40666 -0.885196,-0.1072 -1.770362,-0.21387 -2.655509,-0.32071 -1.080297,-0.13039 -2.160583,-0.2609 -3.241101,-0.39094 -0.541895,-0.6102 -1.08417,-1.22026 -1.62665,-1.82999 0.135813,-0.068 0.271606,-0.13593 0.406662,-0.20333 -0.644584,-0.59564 -1.2911,-1.19216 -1.93788,-1.78919 -0.675607,-0.62364 -1.351526,-1.24782 -2.027081,-1.87077 0.406684,-0.16961 0.813588,-0.33915 1.219988,-0.50833 0.169574,-0.0341 0.339151,-0.068 0.508328,-0.10166 -0.439494,-0.30472 -0.948616,-0.61026 -1.423321,-0.915 -0.406455,-0.33919 -0.813059,-0.67803 -1.219985,-1.01665 2.64e-4,-0.67808 2.64e-4,-1.35581 0,-2.03332 0.677769,-0.10189 1.355804,-0.13581 2.033312,-0.20333 0.847119,0.47398 1.694938,1.01654 2.54164,1.52499 0.599261,0.17935 1.198366,0.35927 1.797512,0.539 0.75645,0.22691 1.512908,0.45369 2.269115,0.68098 1.017056,-2.6e-4 2.03358,-2.6e-4 3.049972,0 1.186055,-0.54234 2.304687,-1.08469 3.456633,-1.62665 0.711726,-0.47457 1.491361,-0.94914 2.236644,-1.42331 -0.03361,-0.47451 -0.06751,-0.88137 -0.101666,-1.32166 0.271224,-0.20348 0.542483,-0.40693 0.813327,-0.60999 0.203372,-0.23723 0.406927,-0.4747 0.609994,-0.71166 -1.2875,-2.6e-4 -2.574699,-2.6e-4 -3.863295,0 -0.670094,0.0276 -1.340142,0.0557 -2.010191,0.0836 -0.956584,0.0398 -1.913158,0.0796 -2.869763,0.11977 -1.039616,-0.63889 -2.080035,-1.27786 -3.120449,-1.91639 -0.891234,-0.54757 -1.783593,-1.0954 -2.674495,-1.64191 -0.634145,-0.77199 -1.270009,-1.54505 -1.905067,-2.31742 -0.620437,-0.75458 -1.239873,-1.50824 -1.856562,-2.25754 -0.528556,-0.9259 -1.053909,-1.85861 -1.592713,-2.78785 -0.620576,-1.07027 -1.243503,-2.14253 -1.86392,-3.21042 -0.472451,-1.8357 -0.947051,-3.67804 -1.420785,-5.51656 -0.102508,-0.39783 -0.204717,-0.7957 -0.307531,-1.19338 -0.304118,-1.12858 -0.608445,-2.25579 -0.912796,-3.38364 -0.271782,-1.00716 -0.543384,-2.01434 -0.815521,-3.02129 -0.372553,-0.84758 -0.745283,-1.69469 -1.118322,-2.54164 0.711819,-0.1358 1.355807,-0.27138 2.033312,-0.40667 -0.03361,-0.2035 -0.06751,-0.40692 -0.101666,-0.60999 -1.083024,0.0674 -2.168601,0.13529 -3.253301,0.20333 -0.711578,-0.61042 -1.423053,-1.28803 -2.134978,-1.93165 0.406934,-0.2036 0.813588,-0.40692 1.219988,-0.60999 0.643644,-2.7e-4 1.288029,-2.7e-4 1.931647,0 0.203512,-0.16964 0.406929,-0.33915 0.609994,-0.50833 -0.473506,-0.37251 -1.016392,-0.74581 -1.524984,-1.11832 -1.626534,-0.13583 -3.320814,-0.27137 -4.981618,-0.40666 0.03416,-0.61035 0.06804,-1.22026 0.101665,-1.82999 0.948711,-0.16963 1.898024,-0.27137 2.84664,-0.40666 0.610069,-2.6e-4 1.152475,-2.6e-4 1.728317,0 -0.304594,-0.37287 -0.60973,-0.81359 -0.914993,-1.21999 -1.524561,-0.33911 -3.117482,-0.67803 -4.676621,-1.01665 -1.050413,-0.3053 -2.100826,-0.61026 -3.151635,-0.91499 -0.677618,-0.74594 -1.355278,-1.49137 -2.033314,-2.23665 2.65e-4,-0.27137 2.65e-4,-0.54248 0,-0.81333 1.523762,0.37215 3.050235,0.81307 4.574956,1.21999 0.474647,-0.0341 0.949144,-0.068 1.423319,-0.10166 -0.677104,-0.54216 -1.355278,-1.0847 -2.033313,-1.62665 -1.152002,-0.88141 -2.304158,-1.76247 -3.456633,-2.64331 -0.64364,-0.23749 -1.355278,-0.47471 -2.033314,-0.71166 -0.711556,-0.77988 -1.423055,-1.55914 -2.134979,-2.33831 2.65e-4,-0.50859 2.65e-4,-1.01692 0,-1.52499 0.711554,0.27071 1.423584,0.47418 2.134979,0.71166 0.948933,0.40631 1.898024,0.81306 2.846639,1.21999 0.508524,0.13527 1.016921,0.27084 1.524985,0.40666 -0.06749,-0.71167 -0.203076,-1.35587 -0.304997,-2.03331 -0.653187,-0.22439 -1.306839,-0.44835 -1.960537,-0.67245 -0.532542,-0.18257 -1.065076,-0.36535 -1.597761,-0.54754 -1.151586,-0.57619 -2.324222,-1.16251 -3.456634,-1.72832 -0.383466,-0.43251 -0.781008,-0.87104 -1.171594,-1.3197 -0.354955,-0.40774 -0.71174,-0.81716 -1.065049,-1.22194 2.64e-4,-0.64057 2.64e-4,-1.28803 0,-1.93165 1.152001,0.40624 2.304685,0.81307 3.456632,1.21999 0.982903,0.33858 1.965801,0.74529 2.948304,1.11833 -0.406339,-0.44076 -0.745284,-0.88137 -1.118322,-1.32166 -1.185771,-0.50856 -2.371935,-1.01692 -3.558299,-1.52498 -0.711472,-0.40698 -1.355276,-0.81359 -2.033312,-1.21999 -0.508122,-0.57644 -1.016392,-1.15248 -1.524985,-1.72832 0.169702,-0.37302 0.33915,-0.74581 0.508328,-1.11832 0.677456,0.50763 1.355807,1.01639 2.033313,1.52499 0,0 2.64e-4,-3.1e-4 0,-7e-5 z"
       sodipodi:nodetypes="cccccccccccccccccccccccccccccccccccccccccccccccccccccccccccccccccccccccccccccccccccccccccccccccccccccccccccccccccccccccccccccccccccccccccccccccccccccccccccccccccccccccccccccccccccccccccccccccccccccccccccccccccccccccccccccccccccccccccccccccccccc" />
    <path
       style="fill:#000000;fill-opacity:1;stroke:#000000;stroke-width:0.26458332px;stroke-linecap:butt;stroke-linejoin:miter;stroke-opacity:1"
       d="m 98.11162,135.61223 c 0.31142,-0.33554 0.455198,-0.71895 0.367827,-1.29712 -0.08737,-0.57817 -0.439989,-1.43453 -1.018142,-2.90415 -0.578153,-1.46962 -1.386798,-3.56258 -1.971896,-4.94699 -0.585098,-1.38442 -0.900594,-1.97034 -1.090574,-2.59352 -0.189979,-0.62319 -0.241315,-1.34192 -0.456931,-2.10852 -0.215615,-0.76659 -0.599158,-1.62956 -0.839953,-3.04323 -0.240796,-1.41368 -0.33427,-3.28318 -0.62181,-4.67288 -0.28754,-1.38971 -0.766863,-2.25248 -1.078358,-3.37874 -0.311495,-1.12625 -0.455287,-2.51624 -0.599049,-4.07368 -0.143762,-1.55744 -0.287563,-3.28306 -0.407367,-5.29578 -0.119803,-2.012721 -0.21567,-4.313473 -0.216682,-6.565912 -0.001,-2.252439 0.09689,-4.553027 0.240695,-5.990778 0.143808,-1.437751 0.335531,-2.06086 0.906608,-3.465352 0.571077,-1.404493 1.537692,-3.627707 2.591988,-5.808167 1.054297,-2.18046 2.20468,-4.337426 2.899568,-5.703267 0.694888,-1.36584 0.934553,-1.941031 0.958479,-2.611713 0.02393,-0.670682 -0.167883,-1.437919 -0.311641,-2.180699 -0.143759,-0.742779 -0.239635,-1.461835 -0.287546,-2.036895 -0.04791,-0.57506 -0.04791,-1.006527 -0.311364,-1.653163 -0.263452,-0.646635 -0.790959,-1.509827 -1.054529,-2.132939 -0.263569,-0.623112 -0.263569,-1.006552 -0.09918,-1.174638 0.164387,-0.168087 0.506802,-0.119171 0.339169,-0.454436 -0.167634,-0.335264 -0.839035,-1.054623 -1.126534,-1.557991 -0.287498,-0.503368 -0.191645,-0.790932 -0.06,-0.850772 0.131648,-0.05984 0.25165,0.06016 0.670999,0.479509 0.41935,0.419348 1.162202,1.162198 1.569722,1.4976 0.407521,0.335402 0.50338,0.287472 0.50337,-0.214201 -1.1e-5,-0.501672 -0.09618,-1.463357 -0.09362,-1.959319 0.0026,-0.495963 0.189486,-0.558272 0.332944,-0.510453 0.143458,0.04782 0.287556,0.191916 0.383399,0.647086 0.09584,0.45517 0.14377,1.221978 0.503304,2.156794 0.359535,0.934815 1.030274,2.036751 1.413674,2.731636 0.3834,0.694885 0.47925,0.982427 0.55118,1.797485 0.0719,0.815058 0.11982,2.156236 0.21567,3.210697 0.0958,1.054461 0.2396,1.821125 0.16772,2.899592 -0.0719,1.078467 -0.35935,2.467935 -0.7188,3.618244 -0.35944,1.15031 -0.790675,2.060696 -1.294004,3.211156 -0.503328,1.150461 -1.078234,2.539818 -1.612674,3.975363 -0.534441,1.435546 -0.999205,2.829839 -1.410876,3.917431 -0.411671,1.087592 -0.738504,1.787948 -0.906318,2.746752 -0.167814,0.958805 -0.167814,2.156415 -0.05781,2.887627 0.110006,0.731212 0.369225,1.042278 0.537007,0.922304 0.167782,-0.119974 0.263628,-0.647114 0.479326,-1.00644 0.215699,-0.359326 0.551368,-0.551139 0.694987,-0.742754 0.143618,-0.191616 0.09565,-0.383504 -0.02403,-0.551062 -0.119674,-0.167557 -0.311564,-0.311474 -0.383438,-0.503372 -0.07188,-0.191898 -0.02396,-0.431472 0.119769,-0.551135 0.143728,-0.119663 0.287808,-0.119663 0.410417,-0.334807 0.122608,-0.215144 0.164711,-0.551957 0.284434,-0.647737 0.119723,-0.09578 0.311573,0.09607 0.497353,0.349296 0.18578,0.253225 0.389282,0.609351 0.533072,0.992752 0.143791,0.3834 0.239618,0.81463 0.35958,0.910369 0.119961,0.09574 0.263673,-0.143781 0.431284,-0.431117 0.167612,-0.287337 0.359563,-0.623251 0.359543,-0.934508 -2e-5,-0.311258 -0.191901,-0.599078 -0.220572,-0.877148 -0.02867,-0.27807 0.12472,-0.584852 0.364234,-0.752427 0.239515,-0.167575 0.575359,-0.215553 0.838719,-0.143728 0.26335,0.07183 0.45523,0.263697 0.55108,0.575081 0.0959,0.311385 0.0959,0.742717 0.13898,1.044776 0.0431,0.302058 0.14852,0.512834 0.3165,0.512719 0.16798,-1.15e-4 0.40747,-0.191714 0.52714,-0.40725 0.11967,-0.215536 0.11967,-0.551305 0.21542,-0.575262 0.0957,-0.02396 0.28763,0.21589 0.59929,0.383674 0.31165,0.167784 0.74292,0.263622 1.43756,0.646872 0.69463,0.38325 1.65358,1.054514 2.32447,1.845179 0.6709,0.790665 1.05433,1.701301 1.41386,2.252549 0.35954,0.551249 0.69497,0.742924 0.97703,1.319076 0.28206,0.576152 0.53255,1.62819 0.60446,2.682611 0.0719,1.054422 -0.0239,2.156502 -0.2875,3.115102 -0.26358,0.9586 -0.69479,1.77313 -0.95846,2.46817 -0.26367,0.69504 -0.35948,1.26992 -0.40743,1.79725 -0.048,0.52733 -0.048,1.00634 0.11007,1.37778 0.15802,0.37144 0.41711,0.58735 0.82255,0.78566 0.40544,0.1983 0.84078,0.3289 1.12833,0.32875 0.28756,-1.6e-4 0.38344,-0.14398 0.55086,-0.71802 0.16742,-0.57404 0.40756,-1.58262 0.78028,-2.49959 0.37272,-0.91697 0.92139,-1.81479 1.40062,-2.41376 0.47923,-0.59897 0.91071,-0.93456 1.12623,-1.19811 0.21552,-0.26355 0.21552,-0.45538 0.19159,-1.723785 -0.0239,-1.268405 -0.0719,-3.620003 -0.0459,-5.36906 0.026,-1.749057 0.11777,-2.803906 0.16569,-3.64252 0.0479,-0.838614 0.0479,-1.413871 -0.1345,-2.088923 -0.18242,-0.675052 -0.58446,-1.529379 -0.91992,-2.344077 -0.33546,-0.814699 -0.62305,-1.629548 -0.93453,-2.707768 -0.31148,-1.078219 -0.64703,-2.420388 -0.98248,-3.762213 -0.33546,-1.341825 -0.67099,-2.683932 -1.00645,-3.929911 -0.33545,-1.245979 -0.67098,-2.396355 -0.9633,-3.569462 -0.29231,-1.173107 -0.5224,-2.277567 -0.6422,-3.283963 -0.11979,-1.006396 -0.11979,-1.86921 -0.3833,-2.563919 -0.26351,-0.694709 -0.79086,-1.22205 -1.12636,-1.869151 -0.3355,-0.647101 -0.47927,-1.413911 -0.35949,-1.605564 0.11978,-0.191653 0.50329,0.191857 0.75536,0.464055 0.25208,0.272198 0.41886,0.494569 0.58675,0.470457 0.1679,-0.02411 0.35955,-0.263684 0.47923,-0.694633 0.11968,-0.43095 0.16767,-1.054741 0.16766,-1.677611 -10e-6,-0.62287 -0.048,-1.24619 -0.19171,-1.869052 -0.14375,-0.622862 -0.38347,-1.246139 -0.38472,-1.587217 -0.001,-0.341079 0.1454,-0.377741 0.39896,-0.08592 0.25357,0.291817 0.60873,1.002147 0.8244,1.505354 0.21568,0.503206 0.31152,0.838641 0.40743,1.054429 0.0959,0.215788 0.19169,0.311572 0.35951,0.119708 0.16782,-0.191864 0.40745,-0.671116 0.68282,-1.092162 0.27537,-0.421047 0.53945,-0.729136 0.74391,-0.856197 0.20447,-0.12706 0.37047,-0.01639 0.51415,0.175176 0.14369,0.191567 0.28753,0.479244 0.18506,0.732062 -0.10246,0.252818 -0.5202,0.513904 -0.81512,0.943027 -0.29493,0.429123 -0.47209,0.960596 -0.568,1.535889 -0.0959,0.575293 -0.0959,1.245935 0.0479,1.701423 0.14384,0.455488 0.43127,0.742918 0.69499,0.76675 0.26372,0.02383 0.50335,-0.215799 0.59909,-0.670711 0.0957,-0.454912 0.0478,-1.126614 0.21557,-1.653736 0.16781,-0.527122 0.55135,-0.910666 0.88663,-1.006432 0.33528,-0.09577 0.62304,0.09607 0.69495,0.47924 0.0719,0.383168 -0.0719,0.958394 -0.26363,1.485703 -0.19173,0.527309 -0.43123,1.006309 -0.55112,1.509729 -0.11989,0.50342 -0.11989,1.030253 -0.14385,1.605508 -0.024,0.575254 -0.0719,1.197978 -0.26355,1.725252 -0.19167,0.527273 -0.527,0.958409 -0.74276,1.317945 -0.21576,0.359535 -0.31154,0.646879 -0.38349,0.934599 -0.0719,0.28772 -0.11981,0.57496 0.14403,1.222589 0.26384,0.64763 0.83835,1.653013 1.61583,2.964607 0.77747,1.311593 1.71466,2.857951 2.43355,4.511377 0.7189,1.653425 1.19813,3.378666 1.68644,4.788455 0.48831,1.40979 0.94946,2.424319 1.23704,3.814197 0.28758,1.389878 0.38342,3.115007 0.40782,5.271846 0.0244,2.15684 -0.0244,4.840286 -0.26402,7.452353 -0.23962,2.61206 -0.67091,5.19978 -1.05432,7.14084 -0.38341,1.94106 -0.71885,3.2349 -0.76292,4.62433 -0.0441,1.38942 0.18773,2.7802 0.2836,4.62548 0.0959,1.84529 0.048,4.09744 -0.11979,6.49387 -0.16774,2.39642 -0.45526,4.93618 -0.64698,6.90122 -0.19171,1.96503 -0.28756,3.35472 -0.35942,4.1455 -0.0719,0.79078 -0.11978,0.98245 0.64935,1.24174 0.76913,0.25929 2.44202,0.60371 4.59853,0.84332 2.15651,0.2396 4.84068,0.3834 7.33262,0.38186 2.49195,-0.002 4.69694,-0.14227 6.32297,-0.0142 1.62603,0.12809 2.54335,0.49502 3.297,1.11086 0.75365,0.61584 1.25905,1.39692 1.69048,1.87624 0.43143,0.47932 0.76688,0.62309 1.20817,0.84419 0.44128,0.2211 0.94853,0.49778 1.18812,0.92889 0.2396,0.43111 0.19167,1.00632 0.27095,1.4489 0.0793,0.44258 0.25614,0.70786 0.18433,1.11516 -0.0718,0.4073 -0.40722,0.93437 -0.57506,1.46173 -0.16784,0.52736 -0.16784,1.05423 -0.16784,1.48564 0,0.43142 0,0.76673 -0.26365,1.15032 -0.26365,0.38359 -0.79043,0.81459 -1.36938,1.24052 -0.57895,0.42593 -1.09842,0.77224 -1.38612,1.10777 -0.28771,0.33552 -0.28771,0.62292 -0.41227,0.82911 -0.12457,0.20619 -0.45024,0.36903 -0.97785,0.48895 -0.52762,0.11993 -1.29358,0.21567 -1.77289,0.26362 -0.47931,0.0479 -0.67094,0.0479 -0.76693,0.31177 -0.096,0.26382 -0.096,0.79027 -0.19174,1.14976 -0.0958,0.35949 -0.28738,0.5511 -0.62319,0.64709 -0.33581,0.096 -0.8144,0.096 -1.17389,0.11992 -0.35949,0.024 -0.59899,0.0719 -0.79089,0.33562 -0.1919,0.26377 -0.33549,0.74241 -0.79092,1.17395 -0.45544,0.43153 -1.22175,0.81469 -2.08463,1.00647 -0.86289,0.19178 -1.72515,0.19178 -2.32432,0.50323 -0.59917,0.31145 -0.88665,0.9343 -1.41397,1.22201 -0.52733,0.2877 -1.29375,0.2398 -1.82102,0.47935 -0.52726,0.23955 -0.81472,0.76656 -1.36613,0.8625 -0.55141,0.0959 -1.36566,-0.23934 -2.06055,-0.16757 -0.69489,0.0718 -1.26991,0.55097 -1.84522,0.69484 -0.57532,0.14388 -1.15014,-0.0477 -1.94097,1.7e-4 -0.79084,0.0479 -1.797,0.33537 -2.39621,0.43127 -0.59922,0.0959 -0.79084,9e-5 -0.8633,1.00696 -0.0725,1.00688 -0.0235,3.21028 -0.43089,6.32566 -0.40738,3.11539 -1.26994,7.18858 -1.77045,9.82486 -0.50052,2.63628 -0.64974,3.92955 -0.67371,5.91881 -0.024,1.98925 0.0718,4.72037 0.16996,6.61328 0.0981,1.8929 0.18943,2.85175 0.12121,4.09853 -0.0682,1.24679 -0.31511,2.82684 -0.55291,5.10375 -0.2378,2.27692 -0.48111,5.39121 -0.60093,7.04467 -0.11983,1.65345 -0.11983,1.98891 0.0947,2.18646 0.21455,0.19754 0.55244,0.28202 0.72035,0.56691 0.16791,0.2849 0.11949,0.76914 0.14345,1.08082 0.024,0.31168 0.11975,0.45536 0.47938,0.71908 0.35963,0.26372 0.9824,0.64697 1.38969,1.12609 0.4073,0.47912 0.59902,1.0543 0.59907,1.67734 4e-5,0.62305 -0.19161,1.29382 -0.3977,1.84986 -0.2061,0.55604 -0.4648,1.07344 -0.56071,2.12837 -0.0959,1.05493 -0.048,2.68333 0.0258,4.09707 0.0739,1.41374 0.16575,2.51617 0.11854,3.63847 -0.0472,1.12229 -0.24027,2.23244 -0.68957,2.87798 -0.4493,0.64554 -1.17992,0.84038 -1.87504,0.86437 -0.69512,0.024 -1.3658,-0.11972 -1.89316,-0.88685 -0.52736,-0.76712 -0.91065,-2.15655 -1.19819,-3.40257 -0.28754,-1.24602 -0.47926,-2.34845 -0.62303,-3.16313 -0.14377,-0.81469 -0.23964,-1.34196 -0.31057,-1.00672 -0.0709,0.33524 -0.12072,1.62964 -0.19262,2.92378 -0.0719,1.29413 -0.16772,2.63575 -0.24296,3.49797 -0.0752,0.86222 -0.11644,1.15065 -0.45142,1.37037 -0.33498,0.21972 -0.8629,0.30771 -1.46324,0.28867 -0.60033,-0.019 -1.3168,-0.17257 -1.77225,-0.60411 -0.45545,-0.43153 -0.69501,-1.15021 -0.86272,-2.37218 -0.16771,-1.22196 -0.26358,-2.94765 -0.19167,-4.45725 0.0719,-1.50959 0.31157,-2.80377 0.28758,-3.85796 -0.024,-1.0542 -0.3116,-1.86912 -0.43133,-2.75691 -0.11972,-0.88779 -0.0719,-1.8441 0.21569,-2.61083 0.2876,-0.76672 0.81493,-1.34199 1.1264,-1.70142 0.31148,-0.35944 0.40737,-0.50327 0.55086,-1.24469 0.14349,-0.74141 0.3356,-2.08618 0.45539,-3.52377 0.11979,-1.43759 0.16773,-2.97155 0.0489,-4.42837 -0.11883,-1.45682 -0.4084,-2.85642 -0.67197,-4.15032 -0.26358,-1.29391 -0.50324,-2.49223 -0.55387,-3.69063 -0.0506,-1.1984 0.0986,-2.49196 0.14654,-3.76182 0.0479,-1.26986 -3e-5,-2.56416 -0.0719,-4.36115 -0.0719,-1.79698 -0.16775,-4.09786 -0.19169,-5.41582 -0.0239,-1.31796 0.024,-1.65347 -0.6464,-3.28156 -0.67039,-1.62809 -2.061457,-4.55414 -3.137183,-7.1107 -1.075726,-2.55657 -1.847739,-4.77611 -2.299663,-6.35814 -0.451924,-1.58203 -0.602422,-2.6355 -0.794045,-3.21045 -0.191622,-0.57496 -0.431302,-0.71877 -0.910467,-0.81634 -0.479164,-0.0976 -1.102207,-0.14209 -1.749307,-0.16606 -0.647101,-0.024 -1.365761,-0.024 -1.869188,-0.21576 -0.503427,-0.19178 -0.838773,-0.57504 -1.078258,-0.76673 -0.239485,-0.19169 -0.383265,-0.19169 -0.623228,-0.21568 -0.239962,-0.024 -0.574817,-0.0718 -0.814631,-0.28771 -0.239814,-0.21588 -0.3835,-0.59904 -0.455363,-0.98243 -0.07186,-0.38339 -0.07186,-0.86279 -0.217197,-1.0368 -0.145334,-0.17401 -0.525307,-0.0654 -0.734004,-0.13988 -0.208697,-0.0744 -0.318851,-0.40489 -0.544772,-0.70436 -0.225921,-0.29947 -0.636664,-0.65887 -1.187707,-0.82662 -0.551043,-0.16775 -1.269893,-0.16775 -1.869184,-0.40746 -0.599291,-0.23972 -1.078372,-0.7188 -1.581546,-1.10218 -0.503174,-0.38338 -1.030356,-0.67093 -1.581465,-0.81474 -0.551108,-0.1438 -1.126118,-0.1438 -1.569168,-0.35095 -0.443051,-0.20716 -0.707457,-0.5597 -0.851219,-0.96715 -0.143761,-0.40746 -0.143761,-0.83884 -0.335216,-1.05438 -0.191455,-0.21553 -0.575095,-0.21553 -1.15242,-0.32891 -0.577325,-0.11338 -1.435639,-0.36582 -1.991722,-0.78291 -0.556084,-0.41709 -0.83399,-0.97291 -1.313027,-1.26042 -0.479036,-0.2875 -1.150116,-0.2875 -1.533686,-0.64719 -0.383571,-0.3597 -0.479387,-1.0783 -0.549281,-1.70142 -0.06989,-0.62312 -0.121803,-1.246 -0.217638,-1.82096 -0.09584,-0.57496 -0.239669,-1.1503 -0.263601,-1.74933 -0.02393,-0.59903 0.07195,-1.22226 0.383463,-1.5576 0.311512,-0.33533 0.838947,-0.38328 0.838932,-0.7665 -1.5e-5,-0.38322 -0.527484,-1.10249 0.311291,-1.46191 0.838774,-0.35942 3.043494,-0.35942 5.583375,-0.26357 2.539881,0.0958 5.41576,0.28757 8.147432,0.31153 2.731671,0.024 5.319871,-0.11984 7.284757,-0.26362 1.964885,-0.14377 3.306955,-0.28756 4.217502,-0.50328 0.910546,-0.21571 1.389904,-0.50332 1.701324,-0.83887 z"
       id="path852"
       inkscape:connector-curvature="0"
       inkscape:path-effect="#path-effect854"
       inkscape:original-d="m 98.279144,135.66041 c 0.14404,-0.38367 0.28782,-0.76708 0.43133,-1.15022 -0.33494,-0.76644 -0.6707,-1.62974 -1.00644,-2.44421 -0.86226,-2.10865 -1.62921,-4.21772 -2.44421,-6.32619 -0.33519,-0.67118 -0.67069,-1.24633 -1.00644,-1.8691 -0.0477,-0.6232 -0.0956,-1.34218 -0.14377,-2.01287 -0.38301,-0.86262 -0.76655,-1.72559 -1.15022,-2.58799 -0.0956,-1.96494 -0.19144,-3.83432 -0.28755,-5.75108 -0.47893,-0.86281 -0.95825,-1.72559 -1.43777,-2.58798 -0.1435,-1.38997 -0.28729,-2.77996 -0.43133,-4.16954 -0.14349,-1.72529 -0.28729,-3.45091 -0.43133,-5.17597 -0.0956,-2.300371 -0.19144,-4.601125 -0.28756,-6.90129 0.0961,-2.204604 0.19197,-4.505278 0.28756,-6.757519 0.19194,-0.623221 0.38366,-1.246331 0.5751,-1.869099 0.91039,-2.203728 1.91729,-4.409427 2.87554,-6.613742 1.15032,-2.156605 2.3007,-4.313573 3.45065,-6.469965 0.23986,-0.575286 0.47952,-1.150479 0.71889,-1.725321 -0.19134,-0.766651 -0.38315,-1.533888 -0.57511,-2.300433 -0.0956,-0.718973 -0.19144,-1.438034 -0.28756,-2.156653 2.7e-4,-0.431461 2.7e-4,-0.862928 0,-1.293995 -0.52659,-0.862396 -1.0541,-1.725586 -1.58155,-2.587985 2.7e-4,-0.383635 2.7e-4,-0.767075 0,-1.150215 0.33552,-2.65e-4 0.67123,0.09559 1.00645,0.143777 -0.67026,-0.718674 -1.34166,-1.438034 -2.01288,-2.156656 0.0961,-0.287813 0.19197,-0.575371 0.28755,-0.86266 0.14388,0.191225 0.28782,0.287289 0.43133,0.431331 0.71915,0.670693 1.43804,1.437505 2.15666,2.156653 0.0961,-0.04819 0.19196,-0.09612 0.28755,-0.143777 -0.0953,-0.955603 -0.19144,-1.91729 -0.28755,-2.875539 0.0961,-0.04818 0.28782,-0.09611 0.43133,-0.143777 0.14372,0.143195 0.28782,0.28729 0.43133,0.431331 0.0482,0.766546 0.0961,1.533356 0.14378,2.300431 0.67144,1.102381 1.34218,2.204317 2.012866,3.306871 0.0961,0.287308 0.19197,0.574844 0.28756,0.862663 0.0482,1.342393 0.0961,2.683571 0.14377,4.025754 0.14407,0.766691 0.28782,1.533356 0.43134,2.300431 -0.28737,1.389957 -0.57485,2.779424 -0.86267,4.169534 -0.43116,0.910521 -0.862386,1.82091 -1.293986,2.731762 -0.57505,1.390065 -1.14995,2.779424 -1.72532,4.169532 -0.47911,1.485773 -0.95825,2.875274 -1.43777,4.313309 -0.38323,0.71878 -0.6707,1.437505 -1.00644,2.156655 2.6e-4,1.198407 2.6e-4,2.396017 0,3.594423 0.19201,0.287354 0.47952,0.574844 0.71888,0.862664 0.0961,-0.527495 0.19197,-1.05463 0.28756,-1.581547 0.33555,-0.191858 0.67122,-0.38367 1.00643,-0.575109 -0.0476,-0.191789 -0.0956,-0.38367 -0.14377,-0.575107 -0.19125,-0.143901 -0.38314,-0.287819 -0.57511,-0.431331 0.0482,-0.239946 0.0961,-0.479523 0.14378,-0.718886 0.23959,-2.65e-4 0.38367,-2.65e-4 0.5751,0 0.0481,-0.430999 0.0961,-0.767075 0.14378,-1.150216 0.19182,0.191292 0.38367,0.383141 0.57511,0.575109 0.14404,0.335214 0.38367,0.670695 0.57511,1.006438 0.0961,0.431176 0.19197,0.862396 0.28755,1.293993 0.14411,-0.240001 0.28782,-0.479521 0.43133,-0.718884 0.19172,-0.335309 0.38367,-0.671224 0.57511,-1.00644 -0.19126,-0.28755 -0.38314,-0.575371 -0.57511,-0.862661 0.19193,-0.239842 0.28782,-0.575374 0.43133,-0.862663 0.33538,-0.04814 0.671226,-0.09612 1.006436,-0.143775 0.1918,0.191267 0.38367,0.38314 0.57511,0.575106 2.7e-4,0.431067 2.7e-4,0.862399 0,1.293993 0.0482,0.191555 0.19197,0.38314 0.28756,0.575109 0.24002,-0.192075 0.47952,-0.38367 0.71888,-0.575109 2.6e-4,-0.239602 2.6e-4,-0.575371 0,-0.862661 0.19179,0.239144 0.38367,0.478991 0.57511,0.718883 0.43165,0.0956 0.86292,0.19144 1.29399,0.287555 0.95834,0.670391 1.91729,1.341654 2.87554,2.012878 0.38365,0.910273 0.76707,1.820911 1.15022,2.731762 0.33579,0.191466 0.67122,0.383141 1.00644,0.575109 0.23983,0.958004 0.47952,2.012612 0.71888,3.019317 -0.0956,1.102233 -0.19144,2.204312 -0.28756,3.306862 -0.43117,0.81469 -0.86239,1.62921 -1.29399,2.44421 -0.0956,0.57507 -0.19143,1.14995 -0.28755,1.72533 2.6e-4,0.47924 2.6e-4,0.95825 0,1.43777 0.33593,0.23949 0.57537,0.47899 0.86266,0.71888 0.5274,0.1435 0.95878,0.28729 1.43777,0.43133 0.0961,-0.14399 0.19197,-0.28782 0.28756,-0.43133 0.23938,-1.00456 0.47952,-2.01314 0.71888,-3.01931 0.52728,-0.81475 1.05463,-1.72559 1.58155,-2.58799 0.43144,-0.33562 0.86292,-0.67122 1.29399,-1.00644 2.6e-4,-0.19184 2.6e-4,-0.38367 0,-0.57511 -0.0476,-2.345375 -0.0956,-4.696973 -0.14378,-7.045065 0.0961,-1.150356 0.19197,-2.204845 0.28756,-3.306871 2.6e-4,-0.575223 2.6e-4,-1.15048 0,-1.725325 -0.38297,-0.766722 -0.76655,-1.629735 -1.15022,-2.444207 -0.28725,-0.814888 -0.57484,-1.629738 -0.86266,-2.44421 -0.33515,-1.341933 -0.6707,-2.6841 -1.00644,-4.025755 -0.33517,-1.341995 -0.6707,-2.684102 -1.00644,-4.025754 -0.33517,-1.150321 -0.67069,-2.300698 -1.00644,-3.450648 -0.23933,-1.198227 -0.47899,-2.300695 -0.71888,-3.450648 2.6e-4,-0.862775 2.6e-4,-1.725589 0,-2.587985 -0.52676,-0.527286 -1.0541,-1.054629 -1.58155,-1.581547 -0.14351,-0.767075 -0.28729,-1.533885 -0.43133,-2.30043 0.38356,0.383034 0.76707,0.766545 1.15022,1.150215 0.14404,0.143512 0.28781,0.38314 0.43133,0.575106 0.19201,-0.239945 0.38366,-0.47952 0.5751,-0.718884 0.0481,-0.622543 0.0961,-1.246333 0.14378,-1.869101 -0.0476,-0.623014 -0.0956,-1.24633 -0.14378,-1.869101 -0.23927,-0.623054 -0.47899,-1.246331 -0.71888,-1.869099 0.23984,-0.04818 0.38367,-0.09612 0.57511,-0.143777 0.33519,0.621758 0.67122,1.341654 1.00643,2.012876 0.0961,0.335269 0.19197,0.670695 0.28756,1.00644 0.0962,0.09564 0.19197,0.191437 0.28755,0.287555 0.2399,-0.479523 0.47952,-0.958779 0.71889,-1.43777 0.28763,-0.383418 0.57537,-0.671224 0.86266,-1.00644 0.14392,0.04762 0.28782,0.191439 0.43133,0.287554 0.14398,0.287168 0.28782,0.574844 0.43133,0.862661 -0.33534,0.239453 -0.76654,0.478994 -1.15021,0.718886 -0.1916,0.623271 -0.38314,1.149951 -0.57511,1.725324 2.6e-4,0.575159 2.6e-4,1.245801 0,1.869101 0.28794,0.287412 0.57537,0.574842 0.86266,0.862661 0.23989,-0.239892 0.47952,-0.47952 0.71888,-0.718886 -0.0476,-0.670481 -0.0956,-1.342181 -0.14377,-2.012876 0.38353,-0.383529 0.76707,-0.767075 1.15021,-1.150215 0.28762,0.191304 0.57538,0.38314 0.86267,0.575106 -0.14349,0.574723 -0.28729,1.149951 -0.43134,1.725324 -0.23949,0.479251 -0.47899,0.95825 -0.71888,1.43777 2.6e-4,0.527267 2.6e-4,1.0541 0,1.581547 -0.0477,0.62308 -0.0956,1.245804 -0.14378,1.869101 -0.33536,0.431263 -0.67069,0.862396 -1.00643,1.293992 -0.0957,0.287486 -0.19144,0.574845 -0.28756,0.862661 -0.0477,0.287608 -0.0956,0.574844 -0.14378,0.862663 0.57598,1.007224 1.15048,2.012612 1.72533,3.019317 0.95886,1.629346 1.91729,3.162829 2.87554,4.744641 0.47954,1.725141 0.95878,3.45038 1.43777,5.175969 0.47957,1.102141 0.95877,2.108465 1.43777,3.163094 0.0961,1.725255 0.19196,3.450383 0.28755,5.175972 -0.0477,2.588093 -0.0956,5.271556 -0.14378,7.907728 -0.43111,2.58799 -0.8624,5.17571 -1.29399,7.76396 -0.33525,1.29388 -0.67069,2.58772 -1.00644,3.88198 0.23995,1.48579 0.47952,2.87527 0.71889,4.31331 -0.0477,2.25258 -0.0956,4.50474 -0.14378,6.75751 -0.28733,2.5401 -0.57485,5.07986 -0.86266,7.62018 -0.0956,1.38974 -0.19144,2.77943 -0.28756,4.16954 -0.0477,0.19147 -0.0956,0.38314 -0.14377,0.5751 1.58437,0.33576 3.25921,0.6707 4.88841,1.00644 2.68377,0.1435 5.36794,0.28729 8.05151,0.43133 2.30049,-0.14402 4.50528,-0.28782 6.75752,-0.43133 1.00658,0.3831 1.91729,0.76655 2.87554,1.15022 0.52737,0.86227 1.05463,1.62921 1.58155,2.44421 0.33577,0.14352 0.67122,0.28729 1.00644,0.43133 0.52724,0.33509 1.05463,0.57484 1.58154,0.86266 -0.0477,0.57474 -0.0956,1.14995 -0.14377,1.72532 0.24001,0.28744 0.38367,0.57485 0.57511,0.86266 -0.33529,0.52704 -0.6707,1.0541 -1.00645,1.58155 2.7e-4,0.52723 2.7e-4,1.0541 0,1.58155 2.7e-4,0.33538 2.7e-4,0.67069 0,1.00644 -0.52733,0.4314 -1.0541,0.8624 -1.58154,1.29399 -0.62311,0.4313 -1.14995,0.76655 -1.72532,1.15022 2.6e-4,0.28744 2.6e-4,0.57484 0,0.86266 -0.23959,0.14364 -0.57485,0.28729 -0.86267,0.43133 -0.76739,0.0957 -1.53335,0.19144 -2.30043,0.28755 -0.19151,-2.6e-4 -0.38314,-2.6e-4 -0.57511,0 2.7e-4,0.52765 2.7e-4,1.0541 0,1.58155 -0.19153,0.19153 -0.38314,0.38314 -0.5751,0.57511 -0.47966,-2.7e-4 -0.95825,-2.7e-4 -1.43777,0 -0.2395,0.0477 -0.479,0.0956 -0.71889,0.14377 -0.14369,0.47961 -0.28729,0.95825 -0.43133,1.43777 -0.76705,0.3834 -1.53336,0.76655 -2.30043,1.15022 -0.95865,-2.6e-4 -1.82091,-2.6e-4 -2.73176,0 -0.28738,0.62295 -0.57485,1.2458 -0.86267,1.8691 -0.76693,-0.0482 -1.53335,-0.0961 -2.30043,-0.14378 -0.28738,0.52709 -0.57484,1.0541 -0.86266,1.58155 -0.81496,-0.33594 -1.62921,-0.67122 -2.44421,-1.00644 -0.57493,0.47907 -1.14995,0.95825 -1.72532,1.43777 -0.57513,-0.19206 -1.14995,-0.38367 -1.72533,-0.5751 -1.00645,0.28736 -2.01261,0.57484 -3.01931,0.86266 -0.1915,-0.0962 -0.38314,-0.19197 -0.57511,-0.28756 0.0482,2.10963 0.0961,4.31305 0.14378,6.46997 -0.8625,4.0739 -1.72506,8.14709 -2.58799,12.22104 -0.14352,1.19797 -0.28729,2.49187 -0.43133,3.7382 0.0961,2.73214 0.19197,5.46326 0.28755,8.19529 0.0961,1.0542 0.19197,2.01261 0.28756,3.01931 -0.23942,1.48579 -0.47899,3.06698 -0.71888,4.60087 -0.23942,3.01964 -0.479,6.13422 -0.71889,9.20172 2.6e-4,0.23939 2.6e-4,0.57485 0,0.86267 0.43199,0.0957 0.76707,0.19143 1.15021,0.28755 2.7e-4,0.47876 -0.0956,0.95825 -0.14377,1.43777 0.0962,0.1436 0.19197,0.28729 0.28755,0.43133 0.62356,0.3833 1.24633,0.76655 1.8691,1.15022 0.19195,0.57477 0.38367,1.14995 0.57511,1.72532 -0.19149,0.67088 -0.38314,1.34165 -0.57511,2.01288 -0.23947,0.43126 -0.47899,0.95825 -0.71888,1.43777 0.0482,1.63028 0.0961,3.25868 0.14377,4.88841 0.0961,1.19807 0.19197,2.30017 0.28756,3.45065 -0.14354,1.10226 -0.38314,2.20432 -0.57511,3.30687 -0.71882,0.14355 -1.43751,0.38314 -2.15665,0.57511 -0.67099,-0.1441 -1.34166,-0.28782 -2.01288,-0.43133 -0.38326,-1.39052 -0.76655,-2.77995 -1.15022,-4.16953 -0.19141,-1.10242 -0.38314,-2.20485 -0.57511,-3.30688 -0.0956,-0.52734 -0.19143,-1.05462 -0.28755,-1.58154 -0.0476,1.1974 -0.0956,2.49187 -0.14378,3.7382 -0.0956,1.34195 -0.19143,2.68357 -0.28755,4.02575 -0.0477,0.38323 -0.0956,0.6707 -0.14378,1.00645 -0.62332,0.0957 -1.14995,0.19143 -1.72532,0.28755 -0.62309,-0.14412 -1.34166,-0.28782 -2.01288,-0.43133 -0.23943,-0.71936 -0.47899,-1.43804 -0.71888,-2.15666 -0.0956,-1.72521 -0.19144,-3.45091 -0.28756,-5.17597 0.23986,-1.29407 0.47953,-2.58825 0.71889,-3.88198 -0.28722,-0.81481 -0.57485,-1.62973 -0.86266,-2.4442 0.0961,-0.9586 0.0961,-1.9173 0.14377,-2.87554 0.5273,-0.57521 1.05463,-1.15048 1.58155,-1.72533 0.0961,-0.14397 0.19197,-0.28782 0.28755,-0.43133 0.19156,-1.33933 0.38367,-2.6841 0.57511,-4.02575 0.0482,-1.53355 0.0961,-3.06751 0.14378,-4.60087 -0.23932,-1.38986 -0.57484,-2.77995 -0.86266,-4.16953 -0.23933,-1.19823 -0.47899,-2.39655 -0.71889,-3.59442 0.14402,-1.19821 0.28782,-2.4924 0.43133,-3.7382 -0.0476,-1.29396 -0.0956,-2.58826 -0.14377,-3.88198 -0.0956,-2.30025 -0.19144,-4.60113 -0.28756,-6.9013 0.0482,-0.33571 0.0961,-0.67122 0.14378,-1.00644 -1.38835,-2.92114 -2.779416,-5.84719 -4.169526,-8.77039 -0.7186,-2.20476 -1.53336,-4.40943 -2.30043,-6.61374 -0.14351,-0.95872 -0.28729,-2.01315 -0.43134,-3.01932 -0.23931,-0.14401 -0.47899,-0.28782 -0.71888,-0.43133 -0.71885,-0.0482 -1.34165,-0.0961 -2.01288,-0.14378 -0.62299,-2.6e-4 -1.34165,-2.6e-4 -2.01288,0 -0.33534,-0.38382 -0.67069,-0.76707 -1.00643,-1.15021 -0.14351,-2.7e-4 -0.28729,-2.7e-4 -0.43134,0 -0.33583,-0.0483 -0.67069,-0.0961 -1.00643,-0.14378 -0.14361,-0.38392 -0.28729,-0.76708 -0.43134,-1.15022 2.7e-4,-0.38352 2.7e-4,-0.86292 0,-1.29399 -0.28711,0.0955 -0.67069,0.19144 -1.00643,0.28755 -0.0957,-0.24011 -0.19144,-0.57537 -0.28756,-0.86266 -0.33503,-0.33555 -0.76654,-0.67122 -1.15021,-1.00644 -0.71866,-2.6e-4 -1.43751,-2.6e-4 -2.15666,0 -0.47917,-0.47969 -0.95825,-0.95877 -1.43777,-1.43776 -0.52692,-0.28782 -1.0541,-0.57538 -1.58155,-0.86267 -0.57494,-2.6e-4 -1.14995,-2.6e-4 -1.72532,0 -0.28742,-0.43179 -0.57484,-0.76707 -0.86266,-1.15021 2.6e-4,-0.43155 2.6e-4,-0.86293 0,-1.294 -0.38291,-2.6e-4 -0.76655,-2.6e-4 -1.15022,0 -0.76707,-0.24005 -1.6292,-0.47952 -2.44421,-0.71888 -0.33528,-0.57549 -0.57484,-1.15048 -0.86266,-1.72533 -0.67057,-0.0482 -1.34165,-2.6e-4 -2.01287,0 -0.0956,-0.71943 -0.19144,-1.43803 -0.28756,-2.15665 -0.0476,-0.52728 -0.0956,-1.15048 -0.14378,-1.72532 -0.14345,-0.57514 -0.28728,-1.15048 -0.43133,-1.72533 0.0961,-0.62309 0.19197,-1.24633 0.28756,-1.8691 0.52719,-0.0482 1.05463,-0.0961 1.58155,-0.14378 -0.52664,-0.71875 -1.0541,-1.43803 -1.58155,-2.15665 2.2047,-2.6e-4 4.40942,-2.6e-4 6.61374,0 2.87546,0.19142 5.75134,0.38314 8.62662,0.57511 2.58803,-0.14403 5.17623,-0.28782 7.76395,-0.43133 1.34204,-0.14403 2.68411,-0.28782 4.02576,-0.43133 0.47942,-0.28776 0.95878,-0.57537 1.43777,-0.86266 z" />
  </g>
</svg>
