<?xml version="1.0" encoding="UTF-8" standalone="no"?>
<!-- Created with Inkscape (http://www.inkscape.org/) -->

<svg
   xmlns:dc="http://purl.org/dc/elements/1.1/"
   xmlns:cc="http://creativecommons.org/ns#"
   xmlns:rdf="http://www.w3.org/1999/02/22-rdf-syntax-ns#"
   xmlns:svg="http://www.w3.org/2000/svg"
   xmlns="http://www.w3.org/2000/svg"
   xmlns:sodipodi="http://sodipodi.sourceforge.net/DTD/sodipodi-0.dtd"
   xmlns:inkscape="http://www.inkscape.org/namespaces/inkscape"
   width="195.71196mm"
   height="172.05734mm"
   viewBox="0 0 195.71196 172.05734"
   version="1.1"
   id="svg8"
   inkscape:version="0.92.2 5c3e80d, 2017-08-06"
   sodipodi:docname="swanLake.svg">
  <defs
     id="defs2">
    <inkscape:path-effect
       effect="bspline"
       id="path-effect854"
       is_visible="true"
       weight="33.333333"
       steps="2"
       helper_size="0"
       apply_no_weight="true"
       apply_with_weight="true"
       only_selected="false" />
    <inkscape:path-effect
       effect="bspline"
       id="path-effect850"
       is_visible="true"
       weight="33.333333"
       steps="2"
       helper_size="0"
       apply_no_weight="true"
       apply_with_weight="true"
       only_selected="false" />
    <inkscape:path-effect
       effect="bspline"
       id="path-effect846"
       is_visible="true"
       weight="33.333333"
       steps="2"
       helper_size="0"
       apply_no_weight="true"
       apply_with_weight="true"
       only_selected="false" />
    <inkscape:path-effect
       effect="bspline"
       id="path-effect842"
       is_visible="true"
       weight="33.333333"
       steps="2"
       helper_size="0"
       apply_no_weight="true"
       apply_with_weight="true"
       only_selected="false" />
  </defs>
  <sodipodi:namedview
     id="base"
     pagecolor="#ffffff"
     bordercolor="#666666"
     borderopacity="1.0"
     inkscape:pageopacity="0.0"
     inkscape:pageshadow="2"
     inkscape:zoom="0.6506211"
     inkscape:cx="396.01726"
     inkscape:cy="395.1105"
     inkscape:document-units="mm"
     inkscape:current-layer="layer1"
     showgrid="false"
     inkscape:window-width="1440"
     inkscape:window-height="812"
     inkscape:window-x="0"
     inkscape:window-y="1"
     inkscape:window-maximized="1" />
  <metadata
     id="metadata5">
    <rdf:RDF>
      <cc:Work
         rdf:about="">
        <dc:format>image/svg+xml</dc:format>
        <dc:type
           rdf:resource="http://purl.org/dc/dcmitype/StillImage" />
        <dc:title></dc:title>
      </cc:Work>
    </rdf:RDF>
  </metadata>
  <g
     inkscape:label="Layer 1"
     inkscape:groupmode="layer"
     id="layer1"
     transform="translate(-7.330136,-57.76553)">
    <path
       style="fill:#000000;fill-opacity:1;stroke:#000000;stroke-width:0.26458332px;stroke-linecap:butt;stroke-linejoin:miter;stroke-opacity:1"
       d="m 10.118685,114.07757 c 0.387682,0.19644 1.160106,0.58781 1.912608,0.9691 0.752502,0.38129 1.482272,0.75108 2.097228,1.06268 0.614957,0.31161 1.115474,0.56523 1.611883,0.81678 0.496409,0.25154 0.990421,0.50187 1.453007,0.73628 0.462585,0.2344 0.896203,0.45413 1.341846,0.67995 0.445643,0.22582 0.907201,0.45971 1.587986,0.8047 0.680785,0.34499 1.586259,0.80385 2.399398,1.21598 0.813139,0.41214 1.532721,0.77692 2.333157,1.09127 0.800437,0.31434 1.681033,0.5775 2.711567,0.88157 1.030534,0.30407 2.217068,0.65092 3.218626,0.82551 1.001557,0.17459 1.807033,0.17453 2.891126,0.17453 1.084094,0 2.444317,6e-5 3.822148,0.16977 1.377831,0.16971 2.765518,0.50817 3.822933,0.86762 1.057415,0.35946 1.755245,0.72499 2.192259,1.1388 0.437013,0.41382 0.613379,0.90764 0.664244,1.43294 0.05087,0.52529 -0.01686,1.10096 0.43222,2.40693 0.449079,1.30597 1.414591,3.34024 2.363346,5.3394 0.948756,1.99917 1.880795,3.96331 2.89981,5.49232 1.019015,1.52902 2.124768,2.62247 3.014931,3.50278 0.890162,0.88032 1.564761,1.54753 2.553802,2.52578 0.989042,0.97825 2.292637,2.26764 3.307091,3.12985 1.014453,0.8622 1.739921,1.29738 2.502411,1.75487 0.76249,0.4575 1.562003,0.93731 2.317726,1.21111 0.755723,0.2738 1.467696,0.34161 2.225634,0.33886 0.757937,-0.003 1.562955,-0.076 2.308564,-0.14378 0.745609,-0.0678 1.431807,-0.1301 2.26649,-0.34775 0.834683,-0.21765 1.817208,-0.59033 2.535817,-1.19644 0.718609,-0.60611 1.145114,-1.39351 1.365304,-2.39297 0.220189,-0.99945 0.220189,-2.1186 0.08344,-3.01359 -0.136751,-0.89498 -0.4103,-1.53348 -0.715313,-2.24518 -0.305012,-0.7117 -0.641493,-1.4966 -1.080828,-2.16011 -0.439334,-0.66351 -0.981522,-1.20569 -1.768748,-1.82088 -0.787225,-0.61519 -1.788246,-1.28253 -2.804945,-2.02811 -1.0167,-0.74558 -2.033413,-1.55895 -2.696915,-2.18986 -0.663502,-0.63091 -0.973944,-1.07949 -1.278951,-1.52005 -0.305008,-0.44057 -0.604584,-0.87313 -0.919426,-1.44965 -0.314841,-0.57652 -0.644915,-1.29689 -1.017697,-2.11023 -0.372782,-0.81334 -0.788218,-1.71954 -1.250131,-2.91829 -0.461912,-1.19875 -0.968554,-2.6849 -1.223483,-3.80373 -0.254929,-1.11883 -0.254864,-1.85592 -0.254864,-2.68266 0,-0.82675 -6.5e-5,-1.74401 0.212949,-2.51383 0.213015,-0.76982 0.632918,-1.36872 1.03747,-1.94182 0.404551,-0.57309 0.795889,-1.12344 1.281708,-1.51581 0.48582,-0.39236 1.06089,-0.62243 1.65321,-0.85935 0.59232,-0.23693 1.201772,-0.48067 2.118419,-0.45008 0.916648,0.0306 2.134551,0.33507 3.053864,1.00323 0.919313,0.66816 1.52043,1.67003 1.876274,2.65275 0.355844,0.98273 0.457501,1.93153 0.573577,2.83009 0.116076,0.89855 0.256691,1.81255 0.443098,2.62599 0.186406,0.81344 0.423569,1.55881 0.796411,2.25366 0.372843,0.69485 0.881059,1.33859 1.236921,1.74529 0.355862,0.40669 0.559182,0.57613 0.643932,0.72845 0.08475,0.15232 0.05086,0.28789 -0.06787,0.42366 -0.11873,0.13576 -0.321598,0.27101 -0.542179,0.25405 -0.22058,-0.0169 -0.457445,-0.18614 -0.915003,-0.49117 -0.457557,-0.30504 -1.135187,-0.7455 -1.779132,-1.27083 -0.643944,-0.52532 -1.253878,-1.13526 -1.880804,-1.71135 -0.626927,-0.5761 -1.270811,-1.11831 -1.61073,-1.46129 -0.33992,-0.34298 -0.371812,-0.47055 -0.557809,-0.53824 -0.185998,-0.0677 -0.52535,-0.0677 -0.745722,-0.0846 -0.220371,-0.0169 -0.321937,-0.0508 -0.49167,-0.2375 -0.169733,-0.18671 -0.406579,-0.52506 -0.558991,-0.60993 -0.152412,-0.0849 -0.220204,0.0846 -0.156316,0.56084 0.06389,0.47624 0.274641,1.31925 0.510938,2.04574 0.236297,0.72648 0.504942,1.36429 0.775844,2.00768 0.270901,0.64339 0.544067,1.29238 0.930646,1.98436 0.386579,0.69198 0.883939,1.42231 1.42437,2.21607 0.540431,0.79376 1.124749,1.65214 1.859072,2.39987 0.734324,0.74773 1.601793,1.36727 2.377899,1.92405 0.776106,0.55678 1.463852,1.05294 1.980025,1.40467 0.516173,0.35172 0.853835,0.55432 1.023238,0.55418 0.169403,-1.3e-4 0.169403,-0.20351 0.152477,-0.93129 -0.01693,-0.72778 -0.05087,-1.98384 -0.05895,-2.96313 -0.0081,-0.9793 0.0096,-1.68489 0.02657,-2.36269 0.01695,-0.6778 0.03313,-1.32783 0.193823,-2.07666 0.16069,-0.74882 0.46583,-1.59643 0.93641,-2.16877 0.470581,-0.57233 1.107425,-0.87088 1.649714,-1.12508 0.542288,-0.2542 0.990119,-0.46409 1.652549,-0.56004 0.66243,-0.096 1.538804,-0.0781 2.369133,-0.0612 0.83033,0.0169 1.616614,0.0331 2.30802,-0.004 0.691405,-0.0372 1.29615,-0.12793 1.976222,-0.22994 0.680072,-0.10201 1.434845,-0.21517 2.201588,-0.46165 0.766744,-0.24647 1.562434,-0.63126 2.446297,-1.0562 0.883863,-0.42494 1.853582,-0.88891 2.709955,-1.25633 0.856373,-0.36742 1.607245,-0.64167 2.475455,-0.95879 0.868209,-0.31711 1.858729,-0.6789 2.681127,-0.97927 0.822398,-0.30037 1.476788,-0.53935 2.555948,-0.93345 1.07917,-0.3941 2.58473,-0.94391 3.76368,-1.29493 1.17894,-0.35103 2.03472,-0.50435 3.16998,-0.70768 1.13527,-0.20333 2.55069,-0.45678 3.29206,-0.46496 0.74138,-0.008 0.80916,0.22905 0.72442,0.80543 -0.0847,0.57637 -0.32179,1.49068 -0.53271,2.09597 -0.21093,0.60529 -0.3649,0.85166 -0.77879,1.16969 -0.41389,0.31804 -1.07145,0.68219 -1.63915,0.99659 -0.5677,0.31441 -1.04565,0.57912 -1.81761,1.00668 -0.77195,0.42756 -1.83996,1.0191 -2.37369,1.39932 -0.53374,0.38021 -0.53374,0.55265 -0.16302,0.60936 0.37072,0.0567 1.12998,0.002 1.84604,-0.049 0.71606,-0.0511 1.38811,-0.0988 1.82193,-0.12239 0.43382,-0.0236 0.6382,-0.0236 0.70594,0.0778 0.0678,0.10137 -1.2e-4,0.30497 -0.3564,0.84789 -0.35628,0.54291 -0.99915,1.42264 -1.72786,1.89723 -0.72871,0.47459 -1.54176,0.54234 -2.43997,0.66097 -0.89821,0.11862 -1.88063,0.288 -2.43465,0.46647 -0.55402,0.17847 -0.69996,0.39739 -0.51261,0.54706 0.18735,0.14968 0.76153,0.25734 1.57469,0.25732 0.81316,-1e-5 1.898,-0.10171 2.2877,0.13528 0.3897,0.237 0.0846,0.81326 -0.30518,1.35564 -0.38981,0.54238 -0.86398,1.05043 -1.23681,1.3386 -0.37283,0.28817 -0.64377,0.35591 -1.25434,0.38983 -0.61056,0.0339 -1.62612,0.0339 -2.27007,0.23717 -0.64395,0.20324 -0.94886,0.60979 -1.14311,0.87574 -0.19426,0.26594 -0.24632,0.34404 0.29766,0.36102 0.54399,0.017 1.69274,-0.0506 2.28563,1.3e-4 0.59289,0.0507 0.62678,0.2202 0.54201,0.59327 -0.0848,0.37307 -0.28785,0.94848 -0.71154,1.49088 -0.4237,0.5424 -1.06665,1.04999 -1.60548,1.42103 -0.53883,0.37105 -0.97163,0.60406 -1.412126,0.84125 -0.440498,0.2372 -0.888705,0.47857 -1.214374,0.66695 -0.325669,0.18839 -0.529084,0.324 -0.596991,0.47665 -0.06791,0.15265 -2.25e-4,0.32186 0.25424,0.45754 0.254465,0.13568 0.694654,0.23727 0.847137,0.5081 0.152482,0.27083 0.01687,0.71158 -0.271255,1.13536 -0.288122,0.42379 -0.728359,0.83016 -1.050348,1.10133 -0.321988,0.27118 -0.525189,0.40665 -0.388086,0.45746 0.137103,0.0508 0.608421,0.0172 0.887842,0.0426 0.27942,0.0254 0.39807,0.14405 0.416051,0.32629 0.01798,0.18224 -0.05179,0.46133 -0.458798,1.02099 -0.407006,0.55966 -1.151706,1.40591 -1.371938,1.84662 -0.220232,0.44071 0.08466,0.47459 0.423553,0.47598 0.338888,0.001 0.779483,-0.0353 1.033452,0.0324 0.253968,0.0677 0.355706,0.23726 0.321833,0.71176 -0.03387,0.4745 -0.203253,1.25365 -0.465129,2.10561 -0.261876,0.85197 -0.616041,1.77599 -0.894371,2.50213 -0.27833,0.72614 -0.480153,1.25265 -0.692697,1.80706 -0.212544,0.55441 -0.435491,1.13589 -0.673283,1.63628 -0.237792,0.50039 -0.490138,0.91882 -0.761864,1.36933 -0.271726,0.45052 -0.562896,0.93322 -0.8902,1.47585 -0.327305,0.54263 -0.690975,1.14557 -1.063355,1.76291 -0.372379,0.61735 -0.751901,1.2465 -1.176756,1.73605 -0.424856,0.48955 -0.892968,0.83609 -1.329881,1.15955 -0.436914,0.32346 -0.84259,0.62381 -1.220197,0.9051 -0.377606,0.28128 -0.727675,0.5439 -1.087303,0.81361 -0.359628,0.26971 -0.725973,0.54438 -1.126704,0.77124 -0.400731,0.22686 -0.825987,0.40007 -1.28019,0.58511 -0.454203,0.18505 -0.938065,0.38222 -1.26415,0.74636 -0.326084,0.36415 -0.477126,0.87774 -0.611301,1.33055 -0.134175,0.45281 -0.253095,0.85035 -0.497093,1.37332 -0.243998,0.52296 -0.608411,1.16074 -0.946518,1.75242 -0.338107,0.59169 -0.650044,1.13753 -0.990431,1.61035 -0.340388,0.47283 -0.707094,0.86948 -1.088191,1.28169 -0.381097,0.41221 -0.776064,0.83942 -1.42207,1.53816 -0.646005,0.69874 -1.540549,1.6663 -2.441164,2.50754 -0.900614,0.84125 -1.792493,1.54185 -2.642663,2.21049 -0.850169,0.66864 -1.659014,1.30562 -2.245777,1.76794 -0.586763,0.46232 -0.951168,0.74976 -1.489628,1.23272 -0.538461,0.48296 -1.249608,1.16024 -1.622521,2.07545 -0.372914,0.9152 -0.406788,2.06697 -0.576146,2.81256 -0.169357,0.74558 -0.474284,1.08439 -1.05072,1.28787 -0.576437,0.20349 -1.422956,0.27121 -2.609354,0.13563 -1.186397,-0.13558 -2.710871,-0.47435 -4.066469,-0.69464 -1.355597,-0.2203 -2.541544,-0.32195 -3.828766,-0.23398 -1.287221,0.088 -2.609897,0.3525 -4.118018,0.55727 -1.508121,0.20477 -3.100208,0.33744 -4.356558,0.35179 -1.25635,0.0144 -2.141488,-0.0925 -3.124212,-0.21114 -0.982723,-0.11861 -2.063034,-0.24891 -2.874363,-0.61905 -0.81133,-0.37014 -1.353604,-0.9802 -1.556778,-1.31915 -0.203175,-0.33895 -0.06737,-0.40686 -0.322286,-0.73829 -0.254918,-0.33143 -0.90124,-0.92816 -1.562435,-1.5385 -0.661195,-0.61033 -1.337304,-1.2343 -1.471584,-1.63065 -0.13428,-0.39636 0.272623,-0.5659 0.5606,-0.66751 0.287978,-0.10162 0.457552,-0.13553 0.317331,-0.29696 -0.140221,-0.16142 -0.639447,-0.48236 -1.080047,-0.80433 -0.4406,-0.32198 -0.847206,-0.66081 -1.05055,-1.16931 -0.203344,-0.50849 -0.203344,-1.18622 0.137229,-1.55903 0.340574,-0.37281 1.015254,-0.44028 1.769991,-0.22456 0.754738,0.21573 1.617498,0.73338 2.340526,1.07728 0.723028,0.34391 1.322209,0.52357 2.000002,0.72691 0.677793,0.20334 1.434185,0.43034 2.320864,0.54382 0.886679,0.11349 1.903203,0.11349 3.001382,-0.16415 1.098179,-0.27764 2.222951,-0.80694 3.159666,-1.30755 0.936715,-0.50062 1.706585,-0.99053 2.060963,-1.46479 0.354377,-0.47427 0.323065,-0.88133 0.441757,-1.2032 0.118693,-0.32188 0.389955,-0.52532 0.627037,-0.7455 0.237081,-0.22018 0.440631,-0.45765 -0.101573,-0.57612 -0.542205,-0.11847 -1.829404,-0.11847 -2.808743,-0.10454 -0.97934,0.0139 -1.649398,0.0418 -2.462712,0.0757 -0.813315,0.0339 -1.769884,0.0738 -2.768093,-0.22551 -0.99821,-0.29933 -2.038632,-0.9383 -3.004456,-1.53135 -0.965824,-0.59305 -1.858182,-1.14088 -2.620754,-1.80017 -0.762571,-0.65928 -1.398221,-1.43252 -2.025967,-2.196 -0.627747,-0.76347 -1.247398,-1.51696 -1.820035,-2.35458 -0.572636,-0.83763 -1.10365,-1.76711 -1.680655,-2.76839 -0.577004,-1.00129 -1.19964,-2.07372 -1.746073,-3.52556 -0.546434,-1.45185 -1.020934,-3.29422 -1.308955,-4.41242 -0.288021,-1.1182 -0.390531,-1.51599 -0.593998,-2.27912 -0.203466,-0.76313 -0.507567,-1.8904 -0.795625,-2.9579 -0.288058,-1.06751 -0.559903,-2.07463 -0.882252,-3.00186 -0.322348,-0.92724 -0.695077,-1.77435 -0.526159,-2.26895 0.168918,-0.4946 0.81421,-0.62366 1.135988,-0.79314 0.321777,-0.16947 0.287874,-0.37289 -0.270556,-0.44061 -0.55843,-0.0677 -1.64401,1.4e-4 -2.533851,-0.28036 -0.88984,-0.28049 -1.618178,-0.93946 -1.770521,-1.36316 -0.152343,-0.42369 0.254308,-0.62702 0.779305,-0.7286 0.524996,-0.10159 1.169381,-0.10159 1.592957,-0.1864 0.423577,-0.0848 0.626991,-0.25432 0.485735,-0.51696 -0.141257,-0.26264 -0.672309,-0.65207 -1.739887,-0.90488 -1.067578,-0.2528 -2.761633,-0.39109 -3.575069,-0.76406 -0.813436,-0.37296 -0.779553,-0.98287 -0.285874,-1.35584 0.493679,-0.37296 1.43825,-0.5079 2.217576,-0.57565 0.779327,-0.0678 1.321733,-0.0678 1.465338,-0.26018 0.143605,-0.19242 -0.177789,-0.62095 -1.093351,-0.99014 -0.915561,-0.3692 -2.506954,-0.71515 -3.811742,-1.03711 -1.304788,-0.32195 -2.355202,-0.62691 -3.219508,-1.15228 -0.864307,-0.52537 -1.541968,-1.2708 -1.880847,-1.77925 -0.338878,-0.50845 -0.338878,-0.77956 0.418747,-0.71295 0.757626,0.0666 2.292529,0.47592 3.29226,0.66227 0.999732,0.18636 1.47423,0.15247 1.372642,-0.1354 -0.101589,-0.28787 -0.779763,-0.83041 -1.694778,-1.54209 -0.915014,-0.71168 -2.067169,-1.59274 -2.967019,-2.14661 -0.89985,-0.55387 -1.607792,-0.80165 -2.30267,-1.3101 -0.694878,-0.50845 -1.406377,-1.28771 -1.7622,-1.93171 -0.355824,-0.64401 -0.355824,-1.15234 0.005,-1.28611 0.360806,-0.13376 1.062674,0.10019 1.892822,0.42209 0.830148,0.3219 1.779237,0.72865 2.507834,0.99975 0.728596,0.27109 1.236993,0.40666 1.438124,0.12146 0.20113,-0.2852 0.103643,-0.93512 -0.273816,-1.3859 -0.377459,-0.45078 -1.031038,-0.67495 -1.624151,-0.8783 -0.593114,-0.20336 -1.125735,-0.38588 -1.967895,-0.76507 -0.84216,-0.37919 -2.014797,-0.96551 -2.772798,-1.46471 -0.758,-0.49919 -1.150941,-0.9418 -1.525994,-1.36798 -0.3750535,-0.42618 -0.731877,-0.83556 -0.9083893,-1.35836 -0.1765122,-0.5228 -0.1765122,-1.17026 0.3994337,-1.28879 0.5759456,-0.11854 1.7286296,0.28829 2.7904316,0.67586 1.061801,0.38756 2.055935,0.76465 2.353807,0.7224 0.297871,-0.0422 -0.06082,-0.46616 -0.840146,-0.94055 -0.77933,-0.47438 -1.965497,-0.98274 -2.909955,-1.44774 -0.944459,-0.465 -1.5972309,-0.85666 -2.1903574,-1.34811 -0.5931265,-0.49145 -1.1013962,-1.06749 -1.2707622,-1.54207 -0.1693659,-0.47459 8.4e-5,-0.84737 0.4233497,-0.77964 0.4232658,0.0677 1.1016144,0.5765 1.7793454,1.0848 0,-2e-5 0,-7e-5 0,-7e-5 0,0 -4e-6,0 0.3876775,0.19643 z"
       id="path840"
       inkscape:connector-curvature="0"
       inkscape:path-effect="#path-effect842"
       inkscape:original-d="m 9.7310035,113.88114 c 0.7755235,0.39255 1.5479455,0.78393 2.3222065,1.17663 0.730744,0.36988 1.460515,0.73966 2.190147,1.10977 0.500279,0.25311 1.000797,0.50673 1.500357,0.76026 0.49326,0.24955 0.987273,0.49988 1.479858,0.74989 0.432587,0.2188 0.866202,0.43853 1.298115,0.65779 0.459374,0.23238 0.920931,0.46627 1.379008,0.69879 0.903494,0.45746 1.808831,0.91659 2.717538,1.37715 0.717581,0.36369 1.437288,0.72823 2.159291,1.09464 0.878804,0.26228 1.757985,0.53017 2.626482,0.78489 1.193584,0.35006 2.380519,0.69554 3.575124,1.04509 0.808418,-3.3e-4 1.613894,-1.6e-4 2.418045,-1.8e-4 1.364036,-4e-5 2.724259,-1.5e-4 4.088557,1.8e-4 1.391439,0.33905 2.779127,0.67751 4.168293,1.01666 0.711827,0.40634 1.423585,0.74528 2.134978,1.11832 0.203568,0.44023 0.339151,0.94862 0.508328,1.42332 -0.06753,0.57603 -0.135259,1.1517 -0.203329,1.72832 0.966315,2.03514 1.931592,4.06952 2.896919,6.10361 0.932179,1.96424 1.864459,3.92827 2.796358,5.89294 1.106078,1.09324 2.211651,2.18687 3.317284,3.28037 0.674615,0.66721 1.349469,1.33416 2.023799,2.00163 1.303753,1.28903 2.607347,2.57843 3.910494,3.86791 0.725686,0.43488 1.451008,0.8703 2.17641,1.30553 0.799588,0.47974 1.599234,0.95933 2.398546,1.43944 0.711978,0.0675 1.42395,0.13532 2.134978,0.20333 0.804794,-0.0735 1.609831,-0.14654 2.414831,-0.21971 0.686217,-0.0624 1.372401,-0.12488 2.058458,-0.18695 0.983275,-0.37313 1.965801,-0.74581 2.948305,-1.11832 0.440672,-0.84721 0.881367,-1.62692 1.321652,-2.43998 2.65e-4,-1.1859 2.65e-4,-2.30505 0,-3.45663 -0.273185,-0.63853 -0.546988,-1.27692 -0.820608,-1.91541 -0.336372,-0.78492 -0.67263,-1.56992 -1.009372,-2.35455 -0.541984,-0.54251 -1.08417,-1.0847 -1.62665,-1.62665 -1.016394,-0.71192 -2.033051,-1.35581 -3.049971,-2.03331 -1.016453,-0.81364 -2.033166,-1.62701 -3.049971,-2.43998 -0.310129,-0.44877 -0.620794,-0.89719 -0.931286,-1.34567 -0.299528,-0.43265 -0.598875,-0.86537 -0.898697,-1.29764 -0.329845,-0.72071 -0.660174,-1.44096 -0.990355,-2.16139 -0.415346,-0.90627 -0.830564,-1.81257 -1.24629,-2.71856 -0.508102,-1.49147 -1.014742,-2.97762 -1.524984,-4.47329 3.3e-4,-0.74188 1.84e-4,-1.47897 1.96e-4,-2.21766 1.6e-5,-0.9148 1.35e-4,-1.83206 -1.96e-4,-2.76396 0.426148,-0.6077 0.841896,-1.20952 1.262788,-1.80111 0.392458,-0.55162 0.7837,-1.10204 1.177189,-1.65552 0.578044,-0.23142 1.153157,-0.46138 1.727363,-0.69106 0.610433,-0.24418 1.219845,-0.48802 1.830936,-0.73226 1.222338,0.30525 2.440239,0.60973 3.659963,0.91499 0.644049,1.01624 1.220253,2.03305 1.829982,3.04997 0.101939,0.94869 0.203597,1.89749 0.304996,2.84664 0.135853,0.84716 0.271375,1.76194 0.406665,2.64331 0.237543,0.74546 0.474702,1.49083 0.711658,2.23664 0.508706,0.64376 1.016923,1.2875 1.524986,1.93165 0.203605,0.16919 0.406927,0.33862 0.609995,0.50833 -0.03362,0.13527 -0.06751,0.27084 -0.101666,0.40666 -0.203534,0.1356 -0.406398,0.27085 -0.609995,0.40666 -0.237312,-0.16996 -0.474175,-0.33915 -0.71166,-0.50832 -0.677648,-0.44091 -1.355278,-0.88137 -2.033312,-1.32166 -0.609788,-0.61032 -1.219724,-1.22025 -1.829983,-1.82998 -0.643618,-0.54248 -1.2875,-1.0847 -1.931649,-1.62665 -0.06751,-0.13583 -0.06751,-0.27137 -0.101666,-0.40666 -0.338153,-2.7e-4 -0.677505,-2.7e-4 -1.016656,0 -0.101481,-0.0342 -0.203065,-0.068 -0.304996,-0.10167 -0.237326,-0.33968 -0.474176,-0.67803 -0.71166,-1.01666 -0.0675,0.16915 -0.13529,0.33863 -0.203333,0.50833 0.203981,0.78064 0.406744,1.62565 0.609995,2.43998 0.26935,0.63859 0.537753,1.2765 0.806527,1.91483 0.273032,0.64845 0.546437,1.29734 0.820123,1.94846 0.499457,0.73276 0.996575,1.46326 1.494427,2.19445 0.583033,0.85631 1.16757,1.71454 1.758876,2.58384 0.877252,0.62607 1.747712,1.24142 2.607485,1.86224 0.689024,0.49752 1.377195,0.99309 2.069137,1.49273 0.340375,0.2038 0.678034,0.4064 1.016656,0.60999 2.65e-4,-0.20355 2.65e-4,-0.40693 0,-0.60999 -0.03358,-1.25251 -0.06753,-2.50857 -0.101666,-3.76163 0.01796,-0.70551 0.03548,-1.41111 0.05311,-2.11666 0.01625,-0.65005 0.03263,-1.30007 0.04856,-1.94997 0.305344,-0.84771 0.610486,-1.69532 0.91499,-2.54164 0.636453,-0.29851 1.273332,-0.59699 1.909992,-0.89541 0.447924,-0.20996 0.895712,-0.41994 1.343311,-0.62958 0.87732,0.0176 1.75369,0.0356 2.630617,0.0535 0.783732,0.016 1.570021,0.0319 2.351001,0.0482 0.6018,-0.0905 1.206564,-0.18114 1.810202,-0.2717 0.756502,-0.11349 1.511252,-0.2268 2.256425,-0.3383 0.788295,-0.38134 1.58258,-0.76903 2.385352,-1.15352 0.966221,-0.46278 1.936077,-0.92646 2.901261,-1.38812 0.747559,-0.27322 1.498434,-0.54747 2.245688,-0.82024 0.989165,-0.36146 1.979721,-0.72315 2.970846,-1.08511 0.653688,-0.23873 1.308018,-0.47786 1.961638,-0.71639 1.50472,-0.54967 3.01028,-1.09948 4.51338,-1.64822 0.8548,-0.15337 1.71058,-0.30669 2.56547,-0.45964 1.41564,-0.25371 2.83106,-0.50716 4.24613,-0.76034 0.068,0.23695 0.13582,0.47417 0.20333,0.71166 -0.23713,0.9154 -0.47418,1.82971 -0.71166,2.74497 -0.16924,0.30484 -0.33845,0.54168 -0.50833,0.81333 -0.65802,0.36429 -1.31554,0.72851 -1.97287,1.09256 -0.47806,0.26478 -0.95606,0.5294 -1.43392,0.79418 -1.06605,0.59034 -2.13406,1.18188 -3.20148,1.77322 2.6e-4,0.16918 2.6e-4,0.34162 0,0.50833 0.74143,-0.0535 1.50065,-0.10859 2.26348,-0.16271 0.66934,-0.0475 1.34137,-0.0954 2.00648,-0.14229 0.20255,-2.6e-4 0.40693,-2.6e-4 0.61,0 -0.0674,0.2028 -0.13529,0.4064 -0.20334,0.60999 -0.64462,0.88222 -1.2875,1.76194 -1.93164,2.64331 -0.81334,0.0675 -1.62639,0.13529 -2.43998,0.20333 -0.98285,0.16924 -1.96527,0.33863 -2.94831,0.50833 -0.10143,0.20313 -0.27084,0.4064 -0.40666,0.61 0.50936,0.10155 1.0847,0.20306 1.62665,0.30499 1.08429,-0.10189 2.16913,-0.20359 3.2533,-0.30499 -0.30465,0.57568 -0.60973,1.15194 -0.91499,1.72831 -0.47443,0.50835 -0.94861,1.0164 -1.42332,1.52499 -0.27099,0.0676 -0.54195,0.13529 -0.81332,0.20333 -0.94971,-2.6e-4 -1.96527,-2.6e-4 -2.94831,0 -0.30481,0.40651 -0.60973,0.81306 -0.91499,1.21999 -0.0676,0.13539 -0.13529,0.20307 -0.20333,0.30499 1.15594,-0.0682 2.30469,-0.13581 3.45664,-0.20333 0.0341,0.16914 0.068,0.33863 0.10166,0.50833 -0.20331,0.57654 -0.4064,1.15195 -0.60999,1.72832 -0.64398,0.50834 -1.28693,1.01594 -1.93165,1.52498 -0.43296,0.23298 -0.86572,0.46607 -1.298524,0.69912 -0.448194,0.24133 -0.89644,0.48263 -1.344782,0.7242 -0.202982,0.13524 -0.4064,0.27085 -0.60999,0.40667 0.0681,0.16943 0.13582,0.33862 0.20333,0.50832 0.44117,0.10149 0.88136,0.20307 1.32165,0.305 -0.13523,0.44009 -0.27084,0.88084 -0.40666,1.32165 -0.4406,0.4067 -0.88084,0.81307 -1.32165,1.21999 -0.2032,0.13538 -0.4064,0.27085 -0.609999,0.40667 0.475419,-0.0681 0.949149,-0.068 1.423319,-0.10167 0.10187,0.0675 0.2036,0.20307 0.305,0.305 -0.0336,0.27084 -0.13529,0.54195 -0.20333,0.81332 -0.74614,0.84792 -1.490837,1.69417 -2.236649,2.54164 0.305363,0.0336 0.610258,0.0675 0.914989,0.10167 0.37276,-0.0341 0.81359,-0.068 1.21999,-0.10167 0.10186,0.16907 0.2036,0.33863 0.305,0.50833 -0.16926,0.77953 -0.338639,1.55868 -0.50833,2.33831 -0.354115,0.92431 -0.708279,1.84833 -1.063242,2.774 -0.201699,0.52661 -0.403654,1.05307 -0.605403,1.57936 -0.223311,0.58254 -0.446154,1.16406 -0.669666,1.74659 -0.252137,0.41825 -0.504546,0.83664 -0.757118,1.25541 -0.290872,0.48226 -0.581987,0.965 -0.873618,1.4483 -0.362976,0.60196 -0.726717,1.20485 -1.089121,1.80567 -0.38234,0.63388 -0.761806,1.26307 -1.143438,1.89555 -0.468188,0.34653 -0.936277,0.6931 -1.404543,1.03977 -0.40556,0.30025 -0.81126,0.60057 -1.217159,0.90115 -0.349313,0.26199 -0.699277,0.52475 -1.048955,0.78692 -0.369662,0.27714 -0.736031,0.55178 -1.107631,0.83046 -0.429884,0.17494 -0.855096,0.34826 -1.283063,0.52261 -0.480444,0.19573 -0.964345,0.3928 -1.46191,0.59571 -0.154376,0.52557 -0.303007,1.03987 -0.454597,1.54578 -0.119522,0.3989 -0.238093,0.79654 -0.358729,1.19919 -0.367447,0.64328 -0.731918,1.28102 -1.095849,1.91789 -0.312291,0.5465 -0.62416,1.09238 -0.937463,1.64041 -0.367546,0.39758 -0.734261,0.79422 -1.101492,1.19143 -0.394967,0.42721 -0.789924,0.85443 -1.184657,1.28137 -0.897276,0.97054 -1.791822,1.9381 -2.695469,2.91549 -0.89762,0.70505 -1.789514,1.40563 -2.679065,2.10449 -0.811489,0.63753 -1.619619,1.27542 -2.429147,1.913 -0.363996,0.28706 -0.728401,0.5745 -1.093393,0.86246 -0.711909,0.67799 -1.423057,1.35527 -2.134982,2.03331 -0.03364,1.15239 -0.06751,2.30416 -0.101663,3.45663 -0.304805,0.3387 -0.60973,0.67751 -0.914993,1.01666 -0.847643,0.0676 -1.694164,0.13529 -2.54164,0.20333 -1.525233,-0.33926 -3.049707,-0.67803 -4.574955,-1.01666 -1.18599,-0.10194 -2.371937,-0.20359 -3.5583,-0.30499 -1.389448,0.2709 -2.71082,0.54195 -4.066627,0.81332 -1.660649,0.13532 -3.252502,0.2708 -4.879951,0.40666 -0.885196,-0.1072 -1.770362,-0.21387 -2.655509,-0.32071 -1.080297,-0.13039 -2.160583,-0.2609 -3.241101,-0.39094 -0.541895,-0.6102 -1.08417,-1.22026 -1.62665,-1.82999 0.135813,-0.068 0.271606,-0.13593 0.406662,-0.20333 -0.644584,-0.59564 -1.2911,-1.19216 -1.93788,-1.78919 -0.675607,-0.62364 -1.351526,-1.24782 -2.027081,-1.87077 0.406684,-0.16961 0.813588,-0.33915 1.219988,-0.50833 0.169574,-0.0341 0.339151,-0.068 0.508328,-0.10166 -0.439494,-0.30472 -0.948616,-0.61026 -1.423321,-0.915 -0.406455,-0.33919 -0.813059,-0.67803 -1.219985,-1.01665 2.64e-4,-0.67808 2.64e-4,-1.35581 0,-2.03332 0.677769,-0.10189 1.355804,-0.13581 2.033312,-0.20333 0.847119,0.47398 1.694938,1.01654 2.54164,1.52499 0.599261,0.17935 1.198366,0.35927 1.797512,0.539 0.75645,0.22691 1.512908,0.45369 2.269115,0.68098 1.017056,-2.6e-4 2.03358,-2.6e-4 3.049972,0 1.186055,-0.54234 2.304687,-1.08469 3.456633,-1.62665 0.711726,-0.47457 1.491361,-0.94914 2.236644,-1.42331 -0.03361,-0.47451 -0.06751,-0.88137 -0.101666,-1.32166 0.271224,-0.20348 0.542483,-0.40693 0.813327,-0.60999 0.203372,-0.23723 0.406927,-0.4747 0.609994,-0.71166 -1.2875,-2.6e-4 -2.574699,-2.6e-4 -3.863295,0 -0.670094,0.0276 -1.340142,0.0557 -2.010191,0.0836 -0.956584,0.0398 -1.913158,0.0796 -2.869763,0.11977 -1.039616,-0.63889 -2.080035,-1.27786 -3.120449,-1.91639 -0.891234,-0.54757 -1.783593,-1.0954 -2.674495,-1.64191 -0.634145,-0.77199 -1.270009,-1.54505 -1.905067,-2.31742 -0.620437,-0.75458 -1.239873,-1.50824 -1.856562,-2.25754 -0.528556,-0.9259 -1.053909,-1.85861 -1.592713,-2.78785 -0.620576,-1.07027 -1.243503,-2.14253 -1.86392,-3.21042 -0.472451,-1.8357 -0.947051,-3.67804 -1.420785,-5.51656 -0.102508,-0.39783 -0.204717,-0.7957 -0.307531,-1.19338 -0.304118,-1.12858 -0.608445,-2.25579 -0.912796,-3.38364 -0.271782,-1.00716 -0.543384,-2.01434 -0.815521,-3.02129 -0.372553,-0.84758 -0.745283,-1.69469 -1.118322,-2.54164 0.711819,-0.1358 1.355807,-0.27138 2.033312,-0.40667 -0.03361,-0.2035 -0.06751,-0.40692 -0.101666,-0.60999 -1.083024,0.0674 -2.168601,0.13529 -3.253301,0.20333 -0.711578,-0.61042 -1.423053,-1.28803 -2.134978,-1.93165 0.406934,-0.2036 0.813588,-0.40692 1.219988,-0.60999 0.643644,-2.7e-4 1.288029,-2.7e-4 1.931647,0 0.203512,-0.16964 0.406929,-0.33915 0.609994,-0.50833 -0.473506,-0.37251 -1.016392,-0.74581 -1.524984,-1.11832 -1.626534,-0.13583 -3.320814,-0.27137 -4.981618,-0.40666 0.03416,-0.61035 0.06804,-1.22026 0.101665,-1.82999 0.948711,-0.16963 1.898024,-0.27137 2.84664,-0.40666 0.610069,-2.6e-4 1.152475,-2.6e-4 1.728317,0 -0.304594,-0.37287 -0.60973,-0.81359 -0.914993,-1.21999 -1.524561,-0.33911 -3.117482,-0.67803 -4.676621,-1.01665 -1.050413,-0.3053 -2.100826,-0.61026 -3.151635,-0.91499 -0.677618,-0.74594 -1.355278,-1.49137 -2.033314,-2.23665 2.65e-4,-0.27137 2.65e-4,-0.54248 0,-0.81333 1.523762,0.37215 3.050235,0.81307 4.574956,1.21999 0.474647,-0.0341 0.949144,-0.068 1.423319,-0.10166 -0.677104,-0.54216 -1.355278,-1.0847 -2.033313,-1.62665 -1.152002,-0.88141 -2.304158,-1.76247 -3.456633,-2.64331 -0.64364,-0.23749 -1.355278,-0.47471 -2.033314,-0.71166 -0.711556,-0.77988 -1.423055,-1.55914 -2.134979,-2.33831 2.65e-4,-0.50859 2.65e-4,-1.01692 0,-1.52499 0.711554,0.27071 1.423584,0.47418 2.134979,0.71166 0.948933,0.40631 1.898024,0.81306 2.846639,1.21999 0.508524,0.13527 1.016921,0.27084 1.524985,0.40666 -0.06749,-0.71167 -0.203076,-1.35587 -0.304997,-2.03331 -0.653187,-0.22439 -1.306839,-0.44835 -1.960537,-0.67245 -0.532542,-0.18257 -1.065076,-0.36535 -1.597761,-0.54754 -1.151586,-0.57619 -2.324222,-1.16251 -3.456634,-1.72832 -0.383466,-0.43251 -0.781008,-0.87104 -1.171594,-1.3197 -0.3549555,-0.40774 -0.7117407,-0.81716 -1.0650495,-1.22194 2.646e-4,-0.64057 2.64e-4,-1.28803 0,-1.93165 1.1520015,0.40624 2.3046855,0.81307 3.4566325,1.21999 0.982903,0.33858 1.965801,0.74529 2.948304,1.11833 -0.406339,-0.44076 -0.745284,-0.88137 -1.118322,-1.32166 -1.185771,-0.50856 -2.371935,-1.01692 -3.558299,-1.52498 -0.711472,-0.40698 -1.3552765,-0.81359 -2.0333125,-1.21999 -0.508122,-0.57644 -1.016392,-1.15248 -1.524985,-1.72832 0.169702,-0.37302 0.33915,-0.74581 0.508328,-1.11832 0.677456,0.50763 1.355807,1.01639 2.033313,1.52499 0,0 2.646e-4,-3.1e-4 0,-7e-5 z"
       sodipodi:nodetypes="cccccccccccccccccccccccccccccccccccccccccccccccccccccccccccccccccccccccccccccccccccccccccccccccccccccccccccccccccccccccccccccccccccccccccccccccccccccccccccccccccccccccccccccccccccccccccccccccccccccccccccccccccccccccccccccccccccccccccccccccccccc" />
    <path
       style="fill:#000000;fill-opacity:1;stroke:#000000;stroke-width:0.26458332px;stroke-linecap:butt;stroke-linejoin:miter;stroke-opacity:1"
       d="m 158.13093,135.92161 c 0.31142,-0.33554 0.45519,-0.71895 0.36782,-1.29712 -0.0874,-0.57817 -0.43999,-1.43453 -1.01814,-2.90415 -0.57815,-1.46962 -1.3868,-3.56258 -1.97189,-4.94699 -0.5851,-1.38442 -0.9006,-1.97034 -1.09058,-2.59352 -0.18998,-0.62319 -0.24131,-1.34192 -0.45693,-2.10852 -0.21562,-0.76659 -0.59916,-1.62956 -0.83995,-3.04323 -0.2408,-1.41368 -0.33427,-3.28318 -0.62181,-4.67288 -0.28754,-1.38971 -0.76687,-2.25248 -1.07836,-3.37874 -0.3115,-1.12625 -0.45529,-2.51624 -0.59905,-4.07368 -0.14376,-1.55744 -0.28756,-3.28306 -0.40737,-5.29578 -0.1198,-2.012723 -0.21567,-4.313475 -0.21668,-6.565914 -0.001,-2.252439 0.0969,-4.553027 0.2407,-5.990778 0.1438,-1.437751 0.33553,-2.06086 0.9066,-3.465352 0.57108,-1.404493 1.5377,-3.627707 2.59199,-5.808167 1.0543,-2.18046 2.20468,-4.337426 2.89957,-5.703267 0.69489,-1.36584 0.93455,-1.941031 0.95848,-2.611713 0.0239,-0.670682 -0.16788,-1.437919 -0.31164,-2.180699 -0.14376,-0.742779 -0.23964,-1.461835 -0.28755,-2.036895 -0.0479,-0.57506 -0.0479,-1.006527 -0.31136,-1.653163 -0.26345,-0.646635 -0.79096,-1.509827 -1.05453,-2.132939 -0.26357,-0.623112 -0.26357,-1.006552 -0.0992,-1.174638 0.16438,-0.168087 0.5068,-0.119171 0.33916,-0.454436 -0.16763,-0.335264 -0.83903,-1.054623 -1.12653,-1.557991 -0.2875,-0.503368 -0.19164,-0.790932 -0.06,-0.850772 0.13165,-0.05984 0.25165,0.06016 0.671,0.479509 0.41935,0.419348 1.1622,1.162198 1.56973,1.4976 0.40752,0.335402 0.50338,0.287472 0.50336,-0.214201 -1e-5,-0.501672 -0.0962,-1.463357 -0.0936,-1.959319 0.003,-0.495963 0.18948,-0.558272 0.33294,-0.510453 0.14346,0.04782 0.28755,0.191916 0.3834,0.647086 0.0958,0.45517 0.14377,1.221978 0.5033,2.156793 0.35954,0.934815 1.03028,2.036751 1.41368,2.731636 0.3834,0.694886 0.47925,0.982428 0.55118,1.797486 0.0719,0.815058 0.11982,2.156236 0.21567,3.210697 0.0959,1.054461 0.2396,1.821125 0.16772,2.899592 -0.0719,1.078467 -0.35935,2.467935 -0.7188,3.618244 -0.35944,1.150309 -0.79068,2.060696 -1.29401,3.211156 -0.50333,1.150461 -1.07823,2.539818 -1.61267,3.975363 -0.53444,1.435546 -0.99921,2.829839 -1.41088,3.917431 -0.41167,1.087592 -0.7385,1.787948 -0.90632,2.746752 -0.16781,0.958805 -0.16781,2.156415 -0.0578,2.887627 0.11,0.731212 0.36922,1.042278 0.537,0.922304 0.16779,-0.119974 0.26363,-0.647114 0.47933,-1.00644 0.2157,-0.359326 0.55137,-0.551139 0.69499,-0.742754 0.14362,-0.191616 0.0957,-0.383504 -0.024,-0.551062 -0.11967,-0.167557 -0.31156,-0.311474 -0.38344,-0.503372 -0.0719,-0.191898 -0.024,-0.431472 0.11977,-0.551135 0.14373,-0.119663 0.28781,-0.119663 0.41042,-0.334807 0.12261,-0.215144 0.16471,-0.551957 0.28443,-0.647737 0.11973,-0.09578 0.31158,0.09607 0.49736,0.349296 0.18578,0.253225 0.38928,0.609351 0.53307,0.992752 0.14379,0.3834 0.23962,0.81463 0.35958,0.910369 0.11996,0.09574 0.26367,-0.143781 0.43128,-0.431117 0.16761,-0.287337 0.35957,-0.623251 0.35954,-0.934508 -2e-5,-0.311258 -0.1919,-0.599078 -0.22057,-0.877148 -0.0287,-0.27807 0.12472,-0.584852 0.36424,-0.752427 0.23951,-0.167575 0.57536,-0.215553 0.83872,-0.143728 0.26335,0.07183 0.45523,0.263697 0.55108,0.575081 0.0959,0.311385 0.0959,0.742717 0.13898,1.044776 0.0431,0.302058 0.14852,0.512834 0.3165,0.512719 0.16798,-1.15e-4 0.40747,-0.191714 0.52714,-0.40725 0.11967,-0.215536 0.11967,-0.551305 0.21542,-0.575262 0.0958,-0.02396 0.28763,0.21589 0.59929,0.383674 0.31165,0.167784 0.74292,0.263622 1.43756,0.646872 0.69463,0.38325 1.65358,1.054514 2.32447,1.845179 0.6709,0.790665 1.05433,1.701301 1.41386,2.252549 0.35954,0.551249 0.69497,0.742924 0.97703,1.319076 0.28206,0.576152 0.53255,1.62819 0.60446,2.682611 0.0719,1.054422 -0.0239,2.156504 -0.2875,3.115104 -0.26358,0.9586 -0.69479,1.77313 -0.95846,2.46817 -0.26367,0.69504 -0.35948,1.26992 -0.40743,1.79725 -0.0479,0.52733 -0.0479,1.00634 0.11007,1.37778 0.15802,0.37144 0.41711,0.58735 0.82255,0.78566 0.40544,0.1983 0.84078,0.3289 1.12833,0.32875 0.28756,-1.6e-4 0.38344,-0.14398 0.55086,-0.71802 0.16742,-0.57404 0.40756,-1.58262 0.78028,-2.49959 0.37272,-0.91697 0.92139,-1.81479 1.40062,-2.41376 0.47923,-0.59897 0.91071,-0.93456 1.12623,-1.19811 0.21552,-0.26355 0.21552,-0.45538 0.19159,-1.723786 -0.0239,-1.268406 -0.0719,-3.620004 -0.0459,-5.369061 0.026,-1.749057 0.11777,-2.803906 0.16569,-3.64252 0.0479,-0.838614 0.0479,-1.413871 -0.1345,-2.088923 -0.18242,-0.675052 -0.58446,-1.529379 -0.91992,-2.344077 -0.33546,-0.814699 -0.62305,-1.629548 -0.93453,-2.707768 -0.31148,-1.078219 -0.64703,-2.420388 -0.98248,-3.762213 -0.33546,-1.341825 -0.67099,-2.683932 -1.00645,-3.929911 -0.33545,-1.245979 -0.67098,-2.396355 -0.9633,-3.569462 -0.29231,-1.173107 -0.5224,-2.277567 -0.6422,-3.283963 -0.11979,-1.006396 -0.11979,-1.86921 -0.3833,-2.563919 -0.26351,-0.694709 -0.79086,-1.22205 -1.12636,-1.869151 -0.3355,-0.647101 -0.47927,-1.413911 -0.35949,-1.605564 0.11978,-0.191653 0.50329,0.191857 0.75536,0.464055 0.25208,0.272198 0.41886,0.494569 0.58675,0.470457 0.1679,-0.02411 0.35955,-0.263684 0.47923,-0.694633 0.11968,-0.43095 0.16767,-1.054741 0.16766,-1.677611 -1e-5,-0.62287 -0.048,-1.24619 -0.19171,-1.869052 -0.14375,-0.622862 -0.38347,-1.246139 -0.38472,-1.587217 -0.001,-0.341079 0.1454,-0.377741 0.39896,-0.08592 0.25357,0.291817 0.60873,1.002147 0.8244,1.505354 0.21568,0.503206 0.31152,0.838641 0.40743,1.054429 0.0959,0.215788 0.19169,0.311572 0.35951,0.119708 0.16782,-0.191864 0.40745,-0.671116 0.68282,-1.092162 0.27537,-0.421047 0.53945,-0.729136 0.74391,-0.856197 0.20447,-0.12706 0.37047,-0.01639 0.51415,0.175176 0.14369,0.191567 0.28753,0.479244 0.18506,0.732062 -0.10246,0.252818 -0.5202,0.513904 -0.81512,0.943027 -0.29493,0.429123 -0.47209,0.960596 -0.568,1.535889 -0.0959,0.575293 -0.0959,1.245935 0.0479,1.701423 0.14384,0.455488 0.43127,0.742918 0.69499,0.76675 0.26372,0.02383 0.50335,-0.215799 0.59909,-0.670711 0.0957,-0.454912 0.0478,-1.126614 0.21557,-1.653736 0.16781,-0.527122 0.55135,-0.910666 0.88663,-1.006432 0.33528,-0.09577 0.62304,0.09607 0.69495,0.47924 0.0719,0.383168 -0.0719,0.958394 -0.26363,1.485703 -0.19173,0.527309 -0.43123,1.006309 -0.55112,1.509729 -0.11989,0.50342 -0.11989,1.030253 -0.14385,1.605508 -0.024,0.575254 -0.0719,1.197978 -0.26355,1.725252 -0.19167,0.527273 -0.527,0.958409 -0.74276,1.317945 -0.21576,0.359535 -0.31154,0.646879 -0.38349,0.934599 -0.0719,0.28772 -0.11981,0.57496 0.14403,1.222589 0.26384,0.64763 0.83835,1.653013 1.61583,2.964607 0.77747,1.311593 1.71466,2.857951 2.43355,4.511377 0.7189,1.653425 1.19813,3.378666 1.68644,4.788455 0.48831,1.40979 0.94946,2.424319 1.23704,3.814197 0.28758,1.389878 0.38342,3.115007 0.40782,5.271846 0.0244,2.15684 -0.0244,4.840286 -0.26402,7.452355 -0.23962,2.61206 -0.67091,5.19978 -1.05432,7.14084 -0.38341,1.94106 -0.71885,3.2349 -0.76292,4.62433 -0.0441,1.38942 0.18773,2.7802 0.2836,4.62548 0.0959,1.84529 0.0479,4.09744 -0.11979,6.49387 -0.16774,2.39642 -0.45526,4.93618 -0.64698,6.90122 -0.19171,1.96503 -0.28756,3.35472 -0.35942,4.1455 -0.0719,0.79078 -0.11978,0.98245 0.64935,1.24174 0.76913,0.25929 2.44202,0.60371 4.59853,0.84332 2.15651,0.2396 4.84068,0.3834 7.33262,0.38186 2.49195,-0.002 4.69694,-0.14227 6.32297,-0.0142 1.62603,0.12809 2.54335,0.49502 3.297,1.11086 0.75365,0.61584 1.25905,1.39692 1.69048,1.87624 0.43143,0.47932 0.76688,0.62309 1.20817,0.84419 0.44128,0.2211 0.94853,0.49778 1.18812,0.92889 0.2396,0.43111 0.19167,1.00632 0.27095,1.4489 0.0793,0.44258 0.25614,0.70786 0.18433,1.11516 -0.0718,0.4073 -0.40722,0.93437 -0.57506,1.46173 -0.16784,0.52736 -0.16784,1.05423 -0.16784,1.48564 0,0.43142 0,0.76673 -0.26365,1.15032 -0.26365,0.38359 -0.79043,0.81459 -1.36938,1.24052 -0.57895,0.42593 -1.09842,0.77224 -1.38612,1.10777 -0.28771,0.33552 -0.28771,0.62292 -0.41227,0.82911 -0.12457,0.20619 -0.45024,0.36903 -0.97785,0.48895 -0.52762,0.11993 -1.29358,0.21567 -1.77289,0.26362 -0.47931,0.0479 -0.67094,0.0479 -0.76692,0.31176 -0.096,0.26383 -0.096,0.79028 -0.19175,1.14977 -0.0958,0.35949 -0.28738,0.5511 -0.62319,0.64709 -0.33581,0.096 -0.8144,0.096 -1.17389,0.11992 -0.35949,0.024 -0.59899,0.0719 -0.79089,0.33562 -0.1919,0.26377 -0.33549,0.74241 -0.79092,1.17395 -0.45544,0.43153 -1.22175,0.81469 -2.08463,1.00647 -0.86289,0.19178 -1.72515,0.19178 -2.32432,0.50323 -0.59917,0.31145 -0.88665,0.9343 -1.41397,1.22201 -0.52733,0.2877 -1.29375,0.2398 -1.82102,0.47935 -0.52726,0.23955 -0.81472,0.76656 -1.36613,0.8625 -0.55141,0.0959 -1.36566,-0.23934 -2.06055,-0.16757 -0.69489,0.0718 -1.26991,0.55097 -1.84522,0.69484 -0.57532,0.14388 -1.15014,-0.0477 -1.94097,1.7e-4 -0.79084,0.0479 -1.797,0.33537 -2.39621,0.43127 -0.59922,0.0959 -0.79084,9e-5 -0.8633,1.00696 -0.0725,1.00688 -0.0235,3.21028 -0.43089,6.32566 -0.40738,3.11539 -1.26994,7.18858 -1.77045,9.82486 -0.50052,2.63628 -0.64974,3.92955 -0.67371,5.91881 -0.024,1.98925 0.0719,4.72037 0.16996,6.61328 0.0981,1.8929 0.18943,2.85175 0.12121,4.09853 -0.0682,1.24679 -0.31511,2.82684 -0.55291,5.10375 -0.2378,2.27692 -0.48111,5.39121 -0.60093,7.04467 -0.11983,1.65345 -0.11983,1.98891 0.0947,2.18646 0.21455,0.19754 0.55244,0.28202 0.72035,0.56691 0.16791,0.2849 0.11949,0.76914 0.14345,1.08082 0.024,0.31168 0.11975,0.45536 0.47938,0.71908 0.35963,0.26372 0.9824,0.64697 1.38969,1.12609 0.4073,0.47912 0.59902,1.0543 0.59907,1.67734 4e-5,0.62305 -0.19161,1.29382 -0.3977,1.84986 -0.2061,0.55604 -0.4648,1.07344 -0.56071,2.12837 -0.0959,1.05493 -0.048,2.68333 0.0258,4.09707 0.0739,1.41374 0.16575,2.51617 0.11854,3.63847 -0.0472,1.12229 -0.24027,2.23244 -0.68957,2.87798 -0.4493,0.64554 -1.17992,0.84038 -1.87504,0.86437 -0.69512,0.024 -1.3658,-0.11972 -1.89316,-0.88685 -0.52736,-0.76712 -0.91065,-2.15655 -1.19819,-3.40257 -0.28754,-1.24602 -0.47926,-2.34845 -0.62303,-3.16313 -0.14377,-0.81469 -0.23964,-1.34196 -0.31057,-1.00672 -0.0709,0.33524 -0.12072,1.62964 -0.19262,2.92378 -0.0719,1.29413 -0.16772,2.63575 -0.24296,3.49797 -0.0752,0.86222 -0.11644,1.15065 -0.45142,1.37037 -0.33498,0.21972 -0.8629,0.30771 -1.46324,0.28867 -0.60033,-0.019 -1.3168,-0.17257 -1.77225,-0.60411 -0.45545,-0.43153 -0.69501,-1.15021 -0.86272,-2.37218 -0.16771,-1.22196 -0.26358,-2.94765 -0.19167,-4.45725 0.0719,-1.50959 0.31157,-2.80377 0.28758,-3.85796 -0.024,-1.0542 -0.3116,-1.86912 -0.43133,-2.75691 -0.11972,-0.88779 -0.0719,-1.8441 0.21569,-2.61083 0.2876,-0.76672 0.81493,-1.34199 1.1264,-1.70142 0.31148,-0.35944 0.40737,-0.50327 0.55086,-1.24469 0.14349,-0.74141 0.3356,-2.08618 0.45539,-3.52377 0.11979,-1.43759 0.16773,-2.97155 0.0489,-4.42837 -0.11883,-1.45682 -0.4084,-2.85642 -0.67197,-4.15032 -0.26358,-1.29391 -0.50324,-2.49223 -0.55387,-3.69063 -0.0506,-1.1984 0.0986,-2.49196 0.14654,-3.76182 0.0479,-1.26986 -3e-5,-2.56416 -0.0719,-4.36115 -0.0719,-1.79698 -0.16775,-4.09786 -0.19169,-5.41582 -0.0239,-1.31796 0.024,-1.65347 -0.6464,-3.28156 -0.67039,-1.62809 -2.06146,-4.55414 -3.13719,-7.1107 -1.07572,-2.55657 -1.84774,-4.77611 -2.29966,-6.35814 -0.45192,-1.58203 -0.60242,-2.6355 -0.79404,-3.21045 -0.19163,-0.57496 -0.43131,-0.71877 -0.91047,-0.81634 -0.47917,-0.0976 -1.10221,-0.14209 -1.74931,-0.16606 -0.6471,-0.024 -1.36576,-0.024 -1.86919,-0.21576 -0.50342,-0.19178 -0.83877,-0.57504 -1.07825,-0.76673 -0.23949,-0.19169 -0.38327,-0.19169 -0.62323,-0.21568 -0.23997,-0.024 -0.57482,-0.0718 -0.81463,-0.28771 -0.23982,-0.21588 -0.3835,-0.59904 -0.45537,-0.98243 -0.0719,-0.38339 -0.0719,-0.86279 -0.21719,-1.0368 -0.14534,-0.17401 -0.52531,-0.0655 -0.73401,-0.13988 -0.20869,-0.0744 -0.31885,-0.40489 -0.54477,-0.70436 -0.22592,-0.29947 -0.63666,-0.65887 -1.18771,-0.82662 -0.55104,-0.16775 -1.26989,-0.16775 -1.86918,-0.40746 -0.59929,-0.23972 -1.07837,-0.7188 -1.58155,-1.10218 -0.50317,-0.38338 -1.03035,-0.67093 -1.58146,-0.81474 -0.55111,-0.1438 -1.12612,-0.1438 -1.56917,-0.35095 -0.44305,-0.20716 -0.70746,-0.5597 -0.85122,-0.96715 -0.14376,-0.40746 -0.14376,-0.83884 -0.33522,-1.05438 -0.19145,-0.21553 -0.57509,-0.21553 -1.15241,-0.32891 -0.57733,-0.11338 -1.43564,-0.36582 -1.99173,-0.78291 -0.55608,-0.41709 -0.83399,-0.97291 -1.31302,-1.26042 -0.47904,-0.2875 -1.15012,-0.2875 -1.53369,-0.64719 -0.38357,-0.3597 -0.47939,-1.0783 -0.54928,-1.70142 -0.0699,-0.62312 -0.1218,-1.246 -0.21764,-1.82096 -0.0958,-0.57496 -0.23967,-1.1503 -0.2636,-1.74933 -0.0239,-0.59903 0.072,-1.22226 0.38346,-1.5576 0.31151,-0.33533 0.83895,-0.38328 0.83894,-0.7665 -2e-5,-0.38322 -0.52749,-1.10249 0.31129,-1.46191 0.83877,-0.35942 3.04349,-0.35942 5.58337,-0.26357 2.53988,0.0959 5.41576,0.28757 8.14743,0.31153 2.73167,0.024 5.31987,-0.11984 7.28476,-0.26362 1.96489,-0.14377 3.30696,-0.28756 4.2175,-0.50328 0.91055,-0.21571 1.38991,-0.50332 1.70133,-0.83887 z"
       id="path852"
       inkscape:connector-curvature="0"
       inkscape:path-effect="#path-effect854"
       inkscape:original-d="m 158.29845,135.96979 c 0.14404,-0.38367 0.28782,-0.76708 0.43133,-1.15022 -0.33494,-0.76644 -0.6707,-1.62974 -1.00644,-2.44421 -0.86226,-2.10865 -1.62921,-4.21772 -2.44421,-6.32619 -0.33519,-0.67118 -0.67069,-1.24633 -1.00644,-1.8691 -0.0477,-0.6232 -0.0956,-1.34218 -0.14377,-2.01287 -0.38301,-0.86262 -0.76655,-1.72559 -1.15022,-2.58799 -0.0956,-1.96494 -0.19144,-3.83432 -0.28755,-5.75108 -0.47893,-0.86281 -0.95825,-1.72559 -1.43777,-2.58798 -0.1435,-1.38997 -0.28729,-2.77996 -0.43133,-4.16954 -0.14349,-1.72529 -0.28729,-3.45091 -0.43133,-5.17597 -0.0956,-2.300373 -0.19144,-4.601127 -0.28756,-6.901292 0.0961,-2.204604 0.19197,-4.505278 0.28756,-6.757519 0.19194,-0.623221 0.38366,-1.246331 0.5751,-1.869099 0.91039,-2.203728 1.91729,-4.409427 2.87554,-6.613742 1.15032,-2.156605 2.3007,-4.313573 3.45065,-6.469965 0.23986,-0.575286 0.47952,-1.150479 0.71889,-1.725321 -0.19134,-0.766651 -0.38315,-1.533888 -0.57511,-2.300433 -0.0956,-0.718973 -0.19144,-1.438034 -0.28756,-2.156653 2.7e-4,-0.431461 2.7e-4,-0.862928 0,-1.293995 -0.52659,-0.862396 -1.0541,-1.725586 -1.58155,-2.587985 2.7e-4,-0.383635 2.7e-4,-0.767075 0,-1.150215 0.33552,-2.65e-4 0.67123,0.09559 1.00645,0.143777 -0.67026,-0.718674 -1.34166,-1.438034 -2.01288,-2.156656 0.0961,-0.287813 0.19197,-0.575371 0.28755,-0.86266 0.14388,0.191225 0.28782,0.287289 0.43133,0.431331 0.71915,0.670693 1.43804,1.437505 2.15666,2.156653 0.0961,-0.04819 0.19196,-0.09612 0.28755,-0.143777 -0.0953,-0.955603 -0.19144,-1.91729 -0.28755,-2.875539 0.0961,-0.04818 0.28782,-0.09611 0.43133,-0.143777 0.14372,0.143195 0.28782,0.28729 0.43133,0.431331 0.0482,0.766546 0.0961,1.533356 0.14378,2.300431 0.67144,1.102381 1.34218,2.204317 2.01287,3.306871 0.0961,0.287308 0.19197,0.574844 0.28756,0.862663 0.0482,1.342393 0.0961,2.683571 0.14377,4.025754 0.14407,0.766691 0.28782,1.533356 0.43134,2.300431 -0.28737,1.389957 -0.57485,2.779424 -0.86267,4.169534 -0.43116,0.910521 -0.86239,1.82091 -1.29399,2.731762 -0.57505,1.390065 -1.14995,2.779424 -1.72532,4.169532 -0.47911,1.485773 -0.95825,2.875274 -1.43777,4.313309 -0.38323,0.71878 -0.6707,1.437505 -1.00644,2.156655 2.6e-4,1.198407 2.6e-4,2.396017 0,3.594423 0.19201,0.287354 0.47952,0.574844 0.71888,0.862664 0.0961,-0.527495 0.19197,-1.05463 0.28756,-1.581547 0.33555,-0.191858 0.67122,-0.38367 1.00643,-0.575109 -0.0476,-0.191789 -0.0956,-0.38367 -0.14377,-0.575107 -0.19125,-0.143901 -0.38314,-0.287819 -0.57511,-0.431331 0.0482,-0.239946 0.0961,-0.479523 0.14378,-0.718886 0.23959,-2.65e-4 0.38367,-2.65e-4 0.5751,0 0.0481,-0.430999 0.0961,-0.767075 0.14378,-1.150216 0.19182,0.191292 0.38367,0.383141 0.57511,0.575109 0.14404,0.335214 0.38367,0.670695 0.57511,1.006438 0.0961,0.431176 0.19197,0.862396 0.28755,1.293993 0.14411,-0.240001 0.28782,-0.479521 0.43133,-0.718884 0.19172,-0.335309 0.38367,-0.671224 0.57511,-1.00644 -0.19126,-0.28755 -0.38314,-0.575371 -0.57511,-0.862661 0.19193,-0.239842 0.28782,-0.575374 0.43133,-0.862663 0.33538,-0.04814 0.67123,-0.09612 1.00644,-0.143775 0.1918,0.191267 0.38367,0.38314 0.57511,0.575106 2.7e-4,0.431067 2.7e-4,0.862399 0,1.293993 0.0482,0.191555 0.19197,0.38314 0.28756,0.575109 0.24002,-0.192075 0.47952,-0.38367 0.71888,-0.575109 2.6e-4,-0.239602 2.6e-4,-0.575371 0,-0.862661 0.19179,0.239144 0.38367,0.478991 0.57511,0.718883 0.43165,0.0956 0.86292,0.19144 1.29399,0.287555 0.95834,0.670391 1.91729,1.341654 2.87554,2.012878 0.38365,0.910273 0.76707,1.820911 1.15022,2.731762 0.33579,0.191466 0.67122,0.383141 1.00644,0.575109 0.23983,0.958004 0.47952,2.012612 0.71888,3.019317 -0.0956,1.102233 -0.19144,2.204314 -0.28756,3.306864 -0.43117,0.81469 -0.86239,1.62921 -1.29399,2.44421 -0.0956,0.57507 -0.19143,1.14995 -0.28755,1.72533 2.6e-4,0.47924 2.6e-4,0.95825 0,1.43777 0.33593,0.23949 0.57537,0.47899 0.86266,0.71888 0.5274,0.1435 0.95878,0.28729 1.43777,0.43133 0.0961,-0.14399 0.19197,-0.28782 0.28756,-0.43133 0.23938,-1.00456 0.47952,-2.01314 0.71888,-3.01931 0.52728,-0.81475 1.05463,-1.72559 1.58155,-2.58799 0.43144,-0.33562 0.86292,-0.67122 1.29399,-1.00644 2.6e-4,-0.19184 2.6e-4,-0.38367 0,-0.57511 -0.0476,-2.345377 -0.0956,-4.696975 -0.14378,-7.045067 0.0961,-1.150356 0.19197,-2.204845 0.28756,-3.306871 2.6e-4,-0.575223 2.6e-4,-1.15048 0,-1.725325 -0.38297,-0.766722 -0.76655,-1.629735 -1.15022,-2.444207 -0.28725,-0.814888 -0.57484,-1.629738 -0.86266,-2.44421 -0.33515,-1.341933 -0.6707,-2.6841 -1.00644,-4.025755 -0.33517,-1.341995 -0.6707,-2.684102 -1.00644,-4.025754 -0.33517,-1.150321 -0.67069,-2.300698 -1.00644,-3.450648 -0.23933,-1.198227 -0.47899,-2.300695 -0.71888,-3.450648 2.6e-4,-0.862775 2.6e-4,-1.725589 0,-2.587985 -0.52676,-0.527286 -1.0541,-1.054629 -1.58155,-1.581547 -0.14351,-0.767075 -0.28729,-1.533885 -0.43133,-2.30043 0.38356,0.383034 0.76707,0.766545 1.15022,1.150215 0.14404,0.143512 0.28781,0.38314 0.43133,0.575106 0.19201,-0.239945 0.38366,-0.47952 0.5751,-0.718884 0.0481,-0.622543 0.0961,-1.246333 0.14378,-1.869101 -0.0476,-0.623014 -0.0956,-1.24633 -0.14378,-1.869101 -0.23927,-0.623054 -0.47899,-1.246331 -0.71888,-1.869099 0.23984,-0.04818 0.38367,-0.09612 0.57511,-0.143777 0.33519,0.621758 0.67122,1.341654 1.00643,2.012876 0.0961,0.335269 0.19197,0.670695 0.28756,1.00644 0.0962,0.09564 0.19197,0.191437 0.28755,0.287555 0.2399,-0.479523 0.47952,-0.958779 0.71889,-1.43777 0.28763,-0.383418 0.57537,-0.671224 0.86266,-1.00644 0.14392,0.04762 0.28782,0.191439 0.43133,0.287554 0.14398,0.287168 0.28782,0.574844 0.43133,0.862661 -0.33534,0.239453 -0.76654,0.478994 -1.15021,0.718886 -0.1916,0.623271 -0.38314,1.149951 -0.57511,1.725324 2.6e-4,0.575159 2.6e-4,1.245801 0,1.869101 0.28794,0.287412 0.57537,0.574842 0.86266,0.862661 0.23989,-0.239892 0.47952,-0.47952 0.71888,-0.718886 -0.0476,-0.670481 -0.0956,-1.342181 -0.14377,-2.012876 0.38353,-0.383529 0.76707,-0.767075 1.15021,-1.150215 0.28762,0.191304 0.57538,0.38314 0.86267,0.575106 -0.14349,0.574723 -0.28729,1.149951 -0.43134,1.725324 -0.23949,0.479251 -0.47899,0.95825 -0.71888,1.43777 2.6e-4,0.527267 2.6e-4,1.0541 0,1.581547 -0.0477,0.62308 -0.0956,1.245804 -0.14378,1.869101 -0.33536,0.431263 -0.67069,0.862396 -1.00643,1.293992 -0.0957,0.287486 -0.19144,0.574845 -0.28756,0.862661 -0.0477,0.287608 -0.0956,0.574844 -0.14378,0.862663 0.57598,1.007224 1.15048,2.012612 1.72533,3.019317 0.95886,1.629346 1.91729,3.162829 2.87554,4.744641 0.47954,1.725141 0.95878,3.45038 1.43777,5.175969 0.47957,1.102141 0.95877,2.108465 1.43777,3.163094 0.0961,1.725255 0.19196,3.450383 0.28755,5.175972 -0.0477,2.588093 -0.0956,5.271556 -0.14378,7.90773 -0.43111,2.58799 -0.8624,5.17571 -1.29399,7.76396 -0.33525,1.29388 -0.67069,2.58772 -1.00644,3.88198 0.23995,1.48579 0.47952,2.87527 0.71889,4.31331 -0.0477,2.25258 -0.0956,4.50474 -0.14378,6.75751 -0.28733,2.5401 -0.57485,5.07986 -0.86266,7.62018 -0.0956,1.38974 -0.19144,2.77943 -0.28756,4.16954 -0.0477,0.19147 -0.0956,0.38314 -0.14377,0.5751 1.58437,0.33576 3.25921,0.6707 4.88841,1.00644 2.68377,0.1435 5.36794,0.28729 8.05151,0.43133 2.30049,-0.14402 4.50528,-0.28782 6.75752,-0.43133 1.00658,0.3831 1.91729,0.76655 2.87554,1.15022 0.52737,0.86227 1.05463,1.62921 1.58155,2.44421 0.33577,0.14352 0.67122,0.28729 1.00644,0.43133 0.52724,0.33509 1.05463,0.57484 1.58154,0.86266 -0.0477,0.57474 -0.0956,1.14995 -0.14377,1.72532 0.24001,0.28744 0.38367,0.57485 0.57511,0.86266 -0.33529,0.52704 -0.6707,1.0541 -1.00645,1.58155 2.7e-4,0.52723 2.7e-4,1.0541 0,1.58155 2.7e-4,0.33538 2.7e-4,0.67069 0,1.00644 -0.52733,0.4314 -1.0541,0.8624 -1.58154,1.29399 -0.62311,0.4313 -1.14995,0.76655 -1.72532,1.15022 2.6e-4,0.28744 2.6e-4,0.57484 0,0.86266 -0.23959,0.14364 -0.57485,0.28729 -0.86267,0.43133 -0.76739,0.0957 -1.53335,0.19144 -2.30043,0.28755 -0.19151,-2.6e-4 -0.38314,-2.6e-4 -0.57511,0 2.7e-4,0.52765 2.7e-4,1.0541 0,1.58155 -0.19153,0.19153 -0.38314,0.38314 -0.5751,0.57511 -0.47966,-2.7e-4 -0.95825,-2.7e-4 -1.43777,0 -0.2395,0.0477 -0.479,0.0956 -0.71889,0.14377 -0.14369,0.47961 -0.28729,0.95825 -0.43133,1.43777 -0.76705,0.3834 -1.53336,0.76655 -2.30043,1.15022 -0.95865,-2.6e-4 -1.82091,-2.6e-4 -2.73176,0 -0.28738,0.62295 -0.57485,1.2458 -0.86267,1.8691 -0.76693,-0.0482 -1.53335,-0.0961 -2.30043,-0.14378 -0.28738,0.52709 -0.57484,1.0541 -0.86266,1.58155 -0.81496,-0.33594 -1.62921,-0.67122 -2.44421,-1.00644 -0.57493,0.47907 -1.14995,0.95825 -1.72532,1.43777 -0.57513,-0.19206 -1.14995,-0.38367 -1.72533,-0.5751 -1.00645,0.28736 -2.01261,0.57484 -3.01931,0.86266 -0.1915,-0.0962 -0.38314,-0.19197 -0.57511,-0.28756 0.0482,2.10963 0.0961,4.31305 0.14378,6.46997 -0.8625,4.0739 -1.72506,8.14709 -2.58799,12.22104 -0.14352,1.19797 -0.28729,2.49187 -0.43133,3.7382 0.0961,2.73214 0.19197,5.46326 0.28755,8.19529 0.0961,1.0542 0.19197,2.01261 0.28756,3.01931 -0.23942,1.48579 -0.47899,3.06698 -0.71888,4.60087 -0.23942,3.01964 -0.479,6.13422 -0.71889,9.20172 2.6e-4,0.23939 2.6e-4,0.57485 0,0.86267 0.43199,0.0957 0.76707,0.19143 1.15021,0.28755 2.7e-4,0.47876 -0.0956,0.95825 -0.14377,1.43777 0.0962,0.1436 0.19197,0.28729 0.28755,0.43133 0.62356,0.3833 1.24633,0.76655 1.8691,1.15022 0.19195,0.57477 0.38367,1.14995 0.57511,1.72532 -0.19149,0.67088 -0.38314,1.34165 -0.57511,2.01288 -0.23947,0.43126 -0.47899,0.95825 -0.71888,1.43777 0.0482,1.63028 0.0961,3.25868 0.14377,4.88841 0.0961,1.19807 0.19197,2.30017 0.28756,3.45065 -0.14354,1.10226 -0.38314,2.20432 -0.57511,3.30687 -0.71882,0.14355 -1.43751,0.38314 -2.15665,0.57511 -0.67099,-0.1441 -1.34166,-0.28782 -2.01288,-0.43133 -0.38326,-1.39052 -0.76655,-2.77995 -1.15022,-4.16953 -0.19141,-1.10242 -0.38314,-2.20485 -0.57511,-3.30688 -0.0956,-0.52734 -0.19143,-1.05462 -0.28755,-1.58154 -0.0476,1.1974 -0.0956,2.49187 -0.14378,3.7382 -0.0956,1.34195 -0.19143,2.68357 -0.28755,4.02575 -0.0477,0.38323 -0.0956,0.6707 -0.14378,1.00645 -0.62332,0.0957 -1.14995,0.19143 -1.72532,0.28755 -0.62309,-0.14412 -1.34166,-0.28782 -2.01288,-0.43133 -0.23943,-0.71936 -0.47899,-1.43804 -0.71888,-2.15666 -0.0956,-1.72521 -0.19144,-3.45091 -0.28756,-5.17597 0.23986,-1.29407 0.47953,-2.58825 0.71889,-3.88198 -0.28722,-0.81481 -0.57485,-1.62973 -0.86266,-2.4442 0.0961,-0.9586 0.0961,-1.9173 0.14377,-2.87554 0.5273,-0.57521 1.05463,-1.15048 1.58155,-1.72533 0.0961,-0.14397 0.19197,-0.28782 0.28755,-0.43133 0.19156,-1.33933 0.38367,-2.6841 0.57511,-4.02575 0.0482,-1.53355 0.0961,-3.06751 0.14378,-4.60087 -0.23932,-1.38986 -0.57484,-2.77995 -0.86266,-4.16953 -0.23933,-1.19823 -0.47899,-2.39655 -0.71889,-3.59442 0.14402,-1.19821 0.28782,-2.4924 0.43133,-3.7382 -0.0476,-1.29396 -0.0956,-2.58826 -0.14377,-3.88198 -0.0956,-2.30025 -0.19144,-4.60113 -0.28756,-6.9013 0.0482,-0.33571 0.0961,-0.67122 0.14378,-1.00644 -1.38835,-2.92114 -2.77942,-5.84719 -4.16953,-8.77039 -0.7186,-2.20476 -1.53336,-4.40943 -2.30043,-6.61374 -0.14351,-0.95872 -0.28729,-2.01315 -0.43134,-3.01932 -0.23931,-0.14401 -0.47899,-0.28782 -0.71888,-0.43133 -0.71885,-0.0482 -1.34165,-0.0961 -2.01288,-0.14378 -0.62299,-2.6e-4 -1.34165,-2.6e-4 -2.01288,0 -0.33534,-0.38382 -0.67069,-0.76707 -1.00643,-1.15021 -0.14351,-2.7e-4 -0.28729,-2.7e-4 -0.43134,0 -0.33583,-0.0483 -0.67069,-0.0961 -1.00643,-0.14378 -0.14361,-0.38392 -0.28729,-0.76708 -0.43134,-1.15022 2.7e-4,-0.38352 2.7e-4,-0.86292 0,-1.29399 -0.28711,0.0955 -0.67069,0.19144 -1.00643,0.28755 -0.0957,-0.24011 -0.19144,-0.57537 -0.28756,-0.86266 -0.33503,-0.33555 -0.76654,-0.67122 -1.15021,-1.00644 -0.71866,-2.6e-4 -1.43751,-2.6e-4 -2.15666,0 -0.47917,-0.47969 -0.95825,-0.95877 -1.43777,-1.43776 -0.52692,-0.28782 -1.0541,-0.57538 -1.58155,-0.86267 -0.57494,-2.6e-4 -1.14995,-2.6e-4 -1.72532,0 -0.28742,-0.43179 -0.57484,-0.76707 -0.86266,-1.15021 2.6e-4,-0.43155 2.6e-4,-0.86293 0,-1.294 -0.38291,-2.6e-4 -0.76655,-2.6e-4 -1.15022,0 -0.76707,-0.24005 -1.6292,-0.47952 -2.44421,-0.71888 -0.33528,-0.57549 -0.57484,-1.15048 -0.86266,-1.72533 -0.67057,-0.0482 -1.34165,-2.6e-4 -2.01287,0 -0.0956,-0.71943 -0.19144,-1.43803 -0.28756,-2.15665 -0.0476,-0.52728 -0.0956,-1.15048 -0.14378,-1.72532 -0.14345,-0.57514 -0.28728,-1.15048 -0.43133,-1.72533 0.0961,-0.62309 0.19197,-1.24633 0.28756,-1.8691 0.52719,-0.0482 1.05463,-0.0961 1.58155,-0.14378 -0.52664,-0.71875 -1.0541,-1.43803 -1.58155,-2.15665 2.2047,-2.6e-4 4.40942,-2.6e-4 6.61374,0 2.87546,0.19142 5.75134,0.38314 8.62662,0.57511 2.58803,-0.14403 5.17623,-0.28782 7.76395,-0.43133 1.34204,-0.14403 2.68411,-0.28782 4.02576,-0.43133 0.47942,-0.28776 0.95878,-0.57537 1.43777,-0.86266 z" />
  </g>
</svg>
